<svg xmlns="http://www.w3.org/2000/svg" viewBox="0 0 400 300" width="406" height="306" class="illustration styles_illustrationTablet__1DWOa"><g id="_483_data_organization_flatline" data-name="#483_data_organization_flatline"><path d="M107.17,204.37s-2.57-.19-2.94-3.85C103.9,197.31,92.76,95.1,90,69.85a5.87,5.87,0,0,1,5-6.44l159.25-24A5,5,0,0,1,260,44.59L255.7,148.94Z" fill="#231f20"></path><path d="M107.17,204.87h0s-3-.27-3.41-4.3c-.33-3.26-11.9-109.42-14.22-130.67a6.36,6.36,0,0,1,5.39-7l159.25-24a5.49,5.49,0,0,1,6.31,5.67L256.2,149a.51.51,0,0,1-.33.45L107.35,204.84A.57.57,0,0,1,107.17,204.87ZM255,39.88a4,4,0,0,0-.68,0L95,63.9a5.35,5.35,0,0,0-4.53,5.89C92.82,91,104.39,197.21,104.73,200.47c.28,2.82,2,3.31,2.39,3.39l148.09-55.27,4.25-104A4.5,4.5,0,0,0,255,39.88Z" fill="#231f20"></path><polygon points="110.8 193.48 98.41 73.63 255.8 47.35 250.07 143.08 110.8 193.48" fill="#fff"></polygon><path d="M110.8,193.94a.45.45,0,0,1-.25-.07.51.51,0,0,1-.21-.34L98,73.68a.47.47,0,0,1,.38-.5L255.73,46.9a.49.49,0,0,1,.38.11.51.51,0,0,1,.15.37l-5.73,95.73a.45.45,0,0,1-.3.4L111,193.91A.4.4,0,0,1,110.8,193.94ZM98.91,74l12.28,118.84,138.45-50.09,5.67-94.86Z" fill="#231f20"></path><path d="M116.68,160.36a.56.56,0,0,1-.42-.18.57.57,0,0,1,0-.79L227.05,60.86a.57.57,0,0,1,.79,0,.55.55,0,0,1-.05.78L117.05,160.22A.54.54,0,0,1,116.68,160.36Z" fill="#d1d3d4"></path><path d="M107.17,204.37l-.18,4.44a.85.85,0,0,0,.36.73l85.87,61.93a6.44,6.44,0,0,0,6.59.57L350.18,198.8a3.27,3.27,0,0,0,1.83-2.93v-2.75l-183.26,11.2Z" fill="#231f20"></path><path d="M197,273.19a7,7,0,0,1-4.07-1.31L107.05,210a1.36,1.36,0,0,1-.56-1.16l.18-4.44a.5.5,0,0,1,.5-.48l61.58-.05L352,192.62a.51.51,0,0,1,.38.13.51.51,0,0,1,.15.37v2.75a3.76,3.76,0,0,1-2.11,3.37L200,272.49A7,7,0,0,1,197,273.19Zm-89.34-68.32-.16,4a.37.37,0,0,0,.15.31l85.87,61.92a5.92,5.92,0,0,0,6.08.53L350,198.35a2.77,2.77,0,0,0,1.55-2.48v-2.22L168.78,204.82Z" fill="#231f20"></path><path d="M107.68,203.76l148-54.82L351,191.8a1.62,1.62,0,0,1,.11,3L198,266.53a4.76,4.76,0,0,1-4.8-.43l-85.73-61A.79.79,0,0,1,107.68,203.76Z" fill="#fff"></path><path d="M196,267.44a5.21,5.21,0,0,1-3-1l-85.73-61a1.24,1.24,0,0,1,.29-2.18l148-54.82a.47.47,0,0,1,.35,0l95.28,42.86a2.08,2.08,0,0,1,.12,3.81L198.22,267A5.2,5.2,0,0,1,196,267.44Zm59.68-118L107.84,204.19h0a.33.33,0,0,0-.21.26.31.31,0,0,0,.14.31l85.73,61a4.33,4.33,0,0,0,4.34.39L350.9,194.36a1.14,1.14,0,0,0,.66-1.09,1.16,1.16,0,0,0-.74-1Zm-148,54.33h0Z" fill="#231f20"></path><path d="M176,238a8.07,8.07,0,0,1-4.48-1.36l-38.27-25.51a3.68,3.68,0,0,1,.76-6.52l122.58-45.33a.55.55,0,0,1,.42,0l44.32,19.55a3.22,3.22,0,0,1,0,5.89L179.22,237.35A8.25,8.25,0,0,1,176,238Zm80.77-77.6L134.4,205.66a2.57,2.57,0,0,0-.54,4.55l38.27,25.51a7,7,0,0,0,6.65.61h0l122.08-52.61a2.07,2.07,0,0,0,1.27-1.92,2.1,2.1,0,0,0-1.25-1.93Z" fill="#d1d3d4"></path><path d="M253.27,234.47a1.77,1.77,0,0,1-.84-.21L230,222.44a1.81,1.81,0,0,1,.12-3.26l43.41-18.89h0a4.89,4.89,0,0,1,4,.05l21.37,9.93a1.81,1.81,0,0,1,0,3.28L254,234.3A1.83,1.83,0,0,1,253.27,234.47ZM274,201.31l-43.4,18.89a.7.7,0,0,0,0,1.26l22.42,11.82a.68.68,0,0,0,.62,0l44.85-20.75a.7.7,0,0,0,0-1.27L277,201.35a3.77,3.77,0,0,0-3.07,0Z" fill="#d1d3d4"></path><polygon points="134.16 100.69 132.75 84.93 231.54 68.88 231.54 150.04 140.35 170.37 140.35 165.73 134.16 100.69" fill="#231f20"></polygon><path d="M140.35,170.87a.5.5,0,0,1-.5-.5v-4.64l-6.19-65h0L132.25,85a.5.5,0,0,1,.42-.54l98.79-16.05a.52.52,0,0,1,.58.5V150a.49.49,0,0,1-.39.48l-91.19,20.33Zm-5.69-70.22,6.19,65v4.05L231,149.64V69.47L133.29,85.35l1.37,15.3Z" fill="#231f20"></path><polygon points="135.04 109.99 133.13 89.19 200.89 78.31 185.21 129.69 135.04 109.99" fill="#fff"></polygon><path d="M185.21,130.15a.45.45,0,0,1-.16,0l-50.17-19.7a.47.47,0,0,1-.29-.39l-1.91-20.8a.44.44,0,0,1,.38-.49l67.75-10.88a.44.44,0,0,1,.42.15.45.45,0,0,1,.09.43l-15.67,51.39a.47.47,0,0,1-.24.28A.45.45,0,0,1,185.21,130.15Zm-49.74-20.48,49.45,19.42,15.32-50.21L133.62,89.57Z" fill="#231f20"></path><path d="M146.12,151.84c-.28-1.69-5.59-57.86-5.59-57.86l35.86-6.24v-6.8l41.94-8,3.29,4.47,20.66-3.6,1.12,52.37Z" fill="#e6e7e8"></path><path d="M146.12,152.3a.42.42,0,0,1-.24-.07.45.45,0,0,1-.21-.31c-.28-1.69-5.38-55.6-5.6-57.89a.46.46,0,0,1,.38-.5l35.48-6.17V80.94a.46.46,0,0,1,.38-.45l41.94-8a.46.46,0,0,1,.45.18l3.12,4.24,20.38-3.55a.45.45,0,0,1,.53.44l1.13,52.37a.46.46,0,0,1-.34.45l-97.28,25.72ZM141,94.36c.47,4.94,4.87,51.38,5.49,56.91l96.43-25.49L241.83,74.3l-20.14,3.51a.47.47,0,0,1-.44-.18l-3.12-4.23-41.28,7.92v6.42a.44.44,0,0,1-.38.45Z" fill="#231f20"></path><polygon points="163.06 125.27 160.06 93.98 223.69 82.53 223.69 116.37 163.06 125.27" fill="#fff"></polygon><path d="M163.06,125.72a.44.44,0,0,1-.45-.41l-3-31.28a.46.46,0,0,1,.37-.5l63.63-11.45a.51.51,0,0,1,.38.1.48.48,0,0,1,.16.35v33.84a.46.46,0,0,1-.39.45l-60.63,8.9Zm-2.5-31.36,2.91,30.38L223.24,116V83.08Z" fill="#231f20"></path><path d="M153.77,150c-.28-1.69,0-51.66,0-51.66l40.66-7.07v-6.8l41.94-8.05,3.29,4.46,14.93-3.27-4.13,48.24Z" fill="#e6e7e8"></path><path d="M153.77,150.49a.45.45,0,0,1-.25-.07.47.47,0,0,1-.2-.31c-.28-1.71,0-49.69,0-51.73a.46.46,0,0,1,.38-.45l40.28-7V84.51a.46.46,0,0,1,.38-.45l41.93-8a.47.47,0,0,1,.46.18l3.11,4.22,14.64-3.2a.46.46,0,0,1,.56.48l-4.13,48.24a.47.47,0,0,1-.35.41l-96.67,24.14Zm.43-51.72c-.08,16.4-.18,46.31,0,50.69L250,125.53l4.05-47.3-14.33,3.14a.45.45,0,0,1-.46-.18L236.15,77l-41.28,7.92v6.43a.46.46,0,0,1-.38.45Z" fill="#231f20"></path><path d="M173.74,136.08V97.78s66.66-12,66.85-11.45,0,52.34,0,52.34Z" fill="#fff"></path><path d="M240.59,139.13h0l-66.85-2.6a.45.45,0,0,1-.43-.45V97.78a.45.45,0,0,1,.37-.45c.17,0,16.86-3,33.36-5.93,33.76-5.94,33.81-5.77,34-5.21s.08,36.89,0,52.48a.46.46,0,0,1-.45.46Zm-66.39-3.49,65.93,2.56c.06-16.87.14-47.57,0-51.41-4.58.41-48.38,8.21-66,11.38Z" fill="#231f20"></path><path d="M180.33,155.22c-.28-1.69-.56-54.53-.56-54.53l32-5.56,1.41-5.61,47.1-10.39,3.29,4.46,14.93-3.26-4.13,48.24Z" fill="#e6e7e8"></path><path d="M180.33,155.68a.51.51,0,0,1-.24-.07.45.45,0,0,1-.21-.31c-.28-1.71-.55-52.45-.57-54.6a.46.46,0,0,1,.38-.46l31.71-5.51,1.34-5.32a.47.47,0,0,1,.34-.33l47.1-10.39a.46.46,0,0,1,.47.17l3.11,4.22,14.65-3.2a.48.48,0,0,1,.4.1.51.51,0,0,1,.15.39l-4.13,48.24a.46.46,0,0,1-.33.4l-94,26.65Zm-.1-54.6c.09,17.34.31,49,.52,53.55L274,128.21,278,80.91,263.67,84a.47.47,0,0,1-.47-.17l-3.11-4.23L213.56,89.91l-1.35,5.33a.48.48,0,0,1-.37.34Z" fill="#231f20"></path><polygon points="134.16 100.69 140.35 165.73 206.24 195.3 202.86 120.68 134.16 100.69" fill="#68e1fd"></polygon><path d="M206.24,195.75a.41.41,0,0,1-.19,0l-65.88-29.56a.45.45,0,0,1-.27-.37l-6.2-65a.48.48,0,0,1,.17-.4.45.45,0,0,1,.42-.09l68.7,20a.44.44,0,0,1,.32.41l3.38,74.62a.46.46,0,0,1-.2.4A.43.43,0,0,1,206.24,195.75Zm-65.46-30.32,65,29.15L202.42,121l-67.74-19.71Z" fill="#231f20"></path><polygon points="204.83 199.24 200.89 105.48 204.36 106.7 208.21 200.45 204.83 199.24" fill="#68e1fd"></polygon><path d="M208.21,200.9l-.16,0-3.37-1.21a.46.46,0,0,1-.31-.41l-3.94-93.76a.44.44,0,0,1,.19-.39.45.45,0,0,1,.42-.06l3.47,1.22a.45.45,0,0,1,.31.41l3.84,93.75a.44.44,0,0,1-.18.38A.46.46,0,0,1,208.21,200.9Zm-2.94-2,2.45.88L203.92,107l-2.55-.9Z" fill="#231f20"></path><polygon points="208.21 200.45 303.52 163.62 304.78 82.53 204.36 106.7 208.21 200.45" fill="#68e1fd"></polygon><path d="M208.21,200.9a.43.43,0,0,1-.25-.07.46.46,0,0,1-.21-.37l-3.85-93.74a.45.45,0,0,1,.35-.46L304.68,82.09a.46.46,0,0,1,.39.09.45.45,0,0,1,.17.36L304,163.63a.46.46,0,0,1-.29.42l-95.31,36.82A.45.45,0,0,1,208.21,200.9Zm-3.38-93.84,3.81,92.73,94.42-36.48,1.26-80.2Z" fill="#231f20"></path><polygon points="200.89 105.48 300.98 81.27 304.78 82.53 204.36 106.7 200.89 105.48" fill="#68e1fd"></polygon><path d="M204.36,107.16a.4.4,0,0,1-.15,0l-3.47-1.22a.45.45,0,0,1-.31-.45.44.44,0,0,1,.35-.42L300.87,80.82a.57.57,0,0,1,.26,0l3.8,1.27a.45.45,0,0,1,.31.45.46.46,0,0,1-.35.43L204.47,107.14Zm-1.86-1.6,1.88.66,98.74-23.76L301,81.74Z" fill="#231f20"></path><path d="M248.88,139.23a3.67,3.67,0,0,1-2.42-1,3,3,0,0,1-1.08-2.39c.07-1.65-.55-15.79-.56-15.94a.55.55,0,0,1,.39-.55l26.94-8a.54.54,0,0,1,.49.09.55.55,0,0,1,.23.44c0,.64,0,15.67,0,16.65a4.65,4.65,0,0,1-2,3.59c-1.36,1.06-20,6.85-21.61,7.09A2,2,0,0,1,248.88,139.23ZM246,120.32c.11,2.45.61,14.05.54,15.59a2,2,0,0,0,.71,1.53,2.54,2.54,0,0,0,1.94.66c1.74-.26,20-6,21.09-6.87a3.57,3.57,0,0,0,1.52-2.75c0-.84,0-12.75,0-15.87Z" fill="#fff"></path><path d="M278.91,144.15a2.52,2.52,0,0,0-2.5,2.5,2.37,2.37,0,0,0,.67,1.67l-1.13.55-4.45,2c-3,1.32-6,2.59-9.08,3.71a79.21,79.21,0,0,1-9.32,2.78c-1.94.43-5.29,1.52-6.95-.12-2.29-2.25-5.83,1.28-3.53,3.54,3.09,3,7.52,2.34,11.36,1.5a83.06,83.06,0,0,0,12.8-4c4.2-1.66,8.38-3.44,12.44-5.4,1.76-.84,3.43-2.33,3.49-4.42A4,4,0,0,0,278.91,144.15Z" fill="#231f20"></path><path d="M110.67,96.75a.56.56,0,0,1-.39-1l18.4-17.88a.56.56,0,0,1,.77.8L111.06,96.59A.54.54,0,0,1,110.67,96.75Z" fill="#d1d3d4"></path><path d="M116.68,125.82a.55.55,0,0,1-.44-.21.56.56,0,0,1,.09-.78l10.14-8.09a.56.56,0,1,1,.69.87L117,125.7A.54.54,0,0,1,116.68,125.82Z" fill="#d1d3d4"></path></g></svg>