<?xml version="1.0" encoding="utf-8"?>
<!-- Generator: Adobe Illustrator 23.0.2, SVG Export Plug-In . SVG Version: 6.00 Build 0)  -->
<svg version="1.1" id="Camada_1" xmlns="http://www.w3.org/2000/svg" xmlns:xlink="http://www.w3.org/1999/xlink" x="0px" y="0px"
	 viewBox="0 0 841.6 589" style="enable-background:new 0 0 841.6 589;" xml:space="preserve">
<style type="text/css">
	.st0{fill:#FFB8B8;}
	.st1{fill:#2F2E41;}
	.st2{opacity:0.28;enable-background:new    ;}
	.st3{fill:#CCCCCC;}
	.st4{fill:#FFFFFF;}
	.st5{fill:#3F3D56;}
	.st6{fill:#E6E6E6;}
	.st7{fill:#575A89;}
	.st8{fill:#0B6567;}
</style>
<polygon class="st0" points="743.2,574.2 729.1,574.2 722.4,519.9 743.2,519.9 "/>
<path class="st1" d="M746.8,587.8l-45.4,0v-0.6c0-9.8,7.9-17.7,17.7-17.7h0l27.7,0L746.8,587.8z"/>
<polygon class="st0" points="805.3,539.6 796.2,550.3 750.5,520.1 764,504.3 "/>
<path class="st1" d="M818.1,545.7l-29.5,34.5l-0.4-0.4c-7.4-6.3-8.3-17.5-2-24.9l0,0l18-21.1L818.1,545.7z"/>
<polygon class="st1" points="643.2,307.1 638.9,347.5 816,345 738.8,219.1 675.7,216.8 "/>
<polygon class="st2" points="643.2,307.1 638.9,347.5 816,345 738.8,219.1 675.7,216.8 "/>
<path class="st1" d="M678.1,314.1l-6.3,37v33.1l50.4,16.5c0,0-5.9,128.4,2,136.6l-0.2,19.7l22,1l0.2-13.9l9.3-103.9l5.5-76.3
	l-8.9-57.8L678.1,314.1z"/>
<path class="st1" d="M717.1,345.9l-45.3,38.2c0,0-2.7,68.9,4.1,77c5.8,6.9,81,66.8,81,66.8s13.4,12.3,20.9,12.5s16.2-15.5,16.2-15.5
	l-17.4-13.2c0,0-45-42-58.3-58.7c-5.4-6.7-5.4-7.4-5.4-7.4l1.8-28l18.5-52L717.1,345.9z"/>
<polygon class="st1" points="669,162.9 649.5,161.1 631.8,164 594.2,164 591,191.2 625.3,198.9 633.6,194.8 668.4,208.1 "/>
<path class="st3" d="M692.4,162.8c0,0,41.5-3.9,50.9,3.5s29.6,154.3,29.6,154.3l-80.5,4.5l-14.4-9.9l4.1-73.3L692.4,162.8z"/>
<polygon class="st1" points="705,161.9 659.3,162.9 616.6,355.6 650.3,363 "/>
<polygon class="st1" points="737.5,160.3 773.6,171.5 771.5,250.7 816,345.4 763.7,350.9 722.4,248.7 "/>
<path class="st0" d="M797,355c4.8-4.2,5.2-11.5,1-16.2c-0.4-0.5-0.9-1-1.5-1.4l7.2-25.3l-14.3-8.2l-9.7,35.9
	c-3.6,5.3-2.3,12.5,2.9,16.1C787.1,358.9,793,358.6,797,355L797,355z"/>
<path class="st1" d="M752.7,173.7l21.3-1.8c0,0,19.1,20,23.5,35.5s9.1,64,9.1,64l-2,71l-24.9-16.9l-1.7-61L752.7,173.7z"/>
<ellipse transform="matrix(0.4797 -0.8775 0.8775 0.4797 266.7543 696.9739)" class="st0" cx="721" cy="123.6" rx="30.2" ry="30.2"/>
<path class="st1" d="M717.7,111c-4-0.9-8.1,0.1-12.1,0.8s-8.4,0.9-11.8-1.4c-2.5-1.7-4.1-4.4-5.5-7c-0.6-0.9-1-2-1.2-3.1
	c-0.2-1.9,1.1-3.7,2.4-5.2c6.1-6.7,15-10.4,24.1-11.6c7.4-1.1,15-0.2,22,2.7c6.8,3,12.7,8.5,15.4,15.5c1.2,3.6,2,7.3,2.3,11
	c0.4,2.8,0.5,5.6,0.2,8.4c-0.4,2.1-0.9,4.1-1.6,6.1l-4.5,13.4c-0.3,1.3-0.9,2.5-1.8,3.5c-0.9,1-2.3,1.3-3.5,0.8
	c0.4-1.5,0.4-3,0.2-4.5c-0.3-1.5-1.5-2.7-3-3c-1.6-0.2-3,1.1-4.6,1.6c-3,0.9-6.1-0.8-7-3.8c0-0.1-0.1-0.3-0.1-0.4
	c-0.2-1.5,0.2-3.2-0.4-4.6c-0.7-1.7-2.5-2.6-3.9-3.8c-2.5-2.3-3.5-5.9-2.4-9.2c0.4-1.1,1.4-1.6,1.2-2.9
	C721.6,112.5,719.1,111.3,717.7,111z"/>
<path class="st4" d="M381.6,238.7H0V0h381.6V238.7z"/>
<path class="st5" d="M381.6,238.7H0V0h381.6V238.7z M1.7,237h378.1V1.7H1.7V237z"/>
<path class="st4" d="M335,569.4H117.2V330.6H335V569.4z"/>
<path class="st5" d="M335,569.4H117.2V330.6H335V569.4z M118.9,567.6h214.3V332.4H118.9V567.6z"/>
<rect x="260.1" y="546.8" class="st5" width="45.3" height="1.8"/>
<rect x="260.1" y="552.3" class="st5" width="45.3" height="1.8"/>
<rect x="260.1" y="557.8" class="st5" width="45.3" height="1.8"/>
<path class="st6" d="M226.1,373.3v19.2c31.8,0,57.5,25.7,57.5,57.5c0,15.3-6.1,29.9-16.8,40.7l13.6,13.6
	c29.9-29.9,29.9-78.5,0-108.4C265.9,381.4,246.4,373.3,226.1,373.3z"/>
<path class="st7" d="M280.3,504.2l-13.6-13.6c-20.3,20.3-52.6,22.5-75.5,5.1L179.7,511C210.2,534.2,253.2,531.3,280.3,504.2z"/>
<path class="st8" d="M168.6,450c0-31.8,25.7-57.5,57.5-57.5l0,0v-19.2c-42.3,0-76.7,34.3-76.7,76.7c0,24,11.2,46.5,30.3,61
	l11.6-15.3C177,484.9,168.6,468,168.6,450z"/>
<path class="st4" d="M657.4,421.3H439.6V182.5h217.8V421.3z"/>
<path class="st5" d="M657.4,421.3H439.6V182.5h217.8V421.3z M441.3,419.5h214.3V184.3H441.3V419.5z"/>
<rect x="470.9" y="328.5" class="st7" width="39.2" height="62.7"/>
<rect x="527.5" y="285.8" class="st6" width="39.2" height="105.4"/>
<rect x="584.2" y="236.1" class="st8" width="39.2" height="155.1"/>
<polygon class="st5" points="636.5,392.9 460.5,392.9 460.5,210.8 462.2,210.8 462.2,391.2 636.5,391.2 "/>
<circle class="st0" cx="594" cy="176.9" r="12"/>
<path class="st3" d="M840.6,589h-187c-0.6,0-1-0.4-1-1s0.4-1,1-1h187c0.6,0,1,0.4,1,1S841.1,589,840.6,589z"/>
<path class="st5" d="M328.6,188.8H53c-0.5,0-0.9-0.4-0.9-0.9V55.8c0-0.5,0.4-0.9,0.9-0.9c0.5,0,0.9,0.4,0.9,0.9v131.2h274.8
	c0.5,0,0.9,0.4,0.9,0.9S329.1,188.8,328.6,188.8C328.6,188.8,328.6,188.8,328.6,188.8L328.6,188.8z"/>
<path class="st8" d="M111.9,179.3H86.8c-1.4,0-2.6-1.1-2.6-2.6v-34.6c0-1.4,1.1-2.6,2.6-2.6h25.1c1.4,0,2.6,1.1,2.6,2.6v34.6
	C114.4,178.2,113.3,179.3,111.9,179.3z"/>
<path class="st8" d="M157.6,179.3h-25.1c-1.4,0-2.6-1.1-2.6-2.6v-67.3c0-1.4,1.1-2.6,2.6-2.6h25.1c1.4,0,2.6,1.1,2.6,2.6v67.3
	C160.2,178.2,159,179.3,157.6,179.3z"/>
<path class="st8" d="M203.3,179.3h-25.1c-1.4,0-2.6-1.1-2.6-2.6v-34.6c0-1.4,1.1-2.6,2.6-2.6h25.1c1.4,0,2.6,1.1,2.6,2.6v34.6
	C205.9,178.2,204.7,179.3,203.3,179.3z"/>
<path class="st8" d="M249,179.3H224c-1.4,0-2.5-1.1-2.6-2.4V96.4c0-1.4,1.2-2.5,2.6-2.4H249c1.4,0,2.5,1.1,2.6,2.4v80.5
	C251.6,178.2,250.4,179.3,249,179.3z"/>
<path class="st8" d="M294.7,179.3h-25.1c-1.4,0-2.6-1.1-2.6-2.6V73.2c0-1.4,1.1-2.6,2.6-2.6h25.1c1.4,0,2.6,1.1,2.6,2.6v103.6
	C297.3,178.2,296.2,179.3,294.7,179.3z"/>
<circle class="st5" cx="99.4" cy="124.1" r="5.2"/>
<circle class="st5" cx="145.1" cy="90.5" r="5.2"/>
<circle class="st5" cx="190.8" cy="124.1" r="5.2"/>
<circle class="st5" cx="236.5" cy="74.1" r="5.2"/>
<circle class="st5" cx="282.2" cy="55.1" r="5.2"/>
<polygon class="st5" points="190.9,125.3 145.1,90.9 99.9,124.8 98.8,123.4 145.1,88.8 190.7,122.9 236,73.4 236.2,73.3 281.9,54.9 
	282.5,56.5 237,74.8 "/>
</svg>
