<?xml version="1.0" encoding="utf-8"?>
<!-- Generator: Adobe Illustrator 23.0.2, SVG Export Plug-In . SVG Version: 6.00 Build 0)  -->
<svg version="1.1" id="Camada_1" xmlns="http://www.w3.org/2000/svg" xmlns:xlink="http://www.w3.org/1999/xlink" x="0px" y="0px"
	 viewBox="0 0 406 306" style="enable-background:new 0 0 406 306;" xml:space="preserve">
<style type="text/css">
	.st0{fill:#D1D3D4;}
	.st1{fill:#231F20;}
	.st2{fill:#FFFFFF;}
	.st3{fill:#0B6567;}
	.st4{fill:none;stroke:#D1D3D4;stroke-width:0.92;stroke-linecap:round;stroke-linejoin:round;}
	.st5{fill:none;}
</style>
<g id="_015">
	<path class="st0" d="M384.5,218.8h-363c-0.3,0-0.5-0.2-0.5-0.5l0,0c0-0.3,0.2-0.5,0.5-0.5h363c0.3,0,0.5,0.2,0.5,0.5
		C384.9,218.6,384.7,218.8,384.5,218.8z"/>
	<path class="st1" d="M316.8,92.5h-174c-3.7-0.1-6.8,2.8-6.9,6.5c0,0.4,0,0.9,0.1,1.3l16.6,126.9c0.7,4.4,4.4,7.7,8.8,7.8h174
		c3.7,0.1,6.8-2.8,6.9-6.5c0-0.4,0-0.9-0.1-1.3l-16.6-126.9C325,95.9,321.3,92.6,316.8,92.5z"/>
	<path class="st1" d="M335.5,235.4h-174c-4.7-0.1-8.6-3.6-9.3-8.2l-16.6-126.9c-0.3-2.1,0.3-4.3,1.7-5.9c1.4-1.6,3.4-2.4,5.5-2.4
		h174c4.6,0.1,8.5,3.5,9.3,8.1l16.6,126.9c0.3,2.1-0.3,4.3-1.7,5.9C339.6,234.6,337.6,235.5,335.5,235.4z M142.8,93
		c-1.8,0-3.6,0.7-4.9,2.1c-1.2,1.4-1.8,3.3-1.5,5.1l16.6,126.9c0.6,4.2,4.2,7.3,8.4,7.4h174c1.8,0,3.6-0.7,4.9-2.1
		c1.2-1.4,1.8-3.3,1.5-5.2l-16.6-126.9c-0.6-4.2-4.2-7.3-8.4-7.4L142.8,93z"/>
	<path class="st2" d="M127.5,112.7h191.8l-19.1,114.5c-0.8,4.4-4.6,7.7-9.1,7.8H114.9c-3.5,0.1-6.5-2.7-6.6-6.2c0-0.5,0-1.1,0.1-1.6
		L127.5,112.7z"/>
	<path class="st1" d="M291.1,235.5H114.9c-2.1,0-4.1-0.8-5.5-2.4c-1.4-1.7-1.9-3.8-1.5-5.9l19.1-114.5c0-0.2,0.2-0.4,0.5-0.4h191.8
		c0.1,0,0.3,0.1,0.4,0.2c0.1,0.1,0.1,0.2,0.1,0.4l-19.1,114.5C299.8,231.9,295.8,235.3,291.1,235.5z M127.9,113.2l-19,114.1
		c-0.4,1.8,0.1,3.7,1.3,5.2c1.2,1.3,2.9,2.1,4.8,2h176.2c4.3-0.2,7.8-3.2,8.6-7.4l19-113.9L127.9,113.2z"/>
	<path class="st3" d="M138.7,92.5h176.2c3.5-0.1,6.5,2.7,6.6,6.2c0,0.5,0,1.1-0.1,1.6l-2,12.4H127.6l2-12.4
		C130.4,95.9,134.2,92.7,138.7,92.5z"/>
	<path class="st1" d="M319.3,113.2H127.5c-0.1,0-0.3-0.1-0.4-0.2c-0.1-0.1-0.1-0.2-0.1-0.4l2-12.4c0.9-4.6,4.9-8,9.6-8.1h176.2
		c2.1,0,4.1,0.8,5.5,2.4c1.4,1.7,1.9,3.8,1.5,5.9l-2,12.4C319.8,113.1,319.6,113.2,319.3,113.2z M128.1,112.2H319l2-12
		c0.4-1.8-0.1-3.7-1.3-5.2c-1.2-1.3-2.9-2.1-4.8-2H138.7c-4.3,0.2-7.8,3.2-8.6,7.4L128.1,112.2z"/>
	<path class="st1" d="M144,218L144,218c-0.3,0-0.5-0.3-0.5-0.5c0,0,0,0,0,0l15.4-92c0-0.3,0.3-0.4,0.5-0.4c0.3,0,0.4,0.3,0.4,0.5
		l-15.4,92C144.5,217.8,144.3,218,144,218z"/>
	<path class="st1" d="M169.7,218L169.7,218c-0.3,0-0.5-0.3-0.5-0.5c0,0,0,0,0,0l15.4-92c0-0.3,0.2-0.5,0.5-0.4
		c0.3,0,0.5,0.2,0.4,0.5c0,0,0,0.1,0,0.1l-15.4,92C170.2,217.8,170,218,169.7,218z"/>
	<path class="st1" d="M195.4,218L195.4,218c-0.3,0-0.5-0.3-0.5-0.5c0,0,0,0,0,0l15.4-92c0-0.3,0.3-0.4,0.5-0.4
		c0.2,0,0.4,0.3,0.4,0.5c0,0,0,0,0,0l-15.4,92C195.9,217.8,195.7,218,195.4,218z"/>
	<path class="st1" d="M221.1,218L221.1,218c-0.3,0-0.5-0.3-0.5-0.5c0,0,0,0,0,0l15.4-92c0-0.3,0.2-0.5,0.5-0.4
		c0.3,0,0.5,0.2,0.4,0.5c0,0,0,0.1,0,0.1l-15.4,92C221.6,217.8,221.4,218,221.1,218z"/>
	<path class="st1" d="M246.8,218L246.8,218c-0.3,0-0.5-0.3-0.5-0.5c0,0,0,0,0,0l15.4-92c0-0.3,0.2-0.5,0.5-0.4
		c0.3,0,0.5,0.2,0.4,0.5c0,0,0,0.1,0,0.1l-15.4,92C247.2,217.8,247,218,246.8,218z"/>
	<path class="st1" d="M272.5,218L272.5,218c-0.3,0-0.5-0.3-0.5-0.5c0,0,0,0,0,0l15.4-92c0-0.3,0.2-0.5,0.5-0.4
		c0.3,0,0.5,0.2,0.4,0.5c0,0,0,0.1,0,0.1l-15.3,92C273,217.8,272.8,218,272.5,218z"/>
	<path class="st4" d="M144,218L144,218c-0.3,0-0.5-0.3-0.5-0.5c0,0,0,0,0,0l15.4-92c0-0.3,0.3-0.4,0.5-0.4c0.3,0,0.4,0.3,0.4,0.5
		l-15.4,92C144.5,217.8,144.3,218,144,218z"/>
	<path class="st4" d="M169.7,218L169.7,218c-0.3,0-0.5-0.3-0.5-0.5c0,0,0,0,0,0l15.4-92c0-0.3,0.2-0.5,0.5-0.4
		c0.3,0,0.5,0.2,0.4,0.5c0,0,0,0.1,0,0.1l-15.4,92C170.2,217.8,170,218,169.7,218z"/>
	<path class="st4" d="M195.4,218L195.4,218c-0.3,0-0.5-0.3-0.5-0.5c0,0,0,0,0,0l15.4-92c0-0.3,0.3-0.4,0.5-0.4
		c0.2,0,0.4,0.3,0.4,0.5c0,0,0,0,0,0l-15.4,92C195.9,217.8,195.7,218,195.4,218z"/>
	<path class="st4" d="M221.1,218L221.1,218c-0.3,0-0.5-0.3-0.5-0.5c0,0,0,0,0,0l15.4-92c0-0.3,0.2-0.5,0.5-0.4
		c0.3,0,0.5,0.2,0.4,0.5c0,0,0,0.1,0,0.1l-15.4,92C221.6,217.8,221.4,218,221.1,218z"/>
	<path class="st4" d="M246.8,218L246.8,218c-0.3,0-0.5-0.3-0.5-0.5c0,0,0,0,0,0l15.4-92c0-0.3,0.2-0.5,0.5-0.4
		c0.3,0,0.5,0.2,0.4,0.5c0,0,0,0.1,0,0.1l-15.4,92C247.2,217.8,247,218,246.8,218z"/>
	<path class="st4" d="M272.5,218L272.5,218c-0.3,0-0.5-0.3-0.5-0.5c0,0,0,0,0,0l15.4-92c0-0.3,0.2-0.5,0.5-0.4
		c0.3,0,0.5,0.2,0.4,0.5c0,0,0,0.1,0,0.1l-15.3,92C273,217.8,272.8,218,272.5,218z"/>
	<path class="st1" d="M303.9,147.3H136.3c-0.3,0-0.5-0.1-0.5-0.4s0.1-0.5,0.4-0.5c0,0,0.1,0,0.1,0h167.5c0.3,0,0.5,0.1,0.5,0.4
		c0,0.3-0.1,0.5-0.4,0.5C304,147.3,303.9,147.3,303.9,147.3z"/>
	<path class="st1" d="M299.7,172H132.2c-0.3,0-0.5-0.1-0.5-0.4s0.1-0.5,0.4-0.5c0,0,0.1,0,0.1,0h167.5c0.3,0,0.5,0.1,0.5,0.4
		s-0.1,0.5-0.4,0.5C299.8,172,299.8,172,299.7,172z"/>
	<path class="st1" d="M295.6,196.6H128.1c-0.3,0-0.5-0.2-0.5-0.5c0-0.3,0.2-0.5,0.5-0.5h167.5c0.3,0,0.5,0.2,0.5,0.5
		C296.1,196.4,295.9,196.6,295.6,196.6z"/>
	<line class="st4" x1="136.3" y1="146.8" x2="303.9" y2="146.8"/>
	<path class="st4" d="M303.9,147.3H136.3c-0.3,0-0.5-0.1-0.5-0.4s0.1-0.5,0.4-0.5c0,0,0.1,0,0.1,0h167.5c0.3,0,0.5,0.1,0.5,0.4
		c0,0.3-0.1,0.5-0.4,0.5C304,147.3,303.9,147.3,303.9,147.3z"/>
	<line class="st4" x1="132.2" y1="171.5" x2="299.7" y2="171.5"/>
	<path class="st4" d="M299.7,172H132.2c-0.3,0-0.5-0.1-0.5-0.4s0.1-0.5,0.4-0.5c0,0,0.1,0,0.1,0h167.5c0.3,0,0.5,0.1,0.5,0.4
		s-0.1,0.5-0.4,0.5C299.8,172,299.8,172,299.7,172z"/>
	<line class="st4" x1="128.1" y1="196.2" x2="295.6" y2="196.2"/>
	<path class="st4" d="M295.6,196.6H128.1c-0.3,0-0.5-0.2-0.5-0.5c0-0.3,0.2-0.5,0.5-0.5h167.5c0.3,0,0.5,0.2,0.5,0.5
		C296.1,196.4,295.9,196.6,295.6,196.6z"/>
	<path class="st3" d="M184.1,166.8c-0.1,0-0.3-0.1-0.4-0.2c-0.2-0.2-0.1-0.5,0.1-0.6l17.9-14.9c0.2-0.2,0.5-0.1,0.6,0.1
		c0.2,0.2,0.1,0.5-0.1,0.7l-17.9,14.9C184.3,166.8,184.2,166.8,184.1,166.8z"/>
	<path class="st3" d="M199.5,166.8c-0.1,0-0.3-0.1-0.3-0.2l-12.9-14.9c-0.2-0.2-0.2-0.5,0-0.6c0.2-0.2,0.5-0.2,0.6,0c0,0,0,0,0,0
		l12.9,14.9c0.2,0.2,0.2,0.5,0,0.6C199.7,166.8,199.6,166.8,199.5,166.8z"/>
	<path class="st3" d="M257.5,192.9c-0.1,0-0.3-0.1-0.4-0.2c-0.2-0.2-0.1-0.5,0.1-0.6c0,0,0,0,0,0l17.9-14.9c0.2-0.2,0.5-0.2,0.7,0
		c0.2,0.2,0.2,0.5,0,0.7c0,0,0,0-0.1,0.1l-17.9,14.9C257.7,192.8,257.6,192.9,257.5,192.9z"/>
	<path class="st3" d="M272.9,192.9c-0.1,0-0.3-0.1-0.3-0.2l-12.9-14.9c-0.2-0.2-0.2-0.5,0-0.7c0.2-0.2,0.5-0.1,0.7,0.1l12.9,14.9
		c0.2,0.2,0.2,0.5,0,0.7C273.1,192.8,273,192.9,272.9,192.9z"/>
	<path class="st2" d="M277,234.6l24.9-19.5h-14.4c-4.2,0.1-7.7,3.2-8.4,7.2L277,234.6z"/>
	<path class="st1" d="M277,235.1c-0.1,0-0.2,0-0.2-0.1c-0.2-0.1-0.3-0.3-0.2-0.5l2-12.2c0.8-4.3,4.5-7.5,8.9-7.6h14.4
		c0.2,0,0.4,0.1,0.4,0.3c0.1,0.2,0,0.4-0.2,0.5L277.2,235C277.2,235.1,277.1,235.1,277,235.1z M287.5,215.6c-3.9,0.1-7.3,3-8,6.9
		l-1.8,11.1l22.9-17.9H287.5z"/>
	<path class="st1" d="M264.7,107.2c-0.4,0-0.7-0.1-1-0.3c-6.1-3.5-8.1-11.3-4.6-17.3c3.5-6.1,11.3-8.1,17.3-4.6
		c2.2,1.3,3.9,3.1,5,5.4c0.5,1,0.1,2.2-0.9,2.7c-1,0.5-2.2,0.1-2.7-0.9c-2.1-4.3-7.3-6.1-11.5-4c-3,1.4-4.8,4.5-4.8,7.7
		c0,3.1,1.6,5.9,4.3,7.5c1,0.6,1.3,1.8,0.7,2.8C266.1,106.9,265.4,107.2,264.7,107.2L264.7,107.2z"/>
	<path class="st1" d="M219,107.2c-0.4,0-0.7-0.1-1-0.3c-6.1-3.5-8.1-11.3-4.6-17.3c2.3-3.9,6.5-6.3,11-6.3c4.9,0,9.3,2.7,11.4,7.1
		c0.5,1,0.1,2.2-0.9,2.7c-1,0.5-2.2,0.1-2.7-0.9c-2.1-4.3-7.3-6.1-11.5-4c-3,1.4-4.8,4.5-4.8,7.7c0,3.1,1.6,5.9,4.3,7.5
		c1,0.6,1.3,1.8,0.7,2.8C220.4,106.8,219.7,107.2,219,107.2L219,107.2z"/>
	<path class="st1" d="M173.4,107.2c-0.4,0-0.7-0.1-1-0.3c-6.1-3.5-8.1-11.3-4.6-17.3s11.3-8.1,17.3-4.6c2.2,1.3,3.9,3.1,5,5.4
		c0.5,1,0.1,2.2-0.8,2.7s-2.2,0.1-2.7-0.8c0,0,0-0.1-0.1-0.1c-2.1-4.3-7.2-6.1-11.5-4c-3,1.4-4.9,4.5-4.9,7.8c0,3.1,1.6,5.9,4.3,7.5
		c1,0.6,1.3,1.8,0.7,2.8C174.7,106.9,174.1,107.2,173.4,107.2L173.4,107.2z"/>
	<path class="st2" d="M169.5,89.5c-0.1,0-0.2,0-0.3-0.1c-0.2-0.1-0.3-0.5-0.2-0.7c1-1.5,2.3-2.7,3.9-3.4c0.2-0.1,0.6-0.1,0.7,0.2
		c0.1,0.2,0.1,0.6-0.2,0.7c0,0-0.1,0-0.1,0.1c-1.4,0.7-2.6,1.7-3.5,3C169.8,89.5,169.7,89.5,169.5,89.5z"/>
	<path class="st2" d="M215.8,89.5c-0.3,0-0.5-0.2-0.5-0.5c0-0.1,0-0.2,0.1-0.3c1-1.5,2.3-2.7,3.9-3.4c0.3-0.1,0.6,0,0.7,0.2
		c0.1,0.2,0,0.5-0.2,0.7c0,0,0,0,0,0c-1.4,0.7-2.6,1.7-3.5,3C216.1,89.5,215.9,89.6,215.8,89.5z"/>
	<path class="st2" d="M260.9,89.5c-0.1,0-0.2,0-0.3-0.1c-0.2-0.1-0.3-0.5-0.2-0.7c1-1.5,2.3-2.7,3.9-3.4c0.3-0.1,0.6,0,0.7,0.2
		c0,0,0,0,0,0c0.1,0.2,0,0.5-0.2,0.7c0,0,0,0,0,0c-1.4,0.7-2.6,1.7-3.5,3C261.3,89.5,261.1,89.5,260.9,89.5z"/>
	
		<rect x="39.5" y="104.6" transform="matrix(0.9987 -5.111586e-02 5.111586e-02 0.9987 -8.2464 2.8278)" class="st2" width="23.4" height="116.1"/>
	<path class="st0" d="M42.5,221.7c-0.3,0-0.5-0.2-0.5-0.4l-5.9-115.9c0-0.1,0-0.2,0.1-0.3c0.1-0.1,0.2-0.2,0.3-0.2l23.3-1.2
		c0.3,0,0.5,0.2,0.5,0.4l6,115.9c0,0.1,0,0.2-0.1,0.3c-0.1,0.1-0.2,0.2-0.3,0.2L42.5,221.7L42.5,221.7z M37,105.7l5.9,115l22.4-1.1
		l-5.9-115L37,105.7z"/>
	
		<rect x="36.5" y="105" transform="matrix(0.9988 -4.993762e-02 4.993762e-02 0.9988 -8.0952 2.1048)" class="st2" width="3.1" height="116.2"/>
	<path class="st0" d="M39.3,221.8c-0.1,0-0.2,0-0.3-0.1c-0.1-0.1-0.1-0.2-0.2-0.3l-5.9-115.9c0-0.1,0-0.3,0.1-0.3
		c0.1-0.1,0.2-0.1,0.3-0.2l3.1-0.2c0.3,0,0.5,0.2,0.5,0.4l5.9,115.9c0,0.3-0.2,0.5-0.4,0.5L39.3,221.8L39.3,221.8z M33.9,105.9
		l5.9,115l2.2-0.1l-5.9-115L33.9,105.9z"/>
	<line class="st5" x1="37.5" y1="111.5" x2="41.9" y2="111.2"/>
	<path class="st0" d="M37.6,111.9c-0.3,0-0.5-0.2-0.5-0.5c0-0.3,0.2-0.5,0.5-0.5l4.4-0.2c0.3,0,0.5,0.2,0.5,0.4c0,0,0,0,0,0
		c0,0.3-0.2,0.5-0.4,0.5c0,0,0,0,0,0L37.6,111.9L37.6,111.9z"/>
	<line class="st5" x1="37.9" y1="119.3" x2="42.5" y2="119"/>
	<path class="st0" d="M37.9,119.7c-0.2,0-0.5-0.2-0.5-0.4c0-0.3,0.2-0.5,0.4-0.5c0,0,0,0,0,0l4.6-0.2c0.3,0,0.5,0.2,0.5,0.4
		c0,0.3-0.2,0.5-0.4,0.5c0,0,0,0,0,0L37.9,119.7L37.9,119.7z"/>
	<line class="st5" x1="38.3" y1="127" x2="46" y2="126.7"/>
	<path class="st0" d="M38.3,127.5c-0.3,0-0.4-0.3-0.4-0.5c0-0.2,0.2-0.4,0.4-0.4l7.7-0.4c0.3,0,0.5,0.2,0.5,0.4
		c0,0.3-0.2,0.5-0.4,0.5L38.3,127.5L38.3,127.5z"/>
	<line class="st5" x1="38.7" y1="134.8" x2="43.1" y2="134.6"/>
	<path class="st0" d="M38.7,135.3c-0.2,0-0.5-0.2-0.5-0.4c0-0.3,0.2-0.5,0.4-0.5c0,0,0,0,0,0l4.4-0.2c0.3,0,0.5,0.2,0.5,0.4
		c0,0,0,0,0,0c0,0.3-0.2,0.5-0.4,0.5c0,0,0,0,0,0L38.7,135.3L38.7,135.3z"/>
	<line class="st5" x1="39.1" y1="142.6" x2="43.8" y2="142.4"/>
	<path class="st0" d="M39.1,143.1c-0.2,0-0.5-0.2-0.5-0.4c0-0.3,0.2-0.5,0.4-0.5l4.7-0.2c0.3,0,0.5,0.2,0.5,0.5
		c0,0.3-0.2,0.5-0.5,0.5L39.1,143.1L39.1,143.1z"/>
	<line class="st5" x1="39.5" y1="150.4" x2="47.2" y2="150"/>
	<path class="st0" d="M39.5,150.9c-0.2,0-0.4-0.2-0.5-0.4c0-0.3,0.2-0.5,0.4-0.5l7.7-0.4c0.3,0,0.5,0.2,0.5,0.4c0,0,0,0,0,0
		c0,0.3-0.2,0.5-0.4,0.5L39.5,150.9L39.5,150.9z"/>
	
		<rect x="33.8" y="176.9" transform="matrix(8.698187e-02 -0.9962 0.9962 8.698187e-02 -106.6484 247.2743)" class="st2" width="95.6" height="9.8"/>
	<path class="st0" d="M82.3,230.3L82.3,230.3l-9.7-0.8c-0.1,0-0.2-0.1-0.3-0.2c-0.1-0.1-0.1-0.2-0.1-0.3l8.3-95.3
		c0-0.3,0.3-0.4,0.5-0.4l9.7,0.9c0.3,0,0.4,0.2,0.4,0.5c0,0,0,0,0,0l-8.3,95.2C82.7,230.1,82.5,230.3,82.3,230.3L82.3,230.3z
		 M73.1,228.6l8.8,0.8l8.2-94.3l-8.8-0.8L73.1,228.6z"/>
	<path class="st2" d="M90.6,134.6c-1.5,1-3.2,1.4-4.9,1.3c-1.8,0.1-3.6-0.7-4.8-2.2l3.6-9.3l2.7-6.8l1.4,7.1L90.6,134.6z"/>
	<path class="st0" d="M85.6,136.4c-2,0.1-3.9-0.8-5.2-2.4c-0.1-0.1-0.1-0.3-0.1-0.4l6.3-16.1c0.1-0.2,0.3-0.3,0.5-0.3
		c0.2,0,0.4,0.2,0.4,0.4l3.4,16.9c0,0.2,0,0.3-0.2,0.5C90.8,135.1,89.1,136.4,85.6,136.4z M81.4,133.7c1.1,1.2,2.6,1.8,4.3,1.8
		c1.5,0.1,3.1-0.3,4.4-1l-3-15.1L81.4,133.7z"/>
	<polygon class="st3" points="88.6,124.8 84.5,124.5 87.2,117.7 	"/>
	<path class="st3" d="M88.6,125.3L88.6,125.3l-4.1-0.4c-0.1,0-0.3-0.1-0.3-0.2c-0.1-0.1-0.1-0.3,0-0.4l2.6-6.8
		c0.1-0.2,0.3-0.3,0.5-0.3c0.2,0,0.4,0.2,0.4,0.4l1.5,7.1c0.1,0.3-0.1,0.5-0.4,0.5c0,0-0.1,0-0.1,0L88.6,125.3z M85.2,124.1l2.9,0.3
		l-1-5L85.2,124.1z"/>
	
		<rect x="33" y="165.6" transform="matrix(8.698187e-02 -0.9962 0.9962 8.698187e-02 -104.279 225.0292)" class="st2" width="75.2" height="7.7"/>
	<path class="st0" d="M71.2,207.7L71.2,207.7l-7.7-0.7c-0.3,0-0.4-0.2-0.4-0.5c0,0,0,0,0,0l6.5-74.9c0-0.3,0.3-0.4,0.5-0.4l7.7,0.7
		c0.1,0,0.2,0.1,0.3,0.2c0.1,0.1,0.1,0.2,0.1,0.3l-6.5,74.9c0,0.1-0.1,0.2-0.2,0.3C71.4,207.6,71.3,207.7,71.2,207.7z M64.1,206.1
		l6.7,0.6l6.4-74l-6.7-0.6L64.1,206.1z"/>
	<path class="st2" d="M77.7,132.3c-0.9,1.1-2.3,1.6-3.7,1.5c-1.6-0.1-3-1-4-2.2l2.9-7.3l2-5.3l1.2,5.6L77.7,132.3z"/>
	<path class="st0" d="M74.3,134.3H74c-1.7-0.2-3.2-1-4.3-2.4c-0.1-0.1-0.1-0.3-0.1-0.4l5-12.7c0.1-0.2,0.3-0.3,0.5-0.3
		c0.2,0,0.4,0.2,0.4,0.4l2.6,13.3c0,0.1,0,0.3-0.1,0.4C77.1,133.7,75.7,134.3,74.3,134.3z M70.6,131.5c0.9,1,2.1,1.7,3.4,1.8
		c1.2,0.1,2.4-0.3,3.2-1.2l-2.3-11.5L70.6,131.5z"/>
	<polygon class="st2" points="76.2,124.6 72.9,124.3 75,118.9 	"/>
	<path class="st0" d="M76.1,125L76.1,125l-3.2-0.3c-0.1,0-0.3-0.1-0.4-0.2c-0.1-0.1-0.1-0.3,0-0.4l2.1-5.3c0.1-0.2,0.3-0.3,0.5-0.3
		c0.2,0,0.4,0.2,0.4,0.4l1.1,5.6c0,0.1,0,0.3-0.1,0.4C76.4,125,76.3,125.1,76.1,125z M73.6,123.9l2,0.2l-0.7-3.5L73.6,123.9z"/>
	<line class="st5" x1="74" y1="133.8" x2="67.4" y2="207"/>
	<path class="st0" d="M67.4,207.4L67.4,207.4c-0.3,0-0.4-0.2-0.4-0.5c0,0,0,0,0,0l6.6-73.2c0-0.2,0.3-0.4,0.5-0.4
		c0.3,0,0.4,0.3,0.4,0.5L67.9,207C67.9,207.3,67.7,207.4,67.4,207.4C67.4,207.4,67.4,207.4,67.4,207.4z"/>
	
		<rect x="45.4" y="162.4" transform="matrix(3.908542e-02 -0.9992 0.9992 3.908542e-02 -109.0095 219.6398)" class="st2" width="28.6" height="8.1"/>
	<path class="st0" d="M63.2,181.4L63.2,181.4l-8.1-0.3c-0.1,0-0.2,0-0.3-0.1c-0.1-0.1-0.1-0.2-0.1-0.3l1.1-28.6
		c0-0.3,0.2-0.4,0.5-0.4l8.1,0.3c0.3,0,0.5,0.2,0.5,0.5l-1.1,28.6C63.7,181.2,63.5,181.4,63.2,181.4
		C63.2,181.4,63.2,181.4,63.2,181.4z M55.6,180.2l7.2,0.3l1.1-27.6l-7.2-0.3L55.6,180.2z"/>
	
		<rect x="46.5" y="132.2" transform="matrix(3.908542e-02 -0.9992 0.9992 3.908542e-02 -79.3555 193.2806)" class="st2" width="28.6" height="11.4"/>
	<path class="st0" d="M66,152.9L66,152.9l-11.4-0.4c-0.1,0-0.2-0.1-0.3-0.2c-0.1-0.1-0.1-0.2-0.1-0.3l1.1-28.6
		c0-0.3,0.2-0.5,0.5-0.5l11.4,0.4c0.1,0,0.2,0.1,0.3,0.2c0.1,0.1,0.1,0.2,0.1,0.3l-1.1,28.6C66.5,152.7,66.2,152.9,66,152.9
		C66,152.9,66,152.9,66,152.9z M55.1,151.5l10.4,0.4l1.1-27.7l-10.4-0.4L55.1,151.5z"/>
	<path class="st0" d="M51,149.2L51,149.2c-0.3,0-0.5-0.2-0.4-0.5l0.8-19.9c0.1-1.9,1.7-3.4,3.6-3.3h0.5c0.3,0,0.5,0.2,0.5,0.5
		c0,0.3-0.2,0.5-0.5,0.5l0,0h-0.5c-1.4-0.1-2.6,1-2.7,2.4c0,0,0,0,0,0l-0.8,19.9C51.5,149,51.3,149.2,51,149.2
		C51,149.2,51,149.2,51,149.2z"/>
	<path class="st2" d="M30.4,154.9h64l-3.7,76.3c0,4.2-3.4,7.6-7.6,7.6H41.7c-4.2,0-7.6-3.4-7.6-7.6l0,0L30.4,154.9z"/>
	<path class="st0" d="M83.1,239.2H41.7c-4.4,0-8-3.6-8-8l-3.7-76.3c0-0.3,0.2-0.5,0.5-0.5h64c0.1,0,0.2,0.1,0.3,0.2
		c0.1,0.1,0.1,0.2,0.1,0.3l-3.7,76.3C91.2,235.6,87.5,239.2,83.1,239.2z M30.9,155.3l3.7,75.8c0,3.9,3.2,7.1,7.1,7.1h41.4
		c3.9,0,7.1-3.2,7.1-7.1l3.7-75.8L30.9,155.3z"/>
	<path class="st0" d="M93.2,169.2H31.7c-0.3,0-0.5-0.2-0.5-0.5l0,0c0-0.3,0.2-0.5,0.5-0.5h61.5c0.3,0,0.5,0.2,0.5,0.5l0,0
		C93.7,169,93.5,169.2,93.2,169.2C93.2,169.2,93.2,169.2,93.2,169.2z"/>
	<rect x="342.9" y="118.4" class="st2" width="43.3" height="42.9"/>
	<path class="st0" d="M386.2,161.8h-43.3c-0.3,0-0.5-0.2-0.5-0.5v-42.9c0-0.3,0.2-0.5,0.5-0.5h43.3c0.3,0,0.5,0.2,0.5,0.5v42.9
		C386.7,161.5,386.5,161.8,386.2,161.8z M343.4,160.8h42.3v-42h-42.3L343.4,160.8z"/>
	<rect x="361" y="111.4" class="st0" width="7.9" height="12.2"/>
	<path class="st0" d="M379.2,128.8H356c-0.3,0-0.5-0.2-0.5-0.5c0-0.3,0.2-0.5,0.5-0.5c0,0,0,0,0,0h23.2c0.3,0,0.5,0.2,0.5,0.5
		C379.7,128.6,379.5,128.8,379.2,128.8z"/>
	<path class="st0" d="M379.2,136.9h-29.7c-0.3,0-0.5-0.2-0.5-0.5c0-0.3,0.2-0.5,0.5-0.5h29.7c0.3,0,0.5,0.2,0.5,0.5
		C379.7,136.7,379.5,136.9,379.2,136.9C379.2,136.9,379.2,136.9,379.2,136.9z"/>
	<path class="st0" d="M379.4,145h-30c-0.3,0-0.5-0.2-0.5-0.5c0-0.3,0.2-0.5,0.5-0.5h30c0.3,0,0.5,0.2,0.5,0.5
		C379.9,144.8,379.7,145,379.4,145C379.4,145,379.4,145,379.4,145z"/>
	<path class="st0" d="M367.8,153.2h-18.4c-0.3,0-0.5-0.2-0.5-0.5c0-0.3,0.2-0.5,0.5-0.5h18.4c0.3,0,0.5,0.2,0.5,0.5
		C368.3,152.9,368.1,153.2,367.8,153.2z"/>
</g>
</svg>
