<?xml version="1.0" encoding="utf-8"?>
<!-- Generator: Adobe Illustrator 23.0.2, SVG Export Plug-In . SVG Version: 6.00 Build 0)  -->
<svg version="1.1" id="Camada_1" xmlns="http://www.w3.org/2000/svg" xmlns:xlink="http://www.w3.org/1999/xlink" x="0px" y="0px"
	 viewBox="0 0 406 306" style="enable-background:new 0 0 406 306;" xml:space="preserve">
<style type="text/css">
	.st0{fill:#FFFFFF;}
	.st1{fill:#231F20;}
	.st2{fill:#D1D3D4;}
	.st3{fill:#0B6567;}
</style>
<g id="_43_time">
	<path class="st0" d="M124.6,238.6l-12.8,15.1c0,0-24.9-14-24-16.7c0.9-2.8,17.1,1.4,17.1,1.4l8-10.4"/>
	<path class="st1" d="M111.7,254.2c-0.1,0-0.2,0-0.3-0.1c-7.6-4.3-25.1-14.5-24.2-17.3c0.9-2.8,13.1-0.1,17.4,1l7.8-10.1
		c0.2-0.2,0.5-0.3,0.7-0.1c0.2,0.2,0.3,0.5,0.1,0.7l-8,10.4c-0.1,0.2-0.3,0.2-0.5,0.2c-7.6-1.9-16-3.1-16.5-1.7
		c-0.2,1.6,11.9,9.4,23.3,15.9l12.6-14.8c0.2-0.2,0.5-0.2,0.7,0c0.2,0.2,0.2,0.4,0.1,0.6L112.1,254
		C112,254.1,111.9,254.2,111.7,254.2z"/>
	<path class="st0" d="M165.9,95.7c-1.3-1.3-3-2.2-4.9-2.6c-1.6-0.2-2.5,0.4-3.8,1c-0.5,0.2-0.6,1-1.1,1.2c-0.6,0.2-1.7-0.3-2.3-0.4
		c-3.5-0.2-6.8,1.2-9.1,3.9c-1.4,1.9-2.4,4-3.2,6.3c-3.8,9.6-9.6,19.2-19.1,23.3c8.5,6.1,19,10,29.4,9.3c5.1-0.3,10.1-1.7,14.6-4.2
		c3.5-1.9,10-5.9,10.6-10.3c0.6-4.1-1.4-10.5-2.7-14.4C172.9,103.9,169.9,99.3,165.9,95.7z"/>
	<path class="st1" d="M149.8,138.4c-9.3,0-19-3.3-27.6-9.5c-0.1-0.1-0.2-0.3-0.2-0.5c0-0.2,0.1-0.3,0.3-0.4c7.9-3.4,14-11,18.8-23.1
		l0.2-0.5c0.7-2.1,1.7-4.1,3-5.9c2.3-2.8,5.8-4.3,9.5-4.1c0.3,0,0.7,0.1,1,0.2c0.4,0.1,0.7,0.2,1.1,0.2c0.1,0,0.2-0.2,0.3-0.4
		c0.2-0.4,0.4-0.6,0.8-0.8c0.3-0.1,0.5-0.2,0.7-0.3c1-0.6,2.2-0.9,3.3-0.7c1.9,0.4,3.7,1.4,5.2,2.8l0,0c4,3.7,7,8.4,8.7,13.6
		c1.4,4.3,3.3,10.5,2.7,14.6c-0.6,4.3-6.3,8.1-10.9,10.7c-4.6,2.5-9.6,3.9-14.8,4.2C151.2,138.4,150.5,138.4,149.8,138.4z
		 M123.5,128.6c8.9,6.2,19,9.3,28.4,8.7c5-0.3,9.9-1.7,14.4-4.1c6.2-3.4,9.9-6.9,10.4-9.9c0.6-3.9-1.2-9.9-2.6-14.1
		c-1.6-5-4.5-9.6-8.4-13.1l0,0c-1.3-1.3-2.9-2.1-4.6-2.5c-1-0.1-1.9,0.1-2.8,0.6c-0.2,0.1-0.5,0.2-0.7,0.3c-0.1,0.1-0.2,0.3-0.3,0.4
		c-0.2,0.4-0.5,0.7-0.9,0.9c-0.6,0.1-1.2,0-1.7-0.2c-0.3-0.1-0.5-0.1-0.8-0.2c-3.3-0.2-6.5,1.1-8.7,3.6c-1.2,1.7-2.2,3.6-2.9,5.6
		l-0.2,0.5C137.3,117.3,131.2,124.9,123.5,128.6z"/>
	<path class="st0" d="M148.3,128.1c1.7-1.8-4.4-0.4-5,11.3c-0.4,8.9,2.4,23.4,2.4,23.4l-19.1,16l11.8,3.4c0,0,21.5-15.7,21.5-16.8
		C159.9,164.1,148.3,128.1,148.3,128.1z"/>
	<path class="st1" d="M138.4,182.5c0,0-0.1,0-0.1,0l-11.8-3.4c-0.2-0.1-0.3-0.2-0.3-0.4c0-0.2,0-0.3,0.2-0.4l18.9-15.8
		c-0.4-2-2.8-15.1-2.4-23.3c0.4-8.4,3.8-11.9,5.3-12.3c0.3-0.1,0.6,0,0.8,0.3c0.1,0.3,0.1,0.7-0.2,0.9c2.1,6.5,11.6,36,11.6,37.1
		c0.1,1.1-11.8,10-21.7,17.2C138.6,182.5,138.5,182.5,138.4,182.5z M127.6,178.5l10.7,3c7.8-5.7,20.2-15,21.1-16.4
		c-0.3-1.7-7.1-22.9-11.6-37l0,0c-1.2,0.9-3.7,3.9-4.1,11.2c-0.4,8.7,2.4,23.2,2.4,23.3c0,0.2,0,0.3-0.2,0.4L127.6,178.5z
		 M159.9,165.4L159.9,165.4z"/>
	<ellipse class="st2" cx="198.1" cy="257.9" rx="110.3" ry="7"/>
	<path class="st3" d="M181.9,118.4c-0.7-0.5-31.7,1.4-37.1,11.7c-5.4,10.4,13.9,41.6,13.9,41.6L198,160
		C198,160,200.8,133.2,181.9,118.4z"/>
	<path class="st0" d="M305.9,209.8c5.1,23.3-11.8,40.3-11.8,40.3H175.5c0,0-16.8-16.9-11.8-40.3s40.8-36.2,51.7-45.8
		c10.9-9.6,7-25.9-10.1-38.4s-40.2-20.4-39.6-47.4c0.4-17.3,14-28.5,14-28.5H290c0,0,13.6,11.2,14,28.5c0.6,27-22.5,34.9-39.6,47.4
		s-21,28.8-10.1,38.4C265.1,173.6,300.9,186.4,305.9,209.8z"/>
	<path class="st1" d="M294.2,250.6H175.5c-0.1,0-0.2-0.1-0.3-0.1c-0.2-0.2-16.9-17.4-11.9-40.8c3.7-16.9,23.4-28.5,37.8-36.9
		c5.9-3.4,10.9-6.4,14-9.1c4-3.4,6.2-8.4,5.9-13.6c-0.4-8.1-6.2-16.9-16-24.1c-3.4-2.5-7-4.8-10.6-7c-14.6-9.2-29.7-18.8-29.2-40.7
		c0.4-17.3,14-28.7,14.2-28.8c0.1-0.1,0.2-0.1,0.3-0.1H290c0.1,0,0.2,0,0.3,0.1c0.1,0.1,13.8,11.5,14.2,28.8
		c0.5,21.9-14.6,31.5-29.2,40.7c-3.5,2.3-7.2,4.6-10.6,7c-9.8,7.1-15.6,15.9-16,24.1c-0.3,5.2,1.9,10.3,5.9,13.6
		c3,2.7,8.1,5.7,14,9.1c14.4,8.4,34.2,20,37.8,36.9c5.1,23.3-11.7,40.6-11.9,40.8C294.4,250.5,294.3,250.6,294.2,250.6z
		 M294.2,250.1L294.2,250.1z M175.7,249.6H294c1.6-1.7,16.2-18,11.5-39.8c-3.6-16.5-23.1-28-37.4-36.3c-5.9-3.5-11-6.4-14.1-9.2
		c-4.2-3.5-6.5-8.9-6.2-14.4c0.4-8.4,6.4-17.5,16.4-24.8c3.4-2.5,7.1-4.8,10.6-7.1c14.4-9.1,29.3-18.5,28.8-39.9
		c-0.4-16-12.3-26.9-13.7-28h-110c-1.4,1.2-13.3,12-13.7,28c-0.5,21.4,14.4,30.8,28.8,39.9c3.6,2.3,7.2,4.6,10.6,7.1
		c10,7.3,16,16.3,16.4,24.8c0.3,5.5-2,10.8-6.2,14.3c-3.1,2.8-8.2,5.8-14.1,9.2c-14.3,8.4-33.8,19.8-37.4,36.3
		C159.5,231.6,174.2,248,175.7,249.6L175.7,249.6z"/>
	<path class="st3" d="M199.7,113.1c3.7,2.3,7.5,4.7,11.1,7.3c8.5,5.9,14.9,14.4,18.3,24.2c3.3,9.4,2.4,19.4,4.4,29.1
		c0.1,0.8,0.5,1.4,1.1,1.9c1,0.4,2.1,0.1,2.8-0.6c0.5-0.7,0.9-1.6,0.9-2.5c1.3-7.8,1.2-15.1,1.7-23c0.6-10.1,7.5-20.6,18.9-29
		c3.6-2.6,7.4-5,11.1-7.3c8.3-5.2,40.6-28.4,19.1-35.3c-4.6-1.5-9.7-1.1-14.6-0.6l-76.9,6.6c-4.5,0.4-9,0.8-13.1,2.3
		c-4.1,1.5-7.6,4.4-8.4,8.1C174.8,101.2,193.7,109.4,199.7,113.1z"/>
	<path class="st3" d="M294.2,207.8c-4.5-3.5-10.1-5.2-15.7-4.9c-7.9,0.3-15.5,2.9-23.3,2.5c-9.3-0.4-18.2-5.1-27.5-4.1
		c-10.9,1.1-18.8,9.3-29.4,11.8c-5.6,1.3-11.8,0.9-17.3,2.6c-6.5,2-9.3,7.5-8.6,12.9c0.2,1.7,4.8,14.8,7.4,14.8h110
		c5.7,0,9.9-24.2,9.3-27.5C298.5,212.6,296.8,209.8,294.2,207.8z"/>
	<path class="st1" d="M177.6,41.1H292c2.4,0,4.3,1.9,4.3,4.3v0c0,2.4-1.9,4.3-4.3,4.3H177.6c-2.4,0-4.3-1.9-4.3-4.3v0
		C173.3,43,175.3,41.1,177.6,41.1z"/>
	<path class="st1" d="M292,50.2H177.6c-2.6,0-4.8-2.1-4.8-4.8c0-2.6,2.1-4.8,4.8-4.8H292c2.6,0,4.8,2.1,4.8,4.8
		C296.8,48,294.7,50.2,292,50.2z M177.6,41.5c-2.1-0.1-4,1.5-4.1,3.7c-0.1,2.1,1.5,4,3.7,4.1c0.1,0,0.3,0,0.4,0H292
		c2.1-0.1,3.8-1.9,3.7-4.1c-0.1-2-1.7-3.6-3.7-3.7H177.6z"/>
	<path class="st1" d="M175.4,250.1h118.8c2.4,0,4.3,1.9,4.3,4.3v0c0,2.4-1.9,4.3-4.3,4.3H175.4c-2.4,0-4.3-1.9-4.3-4.3v0
		C171.1,252,173.1,250.1,175.4,250.1z"/>
	<path class="st1" d="M294.2,259.2H175.5c-2.6,0-4.8-2.1-4.8-4.8c0-2.6,2.1-4.8,4.8-4.8h118.8c2.6,0,4.8,2.1,4.8,4.8
		C299,257,296.9,259.2,294.2,259.2C294.2,259.2,294.2,259.2,294.2,259.2z M175.5,250.5c-2.1,0-3.9,1.7-3.9,3.9
		c0,2.1,1.7,3.9,3.9,3.9h118.8c2.1,0,3.9-1.7,3.9-3.9c0-2.1-1.7-3.9-3.9-3.9H175.5z"/>
	<path class="st3" d="M233.1,179.4c-3.3,0-3.3,10.9,0,10.9S236.4,179.4,233.1,179.4z"/>
	<path class="st3" d="M238.8,190.3c-1.3,0-1.3,3.8,0,3.8S240.2,190.3,238.8,190.3z"/>
	<path class="st1" d="M230.7,103c-15.1-0.1-30.1-2.4-44.6-6.7c-0.2-0.1-0.4-0.3-0.3-0.6c0,0,0,0,0,0c0.1-0.2,0.3-0.4,0.6-0.3
		c0.6,0.2,63.7,20.7,97.4-10.9c0.2-0.2,0.5-0.2,0.7,0c0.2,0.2,0.2,0.5,0,0.6C269.6,99.1,249.1,103,230.7,103z"/>
	<path class="st1" d="M216.5,225.7c-11.9,0-23.7-1.7-35-5.1c-0.3-0.1-0.4-0.3-0.3-0.6c0.1-0.3,0.3-0.4,0.6-0.3c0,0,0,0,0.1,0
		c0.3,0.1,34.6,11.3,65.5,0l36.7-13.4c0.2-0.1,0.5,0,0.6,0.2s0,0.5-0.2,0.6c0,0-0.1,0-0.1,0l-36.7,13.4
		C237.6,224.1,227.1,225.8,216.5,225.7z"/>
	<path class="st1" d="M262.3,208.6h-0.1c-10.6-2.6-29-7-29.2-7.1c-0.2-0.1-0.4-0.3-0.3-0.6c0.1-0.2,0.3-0.3,0.5-0.3
		c0.2,0.1,18.6,4.5,29.2,7.1c0.2,0.1,0.4,0.3,0.3,0.5c0,0,0,0,0,0C262.7,208.5,262.5,208.6,262.3,208.6z"/>
	<path class="st0" d="M166.5,120.2l2.2,6.9c0,0,0.1,3.4-4.8,3.8c-4.9,0.4-6.6-2.5-6.6-2.5l-3.6-12.9c0,0,5.9-6.2,2.5-13.2
		c3,2.9,7.4,3.6,11.2,1.8c1.2,3.4,2.1,6.8,2.9,10.3C170.8,117.9,166.5,120.2,166.5,120.2z"/>
	<path class="st1" d="M163,131.4c-4.5,0-6.1-2.7-6.2-2.8c0,0,0-0.1,0-0.1l-3.6-12.9c0-0.2,0-0.4,0.1-0.5c0.1-0.1,5.6-6,2.4-12.6
		c-0.1-0.3,0-0.6,0.2-0.7c0.2-0.1,0.4,0,0.6,0.1c2.8,2.7,7.1,3.4,10.6,1.7c0.1-0.1,0.3-0.1,0.4,0c0.1,0,0.2,0.2,0.3,0.3
		c1.2,3.4,2.1,6.8,2.9,10.3c0.6,3.4-2.5,5.6-3.5,6.3l2,6.5c0,0,0,0.1,0,0.1c0,0,0.1,3.9-5.3,4.3C163.6,131.4,163.3,131.4,163,131.4z
		 M157.7,128.1c0.2,0.4,1.9,2.6,6.1,2.2c4.2-0.3,4.3-2.8,4.4-3.2l-2.2-6.8c-0.1-0.2,0-0.5,0.2-0.6c0,0,3.9-2.1,3.4-5.4
		c-0.7-3.3-1.6-6.5-2.7-9.6c-3.2,1.4-6.9,1-9.7-0.9c1.7,5.8-2.1,10.7-3,11.8L157.7,128.1z"/>
	<path class="st0" d="M155.7,114.3c-0.4-0.6-0.9-1-1.5-1.3c-0.6-0.2-1.2-0.3-1.9-0.3c-0.3,0-0.7,0-1,0.1c-0.2,0.1-0.4,0.3-0.6,0.4
		c-0.4,0.4-0.7,0.9-0.7,1.5c0,0.5,0.1,0.9,0.4,1.3c0.2,0.5,0.5,0.9,0.8,1.3c1.4,1.6,3.8,1.7,5.4,0.3c0,0,0,0,0,0"/>
	<path class="st1" d="M154,119.3h-0.2c-1.2-0.1-2.3-0.6-3-1.5c-0.4-0.4-0.7-0.9-0.9-1.4c-0.3-0.5-0.4-1-0.4-1.6
		c0.1-0.7,0.4-1.4,0.9-1.8c0.2-0.2,0.5-0.4,0.7-0.6c0.4-0.2,0.8-0.2,1.2-0.2c0.7,0,1.4,0.1,2,0.3c0.7,0.3,1.4,0.8,1.8,1.5
		c0.2,0.2,0.1,0.5-0.1,0.7c0,0,0,0,0,0c-0.2,0.1-0.5,0.1-0.7-0.2c-0.3-0.5-0.8-0.8-1.3-1c-0.6-0.2-1.1-0.3-1.7-0.2
		c-0.3,0-0.5,0-0.8,0.1c-0.2,0.1-0.3,0.2-0.4,0.3c-0.3,0.3-0.5,0.7-0.6,1.2c0,0.4,0.1,0.8,0.3,1.1c0.2,0.4,0.4,0.8,0.7,1.2
		c0.6,0.7,1.4,1.1,2.3,1.1c0.9,0.1,1.7-0.3,2.4-0.8c0.2-0.2,0.5-0.2,0.7,0c0,0,0,0,0,0c0.2,0.2,0.2,0.5,0,0.7c0,0,0,0,0,0
		C156.1,118.9,155.1,119.3,154,119.3z"/>
	<path class="st0" d="M162.6,109.2c0,0,3.7,2.7,3.3,3.5c-0.3,0.8-2,1-2,1"/>
	<path class="st1" d="M163.9,114.2c-0.3,0-0.5-0.2-0.5-0.5c0-0.3,0.2-0.5,0.5-0.5c0.6-0.1,1.5-0.3,1.6-0.7c-0.9-1.1-2-2.1-3.2-2.9
		c-0.2-0.2-0.3-0.5-0.1-0.7c0.2-0.2,0.5-0.3,0.7-0.1c0,0,0,0,0,0c2.6,1.9,3.8,3.3,3.5,4.1C166,113.9,164.3,114.1,163.9,114.2
		L163.9,114.2z"/>
	<ellipse transform="matrix(0.8437 -0.5369 0.5369 0.8437 -33.2516 102.8346)" class="st1" cx="160" cy="108.5" rx="0.6" ry="0.9"/>
	
		<ellipse transform="matrix(0.8437 -0.5369 0.5369 0.8437 -31.874 104.7072)" class="st1" cx="163.9" cy="107.1" rx="0.6" ry="0.9"/>
	<path class="st0" d="M167.1,114.4c0,0-4.9,5.2-7.5,0"/>
	<path class="st1" d="M162.7,117.3c-0.2,0-0.3,0-0.5,0c-1.4-0.3-2.5-1.2-3-2.6c-0.1-0.3,0-0.6,0.2-0.7c0.3-0.1,0.6,0,0.7,0.2
		c0,0,0,0,0,0c0.4,1,1.2,1.8,2.3,2c2,0.3,4.4-2.1,4.4-2.1c0.2-0.2,0.5-0.2,0.7,0c0,0,0,0,0,0c0.2,0.2,0.2,0.5,0,0.7
		C167.4,114.9,165.1,117.3,162.7,117.3z"/>
	<path class="st1" d="M166.5,120.2c0,0-3.6,1-5.5,0.6c0,0,2.6,3.7,6.8,3.6L166.5,120.2z"/>
	<path class="st1" d="M167.6,124.8c-4.3,0-6.9-3.6-7-3.8c-0.2-0.2-0.1-0.5,0.1-0.7c0.1-0.1,0.3-0.1,0.4-0.1c1.8,0.4,5.2-0.5,5.3-0.6
		c0.3-0.1,0.5,0.1,0.6,0.3l1.2,4.1c0,0.2,0,0.3-0.1,0.4c-0.1,0.1-0.2,0.2-0.4,0.2L167.6,124.8z M162.2,121.4c1.3,1.3,3,2.2,4.9,2.4
		l-0.9-3C164.9,121.1,163.6,121.3,162.2,121.4L162.2,121.4z"/>
	<path class="st1" d="M198,160c0,0,0,19.8-2.3,28.2c-6.6,23.7-54.4,61.6-54.4,61.6l-10.6-10.5l29.2-42l-35.3,41.3l-11.7-10.6
		l45.9-56.1L198,160z"/>
	<path class="st1" d="M141.3,250.3c-0.1,0-0.3-0.1-0.4-0.1l-10.6-10.5c-0.2-0.2-0.2-0.4-0.1-0.6l23.4-33.7l-28.7,33.6
		c-0.1,0.1-0.2,0.2-0.4,0.2c-0.1,0-0.3,0-0.4-0.1l-11.7-10.6c-0.2-0.2-0.2-0.5,0-0.7l45.8-56.1c0.1-0.1,0.1-0.1,0.2-0.2l39.3-11.8
		c0.2,0,0.3,0,0.4,0.1c0.1,0.1,0.2,0.2,0.2,0.4c0,0.8,0,20-2.3,28.3c-2.7,9.9-12.8,23.3-29.8,39.9c-12.7,12.3-24.7,21.8-24.8,21.9
		C141.5,250.3,141.4,250.3,141.3,250.3z M131.3,239.3l10,9.9c4.4-3.5,47.8-38.8,53.9-61.1c2-7.3,2.3-23.8,2.3-27.4L159,172.3
		l-45.5,55.7l11,10l34.9-40.9c0.2-0.2,0.5-0.2,0.7-0.1c0.2,0.2,0.3,0.5,0.1,0.7L131.3,239.3z"/>
	<path class="st0" d="M130.7,239.3l-7.6,8.5c0,0-12.5-4.2-11.9-1.8c0.5,2.4,16.8,15.6,17.6,15.8c0.8,0.3,12.5-12,12.5-12"/>
	<path class="st1" d="M128.7,262.3h-0.1c-1-0.3-17.3-13.6-17.9-16.2c-0.1-0.3,0-0.7,0.3-1c1.4-1.3,9.1,1.1,12,2l7.4-8.2
		c0.2-0.2,0.5-0.2,0.7,0c0.2,0.2,0.2,0.5,0,0.7l-7.6,8.4c-0.1,0.2-0.3,0.2-0.5,0.1c-5.5-1.9-10.7-2.9-11.3-2.4
		c0.5,2,15.4,14.2,17.2,15.4c1.2-0.7,7-6.5,12.1-11.8c0.2-0.2,0.5-0.2,0.7,0c0,0,0,0,0,0c0.2,0.2,0.2,0.5,0,0.7c0,0,0,0,0,0
		C131,261.3,129.2,262.3,128.7,262.3z"/>
	<path class="st0" d="M142.5,243.2c-0.1,0-0.3-0.1-0.3-0.2c-0.2-0.2-0.1-0.5,0-0.6c0,0,0,0,0,0c0.4-0.3,39.4-33.7,47.2-52.5
		c7.7-18.6,3.6-26.1,3.6-26.1c-0.1-0.2,0-0.5,0.2-0.6c0.2-0.1,0.5,0,0.6,0.2c0.2,0.3,4.3,7.8-3.6,26.9s-47.1,52.5-47.5,52.8
		C142.7,243.2,142.6,243.2,142.5,243.2z"/>
	<path class="st0" d="M162.6,181.3c-0.1,0-0.2,0-0.3-0.1c-0.2-0.2-0.2-0.4,0-0.6c0,0,0,0,0,0l9.8-10.7c0.1-0.1,0.3-0.2,0.5-0.1
		c0.2,0.1,0.3,0.2,0.3,0.4v8c0,0.2-0.2,0.4-0.4,0.4c-0.2,0-0.4-0.2-0.4-0.4v-6.9l-9.1,9.9C162.9,181.2,162.8,181.3,162.6,181.3z"/>
	<polygon class="st0" points="152.9,186.6 166,171.8 133.6,171.8 116.2,189 	"/>
	<path class="st1" d="M116.2,189.5c-0.2,0-0.4-0.1-0.4-0.3c-0.1-0.2,0-0.4,0.1-0.5l17.4-17.3c0.1-0.1,0.2-0.1,0.3-0.1H166
		c0.2,0,0.4,0.1,0.4,0.3c0.1,0.2,0,0.4-0.1,0.5l-13.1,14.8c-0.1,0.1-0.2,0.1-0.3,0.2L116.2,189.5L116.2,189.5z M133.8,172.3
		l-16.4,16.2l35.3-2.3l12.3-13.9H133.8z M152.9,186.6L152.9,186.6z"/>
	<path class="st0" d="M177.1,123.4c0,0,8,32,5.8,33s-29.9,9.8-31.4,10.5c-1.5,0.7-5.3,3.4-5.9,4.8c-0.7,1.5-1.3,7.3,0,6.9
		c1.9-0.4,3.8-1,5.6-1.7c1-0.5,2.5-3.6,2.5-3.6s-0.2,3,1.2,2.3c1.4-0.6,3.9-3.9,3.9-3.9s34.9-1.2,38.3-8.2c3.4-7,1.5-22.1-4.1-33.6
		C187.3,118.4,177.6,116.4,177.1,123.4z"/>
	<path class="st1" d="M145.4,179.2c-0.2,0-0.5-0.1-0.6-0.3c-0.9-1.1-0.2-6,0.3-7.3c0.7-1.6,4.5-4.3,6.2-5.1
		c0.7-0.3,6.3-2.1,12.7-4.3c8.1-2.7,17.4-5.7,18.7-6.3c1-1.2-2.3-17.5-6-32.5c0-0.1,0-0.1,0-0.2c0.2-2.4,1.4-4.1,3.4-4.4
		c3.7-0.7,9.4,2.8,13.3,10.8c5.7,11.7,7.5,27,4.1,34c-3.4,7.1-35.2,8.3-38.4,8.4c-0.6,0.8-2.6,3.3-3.9,3.9c-0.4,0.2-0.8,0.2-1.1-0.1
		c-0.3-0.3-0.5-0.7-0.6-1.1c-0.5,0.9-1.1,1.7-1.9,2.4c-1.4,0.6-2.9,1-4.3,1.3c-0.5,0.1-1,0.3-1.3,0.4
		C145.6,179.1,145.5,179.2,145.4,179.2z M177.6,123.4c0.2,0.8,2.1,8.4,3.7,16.1c3.5,16.6,2.4,17.1,1.8,17.4
		c-1.3,0.6-10.6,3.6-18.8,6.3c-6.2,2-12,3.9-12.6,4.2c-1.6,0.7-5.1,3.3-5.7,4.6c-0.6,1.3-1,5.8-0.5,6.3c0.4-0.2,0.8-0.3,1.3-0.4
		c1.4-0.3,2.8-0.8,4.1-1.3c0.6-0.3,1.7-2.3,2.3-3.4c0.1-0.2,0.4-0.3,0.6-0.2c0.2,0.1,0.3,0.2,0.3,0.4c-0.1,0.7,0,1.3,0.3,1.9
		c0.1,0,0.1,0,0.2,0c1-0.5,3-2.9,3.7-3.8c0.1-0.1,0.2-0.2,0.4-0.2c0.1,0,8.8-0.3,17.8-1.5c14.9-1.9,19.1-4.6,20-6.5
		c3.3-6.9,1.5-21.8-4.1-33.2c-3.7-7.5-9-10.9-12.3-10.3C178.7,120.2,177.8,121.4,177.6,123.4L177.6,123.4z"/>
	<path class="st0" d="M152.9,186.6c-1.2-1.8-17.4-28.4-17.4-28.4l-38,3.7l18.7,27.2L152.9,186.6z"/>
	<path class="st1" d="M116.2,189.5c-0.2,0-0.3-0.1-0.4-0.2l-18.7-27.2c-0.1-0.1-0.1-0.3,0-0.5c0.1-0.2,0.2-0.3,0.4-0.3l38-3.7
		c0.2,0,0.4,0.1,0.4,0.2c0.2,0.3,16.1,26.7,17.4,28.4c0.1,0.1,0.1,0.3,0,0.5c-0.1,0.2-0.2,0.3-0.4,0.3L116.2,189.5L116.2,189.5z
		 M98.4,162.3l18.1,26.3l35.7-2.4c-2.7-4.3-15.2-24.9-16.8-27.5L98.4,162.3z"/>
	<path class="st0" d="M129.4,175.1c-0.6-1.2-1.5-2.3-2.5-3.1c-0.7-0.6-1.5-0.9-2.4-1c-0.9-0.1-1.7,0.3-2.3,1c-0.3,0.6-0.5,1.3-0.4,2
		c0.1,1.6,1,3.1,2.3,4.1C126.5,179.6,131.1,178.7,129.4,175.1z"/>
	<path class="st1" d="M126.8,179.2c-1,0-2-0.3-2.9-0.8c-1.4-1-2.4-2.6-2.5-4.4c-0.1-0.8,0-1.6,0.4-2.3c0.6-0.9,1.6-1.3,2.7-1.2
		c1,0.1,1.9,0.5,2.6,1.1c1.2,0.9,2.1,2,2.7,3.3l0,0c0.9,1.9,0.1,3-0.4,3.5C128.7,179,127.7,179.3,126.8,179.2z M124.3,171.5
		c-0.7,0-1.3,0.3-1.7,0.8c-0.3,0.5-0.4,1.1-0.3,1.7c0.1,1.5,0.9,2.8,2.1,3.7c1.3,0.9,3,0.9,4.4,0.1c0.6-0.5,0.7-1.3,0.2-2.4
		c-0.5-1.2-1.4-2.2-2.4-2.9c-0.6-0.5-1.3-0.8-2.1-0.9L124.3,171.5z"/>
	<path class="st0" d="M124.6,173.6c0.4,0.6,0.8,1.2,1.2,1.9l0.8-1.9"/>
	<path class="st1" d="M125.9,176c-0.2,0-0.3-0.1-0.4-0.2c-0.4-0.7-1-1.6-1.1-1.8c-0.1-0.1-0.2-0.2-0.2-0.4c0-0.3,0.2-0.5,0.5-0.5
		c0.3,0,0.3,0,1.1,1.3l0.5-1c0.1-0.2,0.4-0.4,0.6-0.3c0.2,0.1,0.3,0.4,0.2,0.6l-0.8,1.9C126.2,175.9,126.1,176,125.9,176L125.9,176z
		"/>
</g>
</svg>
