<svg xmlns="http://www.w3.org/2000/svg" viewBox="0 0 400 300" width="406" height="306" class="illustration styles_illustrationTablet__1DWOa"><g id="_472_profiling_flatline" data-name="#472_profiling_flatline"><path d="M210.22,204.94l103.81.12a6.66,6.66,0,0,0,6.19-5.34L339.53,97.78a4.25,4.25,0,0,0-4.17-5.35l-103.81-.12a6.66,6.66,0,0,0-6.19,5.34L206.05,199.59A4.25,4.25,0,0,0,210.22,204.94Z" fill="#fff"></path><path d="M314,205.56h0l-103.81-.12h0a4.7,4.7,0,0,1-3.68-1.67,5.06,5.06,0,0,1-1-4.27L224.87,97.55a7.19,7.19,0,0,1,6.68-5.74h0l103.81.12A4.72,4.72,0,0,1,339,93.59a5.09,5.09,0,0,1,1,4.28L320.71,199.82A7.19,7.19,0,0,1,314,205.56Zm-103.81-1.12,103.81.12h0a6.14,6.14,0,0,0,5.7-4.93L339,97.69a4.11,4.11,0,0,0-.77-3.46,3.75,3.75,0,0,0-2.91-1.3l-103.81-.12h0a6.14,6.14,0,0,0-5.7,4.93L206.54,199.68a4.12,4.12,0,0,0,.77,3.46A3.75,3.75,0,0,0,210.22,204.44Z" fill="#231f20"></path><path d="M337.72,107.86h0l-114.17-.14a.5.5,0,0,1-.5-.5.51.51,0,0,1,.5-.5h0l114.18.14a.5.5,0,0,1,.5.5A.51.51,0,0,1,337.72,107.86Z" fill="#231f20"></path><ellipse cx="328.32" cy="99.77" rx="2.89" ry="2.38" transform="translate(30.52 270.25) rotate(-46.69)" fill="#d1d3d4"></ellipse><ellipse cx="319.23" cy="99.76" rx="2.89" ry="2.38" transform="translate(27.67 263.63) rotate(-46.69)" fill="#d1d3d4"></ellipse><ellipse cx="310.14" cy="99.75" rx="2.89" ry="2.38" transform="translate(24.82 257.01) rotate(-46.69)" fill="#d1d3d4"></ellipse><polygon points="283.73 115.72 273.92 167.49 315.52 167.54 325.33 115.77 283.73 115.72" fill="#fff"></polygon><path d="M283.72,115.72l41.61,0-9.8,51.77-41.61,0,9.8-51.77m0-1a1,1,0,0,0-1,.81l-9.8,51.77a1,1,0,0,0,1,1.19l41.6,0h0a1,1,0,0,0,1-.82l9.8-51.77a1,1,0,0,0-.21-.82,1,1,0,0,0-.77-.36l-41.6,0Z" fill="#231f20"></path><path d="M313.31,129.3a4.61,4.61,0,0,0,.2,2,6.17,6.17,0,0,0,.68,1.06,8.53,8.53,0,0,1,1.38,4.22,6.35,6.35,0,0,1-.4,3c-.3.7-.78,1.32-1.06,2a4.07,4.07,0,0,0-.15,2.6c.23.81.69,1.69.27,2.41a1.6,1.6,0,0,1-1.49.67,7.55,7.55,0,0,1-1.67-.41c-3.05-.88-6.89-.46-10.09-.68l-12-.84c-1.63-.12-3.65-.53-4.08-2.11-.36-1.33.94-3.55,1.46-4.8a29.44,29.44,0,0,1,3.13-6.12,13.93,13.93,0,0,0,1.87-2.86,21.12,21.12,0,0,0,.57-2.07,12.51,12.51,0,0,1,3.45-5.24,14.66,14.66,0,0,1,3.47-2.65c4.35-2.26,11.58-.73,13.56,4.08A13.46,13.46,0,0,1,313.31,129.3Z" fill="#fff"></path><path d="M312.84,147.79h-.13a5.45,5.45,0,0,1-1.41-.31l-.37-.11a25.17,25.17,0,0,0-6.61-.59c-1.19,0-2.3,0-3.38-.08l-12-.84c-2.65-.18-4.13-1-4.53-2.48-.34-1.24.45-2.92,1.08-4.27.15-.32.29-.61.4-.86a30,30,0,0,1,3.18-6.23c.16-.23.33-.45.5-.67a9.14,9.14,0,0,0,1.31-2.08,8.83,8.83,0,0,0,.35-1.23c.06-.27.13-.53.2-.8a12.81,12.81,0,0,1,3.59-5.45,14.71,14.71,0,0,1,3.59-2.75,11.6,11.6,0,0,1,9-.33,8.66,8.66,0,0,1,5.24,4.67,13.93,13.93,0,0,1,.9,5.95h0v.09a2.7,2.7,0,0,0,.61,2.36l.18.26a9,9,0,0,1,1.48,4.48,6.83,6.83,0,0,1-.45,3.27,9,9,0,0,1-.54,1,8.53,8.53,0,0,0-.52,1,3.57,3.57,0,0,0-.12,2.26c0,.16.1.32.15.48a2.75,2.75,0,0,1,.06,2.33A2.06,2.06,0,0,1,312.84,147.79Zm-9.4-28.8a9.42,9.42,0,0,0-4.31,1,13.83,13.83,0,0,0-3.35,2.56,11.68,11.68,0,0,0-3.31,5c-.08.25-.13.5-.19.75a10.55,10.55,0,0,1-.4,1.37,9.65,9.65,0,0,1-1.45,2.32l-.49.65a29.91,29.91,0,0,0-3.06,6c-.11.27-.26.57-.41.91-.54,1.13-1.27,2.69-1,3.56s1.49,1.57,3.61,1.72l12,.84c1.05.07,2.15.08,3.31.08a26,26,0,0,1,6.9.63l.39.12a5.07,5.07,0,0,0,1.16.26,1.09,1.09,0,0,0,1-.41c.22-.37,0-.91-.15-1.48-.06-.18-.12-.36-.17-.53a4.6,4.6,0,0,1,.17-2.93,8.58,8.58,0,0,1,.58-1.13c.18-.31.35-.6.49-.9a6,6,0,0,0,.36-2.79,8,8,0,0,0-1.29-4l-.18-.24a4.59,4.59,0,0,1-.55-.91,4.8,4.8,0,0,1-.25-2.1l.52-.07-.51,0a12.84,12.84,0,0,0-.82-5.51,7.63,7.63,0,0,0-4.65-4.1A11.26,11.26,0,0,0,303.44,119Z" fill="#231f20"></path><path d="M276.75,152.54l-2.83,15,41.61,0,2.83-14.95c-3.43-4.11-9.19-5.53-14.26-6-2-.18-3.8-.23-5.37-.23h-.37c-1.47,0-3.17,0-5,.21h-.09C288,147,281.73,148.44,276.75,152.54Z" fill="#00e690"></path><path d="M292.6,149.44h0l1.27,14,.38,4.08h.94l1.92-4.09,6.55-13.92,0,0h0C301.18,148.64,295.41,148.64,292.6,149.44Z" fill="#231f20"></path><path d="M303.68,149.46a7.39,7.39,0,0,1-6,3.1,5.14,5.14,0,0,1-5.08-3.11l2.84-12.19,10,0Z" fill="#fff"></path><path d="M297.69,153.07h0a5.69,5.69,0,0,1-5.57-3.46.45.45,0,0,1,0-.28l2.84-12.18a.52.52,0,0,1,.5-.4h10a.5.5,0,0,1,.39.18.5.5,0,0,1,.12.41l-1.77,12.19a.48.48,0,0,1-.07.2A7.87,7.87,0,0,1,297.69,153.07Zm-4.55-3.66a4.67,4.67,0,0,0,4.54,2.63h0a6.89,6.89,0,0,0,5.5-2.77l1.66-11.48h-9Zm10.54.05h0Z" fill="#231f20"></path><path d="M304.46,142.49a10.92,10.92,0,0,1-3.54,2.73c-2.19,1.13-5.4,2.39-7.73,2l1.37-5.15a22.27,22.27,0,0,0,5.3,0,16.37,16.37,0,0,0,4.75-.91C304.88,141.1,304.86,142,304.46,142.49Z" fill="#231f20"></path><path d="M294.09,147.8a6.27,6.27,0,0,1-1-.08.49.49,0,0,1-.34-.22.47.47,0,0,1-.06-.4l1.37-5.15a.49.49,0,0,1,.55-.36,21,21,0,0,0,5.18,0,16,16,0,0,0,4.62-.87.59.59,0,0,1,.7.2,1.81,1.81,0,0,1-.28,1.85,11.2,11.2,0,0,1-3.7,2.86C299.51,146.5,296.58,147.8,294.09,147.8Zm-.27-1c2.41.09,5.56-1.35,6.87-2a10.08,10.08,0,0,0,3.38-2.59h0a1.4,1.4,0,0,0,.15-.3,18.72,18.72,0,0,1-4.33.74,22.84,22.84,0,0,1-5,0Z" fill="#231f20"></path><path d="M308.79,168.05l-.16,0a.51.51,0,0,1-.33-.65l4-12.56a.52.52,0,0,1,1,.32l-4,12.56A.51.51,0,0,1,308.79,168.05Z" fill="#231f20"></path><path d="M280.65,168h0a.52.52,0,0,1-.49-.54l.76-12.57a.52.52,0,0,1,1,.06l-.76,12.57A.51.51,0,0,1,280.65,168Z" fill="#231f20"></path><path d="M294.67,134.46c.21-2.86-3.09-3.57-3.55-.2a5.56,5.56,0,0,0,.31,3.17,1.53,1.53,0,0,0,2.16.74" fill="#fff"></path><path d="M292.85,138.89a1.7,1.7,0,0,1-.55-.08,2.16,2.16,0,0,1-1.32-1.15,6.1,6.1,0,0,1-.38-3.47c.28-2,1.49-2.79,2.57-2.68a2.56,2.56,0,0,1,2,3,.52.52,0,0,1-1-.08c.08-1.15-.49-1.82-1.1-1.88s-1.24.37-1.43,1.79a5,5,0,0,0,.26,2.86,1.22,1.22,0,0,0,.7.63.92.92,0,0,0,.75-.1.53.53,0,0,1,.71.2.52.52,0,0,1-.21.7A2,2,0,0,1,292.85,138.89Z" fill="#231f20"></path><path d="M307.61,134.48c.87-2.86,4.44-3.56,3.63-.19a7.38,7.38,0,0,1-1.51,3.16c-.75.82-1.77,1.21-2.45.74" fill="#fff"></path><path d="M308,138.91a1.66,1.66,0,0,1-1-.3.51.51,0,1,1,.59-.84c.41.28,1.17,0,1.77-.67a6.85,6.85,0,0,0,1.39-2.93c.08-.34.29-1.43-.31-1.6s-1.87.56-2.33,2.06a.51.51,0,1,1-1-.31c.62-2,2.38-3.07,3.58-2.74.38.1,1.58.61,1,2.83a7.74,7.74,0,0,1-1.63,3.38A3,3,0,0,1,308,138.91Z" fill="#231f20"></path><path d="M294.77,128.18l-1.57,8.29c-.75,4,1.77,7.2,5.63,7.21h.81a9,9,0,0,0,8.36-7.19c.38-2,1.76-5.12.3-6.62-2.33-2.4-4.59-4-5.88-7.25C299.46,123.24,294.77,124.06,294.77,128.18Z" fill="#fff"></path><path d="M299.65,144.19h-.82A6.12,6.12,0,0,1,294,142a6.69,6.69,0,0,1-1.29-5.64l1.56-8.23c0-4.36,4.66-5.32,7.73-5.95l.33-.07a.51.51,0,0,1,.58.31,14.92,14.92,0,0,0,4.21,5.55c.51.49,1,1,1.56,1.53,1.34,1.37.7,3.72.19,5.61-.14.52-.27,1-.35,1.46A9.53,9.53,0,0,1,299.65,144.19Zm2.46-21c-2.91.61-6.82,1.46-6.82,5a.31.31,0,0,1,0,.1l-1.57,8.28a5.68,5.68,0,0,0,1.07,4.79,5.11,5.11,0,0,0,4.05,1.81h.82a8.45,8.45,0,0,0,7.84-6.77c.09-.46.23-1,.38-1.54.46-1.72,1-3.67.06-4.62-.52-.54-1-1-1.53-1.5A16.51,16.51,0,0,1,302.11,123.21Zm-7.34,5h0Z" fill="#231f20"></path><path d="M300.37,137.67a9.36,9.36,0,0,1-1.11-.07.51.51,0,1,1,.13-1,8.91,8.91,0,0,0,1.81,0,13.79,13.79,0,0,0-.28-4.79.52.52,0,0,1,.42-.6.53.53,0,0,1,.6.42c.19,1.07.78,4.65.06,5.63a.82.82,0,0,1-.58.35A7.92,7.92,0,0,1,300.37,137.67Z" fill="#231f20"></path><path d="M272.81,126.48h0l-42.72,0a.56.56,0,1,1,0-1.11h0l42.72.05a.56.56,0,0,1,0,1.11Z" fill="#d1d3d4"></path><path d="M271.36,134.1h0l-42.71,0a.56.56,0,1,1,0-1.11h0l42.72.05a.56.56,0,0,1,0,1.11Z" fill="#d1d3d4"></path><path d="M269.92,141.72h0l-42.72-.05a.56.56,0,0,1-.55-.56.55.55,0,0,1,.55-.55h0l42.72.05a.56.56,0,1,1,0,1.11Z" fill="#d1d3d4"></path><path d="M268.48,149.34h0l-42.72-.06a.54.54,0,0,1-.55-.55.55.55,0,0,1,.55-.56h0l42.72.05a.56.56,0,0,1,.56.56A.57.57,0,0,1,268.48,149.34Z" fill="#d1d3d4"></path><path d="M267,157h0l-30.12,0a.56.56,0,0,1,0-1.11h0l30.12,0a.56.56,0,0,1,0,1.11Z" fill="#d1d3d4"></path><path d="M310.23,197.92h0l-93.3-.11a.54.54,0,0,1-.43-.2.55.55,0,0,1-.12-.46l4.24-22.37a.56.56,0,0,1,.54-.45h0l93.3.11a.55.55,0,0,1,.43.2.58.58,0,0,1,.12.46l-4.24,22.37A.56.56,0,0,1,310.23,197.92ZM217.6,196.7l92.17.11,4-21.26-92.18-.11Z" fill="#d1d3d4"></path><path d="M312.79,182.55h0l-93-.11a.56.56,0,1,1,0-1.11h0l93,.11a.56.56,0,0,1,0,1.11Z" fill="#d1d3d4"></path><path d="M285,197.89h-.1a.56.56,0,0,1-.44-.65l4.23-22.37a.56.56,0,0,1,.65-.44.57.57,0,0,1,.45.65l-4.24,22.37A.56.56,0,0,1,285,197.89Z" fill="#d1d3d4"></path><path d="M237.93,197.83h-.1a.56.56,0,0,1-.45-.65l4.24-22.38a.56.56,0,1,1,1.09.21l-4.23,22.37A.56.56,0,0,1,237.93,197.83Z" fill="#d1d3d4"></path><path d="M159.48,164.33l103.81.12a6.64,6.64,0,0,0,6.19-5.33L288.79,57.18c.56-3-1.31-5.35-4.17-5.35l-103.81-.12A6.64,6.64,0,0,0,174.62,57L155.31,159C154.75,161.93,156.62,164.33,159.48,164.33Z" fill="#fff"></path><path d="M263.29,165h0l-103.81-.12a4.67,4.67,0,0,1-3.68-1.66,5.08,5.08,0,0,1-1-4.28L174.13,57a7.17,7.17,0,0,1,6.68-5.74h0l103.81.12A4.66,4.66,0,0,1,288.3,53a5.09,5.09,0,0,1,1,4.28L270,159.21A7.17,7.17,0,0,1,263.29,165Zm-103.81-1.12,103.81.12h0A6.13,6.13,0,0,0,269,159L288.3,57.08a4.1,4.1,0,0,0-.77-3.45,3.67,3.67,0,0,0-2.91-1.3l-103.81-.12h0a6.15,6.15,0,0,0-5.7,4.93L155.8,159.08a4.13,4.13,0,0,0,.77,3.45A3.68,3.68,0,0,0,159.48,163.83Z" fill="#231f20"></path><path d="M287,67.25h0l-114.17-.13a.5.5,0,0,1-.5-.5.5.5,0,0,1,.5-.5h0L287,66.25a.51.51,0,0,1,.5.5A.5.5,0,0,1,287,67.25Z" fill="#231f20"></path><ellipse cx="277.58" cy="59.17" rx="2.89" ry="2.38" transform="translate(44.13 220.58) rotate(-46.69)" fill="#d1d3d4"></ellipse><ellipse cx="268.49" cy="59.16" rx="2.89" ry="2.38" transform="translate(41.28 213.96) rotate(-46.69)" fill="#d1d3d4"></ellipse><ellipse cx="259.4" cy="59.15" rx="2.89" ry="2.38" transform="translate(38.43 207.34) rotate(-46.69)" fill="#d1d3d4"></ellipse><polygon points="232.99 75.12 223.18 126.89 264.79 126.93 274.59 75.17 232.99 75.12" fill="#fff"></polygon><path d="M233,75.12l41.6,0-9.8,51.77-41.61-.05L233,75.12m0-1a1,1,0,0,0-1,.81l-9.8,51.77a1,1,0,0,0,.21.82,1,1,0,0,0,.77.36l41.61.05h0a1,1,0,0,0,1-.81l9.8-51.77a1,1,0,0,0-.21-.82,1,1,0,0,0-.77-.37l-41.6,0Z" fill="#231f20"></path><path d="M226,111.93l-2.83,14.95,41.61.05L267.62,112c-3.43-4.12-9.19-5.53-14.26-6-2-.18-3.8-.23-5.37-.23h-.37c-1.47,0-3.17,0-5,.21h-.09C237.28,106.43,231,107.84,226,111.93Z" fill="#00e690"></path><path d="M241.86,108.84h0l1.28,14,.37,4.08h.94l1.92-4.09,6.55-13.92,0,0h0A25.55,25.55,0,0,0,241.86,108.84Z" fill="#231f20"></path><path d="M252.94,108.86a7.37,7.37,0,0,1-6,3.09,5.13,5.13,0,0,1-5.08-3.11l2.85-12.18h10Z" fill="#fff"></path><path d="M247,112.47h0a5.72,5.72,0,0,1-5.57-3.46.53.53,0,0,1,0-.28l2.84-12.19a.53.53,0,0,1,.51-.4h0l10,0a.52.52,0,0,1,.39.17.54.54,0,0,1,.12.42l-1.77,12.18a.48.48,0,0,1-.07.2A7.84,7.84,0,0,1,247,112.47Zm-4.55-3.67a4.67,4.67,0,0,0,4.54,2.64h0a6.83,6.83,0,0,0,5.5-2.77l1.67-11.48h-9Zm10.54.06h0Z" fill="#231f20"></path><path d="M253.72,101.89a10.76,10.76,0,0,1-3.54,2.72c-2.19,1.13-5.4,2.4-7.73,2l1.37-5.16a21.74,21.74,0,0,0,5.3,0,16.37,16.37,0,0,0,4.75-.91C254.14,100.5,254.13,101.39,253.72,101.89Z" fill="#231f20"></path><path d="M243.35,107.19a6.37,6.37,0,0,1-1-.07.53.53,0,0,1-.34-.22.52.52,0,0,1-.06-.4l1.37-5.15a.5.5,0,0,1,.56-.37,21.41,21.41,0,0,0,5.18,0,16.35,16.35,0,0,0,4.61-.87.58.58,0,0,1,.7.19,1.83,1.83,0,0,1-.28,1.86,11.1,11.1,0,0,1-3.7,2.86A17.41,17.41,0,0,1,243.35,107.19Zm-.27-1c2.41.11,5.57-1.35,6.88-2a10.16,10.16,0,0,0,3.37-2.59h0a.8.8,0,0,0,.15-.29,19.23,19.23,0,0,1-4.33.73,23.56,23.56,0,0,1-5,0Z" fill="#231f20"></path><path d="M258.05,127.44l-.15,0a.51.51,0,0,1-.34-.65l4-12.56a.51.51,0,0,1,.65-.33.5.5,0,0,1,.33.64l-4,12.56A.51.51,0,0,1,258.05,127.44Z" fill="#231f20"></path><path d="M229.91,127.41h0a.52.52,0,0,1-.49-.55l.76-12.56a.52.52,0,1,1,1,.06l-.76,12.56A.51.51,0,0,1,229.91,127.41Z" fill="#231f20"></path><path d="M243.94,93.86c.21-2.86-3.09-3.57-3.56-.2a5.52,5.52,0,0,0,.31,3.16,1.54,1.54,0,0,0,2.17.75" fill="#fff"></path><path d="M242.11,98.29a2,2,0,0,1-.55-.08,2.25,2.25,0,0,1-1.32-1.15,6,6,0,0,1-.37-3.47c.28-2,1.48-2.79,2.56-2.68a2.56,2.56,0,0,1,2,3,.52.52,0,1,1-1-.07c.09-1.15-.49-1.82-1.1-1.89s-1.23.38-1.43,1.8a5,5,0,0,0,.26,2.85,1.24,1.24,0,0,0,.7.64,1,1,0,0,0,.76-.1.51.51,0,0,1,.7.2.52.52,0,0,1-.2.7A2.09,2.09,0,0,1,242.11,98.29Z" fill="#231f20"></path><path d="M256.87,93.87c.88-2.86,4.44-3.56,3.63-.19A7.16,7.16,0,0,1,259,96.84c-.74.83-1.77,1.22-2.44.75" fill="#fff"></path><path d="M257.22,98.31a1.68,1.68,0,0,1-1-.3.52.52,0,1,1,.59-.85c.41.29,1.17,0,1.77-.66A7,7,0,0,0,260,93.56c.08-.33.3-1.43-.31-1.59s-1.87.56-2.32,2a.52.52,0,1,1-1-.3c.62-2,2.38-3.08,3.59-2.75.37.11,1.57.62,1,2.83a8,8,0,0,1-1.64,3.39A3,3,0,0,1,257.22,98.31Z" fill="#231f20"></path><path d="M244,87.58l-1.57,8.28c-.76,4,1.76,7.21,5.62,7.21h.82a9,9,0,0,0,8.35-7.19L258.75,88s1.31-8-6.14-7.2S244,87.58,244,87.58Z" fill="#fff"></path><path d="M248.91,103.59h-.82a6.15,6.15,0,0,1-4.84-2.18A6.69,6.69,0,0,1,242,95.77l1.57-8.29c0-.06,1.28-6.32,9-7.18a5.91,5.91,0,0,1,5.18,1.49c2.15,2.27,1.54,6.15,1.52,6.32L257.77,96A9.53,9.53,0,0,1,248.91,103.59Zm-4.37-15.91L243,96a5.74,5.74,0,0,0,1.07,4.79,5.17,5.17,0,0,0,4.05,1.81h.82a8.44,8.44,0,0,0,7.84-6.77l1.49-7.86s.55-3.53-1.26-5.43a4.92,4.92,0,0,0-4.31-1.17C245.71,82.1,244.59,87.44,244.54,87.68Z" fill="#231f20"></path><path d="M249.63,97.06a10.9,10.9,0,0,1-1.11-.06.52.52,0,0,1-.44-.58.52.52,0,0,1,.57-.45,7.84,7.84,0,0,0,1.81,0c.24-.48.11-2.65-.28-4.79a.52.52,0,0,1,.42-.6.51.51,0,0,1,.6.41c.19,1.08.78,4.66.06,5.63a.84.84,0,0,1-.58.36A7.83,7.83,0,0,1,249.63,97.06Z" fill="#231f20"></path><path d="M222.07,85.88h0l-42.72,0a.56.56,0,0,1,0-1.11h0l42.72,0a.56.56,0,0,1,0,1.11Z" fill="#d1d3d4"></path><path d="M220.63,93.5h0l-42.72,0a.56.56,0,0,1,0-1.12h0l42.72.06a.55.55,0,0,1,.55.55A.56.56,0,0,1,220.63,93.5Z" fill="#d1d3d4"></path><path d="M219.18,101.11h0l-42.71,0a.56.56,0,1,1,0-1.11h0l42.71,0a.56.56,0,0,1,.56.56A.55.55,0,0,1,219.18,101.11Z" fill="#d1d3d4"></path><path d="M217.74,108.73h0l-42.72,0a.56.56,0,0,1,0-1.11h0l42.72.05a.56.56,0,1,1,0,1.11Z" fill="#d1d3d4"></path><path d="M216.3,116.35h0l-30.12,0a.56.56,0,0,1,0-1.11h0l30.12,0a.55.55,0,0,1,.55.55A.56.56,0,0,1,216.3,116.35Z" fill="#d1d3d4"></path><path d="M259.49,157.32h0l-93.3-.11a.57.57,0,0,1-.55-.66l4.24-22.37a.56.56,0,0,1,.55-.46h0l93.3.11a.56.56,0,0,1,.43.21.52.52,0,0,1,.12.45L260,156.86A.56.56,0,0,1,259.49,157.32Zm-92.63-1.22,92.17.11,4-21.27-92.17-.11Z" fill="#d1d3d4"></path><path d="M262.05,142h0l-93-.11a.56.56,0,0,1-.56-.56.55.55,0,0,1,.56-.55h0l93,.11a.56.56,0,0,1,0,1.11Z" fill="#d1d3d4"></path><path d="M234.23,157.29h-.1a.56.56,0,0,1-.44-.65l4.24-22.37a.55.55,0,0,1,.64-.45.56.56,0,0,1,.45.65l-4.24,22.37A.56.56,0,0,1,234.23,157.29Z" fill="#d1d3d4"></path><path d="M187.19,157.23h-.1a.56.56,0,0,1-.44-.65l4.23-22.37a.56.56,0,0,1,1.09.21l-4.23,22.37A.56.56,0,0,1,187.19,157.23Z" fill="#d1d3d4"></path><path d="M89.77,262.17,88.07,231l77.12-14.12c.09.83,3.41,26.63,5.81,45.27Z" fill="#231f20"></path><path d="M171,262.67H89.77a.5.5,0,0,1-.5-.47l-1.7-31.15a.51.51,0,0,1,.41-.52l77.12-14.12a.5.5,0,0,1,.39.1.5.5,0,0,1,.2.34c.09.89,4.09,32,5.81,45.26a.55.55,0,0,1-.12.39A.52.52,0,0,1,171,262.67Zm-80.76-1h80.2c-2-15.46-5.18-40.19-5.68-44.18L88.59,231.43Z" fill="#231f20"></path><path d="M212.17,168.15l13.62-11.88s5-12.44,7-14.81,17-9.7,17.17-8.06-3.41,3.86-4.41,4.68c-1.51,1.23-3.08,2.37-4.63,3.54,3.14,1.3,6.28,4.89,7.67,8a8.53,8.53,0,0,1-.63,8.48,3.66,3.66,0,0,1-1.95,1.45,2,2,0,0,1-2.17-.8l-.2.25a27.16,27.16,0,0,1-5.67,5.66c-1.76,1.18-3.95,1.31-5.39,2.77-2.1,2.11-3.76,5-5.56,7.34L217,188Z" fill="#fff"></path><path d="M217,188.48h-.1a.52.52,0,0,1-.39-.38l-4.78-19.82a.5.5,0,0,1,.15-.5L225.37,156c.54-1.33,5-12.52,7-14.83s15.42-9.08,17.52-8.42a.74.74,0,0,1,.53.63c.14,1.46-1.85,3.07-3.9,4.59l-.7.52c-1.06.87-2.16,1.7-3.23,2.5l-.74.56a17.88,17.88,0,0,1,7.15,7.85,9,9,0,0,1-.68,9,4.12,4.12,0,0,1-2.23,1.64,2.56,2.56,0,0,1-2.28-.5,27.2,27.2,0,0,1-5.6,5.54,12.21,12.21,0,0,1-2.52,1.18,7.39,7.39,0,0,0-2.79,1.52,35.31,35.31,0,0,0-3.75,4.81c-.59.85-1.18,1.69-1.77,2.48l-10,13.25A.51.51,0,0,1,217,188.48Zm-4.23-20.15,4.47,18.5,9.4-12.41c.59-.77,1.16-1.6,1.74-2.44a36.37,36.37,0,0,1,3.87-4.94,8.21,8.21,0,0,1,3.15-1.76,11,11,0,0,0,2.31-1.07,26.93,26.93,0,0,0,5.56-5.57l.2-.25a.57.57,0,0,1,.44-.18.51.51,0,0,1,.39.26,1.48,1.48,0,0,0,1.61.56,3.17,3.17,0,0,0,1.67-1.27,8,8,0,0,0,.57-8c-1.25-2.76-4.26-6.4-7.4-7.7a.49.49,0,0,1-.3-.39.48.48,0,0,1,.19-.46l1.41-1.07c1.06-.8,2.15-1.62,3.2-2.47.18-.15.43-.33.73-.56,1-.74,3.28-2.43,3.49-3.48-2,0-14.26,5.78-16.28,8.14s-6.84,14.54-6.89,14.66a.56.56,0,0,1-.14.2Z" fill="#231f20"></path><path d="M84.93,250.61s1-83.56,10.95-100.28,37.3-21.49,50.88-12.31S171,243.56,171,243.56,128.25,252.43,84.93,250.61Z" fill="#00e690"></path><path d="M146.76,138s12.76,1.95,19.79,12.77,14.82,25.74,14.82,25.74l36.68-19.15,17.17,16.33s-30.8,33.34-45.69,42.37c-14.05,8.52-25.11-3.25-32.78-10.83-3.25-3.21-8.28-11.1-8.28-11.1Z" fill="#00e690"></path><path d="M148.81,104.61a5.34,5.34,0,0,1-3.49-1.29,5.39,5.39,0,1,1,3.93,1.27Zm0-9.81h-.36a4.41,4.41,0,0,0-3,1.54,4.33,4.33,0,0,0-1,3.2,4.4,4.4,0,1,0,7.24-3.7A4.32,4.32,0,0,0,148.83,94.8Z" fill="#231f20"></path><path d="M146.79,103.19s6.44,8.91,5.26,10.86-5.39.87-5.39.87" fill="#fff"></path><path d="M149.08,115.72a11.53,11.53,0,0,1-2.54-.31.5.5,0,0,1-.36-.61.49.49,0,0,1,.61-.36c1.07.27,4,.69,4.83-.64.63-1-2.23-6.16-5.24-10.32a.5.5,0,0,1,.11-.69.49.49,0,0,1,.7.11c1.11,1.53,6.57,9.28,5.29,11.41C151.81,115.43,150.37,115.72,149.08,115.72Z" fill="#231f20"></path><path d="M145,91.13c4,3,3.14,9.69,3.29,14q.32,9.13.2,18.28c0,3.86-10,4.36-11.84,3.28l2.88,9.44-22-1.44.33-12.63s-2.79-17.34.78-25.37a13.6,13.6,0,0,1,11.9-8S141.09,88.22,145,91.13Z" fill="#fff"></path><path d="M139.52,136.65h0l-22-1.44a.5.5,0,0,1-.47-.51l.33-12.64c-.11-.62-2.77-17.48.82-25.55s12.22-8.28,12.37-8.28h0c.41,0,10.76-.49,14.76,2.5h0c3.51,2.63,3.49,7.86,3.47,12,0,.83,0,1.63,0,2.35.21,6.07.28,12.23.2,18.3a3.26,3.26,0,0,1-2,2.79c-2.57,1.44-7.28,1.75-9.6,1.27L140,136a.51.51,0,0,1-.09.46A.49.49,0,0,1,139.52,136.65Zm-21.5-2.4,20.81,1.35-2.67-8.74a.51.51,0,0,1,.17-.54.5.5,0,0,1,.56,0c1.19.71,6.81.65,9.62-.93,1-.54,1.47-1.19,1.47-1.93.08-6.06,0-12.2-.2-18.25,0-.74,0-1.55,0-2.39,0-4,0-8.92-3.07-11.25h0c-3.71-2.77-14-2.31-14.14-2.3h0a13,13,0,0,0-11.47,7.69c-3.48,7.79-.77,24.91-.74,25.08Z" fill="#231f20"></path><path d="M113.48,138l1.51-6.8,26.91.43,2,6S130.51,145.37,113.48,138Z" fill="#fff"></path><path d="M128.41,141.66a37.89,37.89,0,0,1-15.13-3.19.51.51,0,0,1-.29-.57l1.51-6.8a.49.49,0,0,1,.49-.39h0l26.91.44a.48.48,0,0,1,.46.33l2,6a.48.48,0,0,1-.22.59A34.27,34.27,0,0,1,128.41,141.66Zm-14.35-3.95a35.68,35.68,0,0,0,29.25-.34l-1.77-5.23-26.15-.42Z" fill="#231f20"></path><path d="M85.24,241a.49.49,0,0,1-.49-.46c-1.72-21,4.21-65.61,4.53-66.92a.5.5,0,1,1,1,.24c-.32,1.31-6.21,45.66-4.51,66.6a.5.5,0,0,1-.46.54Z" fill="#231f20"></path><path d="M127.27,122.19c-1.3,7.92.09,14.59-7.79,19.91-5.39,3.65-12.37,4.42-18.75,3.15-4-.8-8.15-2.57-10.31-6.06-2.62-4.23-1.62-9.81.53-14.3s5.33-8.46,7.15-13.1c4.45-11.32.78-24.16,11.73-32.17a31.46,31.46,0,0,1,14.56-5.73c1.51-.19,14.66,1.51,14.47,1.74,2.49-2.87,7.81-1.14,9.5,2.25a12.4,12.4,0,0,1,.1,9.78c-.19.39-3.65,4.75-3.57,3.46-.22,3.44-2.32,5.24-4.87,7.62s-5.58,4.2-8.36,6.31c-5.42,4.09-3.55,9.12-4.11,14.94C127.48,120.74,127.39,121.47,127.27,122.19Z" fill="#fff"></path><path d="M106.43,146.32a29.53,29.53,0,0,1-5.79-.58c-3.51-.7-8.21-2.35-10.64-6.28-3.35-5.41-.77-12.14.5-14.79.94-2,2.09-3.86,3.2-5.69a47.78,47.78,0,0,0,3.93-7.37,51.4,51.4,0,0,0,2.65-12.16c1-7.68,2-14.93,9.26-20.23a31.88,31.88,0,0,1,14.79-5.83c.1,0,11.5.9,14.34,1.7a5.09,5.09,0,0,1,4.4-1.36,7.69,7.69,0,0,1,5.74,3.92,13,13,0,0,1,.1,10.23s-2.28,3.29-3.58,3.88c-.41,3.11-2.38,4.94-4.63,7l-.34.32a50.25,50.25,0,0,1-5.54,4.28c-1,.68-1.93,1.35-2.86,2.06-3.86,2.91-3.83,6.34-3.79,10.31a41.7,41.7,0,0,1-.12,4.28c-.07.77-.17,1.52-.29,2.23-.28,1.69-.43,3.33-.58,4.91-.56,5.92-1,11-7.42,15.34A23.82,23.82,0,0,1,106.43,146.32Zm18.32-71.95h-.3A31,31,0,0,0,110.12,80c-6.91,5-7.85,12.09-8.85,19.55A51.92,51.92,0,0,1,98.56,112a49.2,49.2,0,0,1-4,7.53,64.1,64.1,0,0,0-3.16,5.61c-1.19,2.49-3.64,8.84-.55,13.82,2.24,3.63,6.67,5.17,10,5.83,6.79,1.35,13.49.23,18.37-3.07,6-4.05,6.45-8.94,7-14.61.15-1.6.31-3.25.59-5h0c.12-.69.21-1.42.28-2.17a39.31,39.31,0,0,0,.12-4.17c0-4.07-.07-7.9,4.18-11.12,1-.71,1.92-1.39,2.89-2.08a49.16,49.16,0,0,0,5.44-4.19l.34-.32c2.33-2.17,4.17-3.88,4.37-7h0a.52.52,0,0,1,.53-.47.46.46,0,0,1,.26.1A23.25,23.25,0,0,0,148,87.44a12,12,0,0,0-.09-9.34,6.68,6.68,0,0,0-5-3.38,4.06,4.06,0,0,0-3.7,1.23.5.5,0,0,1-.66.09A135.61,135.61,0,0,0,124.75,74.37Zm20.64,16.79Z" fill="#231f20"></path><path d="M148.15,118.89s-4.6,3.1-7.32-1.67" fill="#fff"></path><path d="M144.92,120.38a4.72,4.72,0,0,1-1.11-.12,5.39,5.39,0,0,1-3.41-2.79.5.5,0,1,1,.87-.5,4.39,4.39,0,0,0,2.76,2.31,5.6,5.6,0,0,0,3.84-.8.49.49,0,0,1,.69.13.5.5,0,0,1-.13.7A7,7,0,0,1,144.92,120.38Z" fill="#231f20"></path><path d="M122,108.42h-.1a.5.5,0,0,1-.39-.59c.62-3.08,1.21-3.18,1.47-3.21.5-.09,20.25-4.15,30.63-6.29a.5.5,0,1,1,.2,1c-1.2.24-28.57,5.89-30.57,6.27a9.43,9.43,0,0,0-.75,2.45A.51.51,0,0,1,122,108.42Zm1.13-2.83Z" fill="#231f20"></path><path d="M135.28,107.58a8.35,8.35,0,0,0-1.88-4.11,12.16,12.16,0,0,0-2.33-2.67,4,4,0,0,0-3.32-.86,3.73,3.73,0,0,0-2.31,2,6.93,6.93,0,0,0-.63,3,13.06,13.06,0,0,0,6.51,11.33L131,116" fill="#fff"></path><path d="M131.32,116.81a.57.57,0,0,1-.25-.06A13.65,13.65,0,0,1,124.31,105a7.32,7.32,0,0,1,.69-3.26,4.12,4.12,0,0,1,2.63-2.25,4.41,4.41,0,0,1,3.75,1,12.12,12.12,0,0,1,2.42,2.78,8.59,8.59,0,0,1,2,4.36.5.5,0,1,1-1,.06,8.1,8.1,0,0,0-1.79-3.85,11.62,11.62,0,0,0-2.22-2.56,3.49,3.49,0,0,0-2.9-.77,3.19,3.19,0,0,0-2,1.72,6.62,6.62,0,0,0-.58,2.84,12.66,12.66,0,0,0,5.59,10.48.51.51,0,0,1,.42.14l.35.35a.49.49,0,0,1,.05.65A.51.51,0,0,1,131.32,116.81Z" fill="#231f20"></path><ellipse cx="144.8" cy="98.53" rx="0.86" ry="2.18" transform="translate(-8.78 14.34) rotate(-5.5)" fill="#231f20"></ellipse><path d="M170,216a.52.52,0,0,1-.21,0c-23.73-11.15-35.58-52.49-35.7-52.9a.51.51,0,0,1,.35-.62.49.49,0,0,1,.61.35c.12.41,11.85,41.31,35.17,52.26a.5.5,0,0,1-.22.95Z" fill="#231f20"></path><polygon points="285.84 250.95 222.04 250.95 234.26 187.15 298.06 187.15 285.84 250.95" fill="#fff"></polygon><path d="M285.84,251.45H222a.53.53,0,0,1-.39-.18.51.51,0,0,1-.1-.41l12.22-63.81a.49.49,0,0,1,.49-.4h63.8a.5.5,0,0,1,.39.18.5.5,0,0,1,.1.41L286.33,251A.49.49,0,0,1,285.84,251.45Zm-63.2-1h62.79l12-62.8H234.67Z" fill="#231f20"></path><path d="M285.84,200.26H242.9a.56.56,0,0,1-.55-.56.55.55,0,0,1,.55-.55h42.94a.55.55,0,0,1,.56.55A.56.56,0,0,1,285.84,200.26Z" fill="#d1d3d4"></path><path d="M283.93,210.25H241a.55.55,0,0,1-.56-.55.56.56,0,0,1,.56-.56h42.94a.56.56,0,0,1,.55.56A.55.55,0,0,1,283.93,210.25Z" fill="#d1d3d4"></path><path d="M282,220.25H239.07a.56.56,0,0,1,0-1.11H282a.56.56,0,1,1,0,1.11Z" fill="#d1d3d4"></path><path d="M280.1,230.25H237.16a.56.56,0,1,1,0-1.11H280.1a.56.56,0,0,1,0,1.11Z" fill="#d1d3d4"></path><path d="M265.43,240.25H235.24a.56.56,0,0,1,0-1.11h30.19a.56.56,0,0,1,0,1.11Z" fill="#d1d3d4"></path></g></svg>