<?xml version="1.0" encoding="utf-8"?>
<!-- Generator: Adobe Illustrator 23.0.2, SVG Export Plug-In . SVG Version: 6.00 Build 0)  -->
<svg version="1.1" id="Camada_1" xmlns="http://www.w3.org/2000/svg" xmlns:xlink="http://www.w3.org/1999/xlink" x="0px" y="0px"
	 viewBox="0 0 406 306" style="enable-background:new 0 0 406 306;" xml:space="preserve">
<style type="text/css">
	.st0{fill:#FFFFFF;}
	.st1{fill:#231F20;}
	.st2{fill:#D1D3D4;}
	.st3{fill:#0B6567;}
</style>
<g id="_472_profiling_flatline">
	<path class="st0" d="M213.4,208.8l105.4,0.1c3.1-0.2,5.7-2.4,6.3-5.4L344.6,100c0.6-2.3-0.7-4.7-3-5.3c-0.4-0.1-0.8-0.2-1.2-0.1
		L235,94.4c-3.1,0.2-5.7,2.4-6.3,5.4l-19.6,103.5c-0.6,2.3,0.7,4.7,3,5.3C212.6,208.7,213,208.8,213.4,208.8z"/>
	<path class="st1" d="M318.7,209.4L318.7,209.4l-105.4-0.1l0,0c-1.4,0-2.8-0.6-3.7-1.7c-1-1.2-1.4-2.8-1-4.3l19.7-103.5
		c0.7-3.3,3.5-5.7,6.8-5.8l0,0l105.4,0.1c1.4,0,2.8,0.6,3.7,1.7c1,1.2,1.4,2.8,1,4.3l-19.6,103.5C324.9,206.8,322,209.2,318.7,209.4
		z M213.3,208.3l105.4,0.1l0,0c2.8-0.1,5.2-2.2,5.8-5l19.6-103.5c0.3-1.2,0-2.5-0.8-3.5c-0.7-0.9-1.8-1.3-3-1.3L235,95l0,0
		c-2.8,0.1-5.2,2.2-5.8,5l-19.6,103.5c-0.3,1.2,0,2.5,0.8,3.5C211.2,207.8,212.2,208.3,213.3,208.3L213.3,208.3z"/>
	<path class="st1" d="M342.8,110.2L342.8,110.2l-115.9-0.1c-0.3,0-0.5-0.2-0.5-0.5c0-0.3,0.2-0.5,0.5-0.5l0,0l115.9,0.1
		c0.3,0,0.5,0.2,0.5,0.5C343.3,110,343.1,110.2,342.8,110.2z"/>
	<ellipse transform="matrix(0.6859 -0.7277 0.7277 0.6859 30.4167 274.5353)" class="st2" cx="333.3" cy="102" rx="2.9" ry="2.4"/>
	<ellipse transform="matrix(0.6859 -0.7277 0.7277 0.6859 27.5275 267.8159)" class="st2" cx="324" cy="102" rx="2.9" ry="2.4"/>
	<ellipse transform="matrix(0.6859 -0.7277 0.7277 0.6859 24.6384 261.0964)" class="st2" cx="314.8" cy="102" rx="2.9" ry="2.4"/>
	<polygon class="st0" points="288,118.2 278,170.8 320.3,170.8 330.2,118.3 	"/>
	<path class="st1" d="M288,118.2h42.2l-9.9,52.5H278L288,118.2 M288,117.2c-0.5,0-0.9,0.3-1,0.8l-9.9,52.5c-0.1,0.6,0.3,1.1,0.8,1.2
		c0.1,0,0.1,0,0.2,0h42.2l0,0c0.5,0,0.9-0.3,1-0.8l9.9-52.5c0.1-0.3,0-0.6-0.2-0.8c-0.2-0.2-0.5-0.4-0.8-0.4L288,117.2L288,117.2z"
		/>
	<path class="st0" d="M318,132c-0.1,0.7,0,1.4,0.2,2c0.2,0.4,0.4,0.7,0.7,1.1c0.8,1.3,1.3,2.8,1.4,4.3c0.1,1,0,2.1-0.4,3
		c-0.3,0.7-0.8,1.3-1.1,2c-0.3,0.8-0.4,1.8-0.2,2.6c0.2,0.8,0.7,1.7,0.3,2.4c-0.3,0.5-0.9,0.7-1.5,0.7c-0.6-0.1-1.1-0.2-1.7-0.4
		c-3.1-0.9-7-0.5-10.2-0.7l-12.2-0.9c-1.7-0.1-3.7-0.5-4.1-2.1c-0.4-1.3,1-3.6,1.5-4.9c0.8-2.2,1.9-4.3,3.2-6.2
		c0.7-0.9,1.4-1.9,1.9-2.9c0.2-0.7,0.4-1.4,0.6-2.1c0.7-2,1.9-3.9,3.5-5.3c1-1.1,2.2-2,3.5-2.7c4.4-2.3,11.8-0.7,13.8,4.1
		C317.8,128,318.1,130,318,132z"/>
	<path class="st1" d="M317.5,150.8h-0.1c-0.5,0-1-0.1-1.4-0.3l-0.4-0.1c-2.2-0.5-4.5-0.7-6.7-0.6c-1.2,0-2.3,0-3.4-0.1l-12.2-0.9
		c-2.7-0.2-4.2-1-4.6-2.5c-0.3-1.3,0.5-3,1.1-4.3c0.2-0.3,0.3-0.6,0.4-0.9c0.8-2.2,1.9-4.3,3.2-6.3c0.2-0.2,0.3-0.5,0.5-0.7
		c0.5-0.6,1-1.4,1.3-2.1c0.1-0.4,0.3-0.8,0.4-1.2c0.1-0.3,0.1-0.5,0.2-0.8c0.7-2.1,2-4,3.6-5.5c1.1-1.1,2.3-2.1,3.6-2.8
		c2.9-1.3,6.2-1.5,9.1-0.3c2.4,0.8,4.3,2.5,5.3,4.7c0.7,1.9,1.1,4,0.9,6l0,0v0.1c-0.2,0.9,0,1.7,0.6,2.4l0.2,0.3
		c0.9,1.4,1.4,2.9,1.5,4.5c0.1,1.1,0,2.3-0.5,3.3c-0.2,0.3-0.3,0.7-0.5,1c-0.2,0.3-0.4,0.7-0.5,1c-0.3,0.7-0.3,1.5-0.1,2.3
		c0,0.2,0.1,0.3,0.2,0.5c0.4,0.7,0.4,1.6,0.1,2.4C318.9,150.4,318.3,150.8,317.5,150.8z M308,121.5c-1.5,0-3,0.3-4.4,1
		c-1.3,0.7-2.4,1.6-3.4,2.6c-1.5,1.4-2.7,3.1-3.4,5.1c-0.1,0.3-0.1,0.5-0.2,0.8c-0.1,0.5-0.2,0.9-0.4,1.4c-0.4,0.9-0.9,1.6-1.5,2.4
		l-0.5,0.7c-1.3,1.9-2.3,3.9-3.1,6.1c-0.1,0.3-0.3,0.6-0.4,0.9c-0.5,1.1-1.3,2.7-1,3.6c0.3,0.9,1.5,1.6,3.7,1.7l12.2,0.9
		c1.1,0.1,2.2,0.1,3.4,0.1c2.4-0.1,4.7,0.1,7,0.6l0.4,0.1c0.4,0.1,0.8,0.2,1.2,0.3c0.4,0.1,0.8-0.1,1-0.4c0.2-0.4,0-0.9-0.2-1.5
		c-0.1-0.2-0.1-0.4-0.2-0.5c-0.3-1-0.2-2,0.2-3c0.2-0.4,0.4-0.8,0.6-1.1c0.2-0.3,0.4-0.6,0.5-0.9c0.3-0.9,0.5-1.9,0.4-2.8
		c-0.1-1.4-0.5-2.8-1.3-4.1l-0.2-0.2c-0.2-0.3-0.4-0.6-0.6-0.9c-0.2-0.7-0.3-1.4-0.3-2.1l0.5-0.1h-0.5c0.1-1.9-0.1-3.8-0.8-5.6
		c-0.9-2-2.6-3.5-4.7-4.2C310.7,121.7,309.4,121.5,308,121.5L308,121.5z"/>
	<path class="st3" d="M280.9,155.6l-2.9,15.2h42.2l2.9-15.2c-3.5-4.2-9.3-5.6-14.5-6.1c-2-0.2-3.9-0.2-5.5-0.2h-0.4
		c-1.5,0-3.2,0-5.1,0.2h-0.1C292.3,150,286,151.4,280.9,155.6z"/>
	<path class="st1" d="M297,152.4L297,152.4l1.3,14.2l0.4,4.1h1l1.9-4.2l6.6-14.1l0,0l0,0C305.7,151.6,299.8,151.6,297,152.4z"/>
	<path class="st0" d="M308.2,152.5c-1.4,2-3.7,3.1-6.1,3.1c-2.2,0.2-4.3-1.1-5.2-3.2l2.9-12.4H310L308.2,152.5z"/>
	<path class="st1" d="M302.2,156.1L302.2,156.1c-2.4,0.1-4.7-1.3-5.7-3.5c0-0.1,0-0.2,0-0.3l2.9-12.4c0.1-0.2,0.3-0.4,0.5-0.4H310
		c0.2,0,0.3,0.1,0.4,0.2c0.1,0.1,0.1,0.3,0.1,0.4l-1.8,12.4c0,0.1,0,0.1-0.1,0.2C307.2,154.9,304.8,156.1,302.2,156.1z M297.5,152.4
		c0.8,1.8,2.7,2.8,4.6,2.7l0,0c2.2,0,4.3-1,5.6-2.8l1.7-11.7h-9.1L297.5,152.4z M308.2,152.5L308.2,152.5z"/>
	<path class="st1" d="M309,145.4c-1,1.2-2.2,2.1-3.6,2.8c-2.2,1.1-5.5,2.4-7.8,2l1.4-5.2c1.8,0.2,3.6,0.2,5.4,0
		c1.6-0.1,3.3-0.4,4.8-0.9C309.5,144,309.4,144.9,309,145.4z"/>
	<path class="st1" d="M298.5,150.8c-0.3,0-0.7,0-1-0.1c-0.1,0-0.3-0.1-0.3-0.2c-0.1-0.1-0.1-0.3-0.1-0.4l1.4-5.2
		c0.1-0.2,0.3-0.4,0.6-0.4c1.7,0.2,3.5,0.2,5.3,0c1.6-0.1,3.2-0.4,4.7-0.9c0.3-0.1,0.5,0,0.7,0.2c0.3,0.6,0.2,1.4-0.3,1.9
		c-1,1.2-2.3,2.2-3.8,2.9C304,149.4,301,150.8,298.5,150.8z M298.2,149.8c2.4,0.1,5.6-1.4,7-2c1.3-0.6,2.5-1.5,3.4-2.6l0,0
		c0.1-0.1,0.1-0.2,0.2-0.3c-1.4,0.4-2.9,0.7-4.4,0.8c-1.7,0.2-3.4,0.2-5.1,0L298.2,149.8z"/>
	<path class="st1" d="M313.4,171.3h-0.2c-0.3-0.1-0.4-0.4-0.3-0.6c0,0,0,0,0,0l4.1-12.7c0.1-0.3,0.4-0.4,0.7-0.3
		c0.3,0.1,0.4,0.4,0.3,0.7l-4.1,12.7C313.9,171.2,313.6,171.3,313.4,171.3z"/>
	<path class="st1" d="M284.9,171.3L284.9,171.3c-0.3,0-0.5-0.3-0.5-0.5l0.8-12.8c0.1-0.3,0.4-0.4,0.7-0.3c0.2,0.1,0.3,0.2,0.3,0.4
		l-0.8,12.8C285.4,171.1,285.1,171.3,284.9,171.3z"/>
	<path class="st0" d="M299.1,137.2c0.2-2.9-3.1-3.6-3.6-0.2c-0.2,1.1-0.1,2.2,0.3,3.2c0.3,0.8,1.2,1.2,2,0.8c0.1,0,0.1,0,0.2-0.1"/>
	<path class="st1" d="M297.2,141.7c-0.2,0-0.4,0-0.6-0.1c-0.6-0.2-1.1-0.6-1.3-1.2c-0.5-1.1-0.6-2.3-0.4-3.5c0.3-2,1.5-2.8,2.6-2.7
		c1.4,0.3,2.3,1.6,2,3c-0.1,0.3-0.4,0.4-0.7,0.3c-0.2-0.1-0.3-0.2-0.3-0.4c0.1-1.2-0.5-1.8-1.1-1.9c-0.6-0.1-1.3,0.4-1.5,1.8
		c-0.2,1-0.1,2,0.3,2.9c0.1,0.3,0.4,0.5,0.7,0.6c0.3,0.1,0.5,0,0.8-0.1c0.3-0.1,0.6,0,0.7,0.2c0.1,0.3,0,0.6-0.2,0.7
		C297.9,141.6,297.6,141.7,297.2,141.7z"/>
	<path class="st0" d="M312.2,137.2c0.9-2.9,4.5-3.6,3.7-0.2c-0.2,1.2-0.8,2.3-1.5,3.2c-0.8,0.8-1.8,1.2-2.5,0.8"/>
	<path class="st1" d="M312.6,141.7c-0.4,0-0.7-0.1-1-0.3c-0.2-0.2-0.3-0.5-0.1-0.7s0.5-0.3,0.7-0.1c0.4,0.3,1.2,0,1.8-0.7
		c0.7-0.9,1.2-1.9,1.4-3c0.1-0.3,0.3-1.5-0.3-1.6c-0.6-0.2-1.9,0.6-2.4,2.1c-0.1,0.3-0.4,0.4-0.7,0.4s-0.4-0.4-0.4-0.7l0,0
		c0.6-2,2.4-3.1,3.6-2.8c0.4,0.1,1.6,0.6,1,2.9c-0.3,1.3-0.8,2.4-1.7,3.4C314.2,141.3,313.4,141.7,312.6,141.7z"/>
	<path class="st0" d="M299.2,130.9l-1.6,8.4c-0.8,4.1,1.8,7.3,5.7,7.3h0.8c4.2-0.2,7.7-3.2,8.5-7.3c0.4-2,1.8-5.2,0.3-6.7
		c-2.4-2.4-4.7-4.1-6-7.4C304,125.8,299.2,126.7,299.2,130.9z"/>
	<path class="st1" d="M304.1,147.1h-0.8c-1.9,0-3.7-0.8-4.9-2.2c-1.3-1.6-1.8-3.7-1.3-5.7l1.6-8.4c0-4.4,4.7-5.4,7.8-6l0.3-0.1
		c0.2-0.1,0.5,0.1,0.6,0.3c1,2.2,2.4,4.1,4.3,5.6c0.5,0.5,1,1,1.6,1.6c1.4,1.4,0.7,3.8,0.2,5.7c-0.1,0.5-0.3,1-0.4,1.5
		C312.3,143.7,308.6,146.9,304.1,147.1z M306.6,125.8c-3,0.6-6.9,1.5-6.9,5.1c0,0,0,0.1,0,0.1l-1.6,8.4c-0.4,1.7,0,3.5,1.1,4.9
		c1,1.2,2.5,1.9,4.1,1.8h0.8c3.9-0.2,7.2-3,8-6.9c0.1-0.5,0.2-1,0.4-1.6c0.5-1.7,1-3.7,0.1-4.7c-0.5-0.5-1-1-1.6-1.5
		C309.2,129.9,307.7,128,306.6,125.8L306.6,125.8z M299.2,130.9L299.2,130.9z"/>
	<path class="st1" d="M304.9,140.5c-0.4,0-0.8,0-1.1-0.1c-0.3,0-0.5-0.2-0.5-0.5c0-0.3,0.2-0.5,0.5-0.5c0.1,0,0.1,0,0.2,0
		c0.6,0.1,1.2,0.1,1.8,0c0.2-1.6,0.1-3.3-0.3-4.9c0-0.3,0.1-0.6,0.4-0.6c0.3,0,0.6,0.1,0.6,0.4c0.2,1.1,0.8,4.7,0.1,5.7
		c-0.1,0.2-0.4,0.3-0.6,0.4C305.6,140.5,305.2,140.5,304.9,140.5z"/>
	<path class="st2" d="M276.9,129.1L276.9,129.1h-43.4c-0.3,0-0.6-0.2-0.6-0.5c0-0.3,0.2-0.6,0.5-0.6c0.1,0,0.1,0,0.2,0l0,0l43.4,0.1
		c0.3,0,0.5,0.3,0.5,0.6C277.4,128.9,277.2,129.1,276.9,129.1L276.9,129.1z"/>
	<path class="st2" d="M275.4,136.9L275.4,136.9h-43.4c-0.3,0-0.6-0.2-0.6-0.5c0-0.3,0.2-0.6,0.5-0.6c0.1,0,0.1,0,0.2,0l0,0l43.4,0.1
		c0.3,0,0.5,0.3,0.5,0.6C275.9,136.7,275.7,136.9,275.4,136.9L275.4,136.9z"/>
	<path class="st2" d="M274,144.6L274,144.6l-43.4-0.1c-0.3,0-0.6-0.3-0.6-0.6c0-0.3,0.2-0.6,0.6-0.6l0,0l0,0l43.4,0.1
		c0.3,0,0.6,0.2,0.6,0.5c0,0.3-0.2,0.6-0.5,0.6C274.1,144.6,274,144.6,274,144.6z"/>
	<path class="st2" d="M272.5,152.3L272.5,152.3l-43.4-0.1c-0.3,0-0.6-0.2-0.6-0.5c0,0,0,0,0,0c0-0.3,0.2-0.6,0.5-0.6c0,0,0,0,0,0
		l0,0l43.4,0.1c0.3,0,0.6,0.3,0.6,0.6C273.1,152.1,272.8,152.3,272.5,152.3z"/>
	<path class="st2" d="M271,160.1L271,160.1h-30.6c-0.3,0-0.5-0.3-0.5-0.6c0-0.3,0.2-0.5,0.5-0.5l0,0H271c0.3,0,0.5,0.3,0.5,0.6
		C271.5,159.9,271.3,160.1,271,160.1z"/>
	<path class="st2" d="M314.9,201.6L314.9,201.6l-94.7-0.1c-0.2,0-0.3-0.1-0.4-0.2c-0.1-0.1-0.2-0.3-0.1-0.5l4.3-22.7
		c0.1-0.3,0.3-0.5,0.5-0.5l0,0l94.7,0.1c0.2,0,0.3,0.1,0.4,0.2c0.1,0.1,0.1,0.3,0.1,0.5l-4.3,22.7
		C315.4,201.4,315.2,201.6,314.9,201.6z M220.9,200.4l93.6,0.1l4.1-21.6l-93.6-0.1L220.9,200.4z"/>
	<path class="st2" d="M317.5,186L317.5,186l-94.4-0.1c-0.3,0-0.6-0.2-0.6-0.5c0-0.3,0.2-0.6,0.5-0.6c0.1,0,0.1,0,0.2,0l0,0l94.4,0.1
		c0.3,0,0.5,0.3,0.5,0.6C317.9,185.8,317.7,186,317.5,186z"/>
	<path class="st2" d="M289.3,201.6h-0.1c-0.3-0.1-0.5-0.4-0.4-0.7l4.3-22.7c0.1-0.3,0.4-0.5,0.7-0.4c0.3,0.1,0.5,0.4,0.5,0.7
		l-4.3,22.7C289.8,201.4,289.5,201.6,289.3,201.6z"/>
	<path class="st2" d="M241.5,201.5h-0.1c-0.3-0.1-0.5-0.4-0.5-0.7l4.3-22.7c0-0.3,0.3-0.6,0.6-0.5c0.3,0,0.6,0.3,0.5,0.6
		c0,0.1,0,0.1,0,0.1l-4.3,22.7C242,201.4,241.8,201.5,241.5,201.5z"/>
	<path class="st0" d="M161.9,167.5l105.4,0.1c3.1-0.1,5.7-2.4,6.3-5.4l19.6-103.5c0.6-3-1.3-5.4-4.2-5.4l-105.4-0.1
		c-3.1,0.1-5.7,2.4-6.3,5.4l-19.6,103.5C157.1,165.1,159,167.5,161.9,167.5z"/>
	<path class="st1" d="M267.2,168.2L267.2,168.2l-105.4-0.1c-1.4,0-2.8-0.6-3.7-1.7c-1-1.2-1.4-2.8-1-4.3l19.6-103.5
		c0.7-3.3,3.5-5.7,6.8-5.8l0,0l105.4,0.1c1.4,0,2.8,0.6,3.7,1.6c1,1.2,1.4,2.8,1,4.3L274,162.3C273.4,165.6,270.6,168.1,267.2,168.2
		z M161.9,167.1l105.4,0.1l0,0c2.9-0.1,5.3-2.2,5.8-5.1l19.6-103.4c0.3-1.2,0-2.5-0.8-3.5c-0.7-0.9-1.8-1.4-3-1.3l-105.4-0.1l0,0
		c-2.8,0.2-5.2,2.2-5.8,5l-19.6,103.5c-0.3,1.2,0,2.5,0.8,3.5C159.7,166.6,160.7,167.1,161.9,167.1L161.9,167.1z"/>
	<path class="st1" d="M291.3,69L291.3,69l-115.9-0.1c-0.3,0-0.5-0.2-0.5-0.5s0.2-0.5,0.5-0.5l0,0L291.3,68c0.3,0,0.5,0.2,0.5,0.5
		C291.8,68.8,291.6,69,291.3,69z"/>
	<ellipse transform="matrix(0.6859 -0.7277 0.7277 0.6859 44.2279 224.1208)" class="st2" cx="281.8" cy="60.8" rx="2.9" ry="2.4"/>
	<ellipse transform="matrix(0.6859 -0.7277 0.7277 0.6859 41.3387 217.4014)" class="st2" cx="272.5" cy="60.8" rx="2.9" ry="2.4"/>
	<ellipse transform="matrix(0.6859 -0.7277 0.7277 0.6859 38.4496 210.682)" class="st2" cx="263.3" cy="60.8" rx="2.9" ry="2.4"/>
	<polygon class="st0" points="236.5,77 226.5,129.5 268.8,129.6 278.7,77 	"/>
	<path class="st1" d="M236.5,77h42.2l-9.9,52.5l-42.2-0.1L236.5,77 M236.5,76c-0.5,0-0.9,0.3-1,0.8l-9.9,52.5
		c-0.1,0.3,0,0.6,0.2,0.8c0.2,0.2,0.5,0.4,0.8,0.4l42.2,0.1l0,0c0.5,0,0.9-0.3,1-0.8l9.9-52.5c0.1-0.3,0-0.6-0.2-0.8
		c-0.2-0.2-0.5-0.4-0.8-0.4L236.5,76L236.5,76z"/>
	<path class="st3" d="M229.4,114.4l-2.9,15.2l42.2,0.1l2.9-15.2c-3.5-4.2-9.3-5.6-14.5-6.1c-2-0.2-3.9-0.2-5.5-0.2h-0.4
		c-1.5,0-3.2,0-5.1,0.2h-0.1C240.8,108.8,234.5,110.2,229.4,114.4z"/>
	<path class="st1" d="M245.5,111.2L245.5,111.2l1.3,14.2l0.4,4.1h1l1.9-4.2l6.6-14.1l0,0l0,0C253,110.5,249.2,110.4,245.5,111.2z"/>
	<path class="st0" d="M256.7,111.2c-1.4,2-3.7,3.1-6.1,3.1c-2.2,0.2-4.3-1.1-5.2-3.2l2.9-12.4h10.1L256.7,111.2z"/>
	<path class="st1" d="M250.7,114.9L250.7,114.9c-2.4,0.1-4.7-1.3-5.7-3.5c0-0.1,0-0.2,0-0.3l2.9-12.4c0.1-0.2,0.3-0.4,0.5-0.4l0,0
		h10.2c0.2,0,0.3,0.1,0.4,0.2c0.1,0.1,0.1,0.3,0.1,0.4l-1.8,12.4c0,0.1,0,0.1-0.1,0.2C255.8,113.6,253.3,114.9,250.7,114.9z
		 M246.1,111.2c0.8,1.8,2.7,2.8,4.6,2.7l0,0c2.2,0,4.3-1,5.6-2.8l1.7-11.7h-9.1L246.1,111.2z M256.8,111.2L256.8,111.2z"/>
	<path class="st1" d="M257.5,104.2c-1,1.2-2.2,2.1-3.6,2.8c-2.2,1.1-5.5,2.4-7.8,2l1.4-5.2c1.8,0.2,3.6,0.2,5.4,0
		c1.6-0.1,3.3-0.4,4.8-0.9C258,102.8,257.9,103.7,257.5,104.2z"/>
	<path class="st1" d="M247,109.5c-0.3,0-0.7,0-1-0.1c-0.1,0-0.3-0.1-0.3-0.2c-0.1-0.1-0.1-0.3-0.1-0.4l1.4-5.2
		c0.1-0.3,0.3-0.4,0.6-0.4c1.7,0.2,3.5,0.2,5.3,0c1.6-0.1,3.2-0.4,4.7-0.9c0.3-0.1,0.5,0,0.7,0.2c0.3,0.6,0.2,1.4-0.3,1.9
		c-1,1.2-2.3,2.2-3.8,2.9C251.9,108.6,249.5,109.3,247,109.5z M246.7,108.5c2.4,0.1,5.7-1.4,7-2c1.3-0.6,2.5-1.5,3.4-2.6l0,0
		c0.1-0.1,0.1-0.2,0.2-0.3c-1.4,0.4-2.9,0.7-4.4,0.7c-1.7,0.2-3.4,0.2-5.1,0L246.7,108.5z"/>
	<path class="st1" d="M261.9,130.1h-0.2c-0.3-0.1-0.4-0.4-0.4-0.6c0,0,0,0,0,0l4.1-12.7c0.1-0.3,0.4-0.4,0.6-0.3c0,0,0,0,0,0
		c0.3,0.1,0.4,0.4,0.3,0.6c0,0,0,0,0,0l-4.1,12.7C262.3,130,262.1,130.1,261.9,130.1z"/>
	<path class="st1" d="M233.4,130.1L233.4,130.1c-0.3,0-0.5-0.3-0.5-0.6c0,0,0,0,0,0l0.8-12.7c-0.1-0.3,0.1-0.6,0.4-0.6
		c0.3-0.1,0.6,0.1,0.6,0.4c0,0.1,0,0.2,0,0.3l-0.8,12.7C233.9,129.9,233.6,130.1,233.4,130.1z"/>
	<path class="st0" d="M247.6,96c0.2-2.9-3.1-3.6-3.6-0.2c-0.2,1.1-0.1,2.2,0.3,3.2c0.3,0.8,1.2,1.2,2,0.8c0.1,0,0.1,0,0.2-0.1"/>
	<path class="st1" d="M245.7,100.5c-0.2,0-0.4,0-0.6-0.1c-0.6-0.2-1.1-0.6-1.3-1.2c-0.5-1.1-0.6-2.3-0.4-3.5c0.3-2,1.5-2.8,2.6-2.7
		c1.4,0.3,2.3,1.6,2,3c0.1,0.3-0.1,0.6-0.4,0.6s-0.6-0.1-0.6-0.4c0-0.1,0-0.2,0-0.3c0.1-1.2-0.5-1.8-1.1-1.9
		c-0.6-0.1-1.2,0.4-1.5,1.8c-0.2,1-0.1,2,0.3,2.9c0.1,0.3,0.4,0.5,0.7,0.6c0.3,0.1,0.5,0,0.8-0.1c0.2-0.1,0.6-0.1,0.7,0.2
		c0,0,0,0,0,0c0.1,0.3,0,0.6-0.2,0.7C246.5,100.4,246.1,100.5,245.7,100.5z"/>
	<path class="st0" d="M260.7,96c0.9-2.9,4.5-3.6,3.7-0.2c-0.2,1.2-0.8,2.3-1.5,3.2c-0.8,0.8-1.8,1.2-2.5,0.8"/>
	<path class="st1" d="M261.1,100.5c-0.4,0-0.7-0.1-1-0.3c-0.3-0.1-0.3-0.5-0.2-0.7c0.1-0.3,0.5-0.3,0.7-0.2c0,0,0.1,0,0.1,0.1
		c0.4,0.3,1.2,0,1.8-0.7c0.7-0.9,1.2-1.9,1.4-3c0.1-0.3,0.3-1.5-0.3-1.6c-0.6-0.2-1.9,0.6-2.4,2c-0.1,0.3-0.4,0.4-0.7,0.4
		c-0.3-0.1-0.4-0.4-0.4-0.7c0.6-2,2.4-3.1,3.6-2.8c0.4,0.1,1.6,0.6,1,2.9c-0.3,1.3-0.8,2.4-1.7,3.4
		C262.7,100,261.9,100.5,261.1,100.5z"/>
	<path class="st0" d="M247.7,89.6l-1.6,8.4c-0.8,4.1,1.8,7.3,5.7,7.3h0.8c4.2-0.2,7.6-3.2,8.5-7.3l1.6-8c0,0,1.3-8.1-6.2-7.3
		C248.8,83.6,247.7,89.6,247.7,89.6z"/>
	<path class="st1" d="M252.6,105.9h-0.8c-1.9,0-3.7-0.8-4.9-2.2c-1.3-1.6-1.7-3.7-1.3-5.7l1.6-8.4c0-0.1,1.3-6.4,9.1-7.3
		c1.9-0.4,3.9,0.2,5.3,1.5c2.2,2.3,1.6,6.2,1.5,6.4l-1.5,8C260.7,102.5,257,105.7,252.6,105.9z M248.2,89.7l-1.6,8.4
		c-0.4,1.7,0,3.5,1.1,4.9c1,1.2,2.5,1.9,4.1,1.8h0.8c3.9-0.2,7.2-3,8-6.9l1.5-8c0,0,0.6-3.6-1.3-5.5c-1.2-1.1-2.8-1.5-4.4-1.2
		C249.4,84.1,248.3,89.5,248.2,89.7L248.2,89.7z"/>
	<path class="st1" d="M253.4,99.3c-0.4,0-0.8,0-1.1-0.1c-0.3,0-0.5-0.3-0.4-0.6c0-0.3,0.3-0.5,0.6-0.5c0.6,0.1,1.2,0.1,1.8,0
		c0.2-0.5,0.1-2.7-0.3-4.9c0-0.3,0.1-0.6,0.4-0.6c0.3-0.1,0.6,0.1,0.6,0.4c0,0,0,0,0,0c0.2,1.1,0.8,4.7,0.1,5.7
		c-0.1,0.2-0.3,0.3-0.6,0.4C254.1,99.2,253.7,99.3,253.4,99.3z"/>
	<path class="st2" d="M225.4,87.9L225.4,87.9H182c-0.3,0-0.5-0.3-0.5-0.6c0-0.3,0.2-0.5,0.5-0.5l0,0h43.4c0.3,0,0.5,0.3,0.5,0.6
		C225.9,87.7,225.7,87.9,225.4,87.9z"/>
	<path class="st2" d="M223.9,95.7L223.9,95.7h-43.4c-0.3,0-0.6-0.3-0.6-0.6c0-0.3,0.3-0.6,0.6-0.6l0,0l43.4,0.1
		c0.3,0,0.6,0.2,0.6,0.6v0C224.5,95.4,224.2,95.6,223.9,95.7z"/>
	<path class="st2" d="M222.5,103.4L222.5,103.4h-43.4c-0.3,0-0.6-0.2-0.6-0.5c0-0.3,0.2-0.6,0.5-0.6c0.1,0,0.1,0,0.2,0l0,0h43.4
		c0.3,0,0.6,0.3,0.6,0.6C223,103.1,222.8,103.4,222.5,103.4C222.5,103.4,222.5,103.4,222.5,103.4z"/>
	<path class="st2" d="M221,111.1L221,111.1h-43.4c-0.3,0-0.5-0.3-0.5-0.6c0-0.3,0.2-0.5,0.5-0.5l0,0L221,110c0.3,0,0.6,0.2,0.6,0.5
		c0,0.3-0.2,0.6-0.5,0.6C221.1,111.2,221.1,111.2,221,111.1L221,111.1z"/>
	<path class="st2" d="M219.5,118.8L219.5,118.8H189c-0.3,0-0.5-0.3-0.5-0.6c0-0.3,0.2-0.5,0.5-0.5l0,0h30.6c0.3,0,0.6,0.2,0.6,0.6v0
		C220.1,118.6,219.9,118.8,219.5,118.8z"/>
	<path class="st2" d="M263.4,160.4L263.4,160.4l-94.7-0.1c-0.3,0-0.6-0.3-0.6-0.6c0,0,0-0.1,0-0.1l4.3-22.7c0-0.3,0.3-0.5,0.6-0.5
		l0,0l94.7,0.1c0.2,0,0.3,0.1,0.4,0.2c0.1,0.1,0.2,0.3,0.1,0.5l-4.3,22.7C263.9,160.2,263.6,160.4,263.4,160.4z M169.4,159.2
		l93.6,0.1l4.1-21.6l-93.6-0.1L169.4,159.2z"/>
	<path class="st2" d="M266,144.9L266,144.9l-94.4-0.1c-0.3,0-0.6-0.3-0.6-0.6c0-0.3,0.2-0.6,0.6-0.6c0,0,0,0,0,0l0,0l94.4,0.1
		c0.3,0,0.5,0.3,0.5,0.6C266.4,144.6,266.2,144.8,266,144.9z"/>
	<path class="st2" d="M237.7,160.4h-0.1c-0.3-0.1-0.5-0.4-0.4-0.7l4.3-22.7c0.1-0.3,0.3-0.5,0.6-0.5c0,0,0,0,0,0
		c0.3,0.1,0.5,0.4,0.5,0.7l-4.3,22.7C238.2,160.2,238,160.4,237.7,160.4z"/>
	<path class="st2" d="M190,160.3h-0.1c-0.3-0.1-0.5-0.4-0.4-0.7l4.3-22.7c0.1-0.3,0.4-0.5,0.7-0.4c0.2,0.1,0.4,0.3,0.4,0.6
		l-4.3,22.7C190.5,160.2,190.3,160.3,190,160.3z"/>
	<path class="st1" d="M91.1,266.9l-1.7-31.6l78.3-14.3c0.1,0.8,3.5,27,5.9,45.9L91.1,266.9z"/>
	<path class="st1" d="M173.6,267.4H91.1c-0.3,0-0.5-0.2-0.5-0.5l-1.7-31.6c0-0.3,0.2-0.5,0.4-0.5l78.3-14.3c0.1,0,0.3,0,0.4,0.1
		c0.1,0.1,0.2,0.2,0.2,0.3c0.1,0.9,4.2,32.5,5.9,45.9c0,0.1,0,0.3-0.1,0.4C173.9,267.3,173.7,267.4,173.6,267.4z M91.6,266.3H173
		c-2-15.7-5.3-40.8-5.8-44.8l-77.3,14.1L91.6,266.3z"/>
	<path class="st0" d="M215.4,171.4l13.8-12.1c0,0,5.1-12.6,7.1-15c2-2.4,17.3-9.8,17.4-8.2c0.2,1.7-3.5,3.9-4.5,4.8
		c-1.5,1.2-3.1,2.4-4.7,3.6c3.2,1.3,6.4,5,7.8,8.1c1.3,2.8,1.1,6.1-0.6,8.6c-0.5,0.7-1.2,1.2-2,1.5c-0.8,0.2-1.7-0.1-2.2-0.8
		l-0.2,0.3c-1.6,2.2-3.6,4.1-5.8,5.7c-1.8,1.2-4,1.3-5.5,2.8c-2.1,2.1-3.8,5.1-5.6,7.5l-10.2,13.4L215.4,171.4z"/>
	<path class="st1" d="M220.3,192.1h-0.1c-0.2,0-0.3-0.2-0.4-0.4l-4.9-20.1c0-0.2,0-0.4,0.2-0.5l13.7-12c0.5-1.3,5.1-12.7,7.1-15.1
		c2-2.3,15.7-9.2,17.8-8.5c0.3,0.1,0.5,0.3,0.5,0.6c0.1,1.5-1.9,3.1-4,4.7l-0.7,0.5c-1.1,0.9-2.2,1.7-3.3,2.5l-0.8,0.6
		c3.2,1.9,5.7,4.6,7.3,8c1.4,2.9,1.2,6.4-0.7,9.1c-0.5,0.8-1.3,1.4-2.3,1.7c-0.8,0.2-1.7,0-2.3-0.5c-1.6,2.1-3.5,4-5.7,5.6
		c-0.8,0.5-1.7,0.9-2.6,1.2c-1,0.3-2,0.8-2.8,1.5c-1.4,1.5-2.7,3.1-3.8,4.9c-0.6,0.9-1.2,1.7-1.8,2.5l-10.1,13.4
		C220.5,192,220.4,192.1,220.3,192.1z M216,171.6l4.5,18.8l9.5-12.6c0.6-0.8,1.2-1.6,1.8-2.5c1.2-1.8,2.5-3.5,3.9-5
		c0.9-0.8,2-1.4,3.2-1.8c0.8-0.3,1.6-0.6,2.3-1.1c2.1-1.6,4-3.5,5.6-5.7l0.2-0.3c0.1-0.1,0.3-0.2,0.4-0.2c0.2,0,0.3,0.1,0.4,0.3
		c0.4,0.5,1,0.7,1.6,0.6c0.7-0.2,1.3-0.7,1.7-1.3c1.6-2.4,1.9-5.5,0.6-8.1c-1.3-2.8-4.3-6.5-7.5-7.8c-0.2-0.1-0.3-0.2-0.3-0.4
		c0-0.2,0-0.4,0.2-0.5l1.4-1.1c1.1-0.8,2.2-1.6,3.2-2.5c0.2-0.2,0.4-0.3,0.7-0.6c1-0.8,3.3-2.5,3.5-3.5c-2,0-14.5,5.9-16.5,8.3
		s-6.9,14.8-7,14.9c0,0.1-0.1,0.1-0.1,0.2L216,171.6z"/>
	<path class="st3" d="M86.2,255.1c0,0,1-84.8,11.1-101.8s37.9-21.8,51.6-12.5c13.8,9.3,24.6,107.1,24.6,107.1S130.2,257,86.2,255.1z
		"/>
	<path class="st3" d="M149,140.8c0,0,13,2,20.1,13c7.1,11,15,26.1,15,26.1l37.2-19.4l17.4,16.6c0,0-31.3,33.8-46.4,43
		c-14.3,8.6-25.5-3.3-33.3-11c-3.3-3.3-8.4-11.3-8.4-11.3L149,140.8z"/>
	<path class="st1" d="M151,106.9c-1.3,0-2.6-0.5-3.5-1.3c-2.3-2-2.6-5.4-0.6-7.7s5.4-2.6,7.7-0.6c2.3,2,2.6,5.4,0.6,7.7
		c-0.9,1.1-2.3,1.8-3.7,1.9L151,106.9z M151,97h-0.4c-1.2,0.1-2.3,0.7-3,1.6c-0.8,0.9-1.1,2.1-1,3.2c0.2,2.5,2.3,4.3,4.8,4.1
		s4.3-2.3,4.1-4.8c-0.1-1.2-0.7-2.3-1.6-3C153.2,97.3,152.1,97,151,97L151,97z"/>
	<path class="st0" d="M149,105.5c0,0,6.5,9,5.3,11s-5.5,0.9-5.5,0.9"/>
	<path class="st1" d="M151.3,118.2c-0.9,0-1.7-0.1-2.6-0.3c-0.3-0.1-0.4-0.3-0.4-0.6c0,0,0,0,0,0c0.1-0.3,0.3-0.4,0.6-0.4
		c0,0,0,0,0,0c1.1,0.3,4.1,0.7,4.9-0.6c0.6-1-2.3-6.3-5.3-10.5c-0.2-0.2-0.1-0.5,0.1-0.7c0.2-0.2,0.5-0.1,0.7,0.1c0,0,0,0,0,0
		c1.1,1.6,6.7,9.4,5.4,11.6C154.1,117.9,152.6,118.2,151.3,118.2z"/>
	<path class="st0" d="M147.2,93.2c4.1,3,3.2,9.8,3.3,14.2c0.2,6.2,0.3,12.4,0.2,18.6c0,3.9-10.1,4.4-12,3.3l2.9,9.6l-22.3-1.5
		l0.3-12.8c0,0-2.8-17.6,0.8-25.8c2.2-4.8,6.8-7.9,12.1-8.1C132.5,90.8,143.2,90.3,147.2,93.2z"/>
	<path class="st1" d="M141.6,139.4L141.6,139.4l-22.3-1.5c-0.3,0-0.5-0.2-0.5-0.5l0.3-12.8c-0.1-0.6-2.8-17.7,0.8-25.9
		c3.6-8.2,12.4-8.4,12.6-8.4l0,0c0.4,0,10.9-0.5,15,2.5l0,0c3.6,2.7,3.5,8,3.5,12.2c0,0.8,0,1.7,0,2.4c0.2,6.2,0.3,12.4,0.2,18.6
		c-0.1,1.3-0.9,2.3-2,2.8c-2.6,1.5-7.4,1.8-9.7,1.3l2.6,8.7c0,0.2,0,0.3-0.1,0.5C141.9,139.4,141.8,139.5,141.6,139.4z M119.8,137
		l21.1,1.4l-2.7-8.9c-0.1-0.2,0-0.4,0.2-0.5c0.2-0.1,0.4-0.1,0.6,0c1.2,0.7,6.9,0.7,9.8-0.9c1-0.5,1.5-1.2,1.5-2
		c0.1-6.2,0-12.4-0.2-18.5c0-0.8,0-1.6,0-2.4c0-4.1,0-9.1-3.1-11.4l0,0c-3.8-2.8-14.2-2.3-14.4-2.3l0,0c-5.1,0.2-9.6,3.2-11.6,7.8
		c-3.5,7.9-0.8,25.3-0.8,25.5L119.8,137z"/>
	<path class="st0" d="M115.2,140.8l1.5-6.9l27.3,0.4l2,6.1C146.1,140.4,132.5,148.3,115.2,140.8z"/>
	<path class="st1" d="M130.3,144.5c-5.3,0-10.5-1.1-15.4-3.2c-0.2-0.1-0.3-0.3-0.3-0.6l1.5-6.9c0-0.2,0.3-0.4,0.5-0.4l0,0l27.3,0.4
		c0.2,0,0.4,0.1,0.5,0.3l2,6.1c0.1,0.2,0,0.5-0.2,0.6C141.3,143.4,135.9,144.6,130.3,144.5z M115.8,140.5c9.5,4.1,20.3,4,29.7-0.3
		l-1.8-5.3l-26.5-0.4L115.8,140.5z"/>
	<path class="st1" d="M86.5,245.4c-0.3,0-0.5-0.2-0.5-0.5c-1.7-21.3,4.3-66.6,4.6-67.9c0.1-0.3,0.3-0.5,0.6-0.4
		c0.3,0.1,0.5,0.3,0.4,0.6c-0.3,1.3-6.3,46.3-4.6,67.6C87.1,245.1,86.9,245.3,86.5,245.4C86.6,245.4,86.6,245.4,86.5,245.4
		L86.5,245.4z"/>
	<path class="st0" d="M129.2,124.8c-1.3,8,0.1,14.8-7.9,20.2c-5.5,3.7-12.6,4.5-19,3.2c-4.1-0.8-8.3-2.6-10.5-6.2
		c-2.7-4.3-1.6-10,0.5-14.5c2.2-4.6,5.4-8.6,7.3-13.3c4.5-11.5,0.8-24.5,11.9-32.7c4.4-3.2,9.4-5.2,14.8-5.8
		c1.5-0.2,14.9,1.5,14.7,1.8c2.5-2.9,7.9-1.2,9.6,2.3c1.4,3.2,1.4,6.7,0.1,9.9c-0.2,0.4-3.7,4.8-3.6,3.5c-0.2,3.5-2.4,5.3-4.9,7.7
		c-2.6,2.4-5.7,4.3-8.5,6.4c-5.5,4.2-3.6,9.3-4.2,15.2C129.4,123.3,129.3,124,129.2,124.8z"/>
	<path class="st1" d="M108,149.3c-2,0-3.9-0.2-5.9-0.6c-3.6-0.7-8.3-2.4-10.8-6.4c-3.4-5.5-0.8-12.3,0.5-15c1-2,2.1-3.9,3.2-5.8
		c1.5-2.4,2.9-4.9,4-7.5c1.4-4,2.3-8.1,2.7-12.3c1-7.8,2-15.2,9.4-20.5c4.4-3.2,9.6-5.2,15-5.9c0.1,0,11.7,0.9,14.6,1.7
		c1.2-1.1,2.8-1.7,4.5-1.4c2.5,0.3,4.6,1.8,5.8,4c1.5,3.3,1.5,7.1,0.1,10.4c0,0-2.3,3.3-3.6,3.9c-0.4,3.2-2.4,5-4.7,7.1l-0.3,0.3
		c-1.8,1.6-3.7,3-5.6,4.3c-1,0.7-2,1.4-2.9,2.1c-3.9,3-3.9,6.4-3.8,10.5c0,1.4,0,2.9-0.1,4.3c-0.1,0.8-0.2,1.5-0.3,2.3
		c-0.3,1.7-0.4,3.4-0.6,5c-0.6,6-1,11.2-7.5,15.6C117.5,148,112.8,149.3,108,149.3z M126.6,76.2h-0.3c-5.3,0.7-10.3,2.6-14.5,5.7
		c-7,5.1-8,12.3-9,19.8c-0.4,4.3-1.3,8.6-2.8,12.6c-1.1,2.7-2.5,5.2-4.1,7.6c-1.2,1.8-2.2,3.7-3.2,5.7c-1.2,2.5-3.7,9-0.6,14
		c2.3,3.7,6.8,5.2,10.2,5.9c6.9,1.4,13.7,0.2,18.6-3.1c6.1-4.1,6.5-9.1,7.1-14.8c0.2-1.6,0.3-3.3,0.6-5.1l0,0
		c0.1-0.7,0.2-1.4,0.3-2.2c0.1-1.4,0.2-2.8,0.1-4.2c0-4.1-0.1-8,4.2-11.3c1-0.7,1.9-1.4,2.9-2.1c1.9-1.3,3.8-2.7,5.5-4.3l0.3-0.3
		c2.4-2.2,4.2-3.9,4.4-7.1l0,0c0-0.3,0.3-0.5,0.5-0.5c0.1,0,0.2,0,0.3,0.1c1-1,2-2.1,2.8-3.3c1.3-3,1.2-6.5-0.1-9.5
		c-1-1.9-2.9-3.2-5.1-3.4c-1.4-0.3-2.8,0.2-3.8,1.2c-0.2,0.2-0.5,0.2-0.7,0.1C136,77.1,131.3,76.6,126.6,76.2z"/>
	<path class="st0" d="M150.4,121.4c0,0-4.7,3.1-7.4-1.7"/>
	<path class="st1" d="M147.1,122.9c-0.4,0-0.8,0-1.1-0.1c-1.5-0.4-2.8-1.4-3.5-2.8c-0.1-0.2-0.1-0.6,0.2-0.7
		c0.2-0.1,0.6-0.1,0.7,0.2l0,0c0.6,1.1,1.6,2,2.8,2.3c1.4,0.2,2.7-0.1,3.9-0.8c0.2-0.2,0.5-0.1,0.7,0.1c0,0,0,0,0,0
		c0.2,0.2,0.1,0.5-0.1,0.7c0,0,0,0,0,0C149.6,122.5,148.4,122.9,147.1,122.9z"/>
	<path class="st1" d="M123.8,110.8h-0.1c-0.3-0.1-0.5-0.3-0.4-0.6c0,0,0,0,0,0c0.6-3.1,1.2-3.2,1.5-3.3c0.5-0.1,20.6-4.2,31.1-6.4
		c0.3-0.1,0.6,0.1,0.6,0.4c0.1,0.3-0.1,0.6-0.4,0.6c-1.2,0.2-29,6-31,6.4c-0.4,0.8-0.6,1.6-0.8,2.5
		C124.3,110.6,124.1,110.8,123.8,110.8z"/>
	<path class="st0" d="M137.3,109.9c-0.2-1.5-0.9-3-1.9-4.2c-0.7-1-1.4-1.9-2.4-2.7c-0.9-0.8-2.2-1.1-3.4-0.9c-1,0.3-1.9,1-2.3,2
		c-0.4,1-0.7,2-0.6,3c0,4.7,2.5,9.1,6.6,11.5l-0.3-0.3"/>
	<path class="st1" d="M133.3,119.3c-0.1,0-0.2,0-0.3-0.1c-4.2-2.5-6.8-7-6.9-11.9c0-1.1,0.2-2.3,0.7-3.3c0.5-1.1,1.5-2,2.7-2.3
		c1.4-0.3,2.8,0.1,3.8,1c1,0.8,1.8,1.8,2.5,2.8c1.1,1.3,1.8,2.8,2,4.4c0,0.3-0.2,0.5-0.5,0.5c-0.3,0-0.5-0.2-0.5-0.5
		c-0.2-1.4-0.9-2.8-1.8-3.9c-0.6-1-1.4-1.8-2.3-2.6c-0.8-0.7-1.9-1-2.9-0.8c-0.9,0.3-1.6,0.9-2,1.7c-0.4,0.9-0.6,1.9-0.6,2.9
		c0,4.3,2.1,8.3,5.7,10.6c0.2,0,0.3,0,0.4,0.1l0.4,0.4c0.2,0.2,0.2,0.5,0.1,0.7C133.6,119.3,133.4,119.3,133.3,119.3z"/>
	
		<ellipse transform="matrix(0.9954 -9.584575e-02 9.584575e-02 0.9954 -8.9814 14.5503)" class="st1" cx="147" cy="100.8" rx="0.9" ry="2.2"/>
	<path class="st1" d="M172.6,220c-0.1,0-0.1,0-0.2,0c-24.1-11.3-36.1-53.3-36.2-53.7c-0.1-0.3,0.1-0.6,0.4-0.6
		c0.3-0.1,0.5,0.1,0.6,0.3c0,0,0,0,0,0c0.1,0.4,12,41.9,35.7,53c0.3,0.1,0.4,0.4,0.2,0.7C172.9,219.9,172.7,220,172.6,220L172.6,220
		z"/>
	<polygon class="st0" points="290.1,255.5 225.4,255.5 237.8,190.7 302.5,190.7 	"/>
	<path class="st1" d="M290.1,256h-64.8c-0.2,0-0.3-0.1-0.4-0.2c-0.1-0.1-0.1-0.3-0.1-0.4l12.4-64.8c0-0.2,0.3-0.4,0.5-0.4h64.8
		c0.2,0,0.3,0.1,0.4,0.2c0.1,0.1,0.1,0.3,0.1,0.4l-12.4,64.7C290.6,255.8,290.4,256,290.1,256z M226,255h63.7l12.2-63.7h-63.7
		L226,255z"/>
	<path class="st2" d="M290.1,204h-43.6c-0.3,0-0.6-0.3-0.6-0.6c0-0.3,0.2-0.6,0.6-0.6l0,0h43.6c0.3,0,0.6,0.2,0.6,0.5c0,0,0,0,0,0
		C290.7,203.8,290.4,204,290.1,204z"/>
	<path class="st2" d="M288.2,214.2h-43.6c-0.3,0-0.6-0.2-0.6-0.5c0,0,0,0,0,0c0-0.3,0.3-0.6,0.6-0.6h43.6c0.3,0,0.6,0.3,0.6,0.6
		C288.8,213.9,288.5,214.2,288.2,214.2C288.2,214.2,288.2,214.2,288.2,214.2z"/>
	<path class="st2" d="M286.2,224.3h-43.6c-0.3,0-0.5-0.3-0.5-0.6c0-0.3,0.2-0.5,0.5-0.5h43.6c0.3,0,0.6,0.2,0.6,0.5
		c0,0.3-0.2,0.6-0.5,0.6C286.3,224.3,286.3,224.3,286.2,224.3z"/>
	<path class="st2" d="M284.3,234.5h-43.6c-0.3,0-0.6-0.2-0.6-0.5c0-0.3,0.2-0.6,0.5-0.6c0.1,0,0.1,0,0.2,0h43.6
		c0.3,0,0.5,0.3,0.5,0.6C284.8,234.2,284.6,234.4,284.3,234.5z"/>
	<path class="st2" d="M269.4,244.6h-30.6c-0.3,0-0.5-0.3-0.5-0.6c0-0.3,0.2-0.5,0.5-0.5h30.6c0.3,0,0.5,0.3,0.5,0.6
		C269.9,244.4,269.7,244.6,269.4,244.6z"/>
</g>
</svg>
