<svg xmlns="http://www.w3.org/2000/svg" viewBox="0 0 400 300" width="406" height="306" class="illustration styles_illustrationTablet__1DWOa"><g id="_95_profile_analysis" data-name="#95_profile_analysis"><ellipse cx="202.28" cy="111.01" rx="23.93" ry="27.77" fill="#fff"></ellipse><path d="M202.28,139.3c-13.48,0-24.45-12.69-24.45-28.29V109.4c0-8.69,0-16.2,4.87-21.11,3.73-3.75,10.14-5.57,19.58-5.57s15.85,1.82,19.59,5.57c4.9,4.91,4.88,12.42,4.86,21.11V111C226.73,126.61,215.76,139.3,202.28,139.3Zm0-55.54c-9.15,0-15.32,1.72-18.85,5.26-4.6,4.6-4.58,11.91-4.57,20.38V111c0,15,10.5,27.26,23.41,27.26S225.7,126,225.7,111V109.4c0-8.47,0-15.78-4.56-20.38C217.61,85.48,211.44,83.76,202.28,83.76Z" fill="#231f20"></path><path d="M258.83,226.84c0-17.39-7.26-48-13-55.33-7.65-9.72-28.49-20-63.05-14.89,0,0-17.95,5.47-28.76,17.32-8.3,9.08-12.57,46.6-14.11,52.9Z" fill="#00e690"></path><path d="M186.69,124.49c-1.17-7.31-13.31-9.12-12.71-.5a12.72,12.72,0,0,0,3.24,8.09c2.08,2.12,5.43,3.12,8.14,1.91" fill="#fff"></path><path d="M182.83,135a8.52,8.52,0,0,1-6-2.58,13.29,13.29,0,0,1-3.38-8.42c-.29-4.19,2.26-6,4.74-6.27,3.76-.42,8.27,2.14,9,6.64a.51.51,0,0,1-.43.6.52.52,0,0,1-.59-.43c-.62-3.87-4.65-6.15-7.85-5.78-1.25.14-4.13.93-3.83,5.17a12.24,12.24,0,0,0,3.09,7.76,7,7,0,0,0,7.56,1.8.51.51,0,0,1,.42.94A6.73,6.73,0,0,1,182.83,135Z" fill="#231f20"></path><path d="M216.93,124.49c1.17-7.31,13.31-9.12,12.71-.5a12.72,12.72,0,0,1-3.24,8.09,7.51,7.51,0,0,1-8.14,1.91" fill="#fff"></path><path d="M220.8,135a6.77,6.77,0,0,1-2.75-.57.52.52,0,1,1,.43-.94,7,7,0,0,0,7.56-1.8,12.22,12.22,0,0,0,3.08-7.76c.3-4.24-2.57-5-3.82-5.17-3.22-.37-7.24,1.91-7.86,5.78a.52.52,0,0,1-.59.43.53.53,0,0,1-.43-.6c.72-4.5,5.25-7.06,9-6.64,2.48.29,5,2.08,4.73,6.27a13.27,13.27,0,0,1-3.38,8.42A8.54,8.54,0,0,1,220.8,135Z" fill="#231f20"></path><polygon points="215.87 161.03 189.55 161.03 201.93 223.63 215.87 161.03" fill="#231f20"></polygon><path d="M201.93,224.13h0a.51.51,0,0,1-.48-.4l-12.38-62.61a.48.48,0,0,1,.11-.41.49.49,0,0,1,.38-.18h26.32a.49.49,0,0,1,.39.19.52.52,0,0,1,.1.42l-13.94,62.6A.51.51,0,0,1,201.93,224.13Zm-11.77-62.6L202,221.21l13.29-59.68Z" fill="#231f20"></path><path d="M198.62,207.77l3.31,15.86,3.53-15.86c-.92-12-1.78-33.41-1.78-33.41l1.57-3.41-2.94-3-2.92,3,2.19,3.7Z" fill="#fff"></path><path d="M201.93,224.14h0a.5.5,0,0,1-.5-.41l-3.32-15.86a.76.76,0,0,1,0-.15l3-33-2.11-3.56a.53.53,0,0,1,.08-.62l2.91-3a.54.54,0,0,1,.37-.16h0a.52.52,0,0,1,.37.16l2.94,3a.5.5,0,0,1,.1.57l-1.52,3.3c.07,1.77.9,21.91,1.78,33.27a.76.76,0,0,1,0,.15l-3.54,15.86A.5.5,0,0,1,201.93,224.14Zm-2.79-16.4L202,221.18l3-13.45c-.91-11.87-1.76-33.14-1.77-33.35a.51.51,0,0,1,0-.24l1.42-3.09-2.32-2.39L200,171l2,3.36a.46.46,0,0,1,.07.3Z" fill="#231f20"></path><path d="M215.87,161s-3.28,7.15-12.86,7.15A15.46,15.46,0,0,1,189.54,161l.41-5.11.94-11.88.89-11.1h21.86l.73,9.07.22,2.95Z" fill="#fff"></path><path d="M203,168.69a16.13,16.13,0,0,1-13.92-7.42A.49.49,0,0,1,189,161l2.23-28.1a.52.52,0,0,1,.52-.47h21.86a.51.51,0,0,1,.51.47l2.24,28.1a.58.58,0,0,1,0,.26C216.31,161.31,212.8,168.69,203,168.69Zm-12.94-7.79A15.14,15.14,0,0,0,203,167.66c8.49,0,11.87-5.85,12.34-6.74l-2.19-27.48H192.25Z" fill="#231f20"></path><path d="M216.07,141.16a10.5,10.5,0,0,1-1.48,3.79,19.57,19.57,0,0,1-7.18,6.3c-4.71,2.6-11.75,5.53-17.46,4.66l.94-11.88a54.05,54.05,0,0,0,12.6.08c3.69-.33,7.49-.68,10.88-2.11A17.88,17.88,0,0,0,216.07,141.16Z" fill="#231f20"></path><path d="M192.12,156.56a15.28,15.28,0,0,1-2.25-.16.49.49,0,0,1-.42-.53l.94-11.88a.5.5,0,0,1,.18-.35.54.54,0,0,1,.39-.11,52.39,52.39,0,0,0,12.49.08c3.44-.3,7.35-.64,10.72-2.06.62-.28,1.16-.55,1.65-.82a.49.49,0,0,1,.53,0,.5.5,0,0,1,.21.49,10.93,10.93,0,0,1-1.55,4,19.62,19.62,0,0,1-7.36,6.46C204.18,153.6,197.89,156.56,192.12,156.56Zm-1.64-1.08c5.92.68,13-2.61,16.69-4.67a18.74,18.74,0,0,0,7-6.12,9.88,9.88,0,0,0,1.17-2.59l-.77.36c-3.53,1.49-7.52,1.84-11,2.14a54.26,54.26,0,0,1-12.2,0Z" fill="#231f20"></path><path d="M203.34,146.83h-2a16.76,16.76,0,0,1-16.75-16.76V103.54H220.1v26.53A16.76,16.76,0,0,1,203.34,146.83Z" fill="#fff"></path><path d="M203.34,147.34h-2a17.29,17.29,0,0,1-17.27-17.27V103.54a.51.51,0,0,1,.51-.52H220.1a.52.52,0,0,1,.52.52v26.53A17.3,17.3,0,0,1,203.34,147.34Zm-18.19-43.29v26a16.26,16.26,0,0,0,16.24,16.24h2a16.27,16.27,0,0,0,16.25-16.24v-26Z" fill="#231f20"></path><path d="M204.92,130.12a22.49,22.49,0,0,1-2.58-.14.52.52,0,0,1-.45-.57.52.52,0,0,1,.58-.45,22.34,22.34,0,0,0,4.73,0s.06,0,.1-.08c.73-1.22-1.18-7.6-2.77-11.74a.51.51,0,1,1,1-.37c.67,1.74,3.95,10.55,2.69,12.64a1.1,1.1,0,0,1-.85.57A18.67,18.67,0,0,1,204.92,130.12Z" fill="#231f20"></path><path d="M204.09,139.75a36.34,36.34,0,0,1-7.73-.85.52.52,0,0,1-.38-.63.52.52,0,0,1,.62-.38c.08,0,7.7,1.83,13.86,0a.52.52,0,0,1,.29,1A23.71,23.71,0,0,1,204.09,139.75Z" fill="#231f20"></path><path d="M312.67,227.34H86.11a.5.5,0,0,1-.5-.5V78a.5.5,0,0,1,.5-.5H312.67a.5.5,0,0,1,.5.5V226.84A.5.5,0,0,1,312.67,227.34Zm-226.06-1H312.17V78.47H86.61Z" fill="#d1d3d4"></path><path d="M312.67,250.76H86.11a.5.5,0,0,1-.5-.5V226.84a.5.5,0,0,1,.5-.5H312.67a.5.5,0,0,1,.5.5v23.42A.5.5,0,0,1,312.67,250.76Zm-226.06-1H312.17V227.34H86.61Z" fill="#d1d3d4"></path><rect x="106.2" y="189.63" width="7.43" height="62.41" transform="translate(188.35 -13.04) rotate(45)" fill="#231f20"></rect><path d="M90.47,246a.5.5,0,0,1-.35-.15l-5.25-5.25a.48.48,0,0,1,0-.7L129,195.8a.5.5,0,0,1,.71,0l5.25,5.25a.51.51,0,0,1,0,.7L90.83,245.88A.51.51,0,0,1,90.47,246Zm-4.55-5.75,4.55,4.55L133.9,201.4l-4.55-4.55Z" fill="#231f20"></path><rect x="88.62" y="209.61" width="13.94" height="51.1" rx="5.65" transform="translate(194.28 1.29) rotate(45)" fill="#00e690"></rect><circle cx="148.37" cy="182.39" r="38.32" fill="#fff"></circle><path d="M148.37,221.21a38.82,38.82,0,1,1,27.45-11.37l-.35-.36.35.36A38.57,38.57,0,0,1,148.37,221.21Zm0-76.65a37.83,37.83,0,1,0,26.74,64.57h0a37.83,37.83,0,0,0-26.74-64.57Z" fill="#231f20"></path><circle cx="148.37" cy="182.39" r="31.94" fill="#fff"></circle><path d="M148.37,214.82a32.44,32.44,0,1,1,22.93-9.5h0A32.19,32.19,0,0,1,148.37,214.82Zm0-63.87a31.44,31.44,0,1,0,22.23,53.66h0A31.44,31.44,0,0,0,148.37,151ZM171,205h0Z" fill="#231f20"></path><polygon points="275.14 139.38 275.14 148.17 257.4 148.17 275.14 158.91 275.14 202.98 352.85 202.98 352.85 139.38 275.14 139.38" fill="#fff"></polygon><path d="M352.85,203.48H275.14a.5.5,0,0,1-.5-.5V159.19l-17.5-10.59a.5.5,0,0,1-.22-.56.49.49,0,0,1,.48-.37h17.24v-8.29a.5.5,0,0,1,.5-.5h77.71a.5.5,0,0,1,.5.5V203A.5.5,0,0,1,352.85,203.48Zm-77.21-1h76.71v-62.6H275.64v8.29a.5.5,0,0,1-.5.5H259.19l16.2,9.81a.5.5,0,0,1,.25.43Z" fill="#231f20"></path><polygon points="283.02 48.12 283.02 90.46 266.69 98.24 283.02 98.24 283.02 110.63 357.35 110.63 357.35 48.12 283.02 48.12" fill="#fff"></polygon><path d="M357.35,111.13H283a.5.5,0,0,1-.5-.5V98.74H266.69a.5.5,0,0,1-.22-.95l16-7.64v-42a.5.5,0,0,1,.5-.5h74.33a.5.5,0,0,1,.5.5v62.51A.5.5,0,0,1,357.35,111.13Zm-73.83-1h73.33V48.62H283.52V90.46a.51.51,0,0,1-.29.46L268.9,97.74H283a.5.5,0,0,1,.5.5ZM283,90.46h0Z" fill="#231f20"></path><path d="M170.61,44.18H114.79V70.35h40.59l8.9,11.28V70.35h6.33Z" fill="#fff"></path><path d="M164.28,82.13a.51.51,0,0,1-.39-.19l-8.75-11.09H114.79a.5.5,0,0,1-.5-.5V44.18a.5.5,0,0,1,.5-.5h55.82a.5.5,0,0,1,.5.5V70.35a.5.5,0,0,1-.5.5h-5.83V81.63a.5.5,0,0,1-.33.47A.51.51,0,0,1,164.28,82.13Zm-49-12.28h40.09a.51.51,0,0,1,.4.19l8,10.15V70.35a.51.51,0,0,1,.5-.5h5.83V44.68H115.29Z" fill="#231f20"></path><polygon points="129.57 104.55 114.91 104.55 114.91 93.75 42.65 93.75 42.65 140.15 114.91 140.15 114.91 111.44 129.57 104.55" fill="#fff"></polygon><path d="M114.91,140.65H42.65a.5.5,0,0,1-.5-.5V93.75a.5.5,0,0,1,.5-.5h72.26a.5.5,0,0,1,.5.5v10.3h14.16a.49.49,0,0,1,.48.39.49.49,0,0,1-.27.56l-14.37,6.75v28.4A.5.5,0,0,1,114.91,140.65Zm-71.76-1h71.26V111.44a.52.52,0,0,1,.28-.46l12.64-5.93H114.91a.5.5,0,0,1-.5-.5V94.25H43.15Z" fill="#231f20"></path><path d="M162.19,240.24v4.52h-4.7v-14h6a9.79,9.79,0,0,1,2.1.23,5.27,5.27,0,0,1,1.85.78,4,4,0,0,1,1.3,1.44,4.68,4.68,0,0,1,.5,2.27,4.56,4.56,0,0,1-.49,2.22,4.22,4.22,0,0,1-1.28,1.49,5.2,5.2,0,0,1-1.85.83,8.4,8.4,0,0,1-2.13.26Zm0-5.85v2.26h1a1.91,1.91,0,0,0,1-.26,1,1,0,0,0,.45-.91,1.08,1.08,0,0,0-.12-.54.87.87,0,0,0-.33-.33,1.68,1.68,0,0,0-.46-.17,3.05,3.05,0,0,0-.52-.05Z" fill="#d1d3d4"></path><path d="M171.05,230.72h6a10.12,10.12,0,0,1,2.05.21,5.22,5.22,0,0,1,1.83.74,4.07,4.07,0,0,1,1.3,1.4,4.5,4.5,0,0,1,.49,2.22,4.14,4.14,0,0,1-.63,2.27,4.07,4.07,0,0,1-1.82,1.51l3.56,5.69h-5.42l-2.69-5h-.14v5h-4.58Zm4.55,5.93h.92a3.28,3.28,0,0,0,.52,0,1.38,1.38,0,0,0,.53-.17,1.18,1.18,0,0,0,.42-.35,1,1,0,0,0,.16-.61,1.1,1.1,0,0,0-.13-.59.87.87,0,0,0-.36-.33,1.43,1.43,0,0,0-.47-.14l-.47,0H175.6Z" fill="#d1d3d4"></path><path d="M184.58,237.66a7.46,7.46,0,0,1,.59-3,6.84,6.84,0,0,1,1.64-2.31,7.39,7.39,0,0,1,2.46-1.47,9.21,9.21,0,0,1,3.1-.51,9.11,9.11,0,0,1,3.09.51,7.59,7.59,0,0,1,2.48,1.47,6.87,6.87,0,0,1,1.65,2.31,7.63,7.63,0,0,1,.59,3,7.87,7.87,0,0,1-.59,3.08,7.11,7.11,0,0,1-1.65,2.37,7.35,7.35,0,0,1-2.48,1.51,8.65,8.65,0,0,1-3.09.54,8.74,8.74,0,0,1-3.1-.54,7.16,7.16,0,0,1-2.46-1.51,7.09,7.09,0,0,1-1.64-2.37A7.69,7.69,0,0,1,184.58,237.66Zm5,0a3.64,3.64,0,0,0,.21,1.27,2.85,2.85,0,0,0,.58,1,2.46,2.46,0,0,0,.88.65,2.72,2.72,0,0,0,1.11.23,2.67,2.67,0,0,0,1.1-.23,2.55,2.55,0,0,0,.88-.65,2.87,2.87,0,0,0,.59-1,3.64,3.64,0,0,0,.2-1.27,3.45,3.45,0,0,0-.2-1.23,2.73,2.73,0,0,0-.59-1,2.7,2.7,0,0,0-.88-.6,2.67,2.67,0,0,0-1.1-.22,2.72,2.72,0,0,0-1.11.22,2.6,2.6,0,0,0-.88.6,2.71,2.71,0,0,0-.58,1A3.45,3.45,0,0,0,189.59,237.66Z" fill="#d1d3d4"></path><path d="M206.78,236.14h4.29V240H206.8v4.76h-4.64v-14h9.48v3.95h-4.86Z" fill="#d1d3d4"></path><path d="M213.68,230.72h4.76v14h-4.76Z" fill="#d1d3d4"></path><path d="M221.06,230.72h4.76v10h4.66v4.06h-9.42Z" fill="#d1d3d4"></path><path d="M231.94,230.72h9.66v3.93h-5.21v1.21h4.89v3.67h-4.89v1.31h5.55v3.92h-10Z" fill="#d1d3d4"></path><path d="M312.67,191A20.92,20.92,0,1,1,333.59,170,20.94,20.94,0,0,1,312.67,191Zm0-40.84A19.92,19.92,0,1,0,332.59,170,19.93,19.93,0,0,0,312.67,150.12Z" fill="#d1d3d4"></path><path d="M318.6,190.08a.5.5,0,0,1-.48-.35l-5.93-19.55a.5.5,0,0,1,.07-.43l11.86-16.62a.5.5,0,0,1,.7-.12.51.51,0,0,1,.12.7l-11.72,16.42,5.86,19.31a.5.5,0,0,1-.33.62Z" fill="#d1d3d4"></path><path d="M312.67,170.54a.46.46,0,0,1-.23-.06l-18.06-9.55a.51.51,0,0,1-.21-.67.5.5,0,0,1,.68-.21l18,9.55a.49.49,0,0,1,.21.67A.5.5,0,0,1,312.67,170.54Z" fill="#d1d3d4"></path><path d="M66.91,133.63H59.53a.51.51,0,0,1-.5-.5V99.34a.5.5,0,0,1,.5-.5h7.38a.5.5,0,0,1,.5.5v33.79A.51.51,0,0,1,66.91,133.63Zm-6.88-1h6.38V99.84H60Z" fill="#d1d3d4"></path><path d="M83,133.63H75.65a.5.5,0,0,1-.5-.5V109.72a.5.5,0,0,1,.5-.5H83a.5.5,0,0,1,.5.5v23.41A.5.5,0,0,1,83,133.63Zm-6.87-1h6.37V110.22H76.15Z" fill="#d1d3d4"></path><path d="M99.14,133.63H91.77a.5.5,0,0,1-.5-.5v-15a.5.5,0,0,1,.5-.5h7.37a.5.5,0,0,1,.5.5v15A.5.5,0,0,1,99.14,133.63Zm-6.87-1h6.37v-14H92.27Z" fill="#d1d3d4"></path><path d="M105.23,133.63H52.36a.5.5,0,0,1-.5-.5.5.5,0,0,1,.5-.5h52.87a.5.5,0,0,1,.5.5A.5.5,0,0,1,105.23,133.63Z" fill="#d1d3d4"></path><path d="M347.07,161.53h-8.3a.5.5,0,0,1-.5-.5.5.5,0,0,1,.5-.5h8.3a.5.5,0,0,1,.5.5A.5.5,0,0,1,347.07,161.53Z" fill="#d1d3d4"></path><path d="M347.07,166h-8.3a.5.5,0,0,1-.5-.5.5.5,0,0,1,.5-.5h8.3a.5.5,0,0,1,.5.5A.5.5,0,0,1,347.07,166Z" fill="#d1d3d4"></path><path d="M342.85,170.54h-4.08a.5.5,0,0,1-.5-.5.5.5,0,0,1,.5-.5h4.08a.5.5,0,0,1,.5.5A.5.5,0,0,1,342.85,170.54Z" fill="#d1d3d4"></path><path d="M291.6,183.35H282a.5.5,0,0,1,0-1h9.57a.5.5,0,0,1,0,1Z" fill="#d1d3d4"></path><path d="M288.23,187.15H282a.5.5,0,0,1,0-1h6.2a.5.5,0,0,1,0,1Z" fill="#d1d3d4"></path><path d="M295.41,89.79a.51.51,0,0,1-.4-.2.5.5,0,0,1,.09-.7l16.61-12.82a.51.51,0,0,1,.69.07L321.92,87l23.56-20.75a.49.49,0,0,1,.7,0,.48.48,0,0,1,0,.7L322.21,88.1a.56.56,0,0,1-.37.13.51.51,0,0,1-.34-.17L312,77.15,295.71,89.68A.48.48,0,0,1,295.41,89.79Z" fill="#d1d3d4"></path><path d="M349,94.05H292.24a.5.5,0,0,1-.5-.5V60.8a.5.5,0,0,1,.5-.5.5.5,0,0,1,.5.5V93.05H349a.5.5,0,0,1,.5.5A.5.5,0,0,1,349,94.05Z" fill="#d1d3d4"></path><path d="M318.1,61.3H297.37a.5.5,0,0,1-.5-.5.5.5,0,0,1,.5-.5H318.1a.5.5,0,0,1,.5.5A.5.5,0,0,1,318.1,61.3Z" fill="#d1d3d4"></path><path d="M318.1,65.12H297.37a.5.5,0,0,1-.5-.5.5.5,0,0,1,.5-.5H318.1a.5.5,0,0,1,.5.5A.5.5,0,0,1,318.1,65.12Z" fill="#d1d3d4"></path><path d="M307.07,68.94h-9.7a.5.5,0,0,1-.5-.5.5.5,0,0,1,.5-.5h9.7a.5.5,0,0,1,.5.5A.51.51,0,0,1,307.07,68.94Z" fill="#d1d3d4"></path><path d="M130.41,67.86a.5.5,0,0,1-.5-.5V47.75a.5.5,0,0,1,.5-.5.5.5,0,0,1,.5.5V67.36A.5.5,0,0,1,130.41,67.86Z" fill="#d1d3d4"></path><path d="M162.89,51.72H120.28a.5.5,0,0,1,0-1h42.61a.5.5,0,0,1,0,1Z" fill="#d1d3d4"></path><path d="M162.89,58H120.28a.5.5,0,0,1-.5-.5.5.5,0,0,1,.5-.5h42.61a.5.5,0,0,1,.5.5A.51.51,0,0,1,162.89,58Z" fill="#d1d3d4"></path><path d="M162.89,64.3H120.28a.5.5,0,0,1-.5-.5.5.5,0,0,1,.5-.5h42.61a.5.5,0,0,1,.5.5A.51.51,0,0,1,162.89,64.3Z" fill="#d1d3d4"></path><circle cx="136.43" cy="181.5" r="3.46" fill="#00e690"></circle><circle cx="148.79" cy="181.5" r="3.46" fill="#00e690"></circle><circle cx="161.15" cy="181.5" r="3.46" fill="#00e690"></circle></g></svg>