<?xml version="1.0" encoding="utf-8"?>
<!-- Generator: Adobe Illustrator 23.0.2, SVG Export Plug-In . SVG Version: 6.00 Build 0)  -->
<svg version="1.1" id="Camada_1" xmlns="http://www.w3.org/2000/svg" xmlns:xlink="http://www.w3.org/1999/xlink" x="0px" y="0px"
	 viewBox="0 0 406 306" style="enable-background:new 0 0 406 306;" xml:space="preserve">
<style type="text/css">
	.st0{fill:#FFFFFF;}
	.st1{fill:#231F20;}
	.st2{fill:#0B6567;}
	.st3{fill:#D1D3D4;}
</style>
<g id="_95_profile_analysis">
	<ellipse class="st0" cx="205.3" cy="113.4" rx="24.3" ry="28.2"/>
	<path class="st1" d="M205.3,142.1c-13.7,0-24.8-12.9-24.8-28.7v-1.6c0-8.8,0-16.4,4.9-21.4c3.8-3.8,10.3-5.7,19.9-5.7
		s16.1,1.8,19.9,5.7c5,5,5,12.6,4.9,21.4v1.6C230.1,129.3,219,142.1,205.3,142.1z M205.3,85.8c-9.3,0-15.5,1.7-19.1,5.3
		c-4.7,4.7-4.6,12.1-4.6,20.7v1.6c0,15.2,10.7,27.7,23.8,27.7s23.8-12.4,23.8-27.7v-1.6c0-8.6,0-16-4.6-20.7
		C220.9,87.5,214.6,85.8,205.3,85.8z"/>
	<path class="st2" d="M262.7,231c0-17.7-7.4-48.7-13.2-56.2c-7.8-9.9-28.9-20.3-64-15.1c0,0-18.2,5.6-29.2,17.6
		c-8.4,9.2-12.8,47.3-14.3,53.7H262.7z"/>
	<path class="st0" d="M189.5,127.1c-1.2-7.4-13.5-9.3-12.9-0.5c0.1,3,1.3,5.9,3.3,8.2c2.1,2.2,5.5,3.2,8.3,1.9"/>
	<path class="st1" d="M185.6,137.8c-2.3,0-4.5-1-6.1-2.6c-2.1-2.4-3.3-5.4-3.4-8.5c-0.3-4.3,2.3-6.1,4.8-6.4
		c3.8-0.4,8.4,2.2,9.1,6.7c0.1,0.3-0.1,0.6-0.4,0.6c0,0,0,0,0,0c-0.3,0-0.6-0.2-0.6-0.4c-0.6-3.9-4.7-6.2-8-5.9
		c-1.3,0.1-4.2,0.9-3.9,5.2c0.1,2.9,1.2,5.7,3.1,7.9c2,2.1,5,2.8,7.7,1.8c0.3-0.1,0.6,0,0.7,0.3c0.1,0.3,0,0.6-0.3,0.7
		C187.5,137.6,186.5,137.8,185.6,137.8z"/>
	<path class="st0" d="M220.2,127.1c1.2-7.4,13.5-9.3,12.9-0.5c-0.1,3-1.3,5.9-3.3,8.2c-2.1,2.3-5.4,3-8.3,1.9"/>
	<path class="st1" d="M224.1,137.8c-1,0-1.9-0.2-2.8-0.6c-0.3-0.1-0.4-0.4-0.3-0.7c0.1-0.3,0.4-0.4,0.7-0.3c0,0,0.1,0,0.1,0
		c2.7,1,5.7,0.3,7.7-1.8c1.9-2.2,3-5,3.1-7.9c0.3-4.3-2.6-5.1-3.9-5.2c-3.3-0.4-7.3,1.9-8,5.9c0,0.3-0.3,0.5-0.6,0.4
		c-0.3-0.1-0.5-0.3-0.4-0.6c0.7-4.6,5.3-7.2,9.1-6.7c2.5,0.3,5.1,2.1,4.8,6.4c-0.1,3.2-1.3,6.2-3.4,8.5
		C228.6,136.8,226.4,137.7,224.1,137.8z"/>
	<polygon class="st1" points="219.1,164.2 192.4,164.2 205,227.7 	"/>
	<path class="st1" d="M205,228.2L205,228.2c-0.2,0-0.4-0.2-0.5-0.4l-12.6-63.5c0-0.1,0-0.3,0.1-0.4c0.1-0.1,0.2-0.2,0.4-0.2h26.7
		c0.2,0,0.3,0.1,0.4,0.2c0.1,0.1,0.1,0.3,0.1,0.4l-14.1,63.5C205.4,228.1,205.2,228.2,205,228.2z M193,164.7l12,60.6l13.5-60.6H193z
		"/>
	<path class="st0" d="M201.6,211.6l3.4,16.1l3.6-16.1c-0.9-12.2-1.8-33.9-1.8-33.9l1.6-3.5l-3-3l-3,3l2.2,3.8L201.6,211.6z"/>
	<path class="st1" d="M205,228.3L205,228.3c-0.2,0-0.5-0.2-0.5-0.4l-3.4-16.1c0-0.1,0-0.1,0-0.2l3-33.5l-2.1-3.6
		c-0.1-0.2-0.1-0.5,0.1-0.6l3-3c0.1-0.1,0.2-0.2,0.4-0.2l0,0c0.1,0,0.3,0.1,0.4,0.2l3,3c0.2,0.2,0.2,0.4,0.1,0.6l-1.5,3.3
		c0.1,1.8,0.9,22.2,1.8,33.8c0,0.1,0,0.1,0,0.2l-3.6,16.1C205.5,228.1,205.3,228.3,205,228.3C205,228.3,205,228.3,205,228.3z
		 M202.1,211.6l2.9,13.6l3-13.7c-0.9-12-1.8-33.6-1.8-33.9c0-0.1,0-0.2,0-0.2l1.4-3.1l-2.4-2.4l-2.4,2.4l2,3.4
		c0.1,0.1,0.1,0.2,0.1,0.3L202.1,211.6z"/>
	<path class="st0" d="M219.1,164.2c0,0-3.3,7.3-13.1,7.3c-5.5,0.2-10.7-2.6-13.7-7.3l0.4-5.2l1-12.1l0.9-11.3h22.2l0.7,9.2l0.2,3
		L219.1,164.2z"/>
	<path class="st1" d="M206,172c-5.7,0.1-11.1-2.7-14.1-7.5c-0.1-0.1-0.1-0.2-0.1-0.3l2.3-28.5c0-0.3,0.3-0.5,0.5-0.5h22.2
		c0.3,0,0.5,0.2,0.5,0.5l2.3,28.5c0,0.1,0,0.2,0,0.3C219.6,164.5,216,172,206,172z M192.9,164.1c2.9,4.4,7.9,7,13.1,6.9
		c8.6,0,12-5.9,12.5-6.8l-2.2-27.9h-21.2L192.9,164.1z"/>
	<path class="st1" d="M219.3,144c-0.2,1.4-0.8,2.7-1.5,3.8c-1.9,2.7-4.4,4.9-7.3,6.4c-4.8,2.6-11.9,5.6-17.7,4.7l1-12.1
		c4.2,0.5,8.5,0.6,12.8,0.1c3.7-0.3,7.6-0.7,11-2.1C218.2,144.6,218.8,144.3,219.3,144z"/>
	<path class="st1" d="M195,159.7c-0.8,0-1.5-0.1-2.3-0.2c-0.3,0-0.5-0.3-0.4-0.5l1-12.1c0-0.1,0.1-0.3,0.2-0.4
		c0.1-0.1,0.3-0.1,0.4-0.1c4.2,0.5,8.5,0.6,12.7,0.1c3.5-0.3,7.5-0.6,10.9-2.1c0.6-0.3,1.2-0.6,1.7-0.8c0.2-0.1,0.4-0.1,0.5,0
		c0.2,0.1,0.2,0.3,0.2,0.5c-0.3,1.4-0.8,2.8-1.6,4.1c-1.9,2.8-4.5,5-7.5,6.6C207.2,156.7,200.9,159.7,195,159.7z M193.3,158.6
		c6,0.7,13.2-2.6,16.9-4.7c2.9-1.4,5.3-3.6,7.1-6.2c0.5-0.8,0.9-1.7,1.2-2.6l-0.8,0.4c-3.6,1.5-7.6,1.9-11.2,2.2
		c-4.1,0.5-8.3,0.5-12.4,0L193.3,158.6z"/>
	<path class="st0" d="M206.4,149.8h-2c-9.4,0-17-7.6-17-17v-26.9h36v26.9C223.4,142.2,215.8,149.8,206.4,149.8L206.4,149.8z"/>
	<path class="st1" d="M206.4,150.3h-2c-9.7,0-17.5-7.9-17.5-17.5v-26.9c0-0.3,0.2-0.5,0.5-0.5c0,0,0,0,0,0h36.1
		c0.3,0,0.5,0.2,0.5,0.5l0,0v26.9C223.9,142.4,216.1,150.3,206.4,150.3z M187.9,106.4v26.4c0,9.1,7.4,16.5,16.5,16.5h2
		c9.1,0,16.5-7.4,16.5-16.5v-26.4L187.9,106.4z"/>
	<path class="st1" d="M208,132.8c-0.9,0-1.7,0-2.6-0.1c-0.3,0-0.5-0.3-0.5-0.6c0-0.3,0.3-0.5,0.6-0.5c1.6,0.2,3.2,0.2,4.8,0
		c0,0,0.1,0,0.1-0.1c0.7-1.2-1.2-7.7-2.8-11.9c-0.1-0.3,0-0.6,0.3-0.7c0.3-0.1,0.6,0,0.7,0.3c0.7,1.8,4,10.7,2.7,12.8
		c-0.2,0.3-0.5,0.5-0.9,0.6C209.7,132.8,208.8,132.8,208,132.8z"/>
	<path class="st1" d="M207.2,142.6c-2.6,0-5.3-0.3-7.8-0.9c-0.3-0.1-0.5-0.4-0.4-0.6c0,0,0,0,0,0c0.1-0.3,0.3-0.4,0.6-0.4
		c0.1,0,7.8,1.9,14.1,0c0.3-0.1,0.6,0.1,0.7,0.4c0.1,0.3-0.1,0.6-0.4,0.7C211.7,142.3,209.4,142.6,207.2,142.6z"/>
	<path class="st3" d="M317.4,231.5h-230c-0.3,0-0.5-0.2-0.5-0.5V79.9c0-0.3,0.2-0.5,0.5-0.5h230c0.3,0,0.5,0.2,0.5,0.5V231
		C317.9,231.3,317.6,231.5,317.4,231.5z M87.9,230.5h228.9V80.4H87.9L87.9,230.5z"/>
	<path class="st3" d="M317.4,255.3h-230c-0.3,0-0.5-0.2-0.5-0.5V231c0-0.3,0.2-0.5,0.5-0.5h230c0.3,0,0.5,0.2,0.5,0.5v23.8
		C317.9,255,317.6,255.3,317.4,255.3z M87.9,254.3h228.9v-22.8H87.9L87.9,254.3z"/>
	
		<rect x="79.9" y="221.1" transform="matrix(0.7071 -0.7071 0.7071 0.7071 -126.3499 144.7605)" class="st1" width="63.3" height="7.5"/>
	<path class="st1" d="M91.8,250.4c-0.1,0-0.3-0.1-0.4-0.2l-5.3-5.3c-0.2-0.2-0.2-0.5,0-0.7c0,0,0,0,0,0l44.8-44.8
		c0.2-0.2,0.5-0.2,0.7,0c0,0,0,0,0,0l5.3,5.3c0.2,0.2,0.2,0.5,0,0.7l-44.8,44.8C92.1,250.4,92,250.4,91.8,250.4z M87.2,244.6
		l4.6,4.6l44.1-44.1l-4.6-4.6L87.2,244.6z"/>
	<path class="st2" d="M114.4,220.2l1.9,1.9c2.2,2.2,2.2,5.9,0,8.1l-28.6,28.6c-2.2,2.2-5.9,2.2-8.1,0l-1.9-1.9
		c-2.2-2.2-2.2-5.9,0-8.1l28.6-28.6C108.5,217.9,112.2,217.9,114.4,220.2z"/>
	
		<ellipse transform="matrix(7.088901e-02 -0.9975 0.9975 7.088901e-02 -45.4882 322.916)" class="st0" cx="150.6" cy="185.9" rx="38.9" ry="38.9"/>
	<path class="st1" d="M150.6,225.3c-21.8,0-39.4-17.6-39.4-39.4c0-21.8,17.6-39.4,39.4-39.4s39.4,17.6,39.4,39.4
		c0,10.5-4.2,20.5-11.5,27.9l-0.4-0.4l0.4,0.4C171.1,221.2,161.1,225.3,150.6,225.3z M150.6,147.5c-21.2,0-38.4,17.2-38.4,38.4
		c0,21.2,17.2,38.4,38.4,38.4c10.2,0,20-4,27.2-11.3l0,0c15-15,15-39.3,0-54.3C170.5,151.5,160.8,147.5,150.6,147.5z"/>
	<circle class="st0" cx="150.6" cy="185.9" r="32.4"/>
	<path class="st1" d="M150.6,218.8c-18.2,0-32.9-14.7-32.9-32.9s14.7-32.9,32.9-32.9c18.2,0,32.9,14.7,32.9,32.9
		c0,8.7-3.5,17.1-9.6,23.3l0,0C167.7,215.3,159.3,218.8,150.6,218.8z M150.6,154c-17.6,0-31.9,14.3-31.9,31.9s14.3,31.9,31.9,31.9
		c8.5,0,16.6-3.4,22.6-9.4l0,0c12.4-12.5,12.4-32.7-0.1-45.1C167.1,157.4,159,154,150.6,154L150.6,154z M173.6,208.8L173.6,208.8z"
		/>
	<polygon class="st0" points="279.3,142.2 279.3,151.1 261.3,151.1 279.3,162 279.3,206.8 358.1,206.8 358.1,142.2 	"/>
	<path class="st1" d="M358.1,207.3h-78.9c-0.3,0-0.5-0.2-0.5-0.5v-44.4L261,151.6c-0.2-0.1-0.3-0.4-0.2-0.6c0.1-0.2,0.3-0.4,0.5-0.4
		h17.5v-8.4c0-0.3,0.2-0.5,0.5-0.5h78.9c0.3,0,0.5,0.2,0.5,0.5v64.6C358.6,207.1,358.4,207.3,358.1,207.3z M279.8,206.3h77.9v-63.5
		h-77.9v8.4c0,0.3-0.2,0.5-0.5,0.5h-16.2l16.4,10c0.2,0.1,0.3,0.3,0.3,0.4V206.3z"/>
	<polygon class="st0" points="287.3,49.6 287.3,92.6 270.7,100.5 287.3,100.5 287.3,113 362.7,113 362.7,49.6 	"/>
	<path class="st1" d="M362.7,113.5h-75.5c-0.3,0-0.5-0.2-0.5-0.5V101h-16c-0.3,0-0.5-0.2-0.5-0.5c0-0.2,0.1-0.4,0.3-0.5l16.2-7.8
		V49.6c0-0.3,0.2-0.5,0.5-0.5h75.4c0.3,0,0.5,0.2,0.5,0.5v63.4C363.2,113.3,363,113.5,362.7,113.5z M287.8,112.5h74.4V50.1h-74.4
		v42.5c0,0.2-0.1,0.4-0.3,0.5l-14.5,6.9h14.3c0.3,0,0.5,0.2,0.5,0.5L287.8,112.5z M287.2,92.6L287.2,92.6z"/>
	<path class="st0" d="M173.2,45.6h-56.7v26.6h41.2l9,11.4V72.2h6.4V45.6z"/>
	<path class="st1" d="M166.7,84.1c-0.2,0-0.3-0.1-0.4-0.2l-8.9-11.3h-41c-0.3,0-0.5-0.2-0.5-0.5V45.6c0-0.3,0.2-0.5,0.5-0.5h56.7
		c0.3,0,0.5,0.2,0.5,0.5v26.6c0,0.3-0.2,0.5-0.5,0.5h-5.9v10.9c0,0.2-0.1,0.4-0.3,0.5C166.9,84.1,166.8,84.1,166.7,84.1z M117,71.6
		h40.7c0.2,0,0.3,0.1,0.4,0.2l8.1,10.3v-10c0-0.3,0.2-0.5,0.5-0.5h5.9V46.1H117L117,71.6z"/>
	<polygon class="st0" points="131.5,106.9 116.6,106.9 116.6,95.9 43.3,95.9 43.3,143 116.6,143 116.6,113.9 	"/>
	<path class="st1" d="M116.6,143.5H43.3c-0.3,0-0.5-0.2-0.5-0.5V95.9c0-0.3,0.2-0.5,0.5-0.5h73.3c0.3,0,0.5,0.2,0.5,0.5v10.5h14.4
		c0.2,0,0.4,0.2,0.5,0.4c0.1,0.2-0.1,0.5-0.3,0.6l-14.6,6.9V143C117.1,143.3,116.9,143.5,116.6,143.5z M43.8,142.5h72.3v-28.6
		c0-0.2,0.1-0.4,0.3-0.5l12.8-6h-12.6c-0.3,0-0.5-0.2-0.5-0.5V96.4H43.8V142.5z"/>
	<path class="st3" d="M164.6,244.6v4.6h-4.8V235h6.1c0.7,0,1.4,0.1,2.1,0.2c0.7,0.1,1.3,0.4,1.9,0.8c0.6,0.4,1,0.9,1.3,1.5
		c0.4,0.7,0.5,1.5,0.5,2.3c0,0.8-0.1,1.6-0.5,2.3c-0.3,0.6-0.8,1.1-1.3,1.5c-0.6,0.4-1.2,0.7-1.9,0.8c-0.7,0.2-1.4,0.3-2.2,0.3
		L164.6,244.6z M164.6,238.7v2.3h1c0.4,0,0.7-0.1,1-0.3c0.3-0.2,0.5-0.6,0.5-0.9c0-0.2,0-0.4-0.1-0.5c-0.1-0.1-0.2-0.3-0.3-0.3
		c-0.1-0.1-0.3-0.1-0.5-0.2c-0.2,0-0.4,0-0.5-0.1H164.6z"/>
	<path class="st3" d="M173.6,234.9h6.1c0.7,0,1.4,0.1,2.1,0.2c0.7,0.1,1.3,0.4,1.9,0.8c0.5,0.4,1,0.8,1.3,1.4
		c0.4,0.7,0.5,1.5,0.5,2.3c0,0.8-0.2,1.6-0.6,2.3c-0.5,0.7-1.1,1.2-1.8,1.5l3.6,5.8h-5.5l-2.7-5.1h-0.1v5.1h-4.6L173.6,234.9z
		 M178.2,240.9h0.9c0.2,0,0.4,0,0.5,0c0.2,0,0.4-0.1,0.5-0.2c0.2-0.1,0.3-0.2,0.4-0.4c0.1-0.2,0.2-0.4,0.2-0.6c0-0.2,0-0.4-0.1-0.6
		c-0.1-0.1-0.2-0.3-0.4-0.3c-0.1-0.1-0.3-0.1-0.5-0.1h-0.5h-1.1V240.9z"/>
	<path class="st3" d="M187.3,242c0-1,0.2-2.1,0.6-3c0.4-0.9,1-1.7,1.7-2.3c0.7-0.7,1.6-1.2,2.5-1.5c1-0.4,2.1-0.5,3.1-0.5
		c1.1,0,2.1,0.2,3.1,0.5c0.9,0.3,1.8,0.8,2.5,1.5c0.7,0.7,1.3,1.5,1.7,2.3c0.4,1,0.6,2,0.6,3c0,1.1-0.2,2.1-0.6,3.1
		c-0.4,0.9-1,1.7-1.7,2.4c-0.7,0.7-1.6,1.2-2.5,1.5c-1,0.4-2.1,0.6-3.1,0.5c-1.1,0-2.1-0.2-3.1-0.5c-0.9-0.3-1.8-0.9-2.5-1.5
		c-0.7-0.7-1.3-1.5-1.7-2.4C187.5,244.1,187.3,243,187.3,242z M192.4,242c0,0.4,0.1,0.9,0.2,1.3c0.1,0.4,0.3,0.7,0.6,1
		c0.2,0.3,0.5,0.5,0.9,0.7c0.4,0.2,0.7,0.2,1.1,0.2c0.4,0,0.8-0.1,1.1-0.2c0.3-0.2,0.6-0.4,0.9-0.7c0.3-0.3,0.5-0.6,0.6-1
		c0.1-0.4,0.2-0.9,0.2-1.3c0-0.4-0.1-0.8-0.2-1.2c-0.1-0.4-0.3-0.7-0.6-1c-0.3-0.3-0.6-0.5-0.9-0.6c-0.4-0.2-0.7-0.2-1.1-0.2
		c-0.4,0-0.8,0.1-1.1,0.2c-0.3,0.1-0.6,0.3-0.9,0.6c-0.3,0.3-0.5,0.6-0.6,1C192.5,241.1,192.4,241.5,192.4,242L192.4,242z"/>
	<path class="st3" d="M209.9,240.4h4.4v3.9h-4.3v4.8h-4.7V235h9.6v4h-4.9V240.4z"/>
	<path class="st3" d="M216.9,234.9h4.8v14.2h-4.8V234.9z"/>
	<path class="st3" d="M224.4,234.9h4.8v10.1h4.7v4.1h-9.6V234.9z"/>
	<path class="st3" d="M235.4,234.9h9.8v4h-5.3v1.2h5v3.7h-5v1.3h5.6v4h-10.1V234.9z"/>
	<path class="st3" d="M317.4,194.6c-11.7,0-21.2-9.5-21.2-21.2c0-11.7,9.5-21.2,21.2-21.2c11.7,0,21.2,9.5,21.2,21.2
		C338.6,185,329.1,194.6,317.4,194.6C317.4,194.6,317.4,194.6,317.4,194.6z M317.4,153.2c-11.2,0-20.2,9.1-20.2,20.2
		c0,11.2,9.1,20.2,20.2,20.2s20.2-9.1,20.2-20.2c0,0,0-0.1,0-0.1C337.6,162.2,328.5,153.1,317.4,153.2L317.4,153.2z"/>
	<path class="st3" d="M323.4,193.7c-0.2,0-0.4-0.1-0.5-0.4l-6-19.8c0-0.1,0-0.3,0.1-0.4l12-16.9c0.2-0.2,0.5-0.3,0.7-0.1
		c0,0,0,0,0,0c0.2,0.2,0.3,0.5,0.1,0.7l-11.9,16.7l5.9,19.6c0.1,0.3-0.1,0.5-0.3,0.6L323.4,193.7z"/>
	<path class="st3" d="M317.4,173.8c-0.1,0-0.2,0-0.2-0.1l-18.3-9.7c-0.2-0.1-0.3-0.4-0.2-0.7c0.1-0.2,0.4-0.3,0.7-0.2c0,0,0,0,0,0
		l18.3,9.7c0.2,0.1,0.3,0.4,0.2,0.7c0,0,0,0,0,0C317.7,173.7,317.5,173.8,317.4,173.8z"/>
	<path class="st3" d="M67.9,136.4h-7.5c-0.3,0-0.5-0.2-0.5-0.5v-34.3c0-0.3,0.2-0.5,0.5-0.5h7.5c0.3,0,0.5,0.2,0.5,0.5v34.3
		C68.4,136.2,68.2,136.4,67.9,136.4z M60.9,135.4h6.5v-33.3h-6.5L60.9,135.4z"/>
	<path class="st3" d="M84.2,136.4h-7.5c-0.3,0-0.5-0.2-0.5-0.5v-23.8c0-0.3,0.2-0.5,0.5-0.5h7.5c0.3,0,0.5,0.2,0.5,0.5v23.8
		C84.8,136.2,84.5,136.4,84.2,136.4z M77.3,135.4h6.5v-22.7h-6.4L77.3,135.4z"/>
	<path class="st3" d="M100.6,136.4h-7.5c-0.3,0-0.5-0.2-0.5-0.5v-15.2c0-0.3,0.2-0.5,0.5-0.5h7.5c0.3,0,0.5,0.2,0.5,0.5v15.2
		C101.1,136.2,100.9,136.4,100.6,136.4z M93.7,135.4h6.5v-14.2h-6.5V135.4z"/>
	<path class="st3" d="M106.8,136.4H53.1c-0.3,0-0.5-0.2-0.5-0.5s0.2-0.5,0.5-0.5h53.7c0.3,0,0.5,0.2,0.5,0.5
		S107.1,136.4,106.8,136.4z"/>
	<path class="st3" d="M352.3,164.7h-8.4c-0.3,0-0.5-0.2-0.5-0.5c0-0.3,0.2-0.5,0.5-0.5h8.4c0.3,0,0.5,0.2,0.5,0.5
		C352.8,164.5,352.6,164.7,352.3,164.7z"/>
	<path class="st3" d="M352.3,169.2h-8.4c-0.3,0-0.5-0.2-0.5-0.5s0.2-0.5,0.5-0.5h8.4c0.3,0,0.5,0.2,0.5,0.5S352.6,169.2,352.3,169.2
		z"/>
	<path class="st3" d="M348,173.8h-4.1c-0.3,0-0.5-0.2-0.5-0.5s0.2-0.5,0.5-0.5h4.1c0.3,0,0.5,0.2,0.5,0.5S348.3,173.8,348,173.8z"/>
	<path class="st3" d="M296,186.9h-9.7c-0.3,0-0.5-0.2-0.5-0.5c0-0.3,0.2-0.5,0.5-0.5h9.7c0.3,0,0.5,0.2,0.5,0.5
		C296.5,186.6,296.2,186.9,296,186.9L296,186.9z"/>
	<path class="st3" d="M292.6,190.7h-6.3c-0.3,0-0.5-0.2-0.5-0.5c0-0.3,0.2-0.5,0.5-0.5h6.3c0.3,0,0.5,0.2,0.5,0.5
		C293,190.5,292.8,190.7,292.6,190.7L292.6,190.7z"/>
	<path class="st3" d="M299.8,91.9c-0.2,0-0.3-0.1-0.4-0.2c-0.2-0.2-0.1-0.5,0.1-0.7l16.9-13c0.2-0.2,0.5-0.1,0.7,0.1l9.7,11
		L350.7,68c0.2-0.2,0.5-0.2,0.7,0c0,0,0,0,0,0c0.2,0.2,0.2,0.5,0,0.7c0,0,0,0,0,0L327,90.2c-0.1,0.1-0.2,0.1-0.4,0.1
		c-0.1,0-0.3-0.1-0.3-0.2l-9.6-11.1l-16.5,12.7C300.1,91.8,300,91.9,299.8,91.9z"/>
	<path class="st3" d="M354.2,96.2h-57.6c-0.3,0-0.5-0.2-0.5-0.5V62.5c0-0.3,0.2-0.5,0.5-0.5c0.3,0,0.5,0.2,0.5,0.5v32.7h57.1
		c0.3,0,0.5,0.2,0.5,0.5S354.5,96.2,354.2,96.2z"/>
	<path class="st3" d="M322.9,63h-21c-0.3,0-0.5-0.2-0.5-0.5s0.2-0.5,0.5-0.5h21c0.3,0,0.5,0.2,0.5,0.5S323.2,63,322.9,63z"/>
	<path class="st3" d="M322.9,66.8h-21c-0.3,0-0.5-0.2-0.5-0.5s0.2-0.5,0.5-0.5h21c0.3,0,0.5,0.2,0.5,0.5S323.2,66.8,322.9,66.8z"/>
	<path class="st3" d="M311.7,70.7h-9.8c-0.3,0-0.5-0.2-0.5-0.5s0.2-0.5,0.5-0.5h9.8c0.3,0,0.5,0.2,0.5,0.5
		C312.2,70.5,312,70.7,311.7,70.7z"/>
	<path class="st3" d="M132.4,69.6c-0.3,0-0.5-0.2-0.5-0.5V49.2c0-0.3,0.2-0.5,0.5-0.5c0.3,0,0.5,0.2,0.5,0.5v19.9
		C132.9,69.4,132.6,69.6,132.4,69.6z"/>
	<path class="st3" d="M165.3,53.2h-43.2c-0.3,0-0.5-0.2-0.5-0.5s0.2-0.5,0.5-0.5h43.2c0.3,0,0.5,0.2,0.5,0.5S165.6,53.2,165.3,53.2z
		"/>
	<path class="st3" d="M165.3,59.6h-43.2c-0.3,0-0.5-0.2-0.5-0.5s0.2-0.5,0.5-0.5h43.2c0.3,0,0.5,0.2,0.5,0.5
		C165.8,59.4,165.6,59.6,165.3,59.6z"/>
	<path class="st3" d="M165.3,66h-43.2c-0.3,0-0.5-0.2-0.5-0.5s0.2-0.5,0.5-0.5h43.2c0.3,0,0.5,0.2,0.5,0.5
		C165.8,65.8,165.6,66,165.3,66z"/>
	<circle class="st2" cx="138.5" cy="185" r="3.5"/>
	<circle class="st2" cx="151" cy="185" r="3.5"/>
	<circle class="st2" cx="163.6" cy="185" r="3.5"/>
</g>
</svg>
