<svg class="animated" id="freepik_stories-503-error-service-unavailable" xmlns="http://www.w3.org/2000/svg" xmlns:xlink="http://www.w3.org/1999/xlink" viewBox="0 0 500 500" version="1.1" xmlns:svgjs="http://svgjs.com/svgjs"><style>svg#freepik_stories-503-error-service-unavailable:not(.animated) .animable {opacity: 0;}svg#freepik_stories-503-error-service-unavailable.animated #freepik--planet-3--inject-40 {animation: 1.5s Infinite  linear floating;animation-delay: 0s;}svg#freepik_stories-503-error-service-unavailable.animated #freepik--planet-2--inject-40 {animation: 1.5s Infinite  linear floating;animation-delay: 0s;}svg#freepik_stories-503-error-service-unavailable.animated #freepik--planet-1--inject-40 {animation: 1.5s Infinite  linear floating;animation-delay: 0s;}svg#freepik_stories-503-error-service-unavailable.animated #freepik--Text--inject-40 {animation: 6s Infinite  linear heartbeat;animation-delay: 0s;}svg#freepik_stories-503-error-service-unavailable.animated #freepik--Character--inject-40 {animation: 6s Infinite  linear wind;animation-delay: 0s;}            @keyframes floating {                0% {                    opacity: 1;                    transform: translateY(0px);                }                50% {                    transform: translateY(-10px);                }                100% {                    opacity: 1;                    transform: translateY(0px);                }            }                    @keyframes heartbeat {                0% {                    transform: scale(1);                }                10% {                    transform: scale(1.1);                }                30% {                    transform: scale(1);                }                40% {                    transform: scale(1);                }                50% {                    transform: scale(1.1);                }                60% {                    transform: scale(1);                }                100% {                    transform: scale(1);                }            }                    @keyframes wind {                0% {                    transform: rotate( 0deg );                }                25% {                    transform: rotate( 1deg );                }                75% {                    transform: rotate( -1deg );                }            }        </style><g id="freepik--planet-3--inject-40" class="animable" style="transform-origin: 403.654px 250.084px;"><path d="M396.65,263.73a15.34,15.34,0,1,1,20.65-6.64A15.33,15.33,0,0,1,396.65,263.73Z" style="fill: rgb(38, 50, 56); transform-origin: 403.654px 250.084px;" id="el23u4cg4n3h9" class="animable"></path><path d="M411.38,241.85l7.44,10.44a15.17,15.17,0,0,0-.34-6.08Z" style="fill: rgb(11, 101, 103); transform-origin: 415.181px 247.07px;" id="elaho4p9fz3" class="animable"></path><path d="M395.78,236.94l17.68,24.94a15.17,15.17,0,0,0,3.61-4.38l-14.83-22.68A15.32,15.32,0,0,0,395.78,236.94Z" style="fill: rgb(11, 101, 103); transform-origin: 406.425px 248.35px;" id="el3kz476z8yml" class="animable"></path><path d="M403.09,265.4l-7.68-11,4,10.42A15.58,15.58,0,0,0,403.09,265.4Z" style="fill: rgb(11, 101, 103); transform-origin: 399.25px 259.9px;" id="el7mtlsmfvybg" class="animable"></path><path d="M409.33,264.32l-17.56-23.93c-.17.21-.33.44-.49.66L404,265.42A15.47,15.47,0,0,0,409.33,264.32Z" style="fill: rgb(11, 101, 103); transform-origin: 400.305px 252.905px;" id="elir7opmj3zee" class="animable"></path></g><g id="freepik--planet-2--inject-40" class="animable" style="transform-origin: 252.445px 409.804px;"><path d="M261.76,432.31A24.74,24.74,0,1,1,274,399.52,24.73,24.73,0,0,1,261.76,432.31Z" style="fill: rgb(38, 50, 56); transform-origin: 251.498px 409.799px;" id="el5tybm5kyjjb" class="animable"></path><g style="clip-path: url(&quot;#freepik--clip-path--inject-40&quot;); transform-origin: 251.458px 409.804px;" id="elz37zcqq2v4r" class="animable"><path d="M273.78,420.5,256.9,394l19.17,18.42c.05-.51.09-1,.11-1.54l-22.71-25.74a24.2,24.2,0,0,0-5.82.22l4.56,7.25-7.54-6.6h0l6,10.86-12.13-8.14c-.3.19-.6.38-.89.58l22.51,25-17.86-13.59,6.35,10-9.25-6.4,24.22,27.06a24.58,24.58,0,0,0,7.57-6.57l-4.93-8.23,6.12,6.52A23.74,23.74,0,0,0,273.78,420.5Z" style="fill: rgb(11, 101, 103); transform-origin: 256.915px 408.219px;" id="eljqd1mniitme" class="animable"></path><path d="M258.77,433.45l-19.35-22.32,8.6,13.28-21.2-16.62a24.73,24.73,0,0,0,21.42,26.55l-7.64-6.79,11.86,7A25.24,25.24,0,0,0,258.77,433.45Z" style="fill: rgb(11, 101, 103); transform-origin: 242.753px 421.17px;" id="el2uazf2pblh9" class="animable"></path><path d="M260.69,386.87l10.85,12.6-2.2-4.81,3.51,2.7A24.63,24.63,0,0,0,260.69,386.87Z" style="fill: rgb(11, 101, 103); transform-origin: 266.77px 393.17px;" id="el37bdgzrcu9" class="animable"></path><path d="M235.46,406.36l-5.86-8.1a25.21,25.21,0,0,0-2.5,7.31Z" style="fill: rgb(11, 101, 103); transform-origin: 231.28px 402.31px;" id="el4q6ysyh1tej" class="animable"></path></g><path d="M288.23,393.36c-1.8-3.94-9.78-4.49-20.38-2.08a22.7,22.7,0,0,1,1.91,1.89c7.92-1.82,13.57-1.66,14.74.88,2.06,4.51-10.79,14.81-28.71,23s-34.1,11.19-36.17,6.68c-1.06-2.32,1.85-6.18,7.36-10.5a23.69,23.69,0,0,1-.23-2.65c-7.69,6-11.78,11.84-10.09,15.52,2.85,6.24,21.19,4,41-5.07S291.08,399.6,288.23,393.36Z" style="fill: rgb(38, 50, 56); transform-origin: 252.445px 409.733px;" id="el84mzyx1fs5v" class="animable"></path></g><g id="freepik--planet-1--inject-40" class="animable" style="transform-origin: 133.94px 174.23px;"><circle cx="133.94" cy="174.23" r="24.43" style="fill: rgb(11, 101, 103); transform-origin: 133.94px 174.23px;" id="elp6ernqn1fx" class="animable"></circle><path d="M139.7,156.16a18.88,18.88,0,0,1,5.59-3.55,23.93,23.93,0,0,0-6.3-2.27,56.64,56.64,0,0,0-6.44,5c-8.74,7.94-6.36,7.15-19.06,11.91a19.87,19.87,0,0,0-3.37,1.62,24.06,24.06,0,0,0-.61,5.33,24.38,24.38,0,0,0,1.73,9c4.54-1.38,10.58-3.62,13.37-6.41C129.37,172.05,130.17,164.9,139.7,156.16Z" style="fill: rgb(38, 50, 56); transform-origin: 127.4px 166.77px;" id="elvmyk4sk99kb" class="animable"></path><path d="M116.19,191a24.61,24.61,0,0,0,6.39,4.87c4.55-3.18,6.67-6.56,13.15-9.5,5.69-2.59,15.08-3.16,20.94-3.23a24.32,24.32,0,0,0,1.69-8.89c0-.42,0-.83-.06-1.25a70.36,70.36,0,0,0-20.19,4.63C128.87,181.3,124.39,187.85,116.19,191Z" style="fill: rgb(38, 50, 56); transform-origin: 137.275px 184.435px;" id="els376m4zm8a" class="animable"></path><path d="M140.49,165.69c4.32,2.16,11,1,16.15-.44a24.52,24.52,0,0,0-4.11-6.83C145.65,159.71,134.51,162.7,140.49,165.69Z" style="fill: rgb(38, 50, 56); transform-origin: 147.713px 162.651px;" id="ely14dd1u491" class="animable"></path></g><g id="freepik--Text--inject-40" class="animable" style="transform-origin: 249px 299.667px;"><path d="M145.93,368.3l.51-.84a7.3,7.3,0,0,0,5.07,1.94c3.08,0,4.44-1.34,4.44-3,0-4.61-9.6-1.85-9.6-7.51,0-2.18,1.67-4.09,5.45-4.09a8.2,8.2,0,0,1,4.63,1.39l-.42.9a7.57,7.57,0,0,0-4.21-1.3c-3,0-4.33,1.38-4.33,3.08,0,4.61,9.6,1.88,9.6,7.46,0,2.18-1.74,4.07-5.54,4.07A7.89,7.89,0,0,1,145.93,368.3Z" style="fill: rgb(38, 50, 56); transform-origin: 151.5px 362.602px;" id="ellmrjha948sn" class="animable"></path><path d="M170.2,364.81h-9.86a4.9,4.9,0,0,0,8.52,3l.64.73a5.48,5.48,0,0,1-4.33,1.86,5.62,5.62,0,0,1-5.9-5.82,5.49,5.49,0,1,1,11,0C170.23,364.59,170.2,364.7,170.2,364.81Zm-9.84-.86h8.79a4.4,4.4,0,0,0-8.79,0Z" style="fill: rgb(38, 50, 56); transform-origin: 164.768px 364.744px;" id="eljquwgkfbm4" class="animable"></path><path d="M179.06,358.72v1.08l-.27,0c-2.55,0-4.06,1.69-4.06,4.52v6h-1.1V358.81h1.05v2.51A4.37,4.37,0,0,1,179.06,358.72Z" style="fill: rgb(38, 50, 56); transform-origin: 176.345px 364.512px;" id="elf91mum4urf6" class="animable"></path><path d="M191.82,358.81l-5.19,11.47h-1.12l-5.16-11.47h1.17l4.56,10.26,4.62-10.26Z" style="fill: rgb(38, 50, 56); transform-origin: 186.085px 364.545px;" id="elht8qg2q3s9" class="animable"></path><path d="M193.86,355.14a.9.9,0,0,1,.9-.9.89.89,0,1,1-.9.9Zm.35,3.67h1.1v11.47h-1.1Z" style="fill: rgb(38, 50, 56); transform-origin: 194.75px 362.26px;" id="elgfkqsxbesq5" class="animable"></path><path d="M198.69,364.54a5.59,5.59,0,0,1,5.8-5.82,5.06,5.06,0,0,1,4.35,2.11l-.81.6a4.19,4.19,0,0,0-3.54-1.72,4.84,4.84,0,0,0,0,9.67,4.19,4.19,0,0,0,3.54-1.72l.81.6a5.1,5.1,0,0,1-4.35,2.1A5.6,5.6,0,0,1,198.69,364.54Z" style="fill: rgb(38, 50, 56); transform-origin: 203.763px 364.54px;" id="elmcxlb5arjde" class="animable"></path><path d="M221.62,364.81h-9.86a4.9,4.9,0,0,0,8.52,3l.64.73a5.48,5.48,0,0,1-4.33,1.86,5.63,5.63,0,0,1-5.91-5.82,5.49,5.49,0,0,1,5.5-5.82,5.43,5.43,0,0,1,5.46,5.78C221.64,364.59,221.62,364.7,221.62,364.81Zm-9.84-.86h8.79a4.4,4.4,0,0,0-8.79,0Z" style="fill: rgb(38, 50, 56); transform-origin: 216.161px 364.583px;" id="el7iblwuinude" class="animable"></path><path d="M230.91,363.75V354.9H232v8.81c0,3.84,1.85,5.64,5.05,5.64s5-1.8,5-5.64V354.9h1.12v8.85c0,4.4-2.35,6.64-6.17,6.64S230.91,368.15,230.91,363.75Z" style="fill: rgb(38, 50, 56); transform-origin: 237.04px 362.645px;" id="eljcch3gkluf" class="animable"></path><path d="M258.37,363.58v6.7h-1.1v-6.62c0-2.59-1.38-4-3.71-4a4.09,4.09,0,0,0-4.35,4.46v6.11h-1.1V358.81h1.06v2.48a4.72,4.72,0,0,1,4.54-2.57C256.5,358.72,258.37,360.37,258.37,363.58Z" style="fill: rgb(38, 50, 56); transform-origin: 253.24px 364.494px;" id="elcqa72d2d6zw" class="animable"></path><path d="M271.17,363v7.27h-1.05v-2a4.4,4.4,0,0,1-4.13,2.13c-2.57,0-4.13-1.31-4.13-3.27,0-1.73,1.1-3.21,4.28-3.21h3.94V363c0-2.13-1.17-3.27-3.41-3.27a5.92,5.92,0,0,0-3.95,1.45l-.55-.79a7,7,0,0,1,4.59-1.63C269.59,358.72,271.17,360.17,271.17,363Zm-1.09,3.88v-2.15h-3.91c-2.38,0-3.21,1-3.21,2.31,0,1.49,1.16,2.41,3.18,2.41A3.93,3.93,0,0,0,270.08,366.89Z" style="fill: rgb(38, 50, 56); transform-origin: 266.515px 364.587px;" id="elqld43bwwikp" class="animable"></path><path d="M284.68,358.81l-5.18,11.47h-1.12l-5.16-11.47h1.16L279,369.07l4.61-10.26Z" style="fill: rgb(38, 50, 56); transform-origin: 278.95px 364.545px;" id="eljcp4gvvk7p" class="animable"></path><path d="M295,363v7.27H294v-2a4.39,4.39,0,0,1-4.13,2.13c-2.57,0-4.13-1.31-4.13-3.27,0-1.73,1.1-3.21,4.28-3.21h3.94V363c0-2.13-1.17-3.27-3.41-3.27a5.92,5.92,0,0,0-3.95,1.45l-.55-.79a7,7,0,0,1,4.59-1.63C293.42,358.72,295,360.17,295,363Zm-1.09,3.88v-2.15H290c-2.37,0-3.21,1-3.21,2.31,0,1.49,1.16,2.41,3.18,2.41A3.93,3.93,0,0,0,293.91,366.89Z" style="fill: rgb(38, 50, 56); transform-origin: 290.37px 364.587px;" id="elmzj1jhiv9o" class="animable"></path><path d="M299.18,355.14a.9.9,0,0,1,.9-.9.89.89,0,1,1,0,1.78A.88.88,0,0,1,299.18,355.14Zm.35,3.67h1.1v11.47h-1.1Z" style="fill: rgb(38, 50, 56); transform-origin: 300.075px 362.26px;" id="elc7nmcrxgxt" class="animable"></path><path d="M305.26,354h1.1v16.3h-1.1Z" style="fill: rgb(38, 50, 56); transform-origin: 305.81px 362.15px;" id="elm0ah72nj98" class="animable"></path><path d="M319.27,363v7.27h-1v-2a4.39,4.39,0,0,1-4.13,2.13c-2.57,0-4.13-1.31-4.13-3.27,0-1.73,1.1-3.21,4.29-3.21h3.93V363c0-2.13-1.17-3.27-3.41-3.27a5.92,5.92,0,0,0-3.95,1.45l-.55-.79a7,7,0,0,1,4.59-1.63C317.69,358.72,319.27,360.17,319.27,363Zm-1.09,3.88v-2.15h-3.91c-2.37,0-3.21,1-3.21,2.31,0,1.49,1.16,2.41,3.19,2.41A3.93,3.93,0,0,0,318.18,366.89Z" style="fill: rgb(38, 50, 56); transform-origin: 314.64px 364.587px;" id="elcnot08al66r" class="animable"></path><path d="M335.22,364.54a5.56,5.56,0,0,1-5.67,5.82,5.12,5.12,0,0,1-4.7-2.79v2.71H323.8V354h1.1v7.45a5.12,5.12,0,0,1,4.65-2.71A5.55,5.55,0,0,1,335.22,364.54Zm-1.1,0a4.63,4.63,0,1,0-4.63,4.84A4.57,4.57,0,0,0,334.12,364.54Z" style="fill: rgb(38, 50, 56); transform-origin: 329.513px 362.181px;" id="el3pbb8p9vjjf" class="animable"></path><path d="M338.63,354h1.09v16.3h-1.09Z" style="fill: rgb(38, 50, 56); transform-origin: 339.175px 362.15px;" id="elq5f4w990iw" class="animable"></path><path d="M354,364.81h-9.86a4.9,4.9,0,0,0,8.52,3l.64.73a5.48,5.48,0,0,1-4.33,1.86,5.62,5.62,0,0,1-5.9-5.82,5.49,5.49,0,1,1,11,0C354.07,364.59,354,364.7,354,364.81ZM344.2,364H353a4.4,4.4,0,0,0-8.79,0Z" style="fill: rgb(38, 50, 56); transform-origin: 348.568px 364.744px;" id="elos5wpt6jxnf" class="animable"></path><path d="M200.39,297.85c0,17.37-12.75,32.5-40.77,32.5-13.59,0-27.88-3.78-37.41-10.51l9-17.37c7.42,5.6,17.65,8.82,27.88,8.82,11.34,0,18.35-4.76,18.35-12.74,0-7.71-5-12.75-22.84-12.75H129.5l5-55.2h59.82v18.21H153.45l-1.54,18.63h8C188.9,267.44,200.39,280.47,200.39,297.85Zm9.24-18.22c0-32.36,17.93-50.71,42-50.71s42,18.35,42,50.71-17.79,50.72-42,50.72S209.63,312,209.63,279.63Zm61.22,0c0-22.27-7.84-31.52-19.19-31.52s-19,9.25-19,31.52,7.84,31.52,19,31.52S270.85,301.91,270.85,279.63Zm104.94,19.06c0,16.53-12.75,31.66-40.63,31.66-13.73,0-27.88-3.78-37.41-10.51l8.83-17.37c7.43,5.6,17.79,8.82,28,8.82,11.35,0,18.35-4.62,18.35-12.6,0-7.43-5.46-12.05-18.35-12.05H324.23v-15l20.18-22.84H302.66V230.6h68.65v14.71l-22.14,25.21C366.82,273.33,375.79,284.25,375.79,298.69Z" style="fill: rgb(38, 50, 56); transform-origin: 249px 279.635px;" id="elymd28s5vjya" class="animable"></path></g><g id="freepik--Character--inject-40" class="animable animator-active" style="transform-origin: 269.149px 199.385px;"><path d="M325.24,82.79h0A3.48,3.48,0,0,1,326.33,78L332,74.41a3.48,3.48,0,0,1,4.81,1.09h0a3.48,3.48,0,0,1-1.09,4.81l-5.66,3.57A3.49,3.49,0,0,1,325.24,82.79Z" style="fill: rgb(255, 255, 255); stroke: rgb(38, 50, 56); stroke-linecap: round; stroke-linejoin: round; stroke-width: 1.19148px; transform-origin: 331.029px 79.1454px;" id="elnnexx90qvnj" class="animable"></path><path d="M322.16,107.29a39.79,39.79,0,0,0-9.85-9.82,145.36,145.36,0,0,0-15.56-8.06l-3.23-18a61.53,61.53,0,0,0,8.28-9.8c2.92-4.71,2-7.87.13-11.13s-4.46-1.15-4.85.34a33.33,33.33,0,0,0-.52,4.75s-1.74-12-2.75-14.73-4.86-.1-4.52.81c0,0-1.16-3.41-3.55-3.45s-3.07,4-3.07,4-3.07-1.42-4.79.36-.9,6.24-.9,6.24-2.74,1-3.16,4.89-.08,10.7,1,12.57a20.08,20.08,0,0,1,1.45,2.78c-1.36,16.24-1.31,15.17-1.71,21.65-.28,4.56,2.71,15.16,7,19.57s19.64,12.2,19.64,12.2S317.23,118.33,322.16,107.29Z" style="fill: rgb(255, 255, 255); transform-origin: 297.903px 80.3299px;" id="elmldz5gk79hs" class="animable"></path><g style="clip-path: url(&quot;#freepik--clip-path-2--inject-40&quot;); transform-origin: 298.381px 95.79px;" id="elvnspnngzti" class="animable"><path d="M301.26,122.48s16-4.15,20.9-15.19c0,0-.32-.47-.89-1.22l-4.16-3.47a139.3,139.3,0,0,0-17.57,2.61c-8.78,2-15.61-2.28-18.21-12s-5-24.11-5-24.11h0c-1.36,16.24-1.31,15.17-1.71,21.65-.28,4.56,2.71,15.16,7,19.57S301.26,122.48,301.26,122.48Z" style="fill: rgb(11, 101, 103); transform-origin: 298.381px 95.79px;" id="el1ox1i7mlaggi" class="animable"></path><g id="elli5ui9cq5z8"><path d="M301.26,122.48s16-4.15,20.9-15.19c0,0-.32-.47-.89-1.22l-4.16-3.47a139.3,139.3,0,0,0-17.57,2.61c-8.78,2-15.61-2.28-18.21-12s-5-24.11-5-24.11h0c-1.36,16.24-1.31,15.17-1.71,21.65-.28,4.56,2.71,15.16,7,19.57S301.26,122.48,301.26,122.48Z" style="fill: rgb(255, 255, 255); opacity: 0.5; transform-origin: 298.381px 95.79px;" class="animable"></path></g></g><path d="M322.16,107.29a39.79,39.79,0,0,0-9.85-9.82,145.36,145.36,0,0,0-15.56-8.06l-3.23-18a61.53,61.53,0,0,0,8.28-9.8c2.92-4.71,2-7.87.13-11.13s-4.46-1.15-4.85.34a33.33,33.33,0,0,0-.52,4.75s-1.74-12-2.75-14.73-4.86-.1-4.52.81c0,0-1.16-3.41-3.55-3.45s-3.07,4-3.07,4-3.07-1.42-4.79.36-.9,6.24-.9,6.24-2.74,1-3.16,4.89-.08,10.7,1,12.57a20.08,20.08,0,0,1,1.45,2.78c-1.36,16.24-1.31,15.17-1.71,21.65-.28,4.56,2.71,15.16,7,19.57s19.64,12.2,19.64,12.2S317.23,118.33,322.16,107.29Z" style="fill: none; stroke: rgb(38, 50, 56); stroke-linecap: round; stroke-linejoin: round; stroke-width: 1.19148px; transform-origin: 297.903px 80.3299px;" id="elmgq9r2qggda" class="animable"></path><path d="M295.5,82.42l-2-11a61.53,61.53,0,0,0,8.28-9.8c2.92-4.71,2-7.87.13-11.13s-4.46-1.15-4.85.34a33.33,33.33,0,0,0-.52,4.75s-1.74-12-2.75-14.73-4.86-.1-4.52.81c0,0-1.16-3.41-3.55-3.45s-3.07,4-3.07,4-3.07-1.42-4.79.36-.9,6.24-.9,6.24-2.74,1-3.16,4.89-.08,10.7,1,12.57a20.08,20.08,0,0,1,1.45,2.78c-.6,7.18-.93,11-1.14,13.54Z" style="fill: rgb(255, 255, 255); stroke: rgb(38, 50, 56); stroke-linecap: round; stroke-linejoin: round; stroke-width: 1.19148px; transform-origin: 288.639px 60.3999px;" id="elehcc4yiigs" class="animable"></path><path d="M279.54,107.54a18.33,18.33,0,0,0,1.21,1.74c4.22-3.53,13.72-12,18-19.27-1.2-.38-2-.6-2-.6S287.91,101,279.54,107.54Z" style="fill: rgb(255, 255, 255); stroke: rgb(38, 50, 56); stroke-linecap: round; stroke-linejoin: round; stroke-width: 1.19148px; transform-origin: 289.145px 99.345px;" id="eli355hmiflkq" class="animable"></path><path d="M296.56,55.55s-9.45-.35-10.45,7.62" style="fill: none; stroke: rgb(38, 50, 56); stroke-linecap: round; stroke-linejoin: round; stroke-width: 1.19148px; transform-origin: 291.335px 59.3589px;" id="eloerfyymuiz" class="animable"></path><line x1="289.29" y1="41.63" x2="289.61" y2="51.68" style="fill: none; stroke: rgb(38, 50, 56); stroke-linecap: round; stroke-linejoin: round; stroke-width: 1.19148px; transform-origin: 289.45px 46.655px;" id="el6qn62xc375r" class="animable"></line><line x1="282.67" y1="42.22" x2="283.32" y2="51.31" style="fill: none; stroke: rgb(38, 50, 56); stroke-linecap: round; stroke-linejoin: round; stroke-width: 1.19148px; transform-origin: 282.995px 46.765px;" id="elzr758c6mlbs" class="animable"></line><line x1="276.98" y1="48.82" x2="278" y2="54.49" style="fill: none; stroke: rgb(38, 50, 56); stroke-linecap: round; stroke-linejoin: round; stroke-width: 1.19148px; transform-origin: 277.49px 51.655px;" id="elfogafb6yq7" class="animable"></line><path d="M291.51,51.21S280.84,53,276.73,56.49" style="fill: none; stroke: rgb(38, 50, 56); stroke-linecap: round; stroke-linejoin: round; stroke-width: 1.19148px; transform-origin: 284.12px 53.85px;" id="elrs2xba3ausg" class="animable"></path><path d="M289,114.24c3.48-3,3.21-9-.62-13.49-3.69-4.32-9.34-5.59-12.86-3,1.19,4.6,3.37,9.76,6.07,12.51A39.12,39.12,0,0,0,288,115,6,6,0,0,0,289,114.24Z" style="fill: rgb(11, 101, 103); transform-origin: 283.481px 105.707px;" id="el6cbf1kung8q" class="animable"></path><path d="M289,114.24c3.48-3,3.21-9-.62-13.49-3.69-4.32-9.34-5.59-12.86-3,1.19,4.6,3.37,9.76,6.07,12.51A39.12,39.12,0,0,0,288,115,6,6,0,0,0,289,114.24Z" style="fill: none; stroke: rgb(38, 50, 56); stroke-linecap: round; stroke-linejoin: round; stroke-width: 1.19148px; transform-origin: 283.481px 105.707px;" id="elpv7jg6yzikk" class="animable"></path><path d="M282.21,125.93s-4.47.47-5.88,1.68S264.19,138,262.45,143.44s4.87,21.72,12.09,28,16.24,12.93,23.9,11.56,16.46-13.17,17.37-16.38-29.06-40-29.06-40S284.62,124.48,282.21,125.93Z" style="fill: rgb(255, 255, 255); transform-origin: 288.999px 154.304px;" id="elgbzrh1bln1f" class="animable"></path><g style="clip-path: url(&quot;#freepik--clip-path-3--inject-40&quot;); transform-origin: 288.929px 154.304px;" id="el9ducjaf0vwn" class="animable"><path d="M282.21,125.93s-.88.09-2,.3l1,1.69s-.92,9.48,5.58,20.22,17.89,17.56,17.56,21.46,1,9.11-8.78,8.46-20.16-17.24-23.74-25.37c-1.86-4.23-3.46-10.65-5.29-15.62a20.91,20.91,0,0,0-4.16,6.37c-1.74,5.44,4.87,21.72,12.09,28s16.24,12.93,23.9,11.56,16.46-13.17,17.37-16.38-29.06-40-29.06-40S284.62,124.48,282.21,125.93Z" style="fill: rgb(11, 101, 103); transform-origin: 288.929px 154.304px;" id="ely4arzreztne" class="animable"></path><g id="elk7pow3irgc"><path d="M282.21,125.93s-.88.09-2,.3l1,1.69s-.92,9.48,5.58,20.22,17.89,17.56,17.56,21.46,1,9.11-8.78,8.46-20.16-17.24-23.74-25.37c-1.86-4.23-3.46-10.65-5.29-15.62a20.91,20.91,0,0,0-4.16,6.37c-1.74,5.44,4.87,21.72,12.09,28s16.24,12.93,23.9,11.56,16.46-13.17,17.37-16.38-29.06-40-29.06-40S284.62,124.48,282.21,125.93Z" style="fill: rgb(255, 255, 255); opacity: 0.5; transform-origin: 288.929px 154.304px;" class="animable"></path></g></g><path d="M282.21,125.93s-4.47.47-5.88,1.68S264.19,138,262.45,143.44s4.87,21.72,12.09,28,16.24,12.93,23.9,11.56,16.46-13.17,17.37-16.38-29.06-40-29.06-40S284.62,124.48,282.21,125.93Z" style="fill: none; stroke: rgb(38, 50, 56); stroke-linecap: round; stroke-linejoin: round; stroke-width: 1.19148px; transform-origin: 288.999px 154.304px;" id="elxafbynkxgsq" class="animable"></path><path d="M320.39,104.12s-4.74-1.6-11.8,1.4-24.72,13.37-27.31,22.4c-1.71,5.93,17,33.62,28.69,38.18,3.14,1.22,6,2.55,12.43-2.69s19.91-19.79,23.44-26.2-2-11.19-3.85-14S325.35,102,320.39,104.12Z" style="fill: rgb(255, 255, 255); transform-origin: 314.082px 135.45px;" id="elkbapcjd7ln" class="animable"></path><g style="clip-path: url(&quot;#freepik--clip-path-4--inject-40&quot;); transform-origin: 319.123px 135.468px;" id="elogpkblwkmz" class="animable"><path d="M345.88,137.12,333.69,141s-12.68,15-17.23,18.87-18.87-5.53-23.75-10.09l-1.44-1.34c5.83,7.92,13.08,15.48,18.7,17.68,3.14,1.22,6,2.55,12.43-2.69s19.91-19.79,23.44-26.2A.36.36,0,0,0,345.88,137.12Z" style="fill: rgb(11, 101, 103); transform-origin: 318.575px 152.173px;" id="elrmxcpg1e6a" class="animable"></path><path d="M339.55,135.78l6.56.85c2.91-6.12-2.29-10.7-4.12-13.44s-16.64-21.19-21.6-19.07a11.06,11.06,0,0,0-2.79-.41c-6,4.52-5.32,9.71.16,19.06S339.55,135.78,339.55,135.78Z" style="fill: rgb(11, 101, 103); transform-origin: 330.173px 120.17px;" id="el0bum7eti34kw" class="animable"></path><g id="elujux4b1ka8c"><g style="opacity: 0.5; transform-origin: 319.123px 135.468px;" class="animable"><path d="M345.88,137.12,333.69,141s-12.68,15-17.23,18.87-18.87-5.53-23.75-10.09l-1.44-1.34c5.83,7.92,13.08,15.48,18.7,17.68,3.14,1.22,6,2.55,12.43-2.69s19.91-19.79,23.44-26.2A.36.36,0,0,0,345.88,137.12Z" style="fill: rgb(255, 255, 255); transform-origin: 318.575px 152.173px;" id="el4nvldxizea9" class="animable"></path><path d="M339.55,135.78l6.56.85c2.91-6.12-2.29-10.7-4.12-13.44s-16.64-21.19-21.6-19.07a11.06,11.06,0,0,0-2.79-.41c-6,4.52-5.32,9.71.16,19.06S339.55,135.78,339.55,135.78Z" style="fill: rgb(255, 255, 255); transform-origin: 330.173px 120.17px;" id="elzfil9eqioqq" class="animable"></path></g></g></g><path d="M320.39,104.12s-4.74-1.6-11.8,1.4-24.72,13.37-27.31,22.4c-1.71,5.93,17,33.62,28.69,38.18,3.14,1.22,6,2.55,12.43-2.69s19.91-19.79,23.44-26.2-2-11.19-3.85-14S325.35,102,320.39,104.12Z" style="fill: none; stroke: rgb(38, 50, 56); stroke-linecap: round; stroke-linejoin: round; stroke-width: 1.19148px; transform-origin: 314.082px 135.45px;" id="el9eclhstjgub" class="animable"></path><g id="elxm7h9g1ek9m"><rect x="292.3" y="117.55" width="32.36" height="27.62" rx="5.89" style="fill: rgb(255, 255, 255); stroke: rgb(38, 50, 56); stroke-linecap: round; stroke-linejoin: round; stroke-width: 1.19148px; transform-origin: 308.48px 131.36px; transform: rotate(53.91deg);" class="animable"></rect></g><path d="M479.52,230.22c-14.95-39-52.35-38.57-85.34-38.16-11.37.14-22.11.28-32-1-33.37-4.22-42.91-38.52-43-39a2.38,2.38,0,0,0-4.61,1.22c.1.38,10.39,37.84,47,42.48,10.23,1.3,21.64,1.15,32.68,1,33-.41,67.06-.84,80.83,35.09a49.43,49.43,0,0,1-8.95,49.48c-10.24,11.79-24.77,16.57-39.85,13.11-14.23-3.27-28.29-7.77-41.89-12.12-22.51-7.2-45.78-14.65-70.48-16.72-42.35-3.56-71.81,17.07-105.89,40.94-6.86,4.81-13.95,9.77-21.38,14.71l-4.23,2.82c-21.09,14.08-42.89,28.64-67.56,31.27-19.18,2-38.68-6.94-48.55-22.35A37.74,37.74,0,0,1,61,304.31,31.75,31.75,0,0,1,76.05,284c12.77-7.61,35.33-10.14,54.57-8l.33-4.75c-20.19-2.15-43.75.61-57.34,8.7a36.91,36.91,0,0,0-17.25,23.35,42.49,42.49,0,0,0,5.92,32.42c9.9,15.47,27.81,24.82,46.82,24.85a59.76,59.76,0,0,0,6.25-.33c25.83-2.75,49.14-18.31,69.69-32l4.22-2.82c7.49-5,14.6-10,21.48-14.77,33.33-23.35,62.11-43.52,102.76-40.1,24.16,2,47.17,9.39,69.42,16.51,13.7,4.38,27.86,8.91,42.28,12.22,16.86,3.87,33.08-1.46,44.52-14.62A54.23,54.23,0,0,0,479.52,230.22Z" style="fill: rgb(255, 255, 255); stroke: rgb(38, 50, 56); stroke-linecap: round; stroke-linejoin: round; stroke-width: 1.19148px; transform-origin: 269.149px 255.428px;" id="elkj6v5943sxh" class="animable"></path><path d="M313.4,121.06a3.25,3.25,0,1,1-3.25-3.25A3.25,3.25,0,0,1,313.4,121.06Z" style="fill: rgb(11, 101, 103); stroke: rgb(38, 50, 56); stroke-linecap: round; stroke-linejoin: round; stroke-width: 1.19148px; transform-origin: 310.15px 121.06px;" id="elgfah44bk6eh" class="animable"></path><path d="M304.58,128.48a3.25,3.25,0,1,1-3.24-3.24A3.24,3.24,0,0,1,304.58,128.48Z" style="fill: rgb(11, 101, 103); stroke: rgb(38, 50, 56); stroke-linecap: round; stroke-linejoin: round; stroke-width: 1.19148px; transform-origin: 301.33px 128.49px;" id="elkdtmjipju9h" class="animable"></path><g id="elvmekuc4897c"><circle cx="341.93" cy="103.81" r="26.5" style="fill: rgb(255, 255, 255); transform-origin: 341.93px 103.81px; transform: rotate(-16.2deg);" class="animable"></circle></g><g style="clip-path: url(&quot;#freepik--clip-path-5--inject-40&quot;); transform-origin: 342.444px 106.949px;" id="elxk02w8461rs" class="animable"><path d="M362.07,86.59a27,27,0,0,0-3-3A26.47,26.47,0,0,1,316.45,111a26.49,26.49,0,1,0,45.62-24.41Z" style="fill: rgb(11, 101, 103); transform-origin: 342.444px 106.949px;" id="elcmpaipzw1ws" class="animable"></path><g id="elrhotqxnvui"><path d="M362.07,86.59a27,27,0,0,0-3-3A26.47,26.47,0,0,1,316.45,111a26.49,26.49,0,1,0,45.62-24.41Z" style="fill: rgb(255, 255, 255); opacity: 0.5; transform-origin: 342.444px 106.949px;" class="animable"></path></g></g><g id="elakivsc7eoqf"><circle cx="341.93" cy="103.81" r="26.5" style="fill: none; stroke: rgb(38, 50, 56); stroke-linecap: round; stroke-linejoin: round; stroke-width: 1.19148px; transform-origin: 341.93px 103.81px; transform: rotate(-16.2deg);" class="animable"></circle></g><line x1="365.46" y1="122.13" x2="373.18" y2="115.53" style="fill: none; stroke: rgb(38, 50, 56); stroke-linecap: round; stroke-linejoin: round; stroke-width: 1.19148px; transform-origin: 369.32px 118.83px;" id="elblphy3d0d1j" class="animable"></line><path d="M375.23,116.36a2,2,0,0,0-2.65-3.1,2,2,0,1,0,2.65,3.1Z" style="fill: rgb(38, 50, 56); transform-origin: 373.903px 114.812px;" id="elilo7ehntsdi" class="animable"></path><path d="M356,130.13h0a3.48,3.48,0,0,1,.39-4.91l5.08-4.36a3.5,3.5,0,0,1,4.92.39h0a3.48,3.48,0,0,1-.38,4.91l-5.09,4.36A3.49,3.49,0,0,1,356,130.13Z" style="fill: rgb(255, 255, 255); stroke: rgb(38, 50, 56); stroke-linecap: round; stroke-linejoin: round; stroke-width: 1.19148px; transform-origin: 361.197px 125.692px;" id="els6y4lom2i9" class="animable"></path><path d="M347.71,134.5s-10.29-2.78-14.34,4.95.52,27,.52,27-7.52,12.22-9.43,13.55-7.29.75-12.59,3.45-3.55,5.47-2.14,6.4,5.73-1.85,7-1.75,1.13,2.39-3.87,7.58S305.57,201,307,203.4a3.69,3.69,0,0,0,4,1.79,2.57,2.57,0,0,0,1.4,3.07c2.06,1,2.94.23,2.94.23s-.2,2.61,1.71,3.41a8.13,8.13,0,0,0,4.59,0s1.81,2.12,3.64,1.77,6-5.45,9.3-9.79,16-19.77,21-29.23,2.63-19,1.61-24.83S351.55,135.78,347.71,134.5Z" style="fill: rgb(255, 255, 255); transform-origin: 332.616px 173.861px;" id="el503sjvvu2yf" class="animable"></path><g style="clip-path: url(&quot;#freepik--clip-path-6--inject-40&quot;); transform-origin: 336.986px 174.07px;" id="elfry9wvu6nur" class="animable"><path d="M357.19,149.85c-1-5.83-5.64-14.07-9.48-15.35l-.24-.06a56.31,56.31,0,0,1,4.11,26.71c-1.3,16.58-16.51,29.66-21.14,34.47-3.71,3.86-8.38,9.27-15.11,13.27a3.25,3.25,0,0,0,1.71,3,8.13,8.13,0,0,0,4.59,0s1.81,2.12,3.64,1.77,6-5.45,9.3-9.79,16-19.77,21-29.23S358.21,155.68,357.19,149.85Z" style="fill: rgb(11, 101, 103); transform-origin: 336.986px 174.07px;" id="elcflivizqjg5" class="animable"></path><g id="elo78ptm8jz6"><path d="M357.19,149.85c-1-5.83-5.64-14.07-9.48-15.35l-.24-.06a56.31,56.31,0,0,1,4.11,26.71c-1.3,16.58-16.51,29.66-21.14,34.47-3.71,3.86-8.38,9.27-15.11,13.27a3.25,3.25,0,0,0,1.71,3,8.13,8.13,0,0,0,4.59,0s1.81,2.12,3.64,1.77,6-5.45,9.3-9.79,16-19.77,21-29.23S358.21,155.68,357.19,149.85Z" style="fill: rgb(255, 255, 255); opacity: 0.5; transform-origin: 336.986px 174.07px;" class="animable"></path></g></g><path d="M347.71,134.5s-10.29-2.78-14.34,4.95.52,27,.52,27-7.52,12.22-9.43,13.55-7.29.75-12.59,3.45-3.55,5.47-2.14,6.4,5.73-1.85,7-1.75,1.13,2.39-3.87,7.58S305.57,201,307,203.4a3.69,3.69,0,0,0,4,1.79,2.57,2.57,0,0,0,1.4,3.07c2.06,1,2.94.23,2.94.23s-.2,2.61,1.71,3.41a8.13,8.13,0,0,0,4.59,0s1.81,2.12,3.64,1.77,6-5.45,9.3-9.79,16-19.77,21-29.23,2.63-19,1.61-24.83S351.55,135.78,347.71,134.5Z" style="fill: none; stroke: rgb(38, 50, 56); stroke-linecap: round; stroke-linejoin: round; stroke-width: 1.19148px; transform-origin: 332.616px 173.861px;" id="elywpysm2vdk" class="animable"></path><path d="M325.27,213.7c1.83-.35,6-5.45,9.3-9.79,1.87-2.45,6.75-8.46,11.54-14.93-3.21-11-12.71-14.29-16.94-15.2-1.91,2.86-3.87,5.6-4.71,6.19-1.91,1.33-7.29.75-12.59,3.45s-3.55,5.47-2.14,6.4,5.73-1.85,7-1.75,1.13,2.39-3.87,7.58S305.57,201,307,203.4a3.69,3.69,0,0,0,4,1.79,2.57,2.57,0,0,0,1.4,3.07c2.06,1,2.94.23,2.94.23s-.2,2.61,1.71,3.41a8.13,8.13,0,0,0,4.59,0S323.44,214.05,325.27,213.7Z" style="fill: none; stroke: rgb(38, 50, 56); stroke-linecap: round; stroke-linejoin: round; stroke-width: 1.19148px; transform-origin: 326.345px 193.759px;" id="elza862a123o" class="animable"></path><path d="M311,205.19a33.58,33.58,0,0,0,10-7.92" style="fill: none; stroke: rgb(38, 50, 56); stroke-linecap: round; stroke-linejoin: round; stroke-width: 1.19148px; transform-origin: 316px 201.23px;" id="elrro7lsz9h5" class="animable"></path><path d="M315.33,208.49a32.84,32.84,0,0,0,10.48-8.05" style="fill: none; stroke: rgb(38, 50, 56); stroke-linecap: round; stroke-linejoin: round; stroke-width: 1.19148px; transform-origin: 320.57px 204.465px;" id="elmpko71h5rxl" class="animable"></path><path d="M321.63,211.93s5.76-4.31,8.5-7.87" style="fill: none; stroke: rgb(38, 50, 56); stroke-linecap: round; stroke-linejoin: round; stroke-width: 1.19148px; transform-origin: 325.88px 207.995px;" id="el0cia5vdgqugi" class="animable"></path><path d="M357.65,169.44c.21-.76.37-1.52.51-2.27-8.38-5.59-18.94-3.76-24.57-2.13.18.87.3,1.38.3,1.38l-.87,1.4C346.48,164.57,353.9,167,357.65,169.44Z" style="fill: rgb(255, 255, 255); stroke: rgb(38, 50, 56); stroke-linecap: round; stroke-linejoin: round; stroke-width: 1.19148px; transform-origin: 345.59px 166.418px;" id="el2kae8mhsfr4" class="animable"></path><path d="M351.81,174.55a10.18,10.18,0,0,0,2.62,2.18c.41-.71.8-1.39,1.15-2a28.72,28.72,0,0,0,2.92-16.28,9.54,9.54,0,0,0-5.77,2.27A9.84,9.84,0,0,0,351.81,174.55Z" style="fill: rgb(11, 101, 103); stroke: rgb(38, 50, 56); stroke-linecap: round; stroke-linejoin: round; stroke-width: 1.19148px; transform-origin: 354.044px 167.59px;" id="eljid1dtfxkjo" class="animable"></path><path d="M257.06,138.09s4.16,12,9.51,12.89,12.79-8.19,14.3-15-3.8-12.29-11.48-19.13-18.69-10.82-28-5.63-23.07,20-23.07,20-8.61-7.57-13.18-3.66,1.39,15.87,5.6,20.8S222.63,160.52,230,158.8s13.21-15.55,18-19.62S256,136.86,257.06,138.09Z" style="fill: rgb(255, 255, 255); transform-origin: 242.311px 133.953px;" id="el53rpywb86mr" class="animable"></path><g style="clip-path: url(&quot;#freepik--clip-path-7--inject-40&quot;); transform-origin: 243.936px 141.592px;" id="elpr1nb4y879d" class="animable"><path d="M269,141c-8.13-3.9-5.85-13.66-14-16.26s-7.48,2.93-14,13.34-18.54,9.75-26.67,7.15a79.89,79.89,0,0,1-7.59-2.89,34.21,34.21,0,0,0,4,6.11c4.21,4.93,11.86,12.09,19.22,10.37s13.21-15.55,18-19.62,8.06-2.32,9.11-1.09c0,0,4.16,12,9.51,12.89s12.79-8.19,14.3-15a10.36,10.36,0,0,0,.19-3.4l-.38-.08S277.1,144.89,269,141Z" style="fill: rgb(11, 101, 103); transform-origin: 243.936px 141.592px;" id="el4y3b9d1553f" class="animable"></path><g id="elzkzbxg5w7t"><path d="M269,141c-8.13-3.9-5.85-13.66-14-16.26s-7.48,2.93-14,13.34-18.54,9.75-26.67,7.15a79.89,79.89,0,0,1-7.59-2.89,34.21,34.21,0,0,0,4,6.11c4.21,4.93,11.86,12.09,19.22,10.37s13.21-15.55,18-19.62,8.06-2.32,9.11-1.09c0,0,4.16,12,9.51,12.89s12.79-8.19,14.3-15a10.36,10.36,0,0,0,.19-3.4l-.38-.08S277.1,144.89,269,141Z" style="fill: rgb(255, 255, 255); opacity: 0.5; transform-origin: 243.936px 141.592px;" class="animable"></path></g></g><path d="M257.06,138.09s4.16,12,9.51,12.89,12.79-8.19,14.3-15-3.8-12.29-11.48-19.13-18.69-10.82-28-5.63-23.07,20-23.07,20-8.61-7.57-13.18-3.66,1.39,15.87,5.6,20.8S222.63,160.52,230,158.8s13.21-15.55,18-19.62S256,136.86,257.06,138.09Z" style="fill: none; stroke: rgb(38, 50, 56); stroke-linecap: round; stroke-linejoin: round; stroke-width: 1.19148px; transform-origin: 242.311px 133.953px;" id="elt5bx911wab" class="animable"></path><path d="M230.83,119.18c-6.64,5.82-12.48,12.11-12.48,12.11s-8.61-7.57-13.18-3.66,1.39,15.87,5.6,20.8S222.63,160.52,230,158.8c6.64-1.55,12-13,16.52-18.15A88.79,88.79,0,0,1,230.83,119.18Z" style="fill: none; stroke: rgb(38, 50, 56); stroke-linecap: round; stroke-linejoin: round; stroke-width: 1.19148px; transform-origin: 225.022px 139.121px;" id="elgmbofvx85ok" class="animable"></path><path d="M253,109a22.56,22.56,0,0,0-2.46-.15,69.54,69.54,0,0,1,1.64,28,5.6,5.6,0,0,1,2.45-.1C255.18,129.66,255.59,117.91,253,109Z" style="fill: none; stroke: rgb(38, 50, 56); stroke-linecap: round; stroke-linejoin: round; stroke-width: 1.19148px; transform-origin: 252.79px 122.85px;" id="elx5ffj72ehys" class="animable"></path><path d="M258.61,124.58a8.79,8.79,0,1,1,1-12.4A8.79,8.79,0,0,1,258.61,124.58Z" style="fill: rgb(11, 101, 103); stroke: rgb(38, 50, 56); stroke-linecap: round; stroke-linejoin: round; stroke-width: 1.19148px; transform-origin: 252.919px 117.881px;" id="elutbekp7cs4k" class="animable"></path><path d="M230,158.8a11,11,0,0,0,4.66-2.68c-4.71.78-13.41.52-21.32-9-7.7-9.24-7.83-16.43-7.07-20.21a4.87,4.87,0,0,0-1.09.69c-4.58,3.91,1.39,15.87,5.6,20.8S222.63,160.52,230,158.8Z" style="fill: none; stroke: rgb(38, 50, 56); stroke-linecap: round; stroke-linejoin: round; stroke-width: 1.19148px; transform-origin: 219.095px 142.985px;" id="elnaxbsqbl2z" class="animable"></path><path d="M281.13,180.59s12.17,3.58,16-.24,4.4-15.43-3.88-20.35c-6-3.54-12.21-4-22.24-1.76s-19.66,8.93-20.83,19.49,2.9,30.42,2.9,30.42-11.15,2.61-10.63,8.61,13.73,8.09,20.18,7.52,16.74-2.63,19.61-9.62-5-19.78-5.54-26S279.52,180.73,281.13,180.59Z" style="fill: rgb(255, 255, 255); transform-origin: 271.125px 190.621px;" id="eln3vzd6ay3t8" class="animable"></path><g style="clip-path: url(&quot;#freepik--clip-path-8--inject-40&quot;); transform-origin: 271.43px 195.675px;" id="el4tkyyi2hoy" class="animable"><path d="M281.13,180.59s12.17,3.58,16-.24c2.5-2.49,3.59-8.26,1.78-13.35h0s1,5.21-6.18,6.51-18.86-1.3-24.06,5.2,2.27,19.84,2.92,28.62S270.27,219,261.49,220s-16.63-5.3-18.44-1.48c2.69,4.63,13.83,6.25,19.6,5.74,6.46-.57,16.74-2.63,19.61-9.62s-5-19.78-5.54-26S279.52,180.73,281.13,180.59Z" style="fill: rgb(11, 101, 103); transform-origin: 271.43px 195.675px;" id="elz9fcurc7xq" class="animable"></path><g id="elweeq0svbbff"><path d="M281.13,180.59s12.17,3.58,16-.24c2.5-2.49,3.59-8.26,1.78-13.35h0s1,5.21-6.18,6.51-18.86-1.3-24.06,5.2,2.27,19.84,2.92,28.62S270.27,219,261.49,220s-16.63-5.3-18.44-1.48c2.69,4.63,13.83,6.25,19.6,5.74,6.46-.57,16.74-2.63,19.61-9.62s-5-19.78-5.54-26S279.52,180.73,281.13,180.59Z" style="fill: rgb(255, 255, 255); opacity: 0.5; transform-origin: 271.43px 195.675px;" class="animable"></path></g></g><path d="M281.13,180.59s12.17,3.58,16-.24,4.4-15.43-3.88-20.35c-6-3.54-12.21-4-22.24-1.76s-19.66,8.93-20.83,19.49,2.9,30.42,2.9,30.42-11.15,2.61-10.63,8.61,13.73,8.09,20.18,7.52,16.74-2.63,19.61-9.62-5-19.78-5.54-26S279.52,180.73,281.13,180.59Z" style="fill: none; stroke: rgb(38, 50, 56); stroke-linecap: round; stroke-linejoin: round; stroke-width: 1.19148px; transform-origin: 271.125px 190.621px;" id="ela0nt9dtzka6" class="animable"></path><path d="M250.5,191c.88,8.79,2.6,17.19,2.6,17.19s-11.15,2.61-10.63,8.61,13.73,8.09,20.18,7.52,16.74-2.63,19.61-9.62c2.59-6.31-3.54-17.32-5.18-24A88.55,88.55,0,0,1,250.5,191Z" style="fill: none; stroke: rgb(38, 50, 56); stroke-linecap: round; stroke-linejoin: round; stroke-width: 1.19148px; transform-origin: 262.671px 207.555px;" id="elg6b0jcmngrf" class="animable"></path><path d="M255.08,167.06a21.79,21.79,0,0,0-1.54,1.91,69.88,69.88,0,0,1,23.71,14.91,5.57,5.57,0,0,1,1.34-2C273.18,177.23,263.85,170.07,255.08,167.06Z" style="fill: none; stroke: rgb(38, 50, 56); stroke-linecap: round; stroke-linejoin: round; stroke-width: 1.19148px; transform-origin: 266.065px 175.47px;" id="elslldsayebpk" class="animable"></path><g id="el79gvazm2c2j"><circle cx="262.27" cy="172.25" r="8.8" style="fill: rgb(11, 101, 103); stroke: rgb(38, 50, 56); stroke-linecap: round; stroke-linejoin: round; stroke-width: 1.19148px; transform-origin: 262.27px 172.25px; transform: rotate(-17.46deg);" class="animable"></circle></g><path d="M282.26,214.66a10.89,10.89,0,0,0,.52-5.35c-2.1,4.29-7.36,11.22-19.68,12.14-12,.9-17.93-3.17-20.55-6a4.58,4.58,0,0,0-.08,1.29c.53,6,13.73,8.09,20.18,7.52S279.39,221.65,282.26,214.66Z" style="fill: none; stroke: rgb(38, 50, 56); stroke-linecap: round; stroke-linejoin: round; stroke-width: 1.19148px; transform-origin: 262.681px 216.83px;" id="el8r43kdyyc8b" class="animable"></path><path d="M350.87,92.66a93.78,93.78,0,0,1-7.17-10.92A22.59,22.59,0,1,0,363.21,106,91.3,91.3,0,0,1,350.87,92.66Z" style="fill: rgb(38, 50, 56); stroke: rgb(38, 50, 56); stroke-linecap: round; stroke-linejoin: round; stroke-width: 1.19148px; transform-origin: 340.659px 104.13px;" id="elbgdi942gclm" class="animable"></path><path d="M353.06,113.17a7.26,7.26,0,1,1,.45-9.91A7,7,0,0,1,353.06,113.17Z" style="fill: rgb(255, 255, 255); transform-origin: 348.04px 107.975px;" id="elcu6gf5zocrt" class="animable"></path><path d="M345.63,96.42a2.16,2.16,0,1,1,.23-3A2.15,2.15,0,0,1,345.63,96.42Z" style="fill: rgb(255, 255, 255); transform-origin: 344.202px 94.8015px;" id="elzw18e7e2dbg" class="animable"></path><g id="el5y8buxgtmd6"><rect x="125.16" y="268.54" width="6.45" height="9.32" style="fill: rgb(38, 50, 56); transform-origin: 128.385px 273.2px; transform: rotate(5.62deg);" class="animable"></rect></g></g><defs>     <filter id="active" height="200%">         <feMorphology in="SourceAlpha" result="DILATED" operator="dilate" radius="2"></feMorphology>                <feFlood flood-color="#32DFEC" flood-opacity="1" result="PINK"></feFlood>        <feComposite in="PINK" in2="DILATED" operator="in" result="OUTLINE"></feComposite>        <feMerge>            <feMergeNode in="OUTLINE"></feMergeNode>            <feMergeNode in="SourceGraphic"></feMergeNode>        </feMerge>    </filter>    <filter id="hover" height="200%">        <feMorphology in="SourceAlpha" result="DILATED" operator="dilate" radius="2"></feMorphology>                <feFlood flood-color="#ff0000" flood-opacity="0.5" result="PINK"></feFlood>        <feComposite in="PINK" in2="DILATED" operator="in" result="OUTLINE"></feComposite>        <feMerge>            <feMergeNode in="OUTLINE"></feMergeNode>            <feMergeNode in="SourceGraphic"></feMergeNode>        </feMerge>            <feColorMatrix type="matrix" values="0   0   0   0   0                0   1   0   0   0                0   0   0   0   0                0   0   0   1   0 "></feColorMatrix>    </filter></defs><defs><clipPath id="freepik--clip-path--inject-40"><path d="M261.76,432.31A24.74,24.74,0,1,1,274,399.52,24.73,24.73,0,0,1,261.76,432.31Z" style="fill:#263238"></path></clipPath><clipPath id="freepik--clip-path-2--inject-40"><path d="M322.16,107.29a39.79,39.79,0,0,0-9.85-9.82,145.36,145.36,0,0,0-15.56-8.06l-3.23-18a61.53,61.53,0,0,0,8.28-9.8c2.92-4.71,2-7.87.13-11.13s-4.46-1.15-4.85.34a33.33,33.33,0,0,0-.52,4.75s-1.74-12-2.75-14.73-4.86-.1-4.52.81c0,0-1.16-3.41-3.55-3.45s-3.07,4-3.07,4-3.07-1.42-4.79.36-.9,6.24-.9,6.24-2.74,1-3.16,4.89-.08,10.7,1,12.57a20.08,20.08,0,0,1,1.45,2.78c-1.36,16.24-1.31,15.17-1.71,21.65-.28,4.56,2.71,15.16,7,19.57s19.64,12.2,19.64,12.2S317.23,118.33,322.16,107.29Z" style="fill:#fff;stroke:#263238;stroke-linecap:round;stroke-linejoin:round;stroke-width:1.1914845705032349px"></path></clipPath><clipPath id="freepik--clip-path-3--inject-40"><path d="M282.21,125.93s-4.47.47-5.88,1.68S264.19,138,262.45,143.44s4.87,21.72,12.09,28,16.24,12.93,23.9,11.56,16.46-13.17,17.37-16.38-29.06-40-29.06-40S284.62,124.48,282.21,125.93Z" style="fill:#fff;stroke:#263238;stroke-linecap:round;stroke-linejoin:round;stroke-width:1.1914845705032349px"></path></clipPath><clipPath id="freepik--clip-path-4--inject-40"><path d="M320.39,104.12s-4.74-1.6-11.8,1.4-24.72,13.37-27.31,22.4c-1.71,5.93,17,33.62,28.69,38.18,3.14,1.22,6,2.55,12.43-2.69s19.91-19.79,23.44-26.2-2-11.19-3.85-14S325.35,102,320.39,104.12Z" style="fill:#fff;stroke:#263238;stroke-linecap:round;stroke-linejoin:round;stroke-width:1.1914845705032349px"></path></clipPath><clipPath id="freepik--clip-path-5--inject-40"><circle cx="341.93" cy="103.81" r="26.5" transform="translate(-15.38 99.53) rotate(-16.2)" style="fill:#fff;stroke:#263238;stroke-linecap:round;stroke-linejoin:round;stroke-width:1.1914845705032349px"></circle></clipPath><clipPath id="freepik--clip-path-6--inject-40"><path d="M347.71,134.5s-10.29-2.78-14.34,4.95.52,27,.52,27-7.52,12.22-9.43,13.55-7.29.75-12.59,3.45-3.55,5.47-2.14,6.4,5.73-1.85,7-1.75,1.13,2.39-3.87,7.58S305.57,201,307,203.4a3.69,3.69,0,0,0,4,1.79,2.57,2.57,0,0,0,1.4,3.07c2.06,1,2.94.23,2.94.23s-.2,2.61,1.71,3.41a8.13,8.13,0,0,0,4.59,0s1.81,2.12,3.64,1.77,6-5.45,9.3-9.79,16-19.77,21-29.23,2.63-19,1.61-24.83S351.55,135.78,347.71,134.5Z" style="fill:#fff;stroke:#263238;stroke-linecap:round;stroke-linejoin:round;stroke-width:1.1914845705032349px"></path></clipPath><clipPath id="freepik--clip-path-7--inject-40"><path d="M257.06,138.09s4.16,12,9.51,12.89,12.79-8.19,14.3-15-3.8-12.29-11.48-19.13-18.69-10.82-28-5.63-23.07,20-23.07,20-8.61-7.57-13.18-3.66,1.39,15.87,5.6,20.8S222.63,160.52,230,158.8s13.21-15.55,18-19.62S256,136.86,257.06,138.09Z" style="fill:#fff;stroke:#263238;stroke-linecap:round;stroke-linejoin:round;stroke-width:1.1914845705032349px"></path></clipPath><clipPath id="freepik--clip-path-8--inject-40"><path d="M281.13,180.59s12.17,3.58,16-.24,4.4-15.43-3.88-20.35c-6-3.54-12.21-4-22.24-1.76s-19.66,8.93-20.83,19.49,2.9,30.42,2.9,30.42-11.15,2.61-10.63,8.61,13.73,8.09,20.18,7.52,16.74-2.63,19.61-9.62-5-19.78-5.54-26S279.52,180.73,281.13,180.59Z" style="fill:#fff;stroke:#263238;stroke-linecap:round;stroke-linejoin:round;stroke-width:1.1914845705032349px"></path></clipPath></defs></svg>