<svg xmlns="http://www.w3.org/2000/svg" viewBox="0 0 400 300" width="406" height="306" class="illustration styles_illustrationTablet__1DWOa"><g id="_561_online_report_flatline" data-name="#561_online_report_flatline"><rect x="92.06" y="71.99" width="223.73" height="143.26" rx="7" fill="#fff"></rect><path d="M308.79,215.75H99.06a7.51,7.51,0,0,1-7.5-7.5V79a7.52,7.52,0,0,1,7.5-7.51H308.79a7.52,7.52,0,0,1,7.5,7.51V208.25A7.51,7.51,0,0,1,308.79,215.75ZM99.06,72.49A6.51,6.51,0,0,0,92.56,79V208.25a6.51,6.51,0,0,0,6.5,6.5H308.79a6.51,6.51,0,0,0,6.5-6.5V79a6.51,6.51,0,0,0-6.5-6.51Z" fill="#231f20"></path><path d="M315.79,193.1H92.06a.51.51,0,0,1-.5-.5.5.5,0,0,1,.5-.5H315.79a.5.5,0,0,1,.5.5A.5.5,0,0,1,315.79,193.1Z" fill="#231f20"></path><polygon points="232.52 242.95 175.33 242.95 185.88 215.25 221.98 215.25 232.52 242.95" fill="#fff"></polygon><path d="M232.52,243.45H175.33a.49.49,0,0,1-.41-.22.5.5,0,0,1-.06-.46l10.55-27.69a.5.5,0,0,1,.47-.33H222a.49.49,0,0,1,.46.33L233,242.77a.51.51,0,0,1-.47.68Zm-56.46-1H231.8l-10.17-26.7H186.22Z" fill="#231f20"></path><rect x="165.27" y="241.32" width="77.31" height="7.47" rx="3.35" fill="#fff"></rect><path d="M239.23,249.29H168.62a3.85,3.85,0,0,1-3.85-3.85v-.76a3.86,3.86,0,0,1,3.85-3.86h70.61a3.86,3.86,0,0,1,3.85,3.86v.76A3.85,3.85,0,0,1,239.23,249.29Zm-70.61-7.47a2.86,2.86,0,0,0-2.85,2.86v.76a2.86,2.86,0,0,0,2.85,2.85h70.61a2.86,2.86,0,0,0,2.85-2.85v-.76a2.86,2.86,0,0,0-2.85-2.86Z" fill="#231f20"></path><rect x="100.05" y="78.74" width="207.75" height="105.08" fill="#00e690"></rect><rect x="100.05" y="78.74" width="207.75" height="105.08" fill="#d1d3d4"></rect><polygon points="180.66 227.9 223.24 219.63 221.57 215.25 185.47 215.25 180.66 227.9" fill="#231f20"></polygon><path d="M180.66,228.4a.5.5,0,0,1-.47-.68L185,215.08a.51.51,0,0,1,.47-.33h36.1a.5.5,0,0,1,.47.33l1.67,4.37a.51.51,0,0,1,0,.42.53.53,0,0,1-.35.25l-42.58,8.27Zm5.16-12.65-4.38,11.49,41.12-8-1.33-3.5Z" fill="#231f20"></path><path d="M279.66,54.06V183.83H128.25V45.47H271.07a8.59,8.59,0,0,1,8.59,8.59Z" fill="#fff"></path><path d="M279.66,184.33H128.25a.51.51,0,0,1-.5-.5V45.47a.5.5,0,0,1,.5-.5H271.07a9.06,9.06,0,0,1,9.09,9.09V183.83A.5.5,0,0,1,279.66,184.33Zm-150.91-1H279.16V54.06A8.07,8.07,0,0,0,271.07,46H128.75Z" fill="#231f20"></path><path d="M201.72,90.55H137.21a.5.5,0,0,1-.5-.5V67.44a.5.5,0,0,1,.5-.5.5.5,0,0,1,.5.5V89.55h64a.5.5,0,0,1,.5.5A.5.5,0,0,1,201.72,90.55Z" fill="#d1d3d4"></path><path d="M189.16,145H137.79a.5.5,0,0,1-.5-.5V97.39a.5.5,0,0,1,.5-.5h51.37a.5.5,0,0,1,.5.5v47.15A.5.5,0,0,1,189.16,145Zm-50.87-1h50.37V97.89H138.29Z" fill="#d1d3d4"></path><path d="M269.53,176.73H140.8a.5.5,0,0,1-.5-.5V153.4a.5.5,0,0,1,.5-.5H269.53a.51.51,0,0,1,.5.5v22.83A.5.5,0,0,1,269.53,176.73Zm-128.23-1H269V153.9H141.3Z" fill="#d1d3d4"></path><path d="M269.53,162H140.8a.5.5,0,0,1-.5-.5.5.5,0,0,1,.5-.5H269.53a.51.51,0,0,1,.5.5A.5.5,0,0,1,269.53,162Z" fill="#d1d3d4"></path><path d="M85.12,245.53v7.35s16.95,2,16.57,1.21S92,246.66,92,246.66Z" fill="#231f20"></path><path d="M100.37,254.74c-1.93,0-6.1-.29-15.3-1.36a.5.5,0,0,1-.45-.5v-7.35a.49.49,0,0,1,.18-.38.5.5,0,0,1,.41-.12L92,246.17a.43.43,0,0,1,.21.09c2.84,2,9.5,6.82,9.9,7.61a.62.62,0,0,1,0,.56C102,254.56,101.88,254.74,100.37,254.74Zm-14.75-2.3c6.11.7,12.73,1.33,15,1.33-1.46-1.22-5.33-4.08-8.91-6.63l-6.13-1Z" fill="#231f20"></path><polygon points="85.13 239.05 85.13 245.53 91.95 246.66 93.08 239.05 85.13 239.05" fill="#fff"></polygon><path d="M92,247.17h-.08L85,246a.5.5,0,0,1-.42-.49v-6.48a.5.5,0,0,1,.5-.5h8a.49.49,0,0,1,.38.17.49.49,0,0,1,.12.4l-1.14,7.62a.5.5,0,0,1-.2.33A.51.51,0,0,1,92,247.17Zm-6.33-2.07,5.91,1,1-6.54H85.62Z" fill="#231f20"></path><polygon points="108.66 240.98 108.66 247.92 116.4 248.48 116.85 240.98 108.66 240.98" fill="#fff"></polygon><path d="M116.4,249h0l-7.73-.57a.49.49,0,0,1-.47-.49V241a.5.5,0,0,1,.5-.5h8.19a.52.52,0,0,1,.37.16.5.5,0,0,1,.13.37l-.45,7.5a.51.51,0,0,1-.17.35A.52.52,0,0,1,116.4,249Zm-7.24-1.53,6.77.5.39-6.47h-7.16Z" fill="#231f20"></path><polygon points="120.09 170.73 117.61 242.42 107.53 242.42 102.25 189.04 93.88 241.51 84.21 240.98 89.52 171.31 120.09 170.73" fill="#231f20"></polygon><path d="M117.61,242.92H107.53a.5.5,0,0,1-.5-.45l-4.89-49.53-7.77,48.65a.49.49,0,0,1-.52.42l-9.67-.53a.5.5,0,0,1-.47-.54L89,171.27a.49.49,0,0,1,.49-.46l30.57-.58a.53.53,0,0,1,.37.15.52.52,0,0,1,.14.36l-2.48,71.7A.5.5,0,0,1,117.61,242.92Zm-9.63-1h9.15l2.44-70.68L90,171.8l-5.23,68.71,8.71.48,8.3-52a.5.5,0,0,1,1,0Z" fill="#231f20"></path><path d="M141,150.45a19.13,19.13,0,0,1,6.08-1.35c3.44-.18,4.82-2.32,4.69-3.84s-3.35-2.77-5.54-2.4-7.28,3.81-7.28,3.81Z" fill="#fff"></path><path d="M141,151a.49.49,0,0,1-.44-.26l-2.06-3.78a.5.5,0,0,1,.16-.65c.21-.15,5.2-3.5,7.47-3.89a7.27,7.27,0,0,1,5.1,1.24,2.39,2.39,0,0,1,1,1.61,3.52,3.52,0,0,1-.92,2.57,5.74,5.74,0,0,1-4.24,1.81,18.64,18.64,0,0,0-5.9,1.31A.51.51,0,0,1,141,151Zm-1.4-4.11,1.62,3a19.92,19.92,0,0,1,5.83-1.22,4.75,4.75,0,0,0,3.53-1.46,2.49,2.49,0,0,0,.68-1.83,1.42,1.42,0,0,0-.64-.91,6.3,6.3,0,0,0-4.32-1C144.57,143.65,140.8,146.05,139.6,146.84Z" fill="#231f20"></path><path d="M118.59,127.06S126.45,146.61,128,147s13.34-2.92,13.34-2.92l.27,7.26S129,159.1,124.14,156.4s-18.87-16.77-18.87-16.77Z" fill="#00e690"></path><polygon points="148.51 145.09 154.83 149.2 163.11 136.25 156.79 132.14 148.51 145.09" fill="#231f20"></polygon><path d="M154.83,149.7a.43.43,0,0,1-.27-.08l-6.32-4.11a.49.49,0,0,1-.15-.68l8.28-13a.49.49,0,0,1,.32-.22.44.44,0,0,1,.37.07l6.32,4.11a.49.49,0,0,1,.15.68l-8.28,13a.45.45,0,0,1-.32.22ZM149.2,145l5.48,3.56,7.74-12.12-5.48-3.56Z" fill="#231f20"></path><polyline points="155.11 135.79 184.98 89.04 189.82 92.19" fill="#231f20"></polyline><path d="M155.11,136.29a.56.56,0,0,1-.27-.08.5.5,0,0,1-.15-.69l29.87-46.75a.5.5,0,0,1,.31-.22.51.51,0,0,1,.38.07l4.84,3.15a.5.5,0,0,1-.54.84l-4.42-2.88-29.6,46.33A.48.48,0,0,1,155.11,136.29Z" fill="#231f20"></path><ellipse cx="174.89" cy="115.56" rx="27.74" ry="22.39" transform="translate(-15.3 203.7) rotate(-58.32)" fill="#231f20"></ellipse><path d="M170.36,142.44a19.46,19.46,0,0,1-10.68-3.08c-10.58-6.88-12.36-23.15-4-36.28h0c4.61-7.21,11.51-12.26,18.93-13.87a20.27,20.27,0,0,1,15.46,2.56c10.58,6.88,12.37,23.15,4,36.27-4.61,7.22-11.51,12.27-18.94,13.88A23.15,23.15,0,0,1,170.36,142.44Zm-13.82-38.82c-8.09,12.66-6.43,28.32,3.69,34.9a19,19,0,0,0,14.7,2.42c7.17-1.55,13.84-6.45,18.3-13.44,8.09-12.66,6.44-28.31-3.68-34.89a19,19,0,0,0-14.71-2.42c-7.17,1.55-13.83,6.44-18.3,13.43Z" fill="#231f20"></path><ellipse cx="170.04" cy="112.41" rx="27.74" ry="22.39" transform="matrix(0.53, -0.85, 0.85, 0.53, -14.92, 198.08)" fill="#fff"></ellipse><path d="M165.52,139.29a19.46,19.46,0,0,1-10.68-3.08c-10.58-6.88-12.37-23.16-4-36.28,4.61-7.21,11.51-12.26,18.94-13.87a20.22,20.22,0,0,1,15.46,2.56c10.58,6.88,12.36,23.15,4,36.27-4.6,7.21-11.5,12.27-18.93,13.88A23.15,23.15,0,0,1,165.52,139.29Zm9.13-52.76A22.14,22.14,0,0,0,170,87c-7.17,1.55-13.84,6.44-18.3,13.43-8.09,12.66-6.44,28.32,3.68,34.9a19,19,0,0,0,14.71,2.42c7.17-1.55,13.84-6.45,18.3-13.44,8.09-12.66,6.43-28.31-3.69-34.89A18.12,18.12,0,0,0,174.65,86.53Z" fill="#231f20"></path><ellipse cx="170.04" cy="112.41" rx="21.95" ry="17.72" transform="translate(-14.92 198.08) rotate(-58.32)" fill="#fff"></ellipse><path d="M166.46,133.78a15.5,15.5,0,0,1-8.51-2.45c-8.41-5.48-9.84-18.42-3.18-28.85a24.46,24.46,0,0,1,15-11,16.1,16.1,0,0,1,12.31,2c8.42,5.47,9.85,18.41,3.19,28.84a24.48,24.48,0,0,1-15,11A17.84,17.84,0,0,1,166.46,133.78ZM173.69,92a17.25,17.25,0,0,0-3.66.41A23.44,23.44,0,0,0,155.61,103c-6.36,10-5.07,22.29,2.89,27.47a14.93,14.93,0,0,0,11.56,1.9,23.47,23.47,0,0,0,14.41-10.58c6.37-10,5.08-22.3-2.88-27.48A14.36,14.36,0,0,0,173.69,92Z" fill="#231f20"></path><path d="M155.19,102.75c-6.52,10.22-5.17,22.83,3,28.16a14.3,14.3,0,0,0,1.66.93c-6.83-5.84-7.62-17.48-1.52-27s16.93-13.63,25-9.76a15.44,15.44,0,0,0-1.52-1.14C173.66,88.58,161.72,92.54,155.19,102.75Z" fill="#231f20"></path><path d="M159.88,132.34a.54.54,0,0,1-.22-.05,14.71,14.71,0,0,1-1.71-1c-8.41-5.47-9.84-18.41-3.18-28.85a24.46,24.46,0,0,1,15-11,16.15,16.15,0,0,1,12.31,2,14.62,14.62,0,0,1,1.57,1.18.5.5,0,0,1-.54.83c-8-3.81-18.45.31-24.38,9.58s-5.31,20.62,1.42,26.38a.5.5,0,0,1-.32.88ZM173.69,92a17.32,17.32,0,0,0-3.66.41A23.4,23.4,0,0,0,155.62,103c-5.92,9.26-5.23,20.56,1.28,26.26-4.52-6.49-4.27-16.42,1-24.73s14.19-12.66,21.93-11.17A14.38,14.38,0,0,0,173.69,92Z" fill="#231f20"></path><path d="M125,185.29l3.3,2.15a3.47,3.47,0,0,0,4.82-1.06l22.56-35.31a3.54,3.54,0,0,0-1-4.87l-3.29-2.15a3.48,3.48,0,0,0-4.83,1.06l-22.56,35.31A3.54,3.54,0,0,0,125,185.29Z" fill="#fff"></path><path d="M130.15,188.5a4,4,0,0,1-2.15-.64l-3.3-2.15h0a4,4,0,0,1-1.19-5.56l22.56-35.31a4,4,0,0,1,5.52-1.21l3.29,2.15a4,4,0,0,1,1.19,5.56l-22.56,35.31a4,4,0,0,1-3.36,1.85Zm-4.91-3.63,3.3,2.15a3,3,0,0,0,2.24.41,3,3,0,0,0,1.89-1.32l22.56-35.31a3,3,0,0,0-.89-4.18l-3.3-2.15a2.94,2.94,0,0,0-2.24-.41,3,3,0,0,0-1.89,1.32l-22.55,35.31a3,3,0,0,0,.88,4.18Z" fill="#231f20"></path><path d="M160.44,112.19a.5.5,0,0,1-.21-1L175,104.34a.49.49,0,0,1,.66.24.5.5,0,0,1-.24.67l-14.79,6.89A.54.54,0,0,1,160.44,112.19Z" fill="#d1d3d4"></path><path d="M172.47,113.68a.5.5,0,0,1-.22-1L185,106.62a.51.51,0,0,1,.44.91l-12.75,6.1A.41.41,0,0,1,172.47,113.68Z" fill="#d1d3d4"></path><path d="M159.31,126.8a.52.52,0,0,1-.45-.28.5.5,0,0,1,.23-.67l23.56-11.65a.5.5,0,1,1,.44.89l-23.56,11.66A.54.54,0,0,1,159.31,126.8Z" fill="#d1d3d4"></path><path d="M111,119.7c-.81-.09-1.62-.28-2.57-.42s-2-.54-2-1.43,1-1.34.82-2.09a1.66,1.66,0,0,0-.29-.56,8.49,8.49,0,0,1-1.22-6A8.33,8.33,0,0,1,109,104c-.25.06-.5-.2-.51-.47a1.08,1.08,0,0,1,.32-.7,5.14,5.14,0,0,1,2.55-1.35,15.51,15.51,0,0,1,9.18.59c2.25.82,4.9,2.83,4.44,5.61a2.2,2.2,0,0,1-2,1.91c-.68,3-2.35,4.9-4.43,6.94a11.68,11.68,0,0,1-5,3A6.55,6.55,0,0,1,111,119.7Z" fill="#fff"></path><path d="M111.78,120.24a8.71,8.71,0,0,1-.87,0h0c-.49-.06-1-.15-1.49-.24l-1.1-.19c-1.53-.23-2.43-1-2.39-1.94a2.36,2.36,0,0,1,.51-1.23c.22-.34.36-.55.32-.74a1.11,1.11,0,0,0-.19-.35,8.94,8.94,0,0,1-1.32-6.45,8.82,8.82,0,0,1,2.9-5.06,1.08,1.08,0,0,1-.15-.49,1.48,1.48,0,0,1,.45-1.05,5.59,5.59,0,0,1,2.79-1.5,16,16,0,0,1,9.48.6c2.72,1,5.24,3.28,4.76,6.16a2.79,2.79,0,0,1-2.1,2.3,14.75,14.75,0,0,1-4.47,6.83,12.32,12.32,0,0,1-5.22,3.12A6.63,6.63,0,0,1,111.78,120.24Zm-.76-1a6,6,0,0,0,2.39-.19,11.33,11.33,0,0,0,4.79-2.87c2.26-2.22,3.68-4,4.3-6.7a.53.53,0,0,1,.49-.39,1.73,1.73,0,0,0,1.51-1.5c.44-2.64-2.39-4.42-4.12-5.06a15.1,15.1,0,0,0-8.89-.57,4.41,4.41,0,0,0-2.29,1.21.64.64,0,0,0-.2.33.47.47,0,0,1,.46.28.5.5,0,0,1-.15.62,7.74,7.74,0,0,0-3.07,4.88,7.93,7.93,0,0,0,1.14,5.69,1.86,1.86,0,0,1,.35.72,1.94,1.94,0,0,1-.46,1.5,1.69,1.69,0,0,0-.34.71c0,.51.82.81,1.54.92.4.06.77.13,1.14.2s.94.17,1.41.22Z" fill="#231f20"></path><path d="M123.53,114s1.92,3.64,1.39,4.31-2,0-2,0" fill="#fff"></path><path d="M124.12,119.06a4.1,4.1,0,0,1-1.43-.31.5.5,0,0,1,.39-.92c.48.2,1.27.34,1.45.11a11.81,11.81,0,0,0-1.44-3.76.5.5,0,1,1,.88-.47c1,1.8,2,4.1,1.34,4.86A1.47,1.47,0,0,1,124.12,119.06Z" fill="#231f20"></path><path d="M123.48,109.38c1.32,1.32.67,3.76.5,5.37-.23,2.27-.52,4.54-.85,6.79-.22,1.43-3.92,1.09-4.53.59l0,5.75-7.48-3.8.76-4.67a4.71,4.71,0,0,0,4.24-2.51c1.72-2.79,2.12-9.18,2.12-9.18S122.2,108.09,123.48,109.38Z" fill="#fff"></path><path d="M118.64,128.38a.46.46,0,0,1-.23-.06l-7.48-3.8a.51.51,0,0,1-.27-.52l.77-4.67a.49.49,0,0,1,.54-.42,4.18,4.18,0,0,0,3.76-2.28c1.64-2.65,2-8.88,2-8.94a.51.51,0,0,1,.55-.47c.42,0,4.13.43,5.51,1.8h0c1.26,1.28,1,3.3.75,4.92,0,.31-.08.6-.11.86-.23,2.26-.52,4.56-.86,6.81a1.5,1.5,0,0,1-1.07,1.18,6.57,6.57,0,0,1-3.44.08l0,5a.52.52,0,0,1-.5.51Zm-6.93-4.58,6.42,3.26,0-4.93a.5.5,0,0,1,.28-.45.51.51,0,0,1,.54.06,5.36,5.36,0,0,0,3.29.11c.26-.1.4-.23.42-.38.34-2.25.62-4.52.85-6.77q0-.42.12-.9c.2-1.4.44-3.15-.47-4.07h0c-.82-.82-3.11-1.28-4.39-1.46-.14,1.62-.66,6.47-2.16,8.89a5.33,5.33,0,0,1-4.24,2.75Z" fill="#231f20"></path><path d="M123.23,119.84a1.83,1.83,0,0,1-2.6-1" fill="#fff"></path><path d="M122.26,120.55a2.08,2.08,0,0,1-.8-.14,2.3,2.3,0,0,1-1.3-1.39.51.51,0,0,1,.28-.65.49.49,0,0,1,.65.28,1.36,1.36,0,0,0,.73.83,1.78,1.78,0,0,0,1.2-.09.5.5,0,0,1,.66.24.49.49,0,0,1-.23.66A2.9,2.9,0,0,1,122.26,120.55Z" fill="#231f20"></path><path d="M119.07,115a3.09,3.09,0,0,0-.48-1.62,4.38,4.38,0,0,0-.72-1.12,1.49,1.49,0,0,0-1.18-.49,1.38,1.38,0,0,0-1,.61,2.64,2.64,0,0,0-.39,1.1,5,5,0,0,0,1.82,4.55l-.11-.15" fill="#fff"></path><path d="M117.17,118.49a.48.48,0,0,1-.3-.11,5.38,5.38,0,0,1-2-5,3,3,0,0,1,.47-1.3,1.81,1.81,0,0,1,1.31-.83,2,2,0,0,1,1.59.64,5,5,0,0,1,.8,1.24,3.51,3.51,0,0,1,.54,1.89.51.51,0,0,1-.54.46.5.5,0,0,1-.46-.54,2.55,2.55,0,0,0-.43-1.35,4,4,0,0,0-.63-1,1,1,0,0,0-.77-.35.94.94,0,0,0-.59.4,2.32,2.32,0,0,0-.3.89,4.47,4.47,0,0,0,1.36,3.85.53.53,0,0,1,.25.18l.11.15a.49.49,0,0,1,0,.65A.47.47,0,0,1,117.17,118.49Z" fill="#231f20"></path><ellipse cx="123.04" cy="112.11" rx="0.82" ry="0.32" transform="translate(6.11 230.58) rotate(-87.71)" fill="#231f20"></ellipse><path d="M109.45,125.32l.9-2.44,9.88,1.59.73,3.83A19.55,19.55,0,0,1,109.45,125.32Z" fill="#231f20"></path><path d="M119.85,128.85a20.58,20.58,0,0,1-10.66-3.11.5.5,0,0,1-.21-.59l.9-2.44a.52.52,0,0,1,.55-.33l9.88,1.6a.5.5,0,0,1,.42.4l.72,3.83a.49.49,0,0,1-.09.39.47.47,0,0,1-.34.2A10.39,10.39,0,0,1,119.85,128.85Zm-9.78-3.75a19.52,19.52,0,0,0,10.29,2.74l-.55-2.93-9.13-1.47Z" fill="#231f20"></path><path d="M140.81,157a46.69,46.69,0,0,0,4.47,1.92c.69.1,2-1.61,2.77-1.12s3.45,3.57,3.45,4.06-1.22,4.24-2.28,4a17.54,17.54,0,0,1-3.26-1.37l-6.89-1" fill="#fff"></path><path d="M149.3,166.43l-.17,0A16.66,16.66,0,0,1,145.8,165l-6.8-1a.49.49,0,0,1-.42-.56.51.51,0,0,1,.57-.43l6.88,1,.17,0a15.74,15.74,0,0,0,3.11,1.33c.53-.09,1.65-2.87,1.69-3.56a19.49,19.49,0,0,0-3.21-3.63c-.16-.1-.78.34-1.08.55a2.24,2.24,0,0,1-1.5.64,39,39,0,0,1-4.62-2,.49.49,0,0,1-.23-.66.5.5,0,0,1,.66-.24,37.89,37.89,0,0,0,4.34,1.87,3,3,0,0,0,.77-.47c.66-.46,1.47-1,2.19-.57s3.68,3.65,3.68,4.48c0,.49-.89,3.37-1.94,4.24A1.18,1.18,0,0,1,149.3,166.43Z" fill="#231f20"></path><path d="M124,129.82s2.7,20.44,4.17,20.44S143.65,157,143.65,157L141.26,166s-17.94-2.6-21.83-4.49c-2.06-1-5.62-23-5.62-23Z" fill="#00e690"></path><path d="M123.45,128.74c-5.39-2.91-12.8-7.86-22.18-.6s-13.79,48.09-13.79,48.09l35.13-2.7S128.49,131.45,123.45,128.74Z" fill="#00e690"></path><path d="M117.46,160.63a.49.49,0,0,1-.49-.4c0-.13-2.46-12.85-3.9-21.88a.5.5,0,0,1,.41-.57.52.52,0,0,1,.58.42c1.43,9,3.86,21.71,3.89,21.84a.5.5,0,0,1-.4.58Z" fill="#231f20"></path><path d="M139.58,155.87a.51.51,0,0,1-.17,0l-13.28-4.59a.52.52,0,0,1-.34-.44c0-.17-1.17-16.61-2.45-20.41a.51.51,0,0,1,.31-.64.52.52,0,0,1,.64.32c1.23,3.66,2.3,17.9,2.48,20.33l13,4.49a.5.5,0,0,1-.16,1Z" fill="#231f20"></path><path d="M144,144s3.44-2.88,4.56-2.82,5.34.56,4.14,1.47-4.25.48-4.25.48.35.37-1.08,1.38" fill="#fff"></path><path d="M147.33,145a.5.5,0,0,1-.29-.91,2.82,2.82,0,0,0,.89-.83.53.53,0,0,1,0-.37.5.5,0,0,1,.51-.26,7.71,7.71,0,0,0,3.73-.3,13.94,13.94,0,0,0-3.72-.66c-.6-.06-2.63,1.38-4.21,2.71a.52.52,0,0,1-.71-.07.49.49,0,0,1,.06-.7c.85-.71,3.72-3,4.91-2.94.18,0,4.43.24,4.8,1.44a.81.81,0,0,1-.37.92c-1.06.8-3.14.73-4.12.64a3.8,3.8,0,0,1-1.23,1.24A.52.52,0,0,1,147.33,145Zm.72-1.54Zm0,0Zm0,0Zm0,0Z" fill="#231f20"></path><path d="M108.66,247.92v6.36s16.15.8,15.92-.45-8.18-5.35-8.18-5.35Z" fill="#231f20"></path><path d="M117.78,255c-3.29,0-6.93-.15-9.14-.26a.5.5,0,0,1-.48-.5v-6.36a.51.51,0,0,1,.16-.37.48.48,0,0,1,.38-.13l7.73.57a.41.41,0,0,1,.19,0c2.46,1.26,8.21,4.35,8.46,5.7a.66.66,0,0,1-.16.55C124.41,254.87,121.3,255,117.78,255Zm-8.62-1.23c6.41.3,13.27.33,14.79-.1-.78-.88-4.4-3-7.69-4.73l-7.1-.53Z" fill="#231f20"></path><path d="M271.07,45.47a8.59,8.59,0,0,0-8.59,8.59v8.58H116.07V54.06a8.59,8.59,0,0,1,8.59-8.59Z" fill="#00e690"></path><path d="M262.48,63.14H116.07a.51.51,0,0,1-.5-.5V54.06A9.1,9.1,0,0,1,124.66,45H271.07a.5.5,0,0,1,.5.5.5.5,0,0,1-.5.5A8.1,8.1,0,0,0,263,54.06v8.58A.5.5,0,0,1,262.48,63.14Zm-145.91-1H262V54.06A9.11,9.11,0,0,1,266.93,46H124.66a8.1,8.1,0,0,0-8.09,8.09Z" fill="#231f20"></path><rect x="203.59" y="98.77" width="11.1" height="45.77" fill="#00e690"></rect><path d="M214.69,145h-11.1a.5.5,0,0,1-.5-.5V98.77a.51.51,0,0,1,.5-.5h11.1a.5.5,0,0,1,.5.5v45.77A.5.5,0,0,1,214.69,145Zm-10.6-1h10.1V99.27h-10.1Z" fill="#231f20"></path><rect x="203.59" y="98.77" width="11.1" height="16.79" fill="#fff"></rect><path d="M214.69,116.06h-11.1a.5.5,0,0,1-.5-.5V98.77a.51.51,0,0,1,.5-.5h11.1a.5.5,0,0,1,.5.5v16.79A.5.5,0,0,1,214.69,116.06Zm-10.6-1h10.1V99.27h-10.1Z" fill="#231f20"></path><rect x="220.21" y="98.77" width="11.1" height="45.77" fill="#00e690"></rect><path d="M231.3,145H220.21a.5.5,0,0,1-.5-.5V98.77a.5.5,0,0,1,.5-.5H231.3a.5.5,0,0,1,.5.5v45.77A.5.5,0,0,1,231.3,145Zm-10.59-1H230.8V99.27H220.71Z" fill="#231f20"></path><rect x="220.21" y="98.77" width="11.1" height="22.88" fill="#fff"></rect><path d="M231.3,122.16H220.21a.5.5,0,0,1-.5-.5V98.77a.5.5,0,0,1,.5-.5H231.3a.5.5,0,0,1,.5.5v22.89A.5.5,0,0,1,231.3,122.16Zm-10.59-1H230.8V99.27H220.71Z" fill="#231f20"></path><rect x="236.82" y="98.77" width="11.1" height="45.77" fill="#00e690"></rect><path d="M247.92,145h-11.1a.5.5,0,0,1-.5-.5V98.77a.5.5,0,0,1,.5-.5h11.1a.51.51,0,0,1,.5.5v45.77A.5.5,0,0,1,247.92,145Zm-10.6-1h10.1V99.27h-10.1Z" fill="#231f20"></path><rect x="236.82" y="98.77" width="11.1" height="8.4" fill="#fff"></rect><path d="M247.92,107.67h-11.1a.5.5,0,0,1-.5-.5v-8.4a.5.5,0,0,1,.5-.5h11.1a.51.51,0,0,1,.5.5v8.4A.51.51,0,0,1,247.92,107.67Zm-10.6-1h10.1v-7.4h-10.1Z" fill="#231f20"></path><rect x="253.43" y="98.77" width="11.1" height="45.77" fill="#00e690"></rect><path d="M264.53,145h-11.1a.5.5,0,0,1-.5-.5V98.77a.5.5,0,0,1,.5-.5h11.1a.51.51,0,0,1,.5.5v45.77A.5.5,0,0,1,264.53,145Zm-10.6-1H264V99.27h-10.1Z" fill="#231f20"></path><rect x="253.43" y="98.77" width="11.1" height="17.48" fill="#fff"></rect><path d="M264.53,116.75h-11.1a.5.5,0,0,1-.5-.5V98.77a.5.5,0,0,1,.5-.5h11.1a.51.51,0,0,1,.5.5v17.48A.5.5,0,0,1,264.53,116.75Zm-10.6-1H264V99.27h-10.1Z" fill="#231f20"></path><path d="M177.84,176.73a.5.5,0,0,1-.5-.5V153.4a.5.5,0,0,1,.5-.5.51.51,0,0,1,.5.5v22.83A.5.5,0,0,1,177.84,176.73Z" fill="#d1d3d4"></path><path d="M238,176.73a.5.5,0,0,1-.5-.5V153.4a.51.51,0,0,1,.5-.5.5.5,0,0,1,.5.5v22.83A.5.5,0,0,1,238,176.73Z" fill="#d1d3d4"></path><path d="M272.06,145H193.88a.5.5,0,0,1,0-1h78.18a.5.5,0,0,1,0,1Z" fill="#231f20"></path><path d="M141.41,86.75a.54.54,0,0,1-.25-.06A.52.52,0,0,1,141,86a29.36,29.36,0,0,1,8-9c2.54-1.86,4.75-2.56,6.75-2.13A10.11,10.11,0,0,1,160,77.55c.37.32.74.65,1.11,1a14.92,14.92,0,0,0,3.65,2.15,4,4,0,0,0,1.73.38,3.59,3.59,0,0,0,1.87-.91,25.8,25.8,0,0,0,2.39-2.29,14.69,14.69,0,0,1,4.43-3.59,7.9,7.9,0,0,1,7.83.88,15.47,15.47,0,0,1,1.52,1.39,16.73,16.73,0,0,0,1.24,1.16c2.59,2.09,6.67,2.42,10.42.86,3.53-1.47,6.44-4.31,8.9-6.85a.5.5,0,0,1,.71,0,.51.51,0,0,1,0,.71c-2.53,2.61-5.53,5.52-9.24,7.07-4.07,1.71-8.56,1.31-11.43-1-.47-.39-.9-.82-1.32-1.24a14.15,14.15,0,0,0-1.42-1.29,6.86,6.86,0,0,0-6.81-.77,13.89,13.89,0,0,0-4.12,3.36A25.61,25.61,0,0,1,169,80.9a4.6,4.6,0,0,1-2.4,1.13,4.8,4.8,0,0,1-2.2-.46,15.55,15.55,0,0,1-3.89-2.29c-.39-.31-.77-.64-1.15-1a9.3,9.3,0,0,0-3.86-2.41c-1.71-.37-3.65.28-6,2a28.09,28.09,0,0,0-7.73,8.65A.5.5,0,0,1,141.41,86.75Z" fill="#d1d3d4"></path><path d="M262.77,75.65H221.66a.51.51,0,0,1-.5-.5.5.5,0,0,1,.5-.5h41.11a.5.5,0,0,1,.5.5A.5.5,0,0,1,262.77,75.65Z" fill="#d1d3d4"></path><path d="M262.77,81.2H246a.5.5,0,0,1-.5-.5.5.5,0,0,1,.5-.5h16.75a.5.5,0,0,1,.5.5A.5.5,0,0,1,262.77,81.2Z" fill="#d1d3d4"></path><path d="M239,81.2H221.66a.5.5,0,0,1-.5-.5.51.51,0,0,1,.5-.5H239a.51.51,0,0,1,.5.5A.5.5,0,0,1,239,81.2Z" fill="#d1d3d4"></path><path d="M262.77,86.76h-35.9a.5.5,0,0,1-.5-.5.5.5,0,0,1,.5-.5h35.9a.5.5,0,0,1,.5.5A.5.5,0,0,1,262.77,86.76Z" fill="#d1d3d4"></path></g></svg>