<?xml version="1.0" encoding="utf-8"?>
<!-- Generator: Adobe Illustrator 23.0.2, SVG Export Plug-In . SVG Version: 6.00 Build 0)  -->
<svg version="1.1" id="Camada_1" xmlns="http://www.w3.org/2000/svg" xmlns:xlink="http://www.w3.org/1999/xlink" x="0px" y="0px"
	 viewBox="0 0 406 306" style="enable-background:new 0 0 406 306;" xml:space="preserve">
<style type="text/css">
	.st0{fill:#FFFFFF;}
	.st1{fill:#231F20;}
	.st2{fill:#0B6567;}
	.st3{fill:#D1D3D4;}
</style>
<g id="_561_online_report_flatline">
	<path class="st0" d="M100.5,73.8h212.9c3.9,0,7.1,3.2,7.1,7.1v131.2c0,3.9-3.2,7.1-7.1,7.1H100.5c-3.9,0-7.1-3.2-7.1-7.1V80.9
		C93.4,77,96.6,73.8,100.5,73.8z"/>
	<path class="st1" d="M313.4,219.7H100.5c-4.2,0-7.6-3.4-7.6-7.6V80.9c0-4.2,3.4-7.6,7.6-7.6h212.9c4.2,0,7.6,3.4,7.6,7.6v131.2
		C321,216.3,317.6,219.7,313.4,219.7z M100.5,74.3c-3.6,0-6.6,3-6.6,6.6v131.2c0,3.6,3,6.6,6.6,6.6h212.9c3.6,0,6.6-3,6.6-6.6V80.9
		c0-3.6-3-6.6-6.6-6.6H100.5z"/>
	<path class="st1" d="M320.5,196.7H93.4c-0.3,0-0.5-0.2-0.5-0.5c0-0.3,0.2-0.5,0.5-0.5h227.1c0.3,0,0.5,0.2,0.5,0.5
		C321,196.5,320.8,196.7,320.5,196.7z"/>
	<polygon class="st0" points="236,247.3 178,247.3 188.7,219.2 225.3,219.2 	"/>
	<path class="st1" d="M236,247.9h-58c-0.2,0-0.3-0.1-0.4-0.2c-0.1-0.1-0.1-0.3-0.1-0.5l10.7-28.1c0.1-0.2,0.3-0.3,0.5-0.3h36.7
		c0.2,0,0.4,0.1,0.5,0.3l10.7,28.1c0.1,0.3,0,0.6-0.3,0.7C236.1,247.8,236.1,247.9,236,247.9L236,247.9z M178.7,246.8h56.6
		L225,219.7H189L178.7,246.8z"/>
	<path class="st0" d="M171.1,245.7h71.7c1.9,0,3.4,1.5,3.4,3.4v0.8c0,1.9-1.5,3.4-3.4,3.4h-71.7c-1.9,0-3.4-1.5-3.4-3.4v-0.8
		C167.7,247.2,169.3,245.7,171.1,245.7z"/>
	<path class="st1" d="M242.8,253.8h-71.7c-2.2,0-3.9-1.7-3.9-3.9v0v-0.8c0-2.2,1.7-3.9,3.9-3.9h71.7c2.2,0,3.9,1.8,3.9,3.9v0.8
		C246.7,252,245,253.8,242.8,253.8L242.8,253.8z M171.1,246.2c-1.6,0-2.9,1.3-2.9,2.9v0.8c0,1.6,1.3,2.9,2.9,2.9h71.7
		c1.6,0,2.9-1.3,2.9-2.9v-0.8c0-1.6-1.3-2.9-2.9-2.9H171.1z"/>
	<rect x="101.6" y="80.7" class="st2" width="210.9" height="106.7"/>
	<rect x="101.6" y="80.7" class="st3" width="210.9" height="106.7"/>
	<polygon class="st1" points="183.4,232.1 226.6,223.7 224.9,219.2 188.3,219.2 	"/>
	<path class="st1" d="M183.4,232.6c-0.3,0-0.5-0.2-0.5-0.5c0-0.1,0-0.1,0-0.2l4.9-12.8c0.1-0.2,0.3-0.3,0.5-0.3h36.6
		c0.2,0,0.4,0.1,0.5,0.3l1.7,4.4c0.1,0.1,0.1,0.3,0,0.4c-0.1,0.1-0.2,0.2-0.4,0.3l-43.2,8.4L183.4,232.6z M188.6,219.7l-4.4,11.7
		l41.7-8.1l-1.3-3.6L188.6,219.7z"/>
	<path class="st0" d="M283.9,55.6v131.7H130.2V46.9h145C280,46.9,283.9,50.8,283.9,55.6z"/>
	<path class="st1" d="M283.9,187.8H130.2c-0.3,0-0.5-0.2-0.5-0.5V46.9c0-0.3,0.2-0.5,0.5-0.5h145c5.1,0,9.2,4.1,9.2,9.2
		c0,0,0,0,0,0.1v131.7C284.4,187.6,284.1,187.8,283.9,187.8z M130.7,186.8h152.7V55.6c0-4.5-3.7-8.2-8.2-8.2c0,0,0,0,0,0H130.7
		V186.8z"/>
	<path class="st3" d="M204.7,92.7h-65.5c-0.3,0-0.5-0.2-0.5-0.5V69.2c0-0.3,0.2-0.5,0.5-0.5c0.3,0,0.5,0.2,0.5,0.5v22.4h65
		c0.3,0,0.5,0.2,0.5,0.5C205.2,92.4,205,92.7,204.7,92.7z"/>
	<path class="st3" d="M192,147.9h-52.1c-0.3,0-0.5-0.2-0.5-0.5V99.6c0-0.3,0.2-0.5,0.5-0.5H192c0.3,0,0.5,0.2,0.5,0.5v47.9
		C192.5,147.7,192.3,147.9,192,147.9z M140.4,146.9h51.1v-46.8h-51.1L140.4,146.9z"/>
	<path class="st3" d="M273.6,180.1H142.9c-0.3,0-0.5-0.2-0.5-0.5v-23.2c0-0.3,0.2-0.5,0.5-0.5h130.7c0.3,0,0.5,0.2,0.5,0.5v23.2
		C274.1,179.9,273.9,180.1,273.6,180.1z M143.4,179.1H273V157H143.4V179.1z"/>
	<path class="st3" d="M273.6,165.2H142.9c-0.3,0-0.5-0.2-0.5-0.5c0-0.3,0.2-0.5,0.5-0.5h130.7c0.3,0,0.5,0.2,0.5,0.5
		C274.1,165,273.9,165.2,273.6,165.2z"/>
	<path class="st1" d="M86.4,250v7.5c0,0,17.2,2,16.8,1.2c-0.4-0.8-9.8-7.5-9.8-7.5L86.4,250z"/>
	<path class="st1" d="M101.9,259.3c-2,0-6.2-0.3-15.5-1.4c-0.3,0-0.5-0.2-0.5-0.5V250c0-0.1,0.1-0.3,0.2-0.4
		c0.1-0.1,0.3-0.1,0.4-0.1l6.9,1.2c0.1,0,0.2,0,0.2,0.1c2.9,2,9.6,6.9,10,7.7c0.1,0.2,0.1,0.4,0,0.6
		C103.5,259.1,103.4,259.3,101.9,259.3z M86.9,257c6.2,0.7,12.9,1.3,15.2,1.3c-1.5-1.2-5.4-4.1-9-6.7l-6.2-1L86.9,257z"/>
	<polygon class="st0" points="86.4,243.4 86.4,250 93.3,251.1 94.5,243.4 	"/>
	<path class="st1" d="M93.4,251.6L93.4,251.6l-7.1-1.2c-0.2,0-0.4-0.2-0.4-0.5v-6.6c0-0.3,0.2-0.5,0.5-0.5h8.1
		c0.1,0,0.3,0.1,0.4,0.2c0.1,0.1,0.1,0.3,0.1,0.4l-1.2,7.7c0,0.1-0.1,0.3-0.2,0.3C93.6,251.6,93.5,251.6,93.4,251.6z M87,249.5l6,1
		l1-6.6h-7.1L87,249.5z"/>
	<polygon class="st0" points="110.3,245.3 110.3,252.4 118.1,253 118.6,245.3 	"/>
	<path class="st1" d="M118.1,253.5L118.1,253.5l-7.8-0.6c-0.3,0-0.5-0.2-0.5-0.5v-7c0-0.3,0.2-0.5,0.5-0.5h8.3
		c0.1,0,0.3,0.1,0.4,0.2c0.1,0.1,0.1,0.2,0.1,0.4l-0.5,7.6c0,0.1-0.1,0.3-0.2,0.4C118.4,253.5,118.3,253.5,118.1,253.5z
		 M110.8,251.9l6.9,0.5l0.4-6.6h-7.3V251.9z"/>
	<polygon class="st1" points="121.9,174 119.4,246.8 109.1,246.8 103.8,192.6 95.3,245.9 85.5,245.3 90.9,174.6 	"/>
	<path class="st1" d="M119.4,247.3h-10.2c-0.3,0-0.5-0.2-0.5-0.5l-5-50.3L95.8,246c0,0.3-0.3,0.4-0.5,0.4l-9.8-0.5
		c-0.3,0-0.5-0.3-0.5-0.5c0,0,0,0,0,0l5.4-70.7c0-0.3,0.2-0.5,0.5-0.5l31-0.6c0.1,0,0.3,0.1,0.4,0.2c0.1,0.1,0.1,0.2,0.1,0.4
		l-2.5,72.8C119.9,247.1,119.6,247.3,119.4,247.3z M109.6,246.3h9.3l2.5-71.7l-30,0.6L86,244.9l8.8,0.5l8.4-52.8
		c0-0.3,0.2-0.5,0.5-0.5c0.3,0,0.5,0.2,0.5,0.5L109.6,246.3z"/>
	<path class="st0" d="M143.1,153.5c2-0.8,4.1-1.3,6.2-1.4c3.5-0.2,4.9-2.4,4.8-3.9s-3.4-2.8-5.6-2.4s-7.4,3.9-7.4,3.9L143.1,153.5z"
		/>
	<path class="st1" d="M143.1,154c-0.2,0-0.4-0.1-0.4-0.3l-2.1-3.8c-0.1-0.2-0.1-0.5,0.2-0.7c0.2-0.2,5.3-3.6,7.6-3.9
		c1.8-0.2,3.7,0.2,5.2,1.3c0.5,0.4,0.9,1,1,1.6c0.1,1-0.3,1.9-0.9,2.6c-1.1,1.2-2.7,1.9-4.3,1.8c-2.1,0.1-4.1,0.6-6,1.3
		C143.2,154,143.2,154,143.1,154z M141.7,149.8l1.6,3c1.9-0.7,3.9-1.1,5.9-1.2c1.3,0,2.6-0.5,3.6-1.5c0.5-0.5,0.7-1.2,0.7-1.9
		c-0.1-0.4-0.3-0.7-0.6-0.9c-1.3-0.9-2.8-1.2-4.4-1C146.7,146.6,142.9,149,141.7,149.8L141.7,149.8z"/>
	<path class="st2" d="M120.4,129.7c0,0,8,19.8,9.6,20.2c1.6,0.4,13.5-3,13.5-3l0.3,7.4c0,0-12.8,7.9-17.7,5.1
		c-4.9-2.7-19.2-17-19.2-17L120.4,129.7z"/>
	<polygon class="st1" points="150.7,148 157.2,152.2 165.6,139 159.1,134.9 	"/>
	<path class="st1" d="M157.2,152.7c-0.1,0-0.2,0-0.3-0.1l-6.4-4.2c-0.2-0.1-0.3-0.5-0.2-0.7c0,0,0,0,0,0l8.4-13.2
		c0.1-0.1,0.2-0.2,0.3-0.2c0.1,0,0.3,0,0.4,0.1l6.4,4.2c0.2,0.1,0.3,0.5,0.2,0.7c0,0,0,0,0,0l-8.4,13.2c-0.1,0.1-0.2,0.2-0.3,0.2
		L157.2,152.7z M151.4,147.9l5.6,3.6l7.9-12.3l-5.6-3.6L151.4,147.9z"/>
	<polyline class="st1" points="157.4,138.6 187.8,91.1 192.7,94.3 	"/>
	<path class="st1" d="M157.4,139.1c-0.1,0-0.2,0-0.3-0.1c-0.2-0.2-0.3-0.5-0.2-0.7l30.3-47.5c0.1-0.1,0.2-0.2,0.3-0.2
		c0.1,0,0.3,0,0.4,0.1l4.9,3.2c0.2,0.2,0.3,0.5,0.1,0.7c-0.2,0.2-0.4,0.3-0.7,0.1l-4.5-2.9l-30,47
		C157.8,139,157.6,139.1,157.4,139.1z"/>
	<ellipse transform="matrix(0.5252 -0.851 0.851 0.5252 -16.166 207.1112)" class="st1" cx="177.5" cy="118" rx="28.2" ry="22.7"/>
	<path class="st1" d="M172.9,145.3c-3.8,0-7.6-1.1-10.8-3.1c-10.7-7-12.5-23.5-4.1-36.8l0,0c4.7-7.3,11.7-12.4,19.2-14.1
		c5.4-1.3,11-0.3,15.7,2.6c10.7,7,12.6,23.5,4.1,36.8c-4.7,7.3-11.7,12.5-19.2,14.1C176.2,145.1,174.5,145.3,172.9,145.3z
		 M158.9,105.9c-8.2,12.8-6.5,28.7,3.7,35.4c4.4,2.8,9.8,3.7,14.9,2.5c7.3-1.6,14-6.5,18.6-13.6c8.2-12.8,6.5-28.7-3.7-35.4
		c-4.4-2.8-9.8-3.7-14.9-2.5C170.2,93.9,163.4,98.8,158.9,105.9z"/>
	
		<ellipse transform="matrix(0.5291 -0.8486 0.8486 0.5291 -16.4562 201.4863)" class="st0" cx="173.3" cy="115.6" rx="28.2" ry="22.8"/>
	<path class="st1" d="M168,142.1c-3.8,0-7.6-1.1-10.8-3.1c-10.7-7-12.6-23.5-4.1-36.8c4.7-7.3,11.7-12.4,19.2-14.1
		c5.4-1.3,11-0.3,15.7,2.6c10.7,7,12.5,23.5,4.1,36.8c-4.7,7.3-11.7,12.5-19.2,14.1C171.3,141.9,169.6,142.1,168,142.1z M177.3,88.6
		c-1.6,0-3.2,0.2-4.7,0.5c-7.3,1.6-14,6.5-18.6,13.6c-8.2,12.8-6.5,28.7,3.7,35.4c4.4,2.8,9.8,3.7,14.9,2.5
		c7.3-1.6,14-6.5,18.6-13.6c8.2-12.8,6.5-28.7-3.7-35.4C184.4,89.6,180.9,88.5,177.3,88.6L177.3,88.6z"/>
	<ellipse transform="matrix(0.5252 -0.851 0.851 0.5252 -15.7841 201.4072)" class="st0" cx="172.6" cy="114.8" rx="22.3" ry="18"/>
	<path class="st1" d="M169,136.5c-3.1,0-6.1-0.8-8.6-2.5c-8.5-5.6-10-18.7-3.2-29.3c3.4-5.6,8.9-9.6,15.2-11.2c4.3-1,8.8-0.3,12.5,2
		c8.5,5.6,10,18.7,3.2,29.3c-3.4,5.6-8.9,9.6-15.2,11.2C171.6,136.4,170.3,136.5,169,136.5z M176.3,94.1c-1.2,0-2.5,0.1-3.7,0.4
		c-6.1,1.5-11.4,5.4-14.6,10.7c-6.5,10.2-5.1,22.6,2.9,27.9c3.5,2.2,7.7,2.9,11.7,1.9c6.1-1.5,11.4-5.4,14.6-10.7
		c6.5-10.2,5.2-22.6-2.9-27.9C181.9,94.9,179.1,94.1,176.3,94.1z"/>
	<path class="st1" d="M157.5,105c-6.6,10.4-5.2,23.2,3,28.6c0.5,0.4,1.1,0.7,1.7,0.9c-6.9-5.9-7.7-17.7-1.5-27.4
		c6.2-9.7,17.2-13.8,25.4-9.9c-0.5-0.4-1-0.8-1.5-1.2C176.3,90.7,164.1,94.7,157.5,105z"/>
	<path class="st1" d="M162.3,135.1c-0.1,0-0.2,0-0.2-0.1c-0.6-0.3-1.2-0.6-1.7-1c-8.5-5.6-10-18.7-3.2-29.3
		c3.4-5.6,8.9-9.6,15.2-11.2c4.3-1,8.8-0.3,12.5,2c0.6,0.4,1.1,0.8,1.6,1.2c0.2,0.2,0.2,0.5,0,0.7c-0.1,0.2-0.4,0.2-0.6,0.1
		c-8.1-3.9-18.7,0.3-24.7,9.7c-6,9.4-5.4,20.9,1.4,26.8c0.2,0.2,0.2,0.5,0.1,0.7C162.5,135,162.4,135,162.3,135.1L162.3,135.1z
		 M176.3,94.1c-1.2,0-2.5,0.1-3.7,0.4c-6.1,1.5-11.4,5.4-14.6,10.7c-6,9.4-5.3,20.9,1.3,26.7c-4.6-6.6-4.3-16.7,1-25.1
		c5.3-8.4,14.4-12.8,22.3-11.3C180.6,94.6,178.4,94.1,176.3,94.1z"/>
	<path class="st0" d="M126.9,188.8l3.3,2.2c1.6,1.1,3.8,0.6,4.9-1c0,0,0,0,0,0l22.9-35.8c1.1-1.6,0.6-3.9-1-4.9l-3.3-2.2
		c-1.6-1.1-3.8-0.6-4.9,1c0,0,0,0,0,0l-22.9,35.8C124.8,185.5,125.2,187.7,126.9,188.8z"/>
	<path class="st1" d="M132.1,192.1c-0.8,0-1.5-0.2-2.2-0.6l-3.3-2.2l0,0c-1.9-1.2-2.4-3.7-1.2-5.6c0,0,0,0,0,0l22.9-35.8
		c1.2-1.9,3.7-2.4,5.6-1.2l3.3,2.2c1.9,1.2,2.4,3.7,1.2,5.6c0,0,0,0,0,0l-22.9,35.8C134.8,191.4,133.5,192.1,132.1,192.1z
		 M127.1,188.4l3.3,2.2c0.7,0.4,1.5,0.6,2.3,0.4c0.8-0.2,1.5-0.7,1.9-1.3l22.9-35.8c0.9-1.4,0.5-3.3-0.9-4.2c0,0,0,0,0,0l-3.3-2.2
		c-0.7-0.4-1.5-0.6-2.3-0.4c-0.8,0.2-1.5,0.7-1.9,1.3l-22.9,35.8C125.3,185.6,125.7,187.4,127.1,188.4
		C127.1,188.4,127.1,188.4,127.1,188.4z"/>
	<path class="st3" d="M162.8,114.6c-0.3,0.1-0.6-0.1-0.6-0.4c-0.1-0.3,0.1-0.6,0.4-0.6l0,0l15-7c0.2-0.1,0.5,0,0.7,0.2c0,0,0,0,0,0
		c0.1,0.3,0,0.6-0.2,0.7c0,0,0,0,0,0l-15,7C163,114.6,162.9,114.6,162.8,114.6z"/>
	<path class="st3" d="M175.1,116.1c-0.3,0.1-0.6-0.1-0.6-0.4s0.1-0.6,0.4-0.6l12.9-6.2c0.3-0.1,0.6,0.1,0.7,0.3
		c0.1,0.2,0,0.5-0.2,0.6l-12.9,6.2C175.2,116.1,175.1,116.1,175.1,116.1z"/>
	<path class="st3" d="M161.7,129.5c-0.2,0-0.4-0.1-0.5-0.3c-0.1-0.3,0-0.6,0.2-0.7c0,0,0,0,0,0l23.9-11.8c0.2-0.2,0.5-0.1,0.7,0.1
		c0.2,0.2,0.1,0.5-0.1,0.7c0,0-0.1,0-0.1,0.1l-23.9,11.8C161.9,129.4,161.8,129.5,161.7,129.5z"/>
	<path class="st0" d="M112.7,122.2c-0.8-0.1-1.6-0.3-2.6-0.4s-2-0.5-2-1.5s1-1.4,0.8-2.1c-0.1-0.2-0.2-0.4-0.3-0.6
		c-1.2-1.8-1.6-4-1.2-6.1c0.4-2.1,1.6-4,3.3-5.3c-0.3,0.1-0.5-0.2-0.5-0.5c0-0.3,0.1-0.5,0.3-0.7c0.7-0.7,1.6-1.2,2.6-1.4
		c3.1-0.7,6.3-0.5,9.3,0.6c2.3,0.8,5,2.9,4.5,5.7c-0.1,1-1,1.9-2,1.9c-0.7,3-2.4,5-4.5,7c-1.4,1.4-3.2,2.5-5.1,3
		C114.4,122.3,113.5,122.4,112.7,122.2z"/>
	<path class="st1" d="M113.5,122.8c-0.3,0-0.6,0-0.9,0l0,0c-0.5-0.1-1-0.2-1.5-0.2l-1.1-0.2c-1.6-0.2-2.5-1-2.4-2
		c0-0.5,0.2-0.9,0.5-1.2c0.2-0.3,0.4-0.6,0.3-0.8c0-0.1-0.1-0.2-0.2-0.4c-1.3-1.9-1.7-4.3-1.3-6.5c0.4-2,1.4-3.8,2.9-5.1
		c-0.1-0.2-0.1-0.3-0.2-0.5c0-0.4,0.2-0.8,0.5-1.1c0.8-0.8,1.8-1.3,2.8-1.5c3.2-0.8,6.6-0.6,9.6,0.6c2.8,1,5.3,3.3,4.8,6.3
		c-0.2,1.1-1,2.1-2.1,2.3c-0.8,2.7-2.4,5.1-4.5,6.9c-1.5,1.5-3.3,2.6-5.3,3.2C114.8,122.7,114.1,122.8,113.5,122.8z M112.7,121.8
		c0.8,0.1,1.6,0,2.4-0.2c1.8-0.6,3.5-1.6,4.9-2.9c2.3-2.3,3.7-4.1,4.4-6.8c0.1-0.2,0.3-0.4,0.5-0.4c0.8-0.1,1.4-0.7,1.5-1.5
		c0.4-2.7-2.4-4.5-4.2-5.1c-2.9-1.1-6-1.3-9-0.6c-0.9,0.2-1.7,0.6-2.3,1.2c-0.1,0.1-0.2,0.2-0.2,0.3c0.2,0,0.4,0.1,0.5,0.3
		c0.1,0.2,0,0.5-0.2,0.6c-1.6,1.2-2.8,3-3.1,5c-0.4,2,0.1,4.1,1.2,5.8c0.2,0.2,0.3,0.5,0.4,0.7c0.1,0.6-0.1,1.1-0.5,1.5
		c-0.2,0.2-0.3,0.5-0.3,0.7c0,0.5,0.8,0.8,1.6,0.9c0.4,0.1,0.8,0.1,1.2,0.2C111.6,121.6,112.2,121.7,112.7,121.8z"/>
	<path class="st0" d="M125.4,116.5c0,0,1.9,3.7,1.4,4.4c-0.5,0.7-2,0-2,0"/>
	<path class="st1" d="M126,121.6c-0.5,0-1-0.1-1.5-0.3c-0.3-0.1-0.4-0.4-0.2-0.7c0.1-0.2,0.4-0.4,0.6-0.3c0.5,0.2,1.3,0.3,1.5,0.1
		c-0.3-1.3-0.8-2.6-1.5-3.8c-0.1-0.2-0.1-0.6,0.2-0.7c0.2-0.1,0.6-0.1,0.7,0.2c0,0,0,0,0,0.1c1,1.8,2,4.2,1.4,4.9
		C126.9,121.4,126.4,121.6,126,121.6z"/>
	<path class="st0" d="M125.3,111.8c1.3,1.3,0.7,3.8,0.5,5.5c-0.2,2.3-0.5,4.6-0.9,6.9c-0.2,1.5-4,1.1-4.6,0.6v5.8l-7.6-3.9l0.8-4.7
		c1.8,0,3.5-1,4.3-2.5c1.7-2.8,2.2-9.3,2.2-9.3S124,110.5,125.3,111.8z"/>
	<path class="st1" d="M120.4,131.1c-0.1,0-0.2,0-0.2-0.1l-7.6-3.9c-0.2-0.1-0.3-0.3-0.3-0.5l0.8-4.7c0-0.3,0.3-0.5,0.5-0.4
		c1.6,0,3.1-0.9,3.8-2.3c1.7-2.7,2-9,2-9.1c0-0.3,0.3-0.5,0.6-0.5c0,0,0,0,0,0c0.4,0,4.2,0.4,5.6,1.8l0,0c1.3,1.3,1,3.3,0.8,5
		c0,0.3-0.1,0.6-0.1,0.9c-0.2,2.3-0.5,4.6-0.9,6.9c-0.1,0.6-0.5,1-1.1,1.2c-1.1,0.3-2.3,0.4-3.5,0.1v5.1
		C120.8,130.8,120.6,131,120.4,131.1L120.4,131.1z M113.4,126.4l6.5,3.3v-5c0-0.2,0.1-0.4,0.3-0.5c0.2-0.1,0.4-0.1,0.5,0.1
		c1.1,0.4,2.2,0.4,3.3,0.1c0.3-0.1,0.4-0.2,0.4-0.4c0.3-2.3,0.6-4.6,0.9-6.9c0-0.3,0-0.6,0.1-0.9c0.2-1.4,0.4-3.2-0.5-4.1l0,0
		c-0.8-0.8-3.2-1.3-4.5-1.5c-0.1,1.6-0.7,6.6-2.2,9c-0.9,1.6-2.5,2.6-4.3,2.8L113.4,126.4z"/>
	<path class="st0" d="M125.1,122.4c-0.9,0.5-2,0.2-2.5-0.7c0-0.1-0.1-0.2-0.1-0.3"/>
	<path class="st1" d="M124.1,123.1c-0.3,0-0.6,0-0.8-0.1c-0.6-0.3-1.1-0.8-1.3-1.4c-0.1-0.3,0-0.6,0.3-0.7c0.3-0.1,0.5,0,0.7,0.3
		c0,0,0,0,0,0c0.1,0.4,0.4,0.7,0.7,0.8c0.4,0.1,0.8,0.1,1.2-0.1c0.3-0.1,0.6,0,0.7,0.2c0.1,0.2,0,0.5-0.2,0.7c0,0,0,0,0,0
		C124.9,123,124.5,123.1,124.1,123.1z"/>
	<path class="st0" d="M120.9,117.5c0-0.6-0.2-1.2-0.5-1.6c-0.2-0.4-0.4-0.8-0.7-1.1c-0.3-0.3-0.7-0.5-1.2-0.5c-0.4,0-0.8,0.3-1,0.6
		c-0.2,0.3-0.3,0.7-0.4,1.1c-0.2,1.8,0.5,3.5,1.8,4.6l-0.1-0.2"/>
	<path class="st1" d="M118.9,121c-0.1,0-0.2,0-0.3-0.1c-1.5-1.2-2.3-3.1-2-5.1c0.1-0.5,0.2-0.9,0.5-1.3c0.3-0.5,0.8-0.8,1.3-0.8
		c0.6,0,1.2,0.2,1.6,0.6c0.3,0.4,0.6,0.8,0.8,1.3c0.4,0.6,0.6,1.2,0.5,1.9c0,0.3-0.3,0.5-0.5,0.5c-0.3,0-0.5-0.3-0.5-0.5
		c0,0,0,0,0,0c0-0.5-0.2-1-0.4-1.4c-0.2-0.4-0.4-0.7-0.6-1c-0.2-0.2-0.5-0.4-0.8-0.4c-0.2,0.1-0.5,0.2-0.6,0.4
		c-0.2,0.3-0.3,0.6-0.3,0.9c-0.2,1.4,0.3,2.9,1.4,3.9c0.1,0,0.2,0.1,0.3,0.2l0.1,0.2c0.2,0.2,0.2,0.5,0,0.7
		C119.2,121,119.1,121,118.9,121z"/>
	
		<ellipse transform="matrix(3.995742e-02 -0.9992 0.9992 3.995742e-02 5.444 234.7653)" class="st1" cx="124.9" cy="114.5" rx="0.8" ry="0.3"/>
	<path class="st1" d="M111.1,127.9l0.9-2.5l10,1.6l0.7,3.9C118.7,131.2,114.6,130.1,111.1,127.9z"/>
	<path class="st1" d="M121.6,131.5c-3.8,0-7.6-1.1-10.8-3.2c-0.2-0.1-0.3-0.4-0.2-0.6l0.9-2.5c0.1-0.2,0.3-0.4,0.6-0.3l10,1.6
		c0.2,0,0.4,0.2,0.4,0.4l0.7,3.9c0,0.1,0,0.3-0.1,0.4c-0.1,0.1-0.2,0.2-0.3,0.2C122.4,131.5,122,131.5,121.6,131.5z M111.7,127.7
		c3.2,1.9,6.8,2.8,10.4,2.8l-0.6-3l-9.3-1.5L111.7,127.7z"/>
	<path class="st0" d="M142.9,160.1c1.5,0.7,3,1.4,4.5,1.9c0.7,0.1,2-1.6,2.8-1.1c0.8,0.5,3.5,3.6,3.5,4.1c0,0.5-1.2,4.3-2.3,4.1
		c-1.1-0.4-2.3-0.8-3.3-1.4l-7-1"/>
	<path class="st1" d="M151.5,169.7h-0.2c-1.2-0.4-2.3-0.8-3.4-1.5l-6.9-1c-0.3,0-0.5-0.3-0.4-0.6c0,0,0,0,0,0c0-0.3,0.3-0.5,0.6-0.4
		l7,1h0.2c1,0.6,2.1,1,3.2,1.3c0.5-0.1,1.7-2.9,1.7-3.6c-0.9-1.4-2-2.6-3.3-3.7c-0.2-0.1-0.8,0.3-1.1,0.6c-0.4,0.4-1,0.6-1.5,0.6
		c-1.6-0.6-3.2-1.3-4.7-2c-0.2-0.1-0.4-0.4-0.2-0.7c0,0,0,0,0,0c0.1-0.3,0.4-0.4,0.7-0.2c1.4,0.7,2.9,1.4,4.4,1.9
		c0.3-0.1,0.5-0.3,0.8-0.5c0.7-0.5,1.5-1,2.2-0.6c0.7,0.4,3.7,3.7,3.7,4.5c0,0.5-0.9,3.4-2,4.3C152.1,169.5,151.8,169.6,151.5,169.7
		z"/>
	<path class="st2" d="M125.9,132.5c0,0,2.7,20.7,4.2,20.7s15.7,6.8,15.7,6.8l-2.4,9.1c0,0-18.2-2.6-22.2-4.6
		c-2.1-1-5.7-23.3-5.7-23.3L125.9,132.5z"/>
	<path class="st2" d="M125.3,131.4c-5.5-3-13-8-22.5-0.6c-9.5,7.4-14,48.8-14,48.8l35.7-2.7C124.4,176.9,130.4,134.2,125.3,131.4z"
		/>
	<path class="st1" d="M119.2,163.8c-0.2,0-0.5-0.2-0.5-0.4c0-0.1-2.5-13-4-22.2c0-0.3,0.1-0.5,0.4-0.6c0.3,0,0.5,0.2,0.6,0.4
		c1.5,9.1,3.9,22,3.9,22.2C119.8,163.5,119.6,163.7,119.2,163.8L119.2,163.8z"/>
	<path class="st1" d="M141.7,159c-0.1,0-0.1,0-0.2,0l-13.5-4.7c-0.2-0.1-0.3-0.2-0.3-0.4c0-0.2-1.2-16.9-2.5-20.7
		c-0.1-0.3,0.1-0.6,0.3-0.6c0.3-0.1,0.6,0.1,0.6,0.3c1.2,3.7,2.3,18.2,2.5,20.6l13.2,4.6c0.3,0,0.5,0.3,0.4,0.6
		C142.2,158.9,142,159.1,141.7,159L141.7,159z"/>
	<path class="st0" d="M146.2,146.9c0,0,3.5-2.9,4.6-2.9s5.4,0.6,4.2,1.5c-1.2,0.9-4.3,0.5-4.3,0.5s0.4,0.4-1.1,1.4"/>
	<path class="st1" d="M149.5,147.9c-0.3,0-0.5-0.2-0.5-0.5c0-0.2,0.1-0.3,0.2-0.4c0.4-0.2,0.7-0.5,0.9-0.8c0-0.1,0-0.3,0-0.4
		c0.1-0.2,0.3-0.3,0.5-0.3c1.3,0.2,2.6,0.1,3.8-0.3c-1.2-0.4-2.5-0.6-3.8-0.7c-0.6-0.1-2.7,1.4-4.3,2.8c-0.2,0.2-0.5,0.1-0.7-0.1
		c-0.2-0.2-0.2-0.5,0.1-0.7c0,0,0,0,0,0c0.9-0.7,3.8-3,5-3c0.2,0,4.5,0.2,4.9,1.5c0.1,0.4-0.1,0.7-0.4,0.9c-1.1,0.8-3.2,0.7-4.2,0.6
		c-0.3,0.5-0.7,0.9-1.2,1.3C149.7,147.9,149.6,147.9,149.5,147.9z"/>
	<path class="st1" d="M110.3,252.4v6.5c0,0,16.4,0.8,16.2-0.5s-8.3-5.4-8.3-5.4L110.3,252.4z"/>
	<path class="st1" d="M119.5,259.6c-3.3,0-7-0.2-9.3-0.3c-0.3,0-0.5-0.2-0.5-0.5v-6.5c0-0.1,0.1-0.3,0.2-0.4
		c0.1-0.1,0.2-0.1,0.4-0.1l7.8,0.6c0.1,0,0.1,0,0.2,0c2.5,1.3,8.3,4.4,8.6,5.8c0,0.2,0,0.4-0.2,0.6
		C126.3,259.4,123.1,259.6,119.5,259.6z M110.8,258.3c6.5,0.3,13.5,0.3,15-0.1c-0.8-0.9-4.5-3-7.8-4.8l-7.2-0.5V258.3z"/>
	<path class="st2" d="M275.1,46.9c-4.8,0-8.7,3.9-8.7,8.7v8.7H117.8v-8.7c0-4.8,3.9-8.7,8.7-8.7c0,0,0,0,0,0H275.1z"/>
	<path class="st1" d="M266.4,64.8H117.8c-0.3,0-0.5-0.2-0.5-0.5v-8.7c0-5.1,4.1-9.2,9.2-9.2h148.6c0.3,0,0.5,0.2,0.5,0.5
		s-0.2,0.5-0.5,0.5c-4.5,0-8.2,3.7-8.2,8.2v8.7C266.9,64.6,266.7,64.8,266.4,64.8C266.4,64.8,266.4,64.8,266.4,64.8z M118.3,63.8
		h147.6v-8.2c0-3.4,1.9-6.6,5-8.2H126.5c-4.5,0-8.2,3.7-8.2,8.2V63.8z"/>
	<rect x="206.6" y="101" class="st2" width="11.3" height="46.5"/>
	<path class="st1" d="M217.9,147.9h-11.3c-0.3,0-0.5-0.2-0.5-0.5V101c0-0.3,0.2-0.5,0.5-0.5h11.3c0.3,0,0.5,0.2,0.5,0.5v46.5
		C218.4,147.7,218.2,147.9,217.9,147.9z M207.2,146.9h10.3v-45.4h-10.3V146.9z"/>
	<rect x="206.6" y="101" class="st0" width="11.3" height="17"/>
	<path class="st1" d="M217.9,118.6h-11.3c-0.3,0-0.5-0.2-0.5-0.5v-17c0-0.3,0.2-0.5,0.5-0.5h11.3c0.3,0,0.5,0.2,0.5,0.5v17
		C218.4,118.3,218.2,118.6,217.9,118.6z M207.2,117.5h10.3v-16h-10.3V117.5z"/>
	<rect x="223.5" y="101" class="st2" width="11.3" height="46.5"/>
	<path class="st1" d="M234.8,147.9h-11.3c-0.3,0-0.5-0.2-0.5-0.5V101c0-0.3,0.2-0.5,0.5-0.5h11.3c0.3,0,0.5,0.2,0.5,0.5v46.5
		C235.3,147.7,235,147.9,234.8,147.9z M224,146.9h10.2v-45.4H224V146.9z"/>
	<rect x="223.5" y="101" class="st0" width="11.3" height="23.2"/>
	<path class="st1" d="M234.8,124.7h-11.3c-0.3,0-0.5-0.2-0.5-0.5V101c0-0.3,0.2-0.5,0.5-0.5h11.3c0.3,0,0.5,0.2,0.5,0.5v23.2
		C235.3,124.5,235,124.7,234.8,124.7C234.8,124.7,234.8,124.7,234.8,124.7z M224,123.7h10.2v-22.2H224V123.7z"/>
	<rect x="240.4" y="101" class="st2" width="11.3" height="46.5"/>
	<path class="st1" d="M251.6,147.9h-11.3c-0.3,0-0.5-0.2-0.5-0.5V101c0-0.3,0.2-0.5,0.5-0.5h11.3c0.3,0,0.5,0.2,0.5,0.5v46.5
		C252.1,147.7,251.9,147.9,251.6,147.9z M240.9,146.9h10.3v-45.4h-10.3V146.9z"/>
	<rect x="240.4" y="101" class="st0" width="11.3" height="8.5"/>
	<path class="st1" d="M251.6,110h-11.3c-0.3,0-0.5-0.2-0.5-0.5V101c0-0.3,0.2-0.5,0.5-0.5h11.3c0.3,0,0.5,0.2,0.5,0.5v8.5
		C252.1,109.8,251.9,110,251.6,110z M240.9,109h10.3v-7.5h-10.3V109z"/>
	<rect x="257.2" y="101" class="st2" width="11.3" height="46.5"/>
	<path class="st1" d="M268.5,147.9h-11.3c-0.3,0-0.5-0.2-0.5-0.5V101c0-0.3,0.2-0.5,0.5-0.5h11.3c0.3,0,0.5,0.2,0.5,0.5v46.5
		C269,147.7,268.8,147.9,268.5,147.9z M257.7,146.9H268v-45.4h-10.3L257.7,146.9z"/>
	<rect x="257.2" y="101" class="st0" width="11.3" height="17.7"/>
	<path class="st1" d="M268.5,119.3h-11.3c-0.3,0-0.5-0.2-0.5-0.5V101c0-0.3,0.2-0.5,0.5-0.5h11.3c0.3,0,0.5,0.2,0.5,0.5v17.7
		C269,119,268.8,119.3,268.5,119.3z M257.7,118.2H268v-16.7h-10.3L257.7,118.2z"/>
	<path class="st3" d="M180.5,180.1c-0.3,0-0.5-0.2-0.5-0.5v-23.2c0-0.3,0.2-0.5,0.5-0.5c0.3,0,0.5,0.2,0.5,0.5v23.2
		C181,179.9,180.8,180.1,180.5,180.1z"/>
	<path class="st3" d="M241.6,180.1c-0.3,0-0.5-0.2-0.5-0.5v-23.2c0-0.3,0.2-0.5,0.5-0.5c0.3,0,0.5,0.2,0.5,0.5v23.2
		C242.1,179.9,241.9,180.1,241.6,180.1z"/>
	<path class="st1" d="M276.1,147.9h-79.4c-0.3,0-0.5-0.2-0.5-0.5c0-0.3,0.2-0.5,0.5-0.5h79.4c0.3,0,0.5,0.2,0.5,0.5
		C276.6,147.7,276.4,147.9,276.1,147.9z"/>
	<path class="st3" d="M143.5,88.8c-0.1,0-0.2,0-0.3-0.1c-0.2-0.2-0.3-0.5-0.2-0.7c2-3.6,4.8-6.7,8.1-9.1c2.6-1.9,4.8-2.6,6.9-2.2
		c1.6,0.5,3.1,1.5,4.3,2.7c0.4,0.3,0.8,0.7,1.1,1c1.1,0.9,2.4,1.6,3.7,2.2c0.5,0.3,1.1,0.4,1.8,0.4c0.7-0.1,1.4-0.4,1.9-0.9
		c0.9-0.7,1.7-1.5,2.4-2.3c1.2-1.5,2.8-2.7,4.5-3.6c2.6-1.1,5.6-0.8,7.9,0.9c0.5,0.4,1.1,0.9,1.5,1.4c0.4,0.4,0.8,0.8,1.3,1.2
		c2.6,2.1,6.8,2.5,10.6,0.9c3.6-1.5,6.5-4.4,9-7c0.2-0.2,0.5-0.2,0.7,0c0,0,0,0,0,0c0.2,0.2,0.2,0.5,0,0.7c-2.6,2.6-5.6,5.6-9.4,7.2
		c-4.1,1.7-8.7,1.3-11.6-1c-0.5-0.4-0.9-0.8-1.3-1.3c-0.5-0.5-0.9-0.9-1.4-1.3c-2-1.5-4.6-1.8-6.9-0.8c-1.6,0.9-3,2-4.2,3.4
		c-0.8,0.8-1.6,1.6-2.5,2.4c-0.7,0.6-1.5,1-2.4,1.1c-0.8,0-1.5-0.1-2.2-0.5c-1.4-0.6-2.8-1.4-3.9-2.3c-0.4-0.3-0.8-0.6-1.2-1
		c-1.1-1.1-2.4-2-3.9-2.4c-1.7-0.4-3.7,0.3-6.1,2c-3.2,2.3-5.9,5.3-7.8,8.8C143.8,88.7,143.7,88.8,143.5,88.8z"/>
	<path class="st3" d="M266.7,77.5H225c-0.3,0-0.5-0.2-0.5-0.5c0-0.3,0.2-0.5,0.5-0.5h41.7c0.3,0,0.5,0.2,0.5,0.5
		S267,77.5,266.7,77.5L266.7,77.5z"/>
	<path class="st3" d="M266.7,83.2h-17c-0.3,0-0.5-0.2-0.5-0.5c0-0.3,0.2-0.5,0.5-0.5h17c0.3,0,0.5,0.2,0.5,0.5
		C267.2,82.9,267,83.2,266.7,83.2z"/>
	<path class="st3" d="M242.6,83.2H225c-0.3,0-0.5-0.2-0.5-0.5c0-0.3,0.2-0.5,0.5-0.5h17.6c0.3,0,0.5,0.2,0.5,0.5
		C243.1,82.9,242.9,83.2,242.6,83.2z"/>
	<path class="st3" d="M266.7,88.8h-36.4c-0.3,0-0.5-0.2-0.5-0.5s0.2-0.5,0.5-0.5h36.4c0.3,0,0.5,0.2,0.5,0.5S267,88.8,266.7,88.8z"
		/>
</g>
</svg>
