<?xml version="1.0" encoding="utf-8"?>
<!-- Generator: Adobe Illustrator 23.0.2, SVG Export Plug-In . SVG Version: 6.00 Build 0)  -->
<svg version="1.1" id="Camada_1" xmlns="http://www.w3.org/2000/svg" xmlns:xlink="http://www.w3.org/1999/xlink" x="0px" y="0px"
	 viewBox="0 0 406 306" style="enable-background:new 0 0 406 306;" xml:space="preserve">
<style type="text/css">
	.st0{fill:#FFFFFF;}
	.st1{fill:#231F20;}
	.st2{fill:#D1D3D4;}
	.st3{fill:#0B6567;}
</style>
<g id="_81_finance_analysis">
	<path class="st0" d="M314,152.8c0,0,15.2,1.7,7.8,30.2l-36.2-4.3C285.6,178.7,302.3,149.4,314,152.8z"/>
	<path class="st1" d="M321.8,183.6L321.8,183.6l-36.2-4.3c-0.2,0-0.3-0.1-0.4-0.3c-0.1-0.2-0.1-0.3,0-0.5c0.7-1.2,17-29.5,28.9-26.2
		c2.9,0.6,5.5,2.3,7.2,4.9c3.8,5.4,4.1,14.2,1,26C322.2,183.4,322,183.6,321.8,183.6z M286.4,178.4l35,4.2c3.6-14,1.4-21.2-1-24.7
		c-1.5-2.3-3.8-3.9-6.5-4.4h-0.1C303.6,150.4,289,174,286.4,178.4z"/>
	<path class="st0" d="M282.6,208.5c0,0,7,1,13.8-21.2c6.8-22.2,2.5-34,17.6-34.5l-47.8-6.3C266.2,146.6,255.4,204.5,282.6,208.5z"/>
	<path class="st1" d="M282.7,209.1h-0.2c-4.9-0.7-9.2-3.4-12-7.5c-5-7-7.3-18.4-6.9-33.9c0.2-7.1,0.9-14.2,2-21.2
		c0-0.3,0.3-0.4,0.6-0.4l47.8,6.3c0.3,0,0.5,0.3,0.4,0.5c0,0.3-0.2,0.5-0.5,0.5c-10.1,0.4-11.2,5.9-13.2,17
		c-1,5.8-2.3,11.5-3.9,17.2C290.6,208,284,209.1,282.7,209.1z M282.7,208c0.2,0,6.8,0.4,13.2-20.8c1.6-5.6,3-11.3,3.9-17.1
		c1.8-9.7,2.8-15.6,10.2-17.3l-43.4-5.7c-0.7,4.4-6.1,38.7,4.8,53.9C273.9,204.8,278.1,207.4,282.7,208z"/>
	<path class="st0" d="M286.6,57.8c0,0,12.1,2,9.3,19.9c-3.4,21.9-20.6,97.4-21,114.3c-0.4,16.9,7.6,16.4,7.6,16.4L171.5,197
		c0,0-5.2-4.3,6.2-47.7c11.4-43.5,21.8-80.6,27.9-83.5C211.7,62.9,286.6,57.8,286.6,57.8z"/>
	<path class="st1" d="M282.5,209.1c-0.3,0-0.5,0-0.8-0.1l-110.2-11.4c-0.1,0-0.2,0-0.3-0.1c-0.6-0.5-5.2-5.7,6-48.2
		c13-49.7,22.3-81,28.1-83.8c6.1-2.9,78.2-7.9,81.2-8.1h0.1c0.1,0,12.6,2.4,9.7,20.5c-1.3,8.1-4.3,23-7.8,40.3
		c-6,29.7-12.9,63.3-13.1,73.9c-0.2,8.7,1.8,12.5,3.6,14.3c0.8,0.8,1.7,1.3,2.8,1.6l0.8,0.1c0.3,0,0.5,0.2,0.5,0.5
		c0,0.3-0.2,0.5-0.5,0.5L282.5,209.1z M171.8,196.5L279,207.7c-0.2-0.2-0.4-0.3-0.6-0.5c-2.8-2.7-4.1-7.8-3.9-15.1
		c0.3-10.7,7.1-44.4,13.2-74.1c3.5-17.3,6.6-32.2,7.8-40.3c2.6-16.7-7.9-19.2-8.9-19.4c-2.6,0.2-75,5.2-80.8,8
		c-6.1,2.9-17.4,44.4-27.6,83.1c-4.6,17.5-7.1,30.7-7.3,39.3C170.7,194.4,171.5,196.1,171.8,196.5z"/>
	<path class="st0" d="M196.9,55.6c0,0-12.6-0.6-15.4,15.2c-1.6,8.8-18.9,80.1-18.9,80.1l82.9,18c19.6,0.9,24.5-90.5,24.5-90.5
		s-0.1-20.4,16.7-20.4C286.6,57.8,207.5,53.4,196.9,55.6z"/>
	<path class="st1" d="M245.8,169.3h-0.3l-83-18c-0.1,0-0.3-0.1-0.3-0.2c-0.1-0.1-0.1-0.3-0.1-0.4c0.2-0.7,17.3-71.3,18.9-80
		c2.8-15.4,14.9-15.6,15.9-15.6c10.7-2.1,86.5,2.1,89.8,2.3c0.3,0,0.5,0.2,0.5,0.5c0,0,0,0,0,0c0,0.3-0.2,0.5-0.5,0.5
		c-3.9-0.1-7.6,1.3-10.4,4.1c-5.7,5.7-5.8,15.8-5.8,15.9C270.3,82,265.4,169.3,245.8,169.3z M163.2,150.4l82.4,17.9
		c7.7,0.4,14.2-15,19-44.5c3.6-22.5,4.9-45.3,4.9-45.6c0-0.4,0-10.5,6.1-16.6c1.7-1.7,3.7-2.9,5.9-3.6c-17.7-0.9-75.6-3.8-84.4-2
		h-0.2c-0.5,0-12.2-0.4-14.9,14.7C180.5,79.2,164.8,144,163.2,150.4L163.2,150.4z"/>
	<path class="st0" d="M245.5,168.8c0,0-17.7-2.3-13.7-22.2l-79.2-6.3l6.8,21.7L245.5,168.8z"/>
	<path class="st1" d="M245.5,169.2L245.5,169.2l-86.1-6.8c-0.2,0-0.4-0.2-0.4-0.4l-6.8-21.8c0-0.2,0-0.3,0.1-0.5
		c0.1-0.1,0.3-0.2,0.4-0.2l79.2,6.3c0.1,0,0.3,0.1,0.4,0.2c0.1,0.1,0.1,0.3,0.1,0.4c-1.2,6.2-0.5,11.2,2.2,15c4,5.6,11,6.6,11.1,6.6
		c0.3,0,0.5,0.3,0.5,0.5C246,169.1,245.8,169.3,245.5,169.2L245.5,169.2z M159.8,161.5l81,6.4c-2.8-1.2-5.3-3.2-7.1-5.6
		c-2.8-3.9-3.7-9.1-2.5-15.2l-77.9-6.2L159.8,161.5z"/>
	<path class="st2" d="M259,190.6L259,190.6l-80.5-6.9c-0.3,0-0.5-0.3-0.5-0.5c0,0,0,0,0,0c0-0.3,0.2-0.5,0.5-0.5c0,0,0,0,0,0
		l80.5,6.9c0.3,0,0.5,0.3,0.5,0.5S259.3,190.6,259,190.6L259,190.6z"/>
	<path class="st2" d="M253.8,179.6L253.8,179.6l-80.5-6.9c-0.3,0-0.5-0.3-0.5-0.6c0-0.3,0.3-0.5,0.6-0.5l80.4,6.9
		c0.3,0,0.5,0.3,0.5,0.5C254.2,179.4,254,179.6,253.8,179.6z"/>
	<path class="st2" d="M197.8,132.4L197.8,132.4l-10.8-1c-0.1,0-0.3-0.1-0.3-0.2c-0.1-0.1-0.1-0.2-0.1-0.4l2.1-16.8
		c0-0.3,0.3-0.5,0.5-0.4l10.8,1c0.1,0,0.3,0.1,0.3,0.2c0.1,0.1,0.1,0.2,0.1,0.4l-2.1,16.8C198.3,132.3,198,132.4,197.8,132.4z
		 M187.5,130.4l9.8,0.9l2-15.8l-9.8-0.9L187.5,130.4z"/>
	<path class="st2" d="M199.2,120.8L199.2,120.8l-10.8-1c-0.1,0-0.3-0.1-0.3-0.2c-0.1-0.1-0.1-0.2-0.1-0.4l0.6-5.2
		c0-0.3,0.3-0.5,0.5-0.4l10.8,1c0.1,0,0.3,0.1,0.3,0.2c0.1,0.1,0.1,0.2,0.1,0.4l-0.6,5.2C199.7,120.6,199.5,120.8,199.2,120.8z
		 M189,118.8l9.8,1l0.5-4.2l-9.8-0.9L189,118.8z"/>
	<path class="st2" d="M213.9,134L213.9,134l-10.8-1c-0.1,0-0.3-0.1-0.3-0.2c-0.1-0.1-0.1-0.2-0.1-0.4l3.8-30.3
		c0-0.3,0.3-0.5,0.5-0.4c0,0,0,0,0,0l10.8,1c0.1,0,0.3,0.1,0.3,0.2c0.1,0.1,0.1,0.2,0.1,0.4l-3.8,30.3
		C214.4,133.8,214.2,134,213.9,134z M203.7,132l9.8,1l3.6-29.3l-9.8-0.9L203.7,132z"/>
	<path class="st2" d="M216.9,110.1L216.9,110.1l-10.8-1c-0.1,0-0.3-0.1-0.4-0.2c-0.1-0.1-0.1-0.2-0.1-0.4l0.8-6.4
		c0-0.3,0.3-0.5,0.5-0.4c0,0,0,0,0,0l10.8,1c0.1,0,0.3,0.1,0.3,0.2c0.1,0.1,0.1,0.2,0.1,0.4l-0.8,6.4
		C217.4,109.9,217.1,110.1,216.9,110.1z M206.6,108l9.8,1l0.7-5.4l-9.8-0.9L206.6,108z"/>
	<path class="st2" d="M230,135.6L230,135.6l-10.9-1c-0.3,0-0.5-0.3-0.4-0.6c0,0,0,0,0,0l7.4-59.5c0-0.3,0.3-0.5,0.5-0.4c0,0,0,0,0,0
		l10.8,1c0.1,0,0.3,0.1,0.3,0.2c0.1,0.1,0.1,0.2,0.1,0.4l-7.4,59.5C230.5,135.4,230.3,135.6,230,135.6z M219.8,133.5l9.8,1l7.3-58.5
		l-9.8-1L219.8,133.5z"/>
	<path class="st2" d="M236.5,83.3L236.5,83.3l-10.8-1c-0.3,0-0.5-0.3-0.4-0.6c0,0,0,0,0,0l0.9-7.3c0-0.3,0.3-0.5,0.5-0.4
		c0,0,0,0,0,0l10.8,1c0.1,0,0.3,0.1,0.3,0.2c0.1,0.1,0.1,0.2,0.1,0.4l-0.9,7.3C237,83.2,236.8,83.4,236.5,83.3
		C236.5,83.3,236.5,83.3,236.5,83.3z M226.3,81.3l9.8,1l0.8-6.3l-9.8-1L226.3,81.3z"/>
	<path class="st2" d="M246.1,137.1L246.1,137.1l-10.8-1c-0.3,0-0.5-0.3-0.5-0.6c0,0,0,0,0,0l2.5-20.1c0-0.3,0.3-0.5,0.5-0.4l10.8,1
		c0.3,0,0.5,0.3,0.4,0.6c0,0,0,0,0,0l-2.5,20.1C246.6,136.9,246.4,137.1,246.1,137.1z M235.9,135.1l9.8,1l2.4-19.1l-9.8-1
		L235.9,135.1z"/>
	<path class="st2" d="M247.8,124.1L247.8,124.1l-10.8-1c-0.1,0-0.3-0.1-0.3-0.2c-0.1-0.1-0.1-0.2-0.1-0.4l0.9-7.1
		c0-0.3,0.3-0.5,0.5-0.4l10.8,1c0.3,0,0.5,0.3,0.4,0.6c0,0,0,0,0,0l-0.9,7.1C248.3,123.9,248,124.1,247.8,124.1z M237.5,122.1l9.8,1
		l0.8-6.1l-9.8-1L237.5,122.1z"/>
	<path class="st2" d="M252.3,137.8L252.3,137.8l-70-6.8c-0.3,0-0.5-0.3-0.5-0.6c0,0,0,0,0,0c0-0.3,0.3-0.5,0.5-0.5c0,0,0,0,0,0
		l69.9,6.8c0.3,0,0.5,0.3,0.4,0.5c0,0,0,0,0,0C252.8,137.6,252.6,137.8,252.3,137.8z"/>
	<path class="st2" d="M263.1,85.9L263.1,85.9l-17.3-1.6c-0.3,0-0.5-0.3-0.5-0.5c0-0.3,0.3-0.5,0.5-0.5c0,0,0,0,0,0l17.3,1.6
		c0.3,0,0.5,0.3,0.5,0.5c0,0,0,0,0,0C263.6,85.7,263.4,85.9,263.1,85.9z"/>
	<path class="st2" d="M262.8,90.2L262.8,90.2l-17.3-1.6c-0.3,0-0.5-0.3-0.5-0.5c0,0,0,0,0,0c0-0.3,0.3-0.5,0.5-0.5c0,0,0,0,0,0
		l17.3,1.6c0.3,0,0.5,0.3,0.5,0.5c0,0,0,0,0,0C263.3,90,263.1,90.2,262.8,90.2C262.8,90.2,262.8,90.2,262.8,90.2z"/>
	<path class="st2" d="M262.5,94.4L262.5,94.4l-17.3-1.6c-0.3,0-0.5-0.3-0.5-0.6c0-0.3,0.3-0.5,0.6-0.5l17.3,1.6
		c0.3,0,0.5,0.3,0.5,0.5C263.1,94.2,262.8,94.4,262.5,94.4C262.5,94.4,262.5,94.4,262.5,94.4z"/>
	<path class="st2" d="M258,98.3L258,98.3l-13-1.2c-0.3,0-0.5-0.3-0.5-0.6c0,0,0,0,0,0c0-0.3,0.3-0.5,0.5-0.5c0,0,0,0,0,0l13,1.2
		c0.3,0,0.5,0.3,0.5,0.6c0,0,0,0,0,0C258.5,98.1,258.3,98.3,258,98.3C258,98.3,258,98.3,258,98.3z"/>
	<path class="st0" d="M159.4,142.3c2.7-5.4,6.4-10.2,10.9-14.1c7.2-6.2,11.5-10.7,9.3-12c-2.3-1.2-9.8,4.1-9.8,4.1l5.2-22.2
		c0,0-12,9.7-15.6,16.6c-3.5,7-10.5,21.7-10.5,21.7L159.4,142.3z"/>
	<path class="st1" d="M159.4,142.8c-0.1,0-0.2,0-0.2-0.1l-10.5-5.8c-0.2-0.1-0.3-0.4-0.2-0.7c0.1-0.1,7-14.8,10.5-21.7
		c3.5-6.9,15.2-16.4,15.7-16.8c0.2-0.1,0.4-0.1,0.6,0c0.2,0.1,0.3,0.3,0.2,0.5l-4.9,20.8c2.3-1.6,7.2-4.5,9.2-3.4
		c0.5,0.2,0.8,0.7,0.9,1.2c0.2,1.9-2.7,5.2-10,11.6c-4.4,3.9-8.1,8.7-10.7,14c-0.1,0.1-0.2,0.2-0.3,0.3L159.4,142.8z M149.5,136.3
		l9.7,5.3c2.7-5.2,6.3-9.9,10.7-13.8c2.4-2.1,9.9-8.6,9.7-10.7c0-0.2-0.1-0.4-0.3-0.5c-1.5-0.8-6.4,2-9.2,4.1
		c-0.2,0.2-0.5,0.1-0.7-0.1c-0.1-0.1-0.1-0.3-0.1-0.4l4.9-20.7c-3,2.6-11.5,10-14.3,15.5C156.6,121.2,150.6,133.8,149.5,136.3
		L149.5,136.3z"/>
	<path class="st1" d="M158.5,85.2c-3.5,0-6.4-2.9-6.4-6.4c0-3.5,2.9-6.4,6.4-6.4c3.5,0,6.4,2.9,6.4,6.4
		C164.9,82.4,162.1,85.2,158.5,85.2z M158.5,73.4c-3,0-5.4,2.4-5.4,5.4c0,3,2.4,5.4,5.4,5.4c3,0,5.4-2.4,5.4-5.4
		C163.9,75.8,161.5,73.4,158.5,73.4z"/>
	<path class="st0" d="M116.1,104.4c-2.7-0.1-5.3-0.6-8.4-0.8c-2.9-0.2-6.6-1.3-6.6-4.2c-0.1-2.5,2.9-4.5,2.3-6.9
		c-0.2-0.6-0.6-1.2-1-1.7c-8.5-11.4-6.5-27.6,4.6-36.5c-0.8,0.3-1.7-0.5-1.7-1.4c0-0.9,0.3-1.7,0.9-2.3c2-2.5,5-3.9,8-4.9
		c9.6-3.2,20.1-2.8,29.8,0c7.5,2.2,16.4,8.1,15.4,17.1c-0.4,3.2-2.9,6.4-6.1,6.5c-1.7,9.6-6.7,16.2-13.1,23.2
		c-4.3,4.8-9.7,8.5-15.7,10.7C121.7,104.2,118.9,104.6,116.1,104.4z"/>
	<path class="st1" d="M117.2,105H116l0,0c-1.6-0.1-3.1-0.3-4.8-0.5c-1.2-0.1-2.4-0.3-3.7-0.4c-4.4-0.4-7-2.1-7.1-4.7
		c0.1-1.3,0.5-2.5,1.3-3.5c0.7-1.1,1.3-2.2,1-3.3c-0.2-0.5-0.5-1-0.8-1.4l-0.1-0.1c-8.4-11.3-6.8-27.2,3.8-36.5l-0.1-0.1
		c-0.6-0.4-0.9-0.9-1-1.6c0-1,0.3-2,1-2.7c2.3-2.8,5.8-4.2,8.2-5.1c9.1-3,19.8-3,30.1,0c8.5,2.5,16.7,8.9,15.8,17.7
		c-0.4,3.2-2.8,6.6-6.2,7c-1.8,10-7.2,16.6-13.1,23.1c-4.3,4.8-9.8,8.5-15.9,10.8C122.2,104.5,119.7,104.9,117.2,105z M116.1,103.9
		c2.8,0.2,5.5-0.2,8.1-1.2c5.9-2.2,11.2-5.8,15.4-10.5c7-7.7,11.4-13.9,13-22.9c0-0.2,0.2-0.4,0.5-0.4c3-0.1,5.3-3.3,5.7-6.1
		c0.9-8.1-6.9-14.2-15.1-16.6c-10.1-3-20.6-3-29.5,0c-2.3,0.8-5.7,2.1-7.8,4.7c-0.5,0.5-0.8,1.2-0.8,2c0,0.3,0.2,0.6,0.5,0.8
		c0.2,0.1,0.4,0.2,0.6,0.1c0.2-0.1,0.5,0,0.6,0.2c0.1,0.2,0.1,0.5-0.1,0.6c-10.8,8.8-12.8,24.6-4.5,35.8l0.1,0.1
		c0.4,0.5,0.8,1.1,1,1.8c0.4,1.5-0.4,2.8-1.1,4.1c-0.6,0.9-1,1.9-1.1,2.9c0.1,2.9,4.7,3.6,6.2,3.7s2.5,0.3,3.7,0.4
		C113,103.7,114.5,103.9,116.1,103.9L116.1,103.9z"/>
	<path class="st0" d="M155.7,83.4c0,0,6.9,11.3,5.3,13.6c-1.6,2.2-6.6,0.5-6.6,0.5"/>
	<path class="st1" d="M158,98.6c-1.3,0-2.5-0.2-3.8-0.6c-0.3-0.1-0.4-0.4-0.3-0.6c0.1-0.3,0.4-0.4,0.6-0.3c1.3,0.4,4.9,1.2,6-0.3
		c1-1.3-2.5-8.4-5.3-13c-0.1-0.2-0.1-0.6,0.2-0.7c0,0,0,0,0,0c0.2-0.1,0.5-0.1,0.7,0.2c0,0,0,0,0,0c1.2,1.9,7,11.7,5.3,14.1
		C160.5,98.2,159.3,98.7,158,98.6z"/>
	<path class="st0" d="M154.7,68.8c4.5,4,2.8,11.9,2.6,17.2c-0.3,7.3-0.8,14.7-1.5,22c-0.4,4.6-12.5,4.3-14.5,2.8l1.2,18.4
		l-24.9-10.6l1.6-15.2c0,0,8.2,0.4,13.3-8.9s5.2-29.9,5.2-29.9S150.3,64.9,154.7,68.8z"/>
	<path class="st1" d="M142.4,129.7c-0.1,0-0.1,0-0.2,0L117.3,119c-0.2-0.1-0.3-0.3-0.3-0.5l1.6-15.1c0-0.3,0.3-0.5,0.5-0.5
		c0.3,0,7.9,0.2,12.8-8.7c5-9.1,5.1-29.4,5.1-29.7c0-0.1,0.1-0.3,0.2-0.4c0.1-0.1,0.2-0.2,0.4-0.1c0.5,0,13,0.5,17.5,4.4l0,0
		c3.9,3.5,3.4,9.7,3,14.7c-0.1,1-0.2,2-0.2,2.8c-0.3,7.3-0.9,14.7-1.5,22c-0.1,0.9-0.6,2.2-2.6,3c-3.3,1.5-9.3,1.4-11.9,0.5
		l1.1,17.6c0,0.2-0.1,0.3-0.2,0.4C142.6,129.6,142.5,129.7,142.4,129.7z M118.1,118.1l23.8,10.2l-1.1-17.6c0-0.3,0.2-0.5,0.5-0.5
		c0.1,0,0.2,0,0.3,0.1c1.4,1,8.2,1.5,11.7-0.2c1.2-0.6,1.9-1.3,2-2.3c0.7-7.3,1.2-14.6,1.5-21.9c0-0.9,0.1-1.9,0.2-2.9
		c0.4-4.8,0.9-10.7-2.6-13.9l0,0c-3.7-3.3-13.9-4-16.3-4.1c-0.1,3.3-0.6,21-5.2,29.6c-4.5,8.1-11.4,9.1-13.2,9.1L118.1,118.1z"/>
	<path class="st0" d="M155.8,102.4c0,0-5.8,3.3-8.6-2.7"/>
	<path class="st1" d="M152.3,103.8c-0.6,0-1.2-0.1-1.8-0.3c-1.7-0.6-3.1-1.9-3.8-3.6c-0.1-0.3,0-0.6,0.3-0.7c0.2-0.1,0.5,0,0.7,0.2
		c0,0,0,0,0,0c0.6,1.4,1.7,2.5,3.2,3c1.6,0.4,3.3,0.2,4.8-0.6c0.2-0.1,0.6-0.1,0.7,0.2c0.1,0.2,0,0.5-0.2,0.7
		C154.9,103.4,153.6,103.8,152.3,103.8z"/>
	<path class="st1" d="M125.5,87.2c0,0-0.1,0-0.1,0c-0.3-0.1-0.4-0.3-0.3-0.6c0,0,0,0,0,0c1-3.6,1.7-3.6,2-3.7c0.6,0,24.7-3,37.4-4.6
		c0.3,0,0.5,0.1,0.6,0.4c0,0,0,0,0,0c0,0.3-0.2,0.5-0.4,0.6c-1.5,0.2-35.3,4.4-37.4,4.6c-0.5,0.9-0.9,1.9-1.2,2.9
		C125.9,87.1,125.7,87.2,125.5,87.2z"/>
	<path class="st0" d="M141.5,87.6c0-1.8-0.9-3.5-1.9-5.1c-0.7-1.3-1.5-2.5-2.6-3.5c-1-1-2.5-1.5-3.9-1.4c-1.3,0.3-2.3,1.1-3,2.2
		c-0.6,1.1-0.9,2.3-1,3.6c-0.5,5.6,2.1,11,6.7,14.2l-0.4-0.5"/>
	<path class="st1" d="M135.8,98.2c-0.1,0-0.2,0-0.3-0.1c-4.8-3.3-7.4-8.9-6.9-14.7c0.1-1.3,0.5-2.7,1.1-3.8c0.7-1.2,1.9-2.1,3.3-2.4
		c1.6-0.2,3.2,0.4,4.3,1.5c1.1,1,2,2.2,2.7,3.5c0.9,1.5,2,3.3,1.9,5.4c0,0.3-0.2,0.5-0.5,0.5c-0.3,0-0.5-0.2-0.5-0.5c0,0,0,0,0,0
		c0-1.8-1-3.5-1.8-4.9c-0.6-1.2-1.5-2.3-2.4-3.3c-0.9-0.9-2.2-1.4-3.5-1.2c-1.1,0.2-2.1,0.9-2.6,1.9c-0.6,1-0.9,2.2-1,3.4
		c-0.4,5.1,1.8,10,5.8,13.2c0.2,0,0.3,0,0.4,0.2l0.4,0.5c0.2,0.2,0.2,0.5,0,0.7C136.2,98.1,136,98.2,135.8,98.2z"/>
	
		<ellipse transform="matrix(0.9999 -1.570732e-02 1.570732e-02 0.9999 -1.2002 2.4248)" class="st1" cx="153.8" cy="77.6" rx="1" ry="2.6"/>
	<path class="st3" d="M84.7,247.8c0,0-8.2-93.5,5.3-112.7s46.9-22.2,62.3-9.9s27.1,123.4,27.1,123.4S128.4,280.5,84.7,247.8z"/>
	<path class="st0" d="M202.8,112.9l3.8-1.3l0,0l4.7,14.2c0.3,1-0.2,2.1-1.2,2.4l0,0l-0.2,0.1c-1,0.3-2.1-0.2-2.4-1.2l0,0
		L202.8,112.9L202.8,112.9z"/>
	<path class="st1" d="M209.2,128.9c-1,0-1.9-0.7-2.3-1.7l-4.7-14.2c-0.1-0.1-0.1-0.3,0-0.4c0.1-0.1,0.2-0.2,0.3-0.3l3.8-1.3
		c0.3-0.1,0.5,0.1,0.6,0.3l4.7,14.2c0.4,1.3-0.2,2.6-1.5,3c0,0,0,0,0,0l0,0l-0.2,0.1C209.7,128.9,209.5,128.9,209.2,128.9z
		 M210,128.3L210,128.3z M203.4,113.2l4.5,13.7c0.1,0.3,0.4,0.6,0.7,0.8c0.3,0.2,0.7,0.2,1,0.1l0.2-0.1c0.7-0.2,1.1-1,0.9-1.7
		l-4.5-13.7L203.4,113.2z"/>
	
		<rect x="199.5" y="99.2" transform="matrix(0.9501 -0.312 0.312 0.9501 -23.1153 68.5878)" class="st0" width="6.5" height="14.6"/>
	<path class="st1" d="M202,115c-0.2,0-0.4-0.1-0.5-0.3l-4.6-13.9c-0.1-0.1-0.1-0.3,0-0.4c0.1-0.1,0.2-0.2,0.3-0.3l6.2-2
		c0.3-0.1,0.5,0,0.6,0.3c0,0,0,0,0,0l4.6,13.9c0.1,0.1,0.1,0.3,0,0.4c-0.1,0.1-0.2,0.2-0.3,0.3l-6.2,2L202,115z M198.1,100.9l4.3,13
		l5.2-1.7l-4.2-12.9L198.1,100.9z"/>
	<path class="st0" d="M207.3,123.4l1.8-0.6c1.2-0.4,2.5,0.3,2.9,1.5l6.5,19.9c0.4,1.2-0.3,2.5-1.5,2.9l-1.8,0.6
		c-1.2,0.4-2.5-0.3-2.9-1.5l-6.5-19.9C205.5,125.1,206.1,123.8,207.3,123.4z"/>
	<path class="st1" d="M214.6,148.2c-1.2,0-2.3-0.8-2.7-1.9l-6.5-19.9c-0.5-1.5,0.3-3,1.8-3.5c0,0,0,0,0,0l1.8-0.6
		c1.5-0.5,3,0.3,3.5,1.8L219,144c0.5,1.5-0.3,3-1.8,3.5c0,0,0,0,0,0l0,0l-1.8,0.6C215.2,148.2,214.9,148.2,214.6,148.2z
		 M209.9,123.2c-0.2,0-0.4,0-0.6,0.1l-1.8,0.6c-0.4,0.2-0.8,0.5-1,0.9c-0.2,0.4-0.3,0.9-0.1,1.3l6.5,19.9c0.3,0.9,1.3,1.4,2.2,1.1
		l1.8-0.6c0.9-0.3,1.4-1.3,1.1-2.2l-6.5-19.9C211.3,123.7,210.6,123.2,209.9,123.2L209.9,123.2z M217.1,147L217.1,147z"/>
	<circle class="st0" cx="199.3" cy="96" r="17.2"/>
	<path class="st1" d="M199.3,113.7c-9.8,0-17.8-7.9-17.8-17.7c0-9.8,7.9-17.8,17.7-17.8S217,86.1,217,95.9c0,7.7-4.9,14.5-12.2,16.9
		C203.1,113.4,201.2,113.7,199.3,113.7z M199.3,79.3c-9.2,0-16.7,7.5-16.7,16.7c0,1.8,0.3,3.5,0.8,5.2c2.9,8.7,12.3,13.5,21,10.6
		c8.7-2.9,13.5-12.3,10.6-21C212.9,84,206.5,79.3,199.3,79.3L199.3,79.3z"/>
	<circle class="st0" cx="199.3" cy="96" r="14"/>
	<path class="st1" d="M199.3,110.5c-8,0-14.5-6.5-14.5-14.5c0-8,6.5-14.5,14.5-14.5c6.3,0,11.8,4,13.7,9.9l0,0
		c2.5,7.6-1.6,15.8-9.2,18.3C202.4,110.2,200.9,110.5,199.3,110.5z M199.3,82.5c-7.4,0-13.5,6-13.4,13.5c0,7.4,6,13.5,13.5,13.4
		c7.4,0,13.5-6,13.4-13.5c0-1.4-0.2-2.8-0.7-4.2C210.3,86.3,205.1,82.5,199.3,82.5L199.3,82.5z"/>
	<path class="st0" d="M196.9,154.6l0.7-5.1c0-0.2,0.3-15.9,1.7-17.1c1.3-1.2,18.9-13.9,20.1-12.2c1.2,1.7-1.2,5-1.2,5s4.1-0.4,3.7,2
		s-2.9,4.9-2.9,4.9s2.5-1.8,2.9,0.8c0.2,1.6-0.4,3.1-1.7,4.1c0,0,3.7-1.6,2.9,1.4s-9.8,10.9-9.8,10.9l-1.1,6.7L196.9,154.6z"/>
	<path class="st1" d="M212.2,156.8L212.2,156.8l-15.2-1.6h-0.1c-0.5-0.1-0.5-0.1,0.2-4.7l0.1-0.9c0-0.1,0.3-16,1.9-17.4
		c1-0.9,17.2-12.8,20.2-12.5c0.3,0,0.5,0.1,0.7,0.4c1,1.4,0,3.6-0.7,4.8c1,0,2,0.3,2.8,0.9c0.4,0.5,0.6,1.1,0.5,1.7
		c-0.3,1.4-0.9,2.6-1.8,3.7c0.2,0,0.5,0,0.7,0.1c0.7,0.3,1.1,1,1.1,1.8c0.2,1.1-0.1,2.3-0.7,3.3c0.5-0.1,1.1,0,1.5,0.4
		c0.5,0.6,0.7,1.4,0.4,2.1c-0.8,3-8.7,10-9.9,11l-1,6.5C212.8,156.6,212.5,156.8,212.2,156.8C212.2,156.8,212.2,156.8,212.2,156.8z
		 M197.5,154.2l14.3,1.5l1-6.2c0-0.1,0.1-0.2,0.2-0.3c2.5-2.1,9-8.2,9.7-10.6c0.1-0.6,0.1-1,0-1.1c-0.4-0.3-1.5,0-2.2,0.3
		c-0.2,0.1-0.5,0-0.6-0.2c-0.1-0.2-0.1-0.5,0.2-0.7c1.1-0.9,1.7-2.2,1.5-3.6c-0.1-0.4-0.2-0.8-0.5-1c-0.5-0.2-1.3,0.3-1.6,0.5
		c-0.2,0.2-0.5,0.1-0.7-0.1c-0.2-0.2-0.2-0.5,0-0.7c0,0,2.4-2.4,2.7-4.7c0.1-0.3,0-0.6-0.2-0.9c-0.6-0.7-2.4-0.7-2.9-0.6
		c-0.2,0-0.4-0.1-0.5-0.3c-0.1-0.2-0.1-0.4,0-0.5c0.6-0.8,2-3.2,1.2-4.4c-1.8-0.5-17.6,10.7-19.3,12.3c-1,1-1.5,14.1-1.5,16.7
		c0,0-0.1,0.4-0.1,1C197.9,151.5,197.6,153.3,197.5,154.2z"/>
	<path class="st3" d="M152.3,125.2c0,0,9.9,6,17.3,19.6c7.4,13.7,19.1,57.4,19.1,57.4l5.6-53l21.6,4.9c0,0,1.8,77.1-17.3,85.8
		s-67.9-45-67.9-45L152.3,125.2z"/>
	<path class="st0" d="M112.2,122.8l2.5-8l32.3,3.1l1.9,7.4C148.8,125.2,131.9,133.3,112.2,122.8z"/>
	<path class="st1" d="M133.4,128.6c-7.5,0-14.8-1.9-21.4-5.4c-0.2-0.1-0.3-0.4-0.2-0.6l2.5-8c0.1-0.2,0.3-0.4,0.5-0.4l32.3,3.1
		c0.2,0,0.4,0.2,0.4,0.4l1.8,7.4c0.1,0.2-0.1,0.5-0.3,0.6C144.1,127.7,138.7,128.7,133.4,128.6z M112.8,122.5
		c10.9,5.8,23.8,6.7,35.4,2.4l-1.7-6.6l-31.5-3L112.8,122.5z"/>
	<path class="st1" d="M179.4,236.9c-0.1,0-0.2,0-0.3-0.1c-0.3-0.2-32.9-21.1-44.4-75.3c-0.1-0.3,0.1-0.5,0.4-0.6c0,0,0,0,0,0
		c0.3-0.1,0.5,0.1,0.6,0.4c11.4,53.9,43.6,74.5,44,74.7c0.2,0.2,0.3,0.5,0.2,0.7C179.8,236.8,179.6,236.9,179.4,236.9L179.4,236.9z"
		/>
	<path class="st3" d="M200.4,103.4v1.9c0,0.2-0.2,0.4-0.4,0.4h-2.3c-0.2,0-0.4-0.2-0.4-0.4v-1.8c-0.9,0-1.8-0.2-2.6-0.4
		c-0.2-0.1-0.4-0.2-0.4-0.4v-2c0-0.2,0.2-0.4,0.4-0.4l0,0c0.8,0.1,2.9,0.3,3.9,0.3c1.4,0,1.8-0.5,1.8-1.4c0-0.6-0.3-0.9-1.3-1.6
		l-2.8-1.7c-1.5-0.7-2.4-2.2-2.4-3.9c0-1.9,0.9-3.4,3.5-3.9v-1.8c0-0.2,0.2-0.4,0.4-0.4h2.3c0.2,0,0.4,0.2,0.4,0.4V88
		c1,0.1,2,0.2,3,0.4c0.2,0.1,0.4,0.2,0.4,0.4v2c0,0.2-0.2,0.4-0.4,0.4l0,0l0,0c-1.3-0.1-3-0.2-4.4-0.2c-1.1,0-1.6,0.3-1.6,1.1
		c0,0.5,0.3,0.8,1.4,1.4l2.6,1.4c2.1,1.2,2.8,2.5,2.8,4.2C204.3,101.3,202.6,103.2,200.4,103.4z"/>
	<path class="st2" d="M216.5,76.6L216.5,76.6l-25.1-2.1c-0.1,0-0.3-0.1-0.4-0.2c-0.1-0.1-0.1-0.3-0.1-0.4l2.2-9.3
		c0.1-0.3,0.3-0.4,0.6-0.4c0.3,0.1,0.4,0.3,0.4,0.6c0,0,0,0,0,0l-2,8.7l24.5,2c0.3,0,0.5,0.2,0.5,0.5S216.9,76.5,216.5,76.6
		L216.5,76.6z"/>
	<path class="st2" d="M193.3,73.6c-0.2,0-0.3-0.1-0.4-0.2c-0.2-0.2-0.1-0.5,0.1-0.7c1.9-1.5,4-2.8,6.2-3.9c0.7-0.4,1.6-0.6,2.4-0.5
		c0.8,0.3,1.5,0.8,1.9,1.6c0.3,0.5,0.8,0.9,1.3,1.2c0.8,0.1,1.7-0.1,2.4-0.6c2.8-1.5,5.9-3.1,7.8-5.8c0.2-0.2,0.5-0.3,0.7-0.1
		c0.2,0.2,0.3,0.5,0.1,0.7c-2.1,2.8-5.3,4.6-8.2,6.1c-0.9,0.7-2.1,0.9-3.2,0.6c-0.7-0.3-1.3-0.9-1.7-1.5c-0.4-0.5-0.8-1-1.4-1.2
		c-0.6-0.1-1.2,0.1-1.7,0.4c-2.1,1.1-4.2,2.3-6.1,3.8C193.5,73.6,193.4,73.6,193.3,73.6z"/>
</g>
</svg>
