<svg xmlns="http://www.w3.org/2000/svg" viewBox="0 0 400 300" width="406" height="306" class="illustration styles_illustrationTablet__1DWOa"><g id="_81_finance_analysis" data-name="#81_finance_analysis"><path d="M309.34,149.82s15,1.66,7.69,29.78l-35.65-4.24S297.79,146.5,309.34,149.82Z" fill="#fff"></path><path d="M317,180.1H317l-35.66-4.24a.5.5,0,0,1-.39-.27.54.54,0,0,1,0-.48c.68-1.19,16.7-29.1,28.5-25.78a10.88,10.88,0,0,1,7.05,4.78c3.7,5.36,4.05,14,1,25.62A.5.5,0,0,1,317,180.1ZM282.2,175l34.46,4.1c3.51-13.84,1.41-20.89-1-24.37a9.87,9.87,0,0,0-6.39-4.36l-.08,0C299.1,147.4,284.72,170.71,282.2,175Z" fill="#231f20"></path><path d="M278.42,204.72s6.9,1,13.57-20.86,2.46-33.51,17.35-34l-47.11-6.18S251.67,200.77,278.42,204.72Z" fill="#fff"></path><path d="M278.56,205.23h-.22a17.25,17.25,0,0,1-11.81-7.38c-4.9-6.85-7.19-18.08-6.81-33.37a150.53,150.53,0,0,1,2-20.92.49.49,0,0,1,.56-.4l47.1,6.18a.5.5,0,0,1,.44.52.51.51,0,0,1-.49.47c-10,.36-11,5.83-13,16.74A142.83,142.83,0,0,1,292.47,184C286.31,204.18,279.84,205.23,278.56,205.23Zm-.08-1c.15,0,6.66.37,13-20.52a143.49,143.49,0,0,0,3.86-16.83c1.73-9.55,2.79-15.4,10-17.07l-42.73-5.61c-.73,4.37-6,38.09,4.71,53.06A16.25,16.25,0,0,0,278.48,204.23Z" fill="#231f20"></path><path d="M282.39,56.23s11.95,2,9.19,19.65c-3.39,21.61-20.25,96-20.66,112.64s7.5,16.2,7.5,16.2L169,193.38s-5.14-4.19,6.1-47S196.57,67,202.55,64.13,282.39,56.23,282.39,56.23Z" fill="#fff"></path><path d="M278.37,205.23a4.82,4.82,0,0,1-.79-.09L169,193.88a.47.47,0,0,1-.26-.11c-.56-.45-5.08-5.61,5.92-47.52,12.85-48.95,22-79.84,27.72-82.58,6-2.84,77-7.74,80-7.94h.12c.12,0,12.4,2.32,9.59,20.22-1.25,8-4.24,22.69-7.71,39.75-5.95,29.23-12.68,62.36-12.94,72.83-.21,8.53,1.82,12.36,3.56,14.07a5.55,5.55,0,0,0,2.72,1.55l.77.08a.5.5,0,0,1,0,1ZM169.26,192.9l105.62,10.95a6.37,6.37,0,0,1-.57-.5c-2.76-2.68-4.06-7.68-3.89-14.85.26-10.55,7-43.73,13-73,3.47-17,6.46-31.77,7.7-39.7,2.59-16.47-7.75-18.88-8.72-19.07-2.52.17-73.85,5.12-79.6,7.85-6,2.84-17.17,43.78-27.18,81.92-4.52,17.21-7,30.24-7.23,38.74C168.17,190.74,169,192.49,169.26,192.9Z" fill="#231f20"></path><path d="M194,54s-12.39-.58-15.22,14.94c-1.59,8.71-18.6,78.88-18.6,78.88l81.65,17.74c19.35.89,24.11-89.18,24.11-89.18s-.05-20.13,16.41-20.13C282.39,56.23,204.39,51.85,194,54Z" fill="#fff"></path><path d="M242.15,166.05h-.3l-81.73-17.76a.45.45,0,0,1-.32-.22.5.5,0,0,1-.06-.38c.17-.7,17-70.25,18.59-78.85C181.1,53.66,193,53.46,194,53.48c10.51-2.09,85.25,2.07,88.43,2.25a.49.49,0,0,1,.47.51.51.51,0,0,1-.5.49,13.85,13.85,0,0,0-10.2,4c-5.66,5.66-5.71,15.57-5.71,15.67C266.29,80.06,261.52,166.05,242.15,166.05Zm-81.32-18.63L242,165.06c7.54.38,14-14.82,18.71-43.85,3.56-22.13,4.78-44.66,4.79-44.88,0-.4,0-10.39,6-16.36a14.12,14.12,0,0,1,5.83-3.52c-17.46-.92-74.52-3.76-83.16-2H194c-.49,0-12-.36-14.7,14.53C177.81,77.25,162.36,141.1,160.83,147.42Z" fill="#231f20"></path><path d="M241.87,165.54s-17.47-2.3-13.51-21.9l-78-6.22,6.7,21.42Z" fill="#fff"></path><path d="M241.87,166h0L157,159.34a.51.51,0,0,1-.43-.35l-6.71-21.43a.51.51,0,0,1,.09-.46.49.49,0,0,1,.43-.18l78,6.22a.57.57,0,0,1,.36.2.52.52,0,0,1,.09.4c-1.23,6.07-.49,11,2.19,14.8,3.94,5.52,10.83,6.5,10.9,6.51a.5.5,0,0,1-.07,1Zm-84.43-7.67,79.82,6.31a16.84,16.84,0,0,1-7-5.55c-2.77-3.88-3.6-8.93-2.47-15L151.06,138Z" fill="#231f20"></path><path d="M255.19,187h0l-79.29-6.83a.5.5,0,0,1-.46-.54.48.48,0,0,1,.54-.45l79.3,6.83a.5.5,0,0,1-.05,1Z" fill="#d1d3d4"></path><path d="M250,176.19h0l-79.3-6.83a.5.5,0,0,1,.09-1L250,175.19a.51.51,0,0,1,.46.54A.5.5,0,0,1,250,176.19Z" fill="#d1d3d4"></path><path d="M194.85,129.73h0l-10.64-1a.52.52,0,0,1-.34-.18.5.5,0,0,1-.1-.37l2.06-16.6a.5.5,0,0,1,.54-.44l10.64,1a.5.5,0,0,1,.34.18.57.57,0,0,1,.11.38l-2.07,16.59A.5.5,0,0,1,194.85,129.73Zm-10.08-2,9.64.93,1.94-15.6-9.64-.93Z" fill="#d1d3d4"></path><path d="M196.27,118.26h-.05l-10.63-1a.49.49,0,0,1-.34-.19.46.46,0,0,1-.11-.37l.64-5.13a.5.5,0,0,1,.54-.44l10.64,1a.5.5,0,0,1,.34.18.57.57,0,0,1,.11.38l-.64,5.12A.5.5,0,0,1,196.27,118.26Zm-10.07-2,9.64.94.51-4.14-9.64-.93Z" fill="#d1d3d4"></path><path d="M210.73,131.27h0l-10.63-1a.51.51,0,0,1-.34-.19.46.46,0,0,1-.11-.37l3.71-29.83a.48.48,0,0,1,.54-.43l10.64,1a.52.52,0,0,1,.34.18.51.51,0,0,1,.1.38l-3.7,29.82A.51.51,0,0,1,210.73,131.27Zm-10.07-2,9.64.94,3.58-28.84-9.64-.93Z" fill="#d1d3d4"></path><path d="M213.66,107.71h0l-10.63-1a.53.53,0,0,1-.35-.19.49.49,0,0,1-.1-.37l.78-6.27a.48.48,0,0,1,.54-.43l10.64,1a.52.52,0,0,1,.34.18.51.51,0,0,1,.1.38l-.78,6.26A.5.5,0,0,1,213.66,107.71Zm-10.08-2,9.64.94.66-5.28-9.64-.93Z" fill="#d1d3d4"></path><path d="M226.62,132.81h-.05l-10.64-1a.5.5,0,0,1-.44-.56l7.28-58.62a.49.49,0,0,1,.54-.44l10.64,1a.53.53,0,0,1,.34.19.49.49,0,0,1,.1.37l-7.28,58.63A.49.49,0,0,1,226.62,132.81Zm-10.08-2,9.64.94,7.16-57.63-9.64-.94Z" fill="#d1d3d4"></path><path d="M233,81.36h0l-10.64-1a.5.5,0,0,1-.44-.56l.89-7.17a.49.49,0,0,1,.54-.44l10.64,1a.53.53,0,0,1,.34.19.49.49,0,0,1,.1.37l-.89,7.17A.49.49,0,0,1,233,81.36Zm-10.08-2,9.64.94.77-6.18-9.64-.94Z" fill="#d1d3d4"></path><path d="M242.5,134.36h-.05l-10.63-1a.5.5,0,0,1-.45-.56L233.83,113a.49.49,0,0,1,.54-.43l10.64,1a.5.5,0,0,1,.44.56L243,133.92A.51.51,0,0,1,242.5,134.36Zm-10.07-2,9.64.94,2.33-18.77-9.64-.94Z" fill="#d1d3d4"></path><path d="M244.09,121.54h0l-10.64-1a.51.51,0,0,1-.34-.19A.5.5,0,0,1,233,120l.87-7a.49.49,0,0,1,.54-.43l10.64,1a.5.5,0,0,1,.44.56l-.86,6.95A.51.51,0,0,1,244.09,121.54Zm-10.07-2,9.64.94.74-6-9.64-.94Z" fill="#d1d3d4"></path><path d="M248.59,135h-.05l-68.87-6.68a.5.5,0,0,1-.45-.55.49.49,0,0,1,.54-.45L248.64,134a.49.49,0,0,1,.44.54A.5.5,0,0,1,248.59,135Z" fill="#d1d3d4"></path><path d="M259.22,83.91h0l-17-1.54a.5.5,0,0,1-.45-.54.5.5,0,0,1,.54-.46l17,1.55a.49.49,0,0,1,.45.54A.5.5,0,0,1,259.22,83.91Z" fill="#d1d3d4"></path><path d="M258.93,88.1h0l-17-1.55a.49.49,0,0,1-.45-.54.49.49,0,0,1,.54-.45l17,1.54a.49.49,0,0,1,.45.54A.5.5,0,0,1,258.93,88.1Z" fill="#d1d3d4"></path><path d="M258.64,92.29h0l-17-1.55a.5.5,0,1,1,.09-1l17,1.54a.51.51,0,0,1,.45.54A.5.5,0,0,1,258.64,92.29Z" fill="#d1d3d4"></path><path d="M254.2,96.1h0l-12.82-1.16a.5.5,0,0,1-.45-.55.49.49,0,0,1,.54-.45l12.82,1.16a.5.5,0,0,1,.45.55A.49.49,0,0,1,254.2,96.1Z" fill="#d1d3d4"></path><path d="M157,139.47a46.46,46.46,0,0,1,10.69-13.92c7.1-6.13,11.35-10.59,9.12-11.81s-9.61,4-9.61,4l5.15-21.84s-11.86,9.51-15.35,16.4-10.37,21.41-10.37,21.41Z" fill="#fff"></path><path d="M157,140a.53.53,0,0,1-.24-.06l-10.38-5.74a.5.5,0,0,1-.21-.65c.07-.14,6.93-14.6,10.39-21.42s15-16.17,15.48-16.56a.5.5,0,0,1,.58,0,.49.49,0,0,1,.22.53L168,116.63c2.31-1.54,7.09-4.4,9.06-3.32a1.54,1.54,0,0,1,.85,1.21c.2,1.87-2.67,5.17-9.88,11.4a46.37,46.37,0,0,0-10.56,13.76.5.5,0,0,1-.3.27Zm-9.72-6.45,9.51,5.26a47.58,47.58,0,0,1,10.58-13.61c2.41-2.09,9.76-8.44,9.53-10.54a.53.53,0,0,0-.33-.45c-1.43-.77-6.32,2-9.08,4a.5.5,0,0,1-.77-.53l4.81-20.39c-3,2.57-11.31,9.83-14.08,15.29C154.32,118.7,148.42,131.08,147.26,133.52Z" fill="#231f20"></path><path d="M156.18,83.23a6.32,6.32,0,1,1,6.33-6.32A6.33,6.33,0,0,1,156.18,83.23Zm0-11.64a5.32,5.32,0,1,0,5.33,5.32A5.33,5.33,0,0,0,156.18,71.59Z" fill="#231f20"></path><path d="M114.35,102.15c-2.62-.12-5.24-.57-8.28-.83-2.83-.24-6.47-1.3-6.53-4.13-.05-2.43,2.87-4.42,2.23-6.77a5.2,5.2,0,0,0-1-1.71,26.19,26.19,0,0,1,4.51-36c-.8.27-1.64-.52-1.72-1.36a3.34,3.34,0,0,1,.9-2.28c2-2.43,4.91-3.82,7.87-4.79,9.45-3.11,19.85-2.77,29.39,0,7.35,2.15,16.16,8,15.19,16.87-.35,3.19-2.85,6.3-6,6.44-1.64,9.5-6.62,16-12.88,22.86A38.3,38.3,0,0,1,122.56,101,21.08,21.08,0,0,1,114.35,102.15Z" fill="#fff"></path><path d="M115.5,102.67l-1.17,0h0c-1.55-.07-3.08-.25-4.7-.45-1.15-.13-2.34-.27-3.6-.38-4.33-.37-6.94-2.1-7-4.62a6.71,6.71,0,0,1,1.26-3.43c.66-1.11,1.28-2.16,1-3.22a4.43,4.43,0,0,0-.83-1.42l-.09-.13a26.7,26.7,0,0,1,3.75-35.95L104,53a2.19,2.19,0,0,1-1-1.58,3.69,3.69,0,0,1,1-2.64c2.23-2.79,5.69-4.16,8.11-5,9-3,19.54-3,29.68,0,8.42,2.47,16.49,8.8,15.55,17.4-.35,3.14-2.71,6.47-6.13,6.86-1.8,9.83-7.14,16.36-12.93,22.73a38.74,38.74,0,0,1-15.62,10.62A21.28,21.28,0,0,1,115.5,102.67Zm-1.13-1a20.63,20.63,0,0,0,8-1.15,37.43,37.43,0,0,0,15.21-10.35c6.92-7.61,11.23-13.74,12.76-22.6a.5.5,0,0,1,.47-.42c3-.13,5.27-3.22,5.57-6,.88-8-6.81-14-14.83-16.33-10-2.91-20.28-2.92-29.09,0-2.29.76-5.57,2.06-7.64,4.63a2.76,2.76,0,0,0-.79,1.93,1.18,1.18,0,0,0,.51.83.66.66,0,0,0,.55.1.5.5,0,0,1,.6.23.51.51,0,0,1-.13.63,25.7,25.7,0,0,0-4.42,35.29l.1.12a5.53,5.53,0,0,1,1,1.76c.4,1.47-.36,2.75-1.1,4a5.88,5.88,0,0,0-1.12,2.9c.06,2.9,4.66,3.52,6.07,3.64s2.48.25,3.64.39c1.6.19,3.11.37,4.62.44Z" fill="#231f20"></path><path d="M153.4,81.44s6.77,11.16,5.2,13.36-6.47.51-6.47.51" fill="#fff"></path><path d="M155.67,96.42a12.14,12.14,0,0,1-3.7-.64.5.5,0,0,1-.31-.63.51.51,0,0,1,.64-.31c1.26.43,4.78,1.22,5.89-.33.95-1.33-2.48-8.29-5.22-12.81a.5.5,0,0,1,.17-.69.49.49,0,0,1,.68.17c1.16,1.91,6.87,11.56,5.18,13.91A3.91,3.91,0,0,1,155.67,96.42Z" fill="#231f20"></path><path d="M152.42,67c4.43,3.91,2.8,11.76,2.56,16.9q-.49,10.84-1.5,21.65c-.42,4.57-12.29,4.21-14.33,2.76l1.16,18.17L115.75,116,117.34,101s8.08.37,13.07-8.79,5.12-29.46,5.12-29.46S148.09,63.18,152.42,67Z" fill="#fff"></path><path d="M140.31,127a.45.45,0,0,1-.2,0l-24.56-10.52a.52.52,0,0,1-.3-.52l1.6-14.92a.51.51,0,0,1,.52-.45c.31,0,7.83.23,12.6-8.53,4.88-8.94,5.06-29,5.06-29.23a.51.51,0,0,1,.15-.35.45.45,0,0,1,.37-.14c.52,0,12.78.45,17.2,4.34h0c3.87,3.42,3.35,9.57,2.93,14.51-.08,1-.16,1.93-.2,2.79-.33,7.21-.84,14.5-1.5,21.67-.08.89-.6,2.14-2.57,3-3.28,1.51-9.17,1.37-11.71.49l1.11,17.33a.51.51,0,0,1-.21.44A.52.52,0,0,1,140.31,127Zm-24-11.34,23.47,10.06-1.11-17.36a.5.5,0,0,1,.79-.44c1.34,1,8.06,1.43,11.56-.17,1.23-.57,1.9-1.32,2-2.23.66-7.16,1.17-14.43,1.5-21.62,0-.88.12-1.83.21-2.83.39-4.72.89-10.59-2.61-13.68h0c-3.66-3.23-13.68-3.94-16.06-4.07-.05,3.3-.56,20.73-5.17,29.18-4.39,8-11.21,9-13,9Z" fill="#231f20"></path><path d="M153.51,100.15s-5.73,3.23-8.49-2.68" fill="#fff"></path><path d="M150.07,101.53a5.74,5.74,0,0,1-1.8-.27,6.31,6.31,0,0,1-3.71-3.57.52.52,0,0,1,.25-.67.49.49,0,0,1,.66.24,5.33,5.33,0,0,0,3.11,3,6.71,6.71,0,0,0,4.69-.59.5.5,0,0,1,.68.19.51.51,0,0,1-.19.68A8.3,8.3,0,0,1,150.07,101.53Z" fill="#231f20"></path><path d="M123.61,85.17a.36.36,0,0,1-.14,0,.49.49,0,0,1-.34-.61c1-3.53,1.7-3.58,2-3.6.56,0,24.35-3,36.84-4.52a.49.49,0,0,1,.56.43.5.5,0,0,1-.43.56c-1.45.18-34.77,4.3-36.81,4.52a10.87,10.87,0,0,0-1.17,2.88A.49.49,0,0,1,123.61,85.17Zm1.56-3.23Z" fill="#231f20"></path><path d="M139.36,85.54c0-1.81-.91-3.48-1.84-5A13.88,13.88,0,0,0,135,77.12a4.77,4.77,0,0,0-3.85-1.34,4.43,4.43,0,0,0-2.92,2.13,8.49,8.49,0,0,0-1,3.55,15.51,15.51,0,0,0,6.62,14l-.38-.45" fill="#fff"></path><path d="M133.84,96a.51.51,0,0,1-.28-.09,16.1,16.1,0,0,1-6.84-14.49,8.87,8.87,0,0,1,1.11-3.77,4.84,4.84,0,0,1,3.27-2.36,5.19,5.19,0,0,1,4.27,1.46A14.47,14.47,0,0,1,138,80.24c.87,1.47,2,3.3,1.91,5.31a.52.52,0,0,1-.51.49.5.5,0,0,1-.49-.51c0-1.73-1-3.42-1.77-4.78a13.84,13.84,0,0,0-2.39-3.26,4.28,4.28,0,0,0-3.44-1.22,3.93,3.93,0,0,0-2.57,1.9,7.85,7.85,0,0,0-1,3.34,15.08,15.08,0,0,0,5.68,13,.5.5,0,0,1,.44.17l.38.45a.5.5,0,0,1,0,.66A.52.52,0,0,1,133.84,96Z" fill="#231f20"></path><ellipse cx="151.49" cy="75.73" rx="1.02" ry="2.59" transform="translate(-1.17 2.39) rotate(-0.9)" fill="#231f20"></ellipse><path d="M83.4,243.37s-8.11-92.15,5.26-111,46.2-21.88,61.39-9.72,26.74,121.55,26.74,121.55S126.55,275.58,83.4,243.37Z" fill="#00e690"></path><path d="M202.27,109.46h3.95a0,0,0,0,1,0,0v14.75a1.86,1.86,0,0,1-1.86,1.86h-.23a1.86,1.86,0,0,1-1.86-1.86V109.46A0,0,0,0,1,202.27,109.46Z" transform="translate(-26.55 69.62) rotate(-18.18)" fill="#fff"></path><path d="M206.14,126.29a2.39,2.39,0,0,1-2.24-1.63l-4.6-14a.5.5,0,0,1,0-.38.48.48,0,0,1,.29-.25l3.75-1.24a.51.51,0,0,1,.63.32l4.6,14a2.36,2.36,0,0,1-1.5,3h0l-.22.07A2.34,2.34,0,0,1,206.14,126.29Zm.8-.67h0Zm-6.54-14.81,4.45,13.54a1.37,1.37,0,0,0,.68.79,1.39,1.39,0,0,0,1,.08l.22-.07a1.36,1.36,0,0,0,.86-1.72l-4.44-13.54Z" fill="#231f20"></path><rect x="196.6" y="96.99" width="6.38" height="14.43" transform="translate(-22.54 67.55) rotate(-18.18)" fill="#fff"></rect><path d="M199,112.55a.5.5,0,0,1-.48-.34L194,98.5a.5.5,0,0,1,0-.38.48.48,0,0,1,.29-.25l6.06-2a.49.49,0,0,1,.63.32l4.5,13.71a.5.5,0,0,1,0,.38.48.48,0,0,1-.29.25l-6.06,2Zm-3.87-13.89,4.19,12.76,5.1-1.68L200.24,97Z" fill="#231f20"></path><rect x="205.88" y="119.93" width="6.38" height="25.09" rx="2.25" transform="translate(-30.9 71.86) rotate(-18.18)" fill="#fff"></rect><path d="M211.4,145.3a2.76,2.76,0,0,1-2.62-1.89l-6.42-19.56a2.75,2.75,0,0,1,1.75-3.48l1.78-.58a2.75,2.75,0,0,1,3.47,1.75l6.43,19.57a2.75,2.75,0,0,1-1.76,3.47h0l-1.78.58A2.53,2.53,0,0,1,211.4,145.3Zm-4.65-24.65a1.76,1.76,0,0,0-.55.09l-1.78.58a1.75,1.75,0,0,0-1,.88,1.71,1.71,0,0,0-.1,1.33l6.42,19.57a1.75,1.75,0,0,0,2.21,1.11l1.78-.58a1.76,1.76,0,0,0,1.12-2.21l-6.43-19.56a1.75,1.75,0,0,0-1.66-1.21Zm7.13,23.45h0Z" fill="#231f20"></path><circle cx="196.38" cy="93.85" r="16.93" fill="#fff"></circle><path d="M196.37,111.29a17.49,17.49,0,1,1,5.45-.88A17.65,17.65,0,0,1,196.37,111.29Zm0-33.88A16.44,16.44,0,0,0,180.77,99a16.43,16.43,0,1,0,15.6-21.56Z" fill="#231f20"></path><circle cx="196.38" cy="93.85" r="13.75" fill="#fff"></circle><path d="M196.39,108.1a14.25,14.25,0,1,1,13.53-18.7h0a14.25,14.25,0,0,1-13.53,18.7Zm0-27.51A13.26,13.26,0,1,0,209,89.71,13.2,13.2,0,0,0,196.37,80.59Z" fill="#231f20"></path><path d="M194,151.6s.67-5,.67-5c0-.21.34-15.64,1.67-16.83s18.59-13.71,19.8-12S215,122.7,215,122.7s4.05-.41,3.64,2-2.83,4.86-2.83,4.86,2.48-1.82,2.86.81a4.36,4.36,0,0,1-1.65,4.06s3.65-1.62,2.84,1.41-9.69,10.74-9.69,10.74l-1.07,6.6Z" fill="#fff"></path><path d="M209.07,153.7h0l-15-1.6h-.06c-.45-.11-.45-.11.17-4.63l.12-.9c0-.09.26-15.72,1.84-17.15,1-.93,16.92-12.63,19.88-12.29a.87.87,0,0,1,.66.36c1,1.41,0,3.52-.67,4.69a4.08,4.08,0,0,1,2.73.93,2,2,0,0,1,.46,1.7,9.19,9.19,0,0,1-1.74,3.67,1.61,1.61,0,0,1,.67.12,2,2,0,0,1,1.1,1.73,4.73,4.73,0,0,1-.66,3.21,2,2,0,0,1,1.47.35,2,2,0,0,1,.36,2.11c-.79,3-8.53,9.84-9.71,10.87l-1,6.42A.51.51,0,0,1,209.07,153.7Zm-14.47-2.54,14.05,1.49,1-6.13a.47.47,0,0,1,.16-.3c2.44-2.11,8.9-8.11,9.54-10.48.14-.55.13-1,0-1.1-.36-.3-1.47,0-2.12.26a.49.49,0,0,1-.63-.21.48.48,0,0,1,.15-.65,3.84,3.84,0,0,0,1.44-3.57c-.06-.37-.18-.82-.49-.95-.49-.21-1.33.28-1.59.47a.5.5,0,0,1-.67-.08.51.51,0,0,1,0-.68s2.33-2.35,2.7-4.59a.92.92,0,0,0-.2-.85c-.62-.66-2.35-.65-2.9-.6a.51.51,0,0,1-.49-.25.48.48,0,0,1,0-.54c.61-.82,2-3.2,1.21-4.34-1.74-.54-17.32,10.53-19.06,12.1-1,1-1.51,13.93-1.51,16.46,0,0-.05.4-.13,1C195,148.55,194.71,150.31,194.6,151.16Z" fill="#231f20"></path><path d="M150.05,122.66s9.72,5.88,17,19.35,18.84,56.52,18.84,56.52l5.49-52.17,21.25,4.79s1.82,76-17,84.55-66.93-44.36-66.93-44.36Z" fill="#00e690"></path><path d="M110.54,120.23l2.44-7.9,31.8,3.07,1.83,7.26S130,130.56,110.54,120.23Z" fill="#fff"></path><path d="M131.39,126a44.62,44.62,0,0,1-21.08-5.34.5.5,0,0,1-.24-.59l2.43-7.9a.5.5,0,0,1,.52-.35l31.81,3.08a.5.5,0,0,1,.44.37l1.82,7.26a.49.49,0,0,1-.27.57A39.61,39.61,0,0,1,131.39,126Zm-20.25-6A42.47,42.47,0,0,0,146,122.37l-1.64-6.5-31-3Z" fill="#231f20"></path><path d="M176.79,232.63a.42.42,0,0,1-.26-.08c-.33-.2-32.45-20.74-43.76-74.23a.5.5,0,0,1,.38-.6.52.52,0,0,1,.6.39c11.23,53.08,43,73.4,43.31,73.6a.5.5,0,0,1-.27.92Z" fill="#231f20"></path><path d="M197.46,101.14V103a.41.41,0,0,1-.4.41h-2.23a.41.41,0,0,1-.4-.41v-1.8a14,14,0,0,1-2.57-.38c-.2-.06-.39-.19-.39-.41v-2a.4.4,0,0,1,.39-.39h0c.83.11,2.87.25,3.82.25,1.4,0,1.82-.49,1.82-1.42,0-.59-.28-.91-1.33-1.54l-2.79-1.66A4.15,4.15,0,0,1,191,89.85c0-1.84.87-3.36,3.42-3.8V84.31a.41.41,0,0,1,.4-.41h2.23a.41.41,0,0,1,.4.41V86a20.36,20.36,0,0,1,3,.38c.2.06.38.18.38.39v2a.36.36,0,0,1-.36.36h0c-1.26-.12-2.92-.22-4.29-.22-1.12,0-1.56.32-1.56,1.07,0,.51.26.83,1.36,1.42l2.56,1.39c2.09,1.14,2.76,2.47,2.76,4.11A4.24,4.24,0,0,1,197.46,101.14Z" fill="#00e690"></path><path d="M213.3,74.7h0l-24.69-2.1a.46.46,0,0,1-.36-.2.51.51,0,0,1-.09-.41l2.12-9.15a.51.51,0,0,1,.6-.37.5.5,0,0,1,.38.6l-2,8.59,24.12,2a.5.5,0,0,1,0,1Z" fill="#d1d3d4"></path><path d="M190.49,71.8a.51.51,0,0,1-.4-.2.5.5,0,0,1,.09-.7,38,38,0,0,1,6.12-3.82,3.53,3.53,0,0,1,2.35-.49,3.62,3.62,0,0,1,1.91,1.54,3.29,3.29,0,0,0,1.26,1.17,3.11,3.11,0,0,0,2.37-.56c2.72-1.44,5.8-3.07,7.72-5.7a.5.5,0,0,1,.7-.1.51.51,0,0,1,.11.7c-2.06,2.8-5.25,4.49-8.06,6a3.9,3.9,0,0,1-3.18.62,4,4,0,0,1-1.71-1.5c-.42-.54-.81-1-1.35-1.17a2.66,2.66,0,0,0-1.68.41,35.93,35.93,0,0,0-6,3.72A.49.49,0,0,1,190.49,71.8Z" fill="#d1d3d4"></path></g></svg>