<?xml version="1.0" encoding="utf-8"?>
<!-- Generator: Adobe Illustrator 23.0.2, SVG Export Plug-In . SVG Version: 6.00 Build 0)  -->
<svg version="1.1" id="Camada_1" xmlns="http://www.w3.org/2000/svg" xmlns:xlink="http://www.w3.org/1999/xlink" x="0px" y="0px"
	 viewBox="0 0 406 306" style="enable-background:new 0 0 406 306;" xml:space="preserve">
<style type="text/css">
	.st0{fill:#FFFFFF;}
	.st1{fill:#231F20;}
	.st2{fill:#0B6567;}
	.st3{fill:#D1D3D4;}
</style>
<g id="_559_finance_app_flatline">
	<path class="st0" d="M148,61.6h81l0,0v50.2c0,2.1-1.7,3.9-3.9,3.9l0,0h-73.3c-2.1,0-3.9-1.7-3.9-3.9v0V61.6L148,61.6z"/>
	<path class="st1" d="M225.1,116.1h-73.3c-2.4,0-4.3-1.9-4.3-4.3V61.6c0-0.3,0.2-0.5,0.5-0.5h81c0.3,0,0.5,0.2,0.5,0.5c0,0,0,0,0,0
		v50.2C229.4,114.2,227.5,116.1,225.1,116.1C225.1,116.1,225.1,116.1,225.1,116.1z M148.4,62.1v49.7c0,1.9,1.5,3.4,3.4,3.4h73.3
		c1.9,0,3.4-1.5,3.4-3.4c0,0,0,0,0,0V62.1H148.4z"/>
	<path class="st0" d="M151.8,54.4h73.3c2.1,0,3.9,1.7,3.9,3.9c0,0,0,0,0,0v3.3l0,0h-81l0,0v-3.3C148,56.1,149.7,54.4,151.8,54.4
		L151.8,54.4z"/>
	<path class="st1" d="M228.9,62.1h-81c-0.3,0-0.5-0.2-0.5-0.5v-3.3c0-2.4,1.9-4.3,4.3-4.3h73.3c2.4,0,4.3,1.9,4.3,4.3v3.3
		C229.4,61.8,229.2,62,228.9,62.1z M148.4,61.1h80v-2.9c0-1.9-1.5-3.4-3.4-3.4h-73.3c-1.9,0-3.4,1.5-3.4,3.4V61.1z"/>
	<circle class="st2" cx="167.9" cy="76.5" r="5.2"/>
	<path class="st2" d="M158.4,92.3c0.2-5.2,4.6-9.3,9.8-9.2c5,0.2,9,4.2,9.2,9.2H158.4z"/>
	<circle class="st2" cx="209" cy="76.5" r="5.2"/>
	<path class="st2" d="M199.5,92.3c0.2-5.2,4.6-9.3,9.8-9.2c5,0.2,9,4.2,9.2,9.2H199.5z"/>
	<path class="st1" d="M197.4,76.9h-12.2c-0.3,0-0.5-0.2-0.5-0.5c0-0.3,0.2-0.5,0.5-0.5c0,0,0,0,0,0h11.1l-2.4-2.5
		c-0.2-0.2-0.2-0.5,0-0.6c0,0,0,0,0,0c0.2-0.2,0.5-0.2,0.7,0l3.2,3.3c0.1,0.1,0.2,0.3,0.1,0.5C197.7,76.8,197.6,76.9,197.4,76.9z"/>
	<path class="st1" d="M194.3,79.9c-0.1,0-0.2-0.1-0.3-0.1c-0.2-0.2-0.2-0.5,0-0.7l3-3c0.2-0.2,0.5-0.2,0.7,0c0.2,0.2,0.2,0.5,0,0.6
		l-3,3C194.6,79.9,194.4,79.9,194.3,79.9z"/>
	<path class="st1" d="M191.6,80.9h-12.2c-0.2,0-0.4-0.1-0.4-0.3c-0.1-0.2,0-0.4,0.1-0.5l3.2-3.3c0.2-0.2,0.5-0.2,0.7,0
		c0.2,0.2,0.2,0.5,0,0.7c0,0,0,0,0,0l-2.4,2.5h11.1c0.3,0,0.5,0.2,0.5,0.5C192.1,80.6,191.8,80.9,191.6,80.9L191.6,80.9z"/>
	<path class="st1" d="M182.4,83.8c-0.1,0-0.2,0-0.3-0.1l-3-3c-0.2-0.2-0.2-0.5,0-0.7c0.2-0.2,0.5-0.2,0.7,0l3,3
		c0.2,0.2,0.2,0.5,0,0.6c0,0,0,0,0,0C182.7,83.8,182.6,83.8,182.4,83.8z"/>
	<path class="st3" d="M212.6,98.4h-48.3c-0.3,0-0.5-0.2-0.5-0.5c0-0.3,0.2-0.5,0.5-0.5h48.3c0.3,0,0.5,0.2,0.5,0.5
		C213.1,98.2,212.9,98.4,212.6,98.4z"/>
	<path class="st3" d="M212.6,101.8h-48.3c-0.3,0-0.5-0.2-0.5-0.5c0-0.3,0.2-0.5,0.5-0.5h48.3c0.3,0,0.5,0.2,0.5,0.5
		C213.1,101.6,212.9,101.8,212.6,101.8z"/>
	<path class="st3" d="M207.6,105.3h-43.3c-0.3,0-0.5-0.2-0.5-0.5c0-0.3,0.2-0.5,0.5-0.5h43.3c0.3,0,0.5,0.2,0.5,0.5
		C208.1,105.1,207.9,105.3,207.6,105.3z"/>
	<circle class="st2" cx="153.7" cy="58" r="1.2"/>
	<circle class="st3" cx="158" cy="58" r="1.2"/>
	<circle class="st3" cx="162.4" cy="58" r="1.2"/>
	<path class="st0" d="M241.5,57H346l0,0v123.3c0,2.8-2.3,5.1-5.1,5.1h-94.3c-2.8,0-5.1-2.3-5.1-5.1L241.5,57L241.5,57z"/>
	<path class="st1" d="M340.9,185.8h-94.4c-3.1,0-5.6-2.5-5.6-5.6V57c0-0.3,0.2-0.5,0.5-0.5H346c0.3,0,0.5,0.2,0.5,0.5v123.3
		C346.5,183.3,344,185.8,340.9,185.8z M242,57.5v122.8c0,2.5,2,4.6,4.6,4.6h94.4c2.5,0,4.6-2,4.6-4.6V57.5L242,57.5z"/>
	<path class="st1" d="M324.7,175.2h-61.9c-2.7,0-4.9-2.2-4.9-4.9v-2.9c0-2.7,2.2-5,5-5h61.9c2.7,0,5,2.2,5,5v0v2.9
		C329.6,173,327.4,175.2,324.7,175.2z M262.7,163.4c-2.2,0-3.9,1.8-3.9,3.9v2.9c0,2.2,1.8,3.9,3.9,3.9h61.9c2.2,0,3.9-1.8,3.9-3.9
		v-2.9c0-2.2-1.8-3.9-3.9-3.9l0,0L262.7,163.4z"/>
	<rect x="256.4" y="90.7" class="st2" width="8.3" height="59.7"/>
	<rect x="271.7" y="104.7" class="st2" width="8.3" height="45.7"/>
	<rect x="287" y="95.6" class="st2" width="8.3" height="54.8"/>
	<rect x="302.3" y="112.1" class="st2" width="8.3" height="38.3"/>
	<rect x="317.6" y="95.6" class="st2" width="8.3" height="54.8"/>
	<path class="st1" d="M325.6,67.7h-14c-0.3,0-0.5-0.2-0.5-0.5s0.2-0.5,0.5-0.5h14c0.3,0,0.5,0.2,0.5,0.5
		C326.1,67.5,325.9,67.7,325.6,67.7z"/>
	<path class="st1" d="M320.7,73h-9.1c-0.3,0-0.5-0.2-0.5-0.5s0.2-0.5,0.5-0.5h9.1c0.3,0,0.5,0.2,0.5,0.5S321,73,320.7,73z"/>
	<path class="st3" d="M307.4,96.2c-4.4,0-8.3-4.9-11.4-8.9c-2-2.6-3.9-5.1-5.2-5.1l0,0c-1.4,0-3.4,1.2-5.5,2.4
		c-2.9,1.7-6.1,3.5-9.1,3.4c-5.7-0.3-16.4-12.9-16.8-13.4c-0.2-0.2-0.2-0.5,0-0.7c0,0,0,0,0,0c0.2-0.2,0.5-0.2,0.7,0
		c0.1,0.1,10.9,12.8,16.1,13.1c2.8,0.2,5.9-1.6,8.6-3.2c2.2-1.3,4.3-2.5,6-2.5c1.7-0.1,3.6,2.4,6,5.4c3,3.9,6.8,8.7,10.9,8.5
		c3.5-0.2,5.2-3.2,7-6.5c1.8-3.2,3.5-6.4,7-7c0.3,0,0.5,0.2,0.5,0.4c0,0.2-0.1,0.4-0.4,0.5c-3.1,0.6-4.7,3.5-6.4,6.5
		c-1.8,3.3-3.7,6.8-7.8,7L307.4,96.2z"/>
	<path class="st3" d="M332.9,150.9h-83.2c-0.3,0-0.5-0.2-0.5-0.5c0,0,0,0,0,0c0-0.3,0.2-0.5,0.5-0.5h83.2c0.3,0,0.5,0.2,0.5,0.5l0,0
		C333.4,150.7,333.2,150.9,332.9,150.9C332.9,150.9,332.9,150.9,332.9,150.9z"/>
	<path class="st3" d="M259.8,76.2c-1,0-1.9-0.8-1.9-1.9c0-1,0.8-1.9,1.9-1.9s1.9,0.8,1.9,1.9v0C261.7,75.3,260.9,76.2,259.8,76.2z
		 M259.8,73.4c-0.5,0-0.9,0.4-0.9,0.9c0,0.5,0.4,0.9,0.9,0.9c0.5,0,0.9-0.4,0.9-0.9c0,0,0,0,0,0C260.7,73.8,260.3,73.4,259.8,73.4
		C259.8,73.4,259.8,73.4,259.8,73.4z"/>
	<path class="st3" d="M321.8,84.1c-1,0-1.9-0.8-1.9-1.9c0-1,0.8-1.9,1.9-1.9c1,0,1.9,0.8,1.9,1.9C323.6,83.2,322.8,84.1,321.8,84.1z
		 M321.8,81.3c-0.5,0-0.9,0.4-0.9,0.9c0,0.5,0.4,0.9,0.9,0.9c0.5,0,0.9-0.4,0.9-0.9C322.7,81.7,322.3,81.3,321.8,81.3
		C321.8,81.3,321.8,81.3,321.8,81.3z"/>
	<path class="st0" d="M246.5,46.4h94.3c2.8,0,5.1,2.3,5.1,5.1v5.4l0,0H241.5l0,0v-5.4C241.5,48.7,243.7,46.4,246.5,46.4z"/>
	<path class="st1" d="M346,57.5H241.5c-0.3,0-0.5-0.2-0.5-0.5v-5.5c0-3.1,2.5-5.6,5.6-5.6h94.4c3.1,0,5.6,2.5,5.6,5.6v5.4
		C346.5,57.2,346.3,57.4,346,57.5C346,57.5,346,57.5,346,57.5z M242,56.4h103.5v-4.9c0-2.5-2-4.6-4.6-4.6h-94.4
		c-2.5,0-4.6,2-4.6,4.6L242,56.4z"/>
	<path class="st0" d="M63.8,109.2h69.9c2.1,0,3.7,1.7,3.7,3.7v87.6c0,2.1-1.7,3.7-3.7,3.7H63.8c-2.1,0-3.7-1.7-3.7-3.7v-87.6
		C60,110.9,61.7,109.2,63.8,109.2z"/>
	<path class="st1" d="M133.7,204.8H63.8c-2.3,0-4.2-1.9-4.2-4.2v-87.6c0-2.3,1.9-4.2,4.2-4.2h69.9c2.3,0,4.2,1.9,4.2,4.2v87.6
		C137.9,202.8,136,204.7,133.7,204.8C133.7,204.8,133.7,204.8,133.7,204.8z M63.8,109.7c-1.8,0-3.2,1.4-3.2,3.2v87.6
		c0,1.8,1.4,3.2,3.2,3.2c0,0,0,0,0,0h69.9c1.8,0,3.2-1.4,3.2-3.2v-87.6c0-1.8-1.4-3.2-3.2-3.2H63.8z"/>
	<path class="st3" d="M117.9,184.2H76.2c-0.3,0-0.5-0.2-0.5-0.5c0-0.3,0.2-0.5,0.5-0.5h41.7c0.3,0,0.5,0.2,0.5,0.5
		C118.4,183.9,118.2,184.2,117.9,184.2z"/>
	<path class="st3" d="M97.8,191H76.2c-0.3,0-0.5-0.2-0.5-0.5c0-0.3,0.2-0.5,0.5-0.5h21.6c0.3,0,0.5,0.2,0.5,0.5
		C98.3,190.7,98,191,97.8,191z"/>
	<path class="st2" d="M78.8,130.6c6.1,6.1,12.2,12.2,18.2,18.2c0.2,0.2,0.5,0.3,0.7,0.3h27.9c-0.5,14.8-13,26.4-27.8,25.9
		s-26.4-13-25.9-27.8c0.2-6.2,2.6-12.2,6.7-16.8L78.8,130.6z"/>
	<path class="st3" d="M99.7,121.2v26h0.3l25.1-0.1c0.6,0,0.6,0,0.5-0.6c-0.6-10.1-6.8-18.9-16-23c-2.8-1.2-5.7-1.9-8.7-2.2
		L99.7,121.2z"/>
	<path class="st3" d="M97.8,146.8v-25.6c-3,0.2-6,0.8-8.8,1.9c-3.4,1.3-6.5,3.3-9.1,5.9L97.8,146.8z"/>
	<path class="st0" d="M178.3,133c-6-1.8-9.1-8.8-10.7-14.4c-1.8-6.3-3.9-11.5-1.3-18.1c0.6-1.5,1.5-3,3-3.5c0.4-0.1,0.8-0.2,1.1-0.4
		c0.3-0.3,0.5-0.6,0.6-0.9c3.6-8.6,13.9-8.8,21.6-7.6c4.5,0.7,10.3,2.7,11.7,7.3c2.5,8.5,0.4,17.7-4.3,25
		C195.6,127.3,187.3,135.7,178.3,133z"/>
	<path class="st1" d="M181.8,134c-1.2,0-2.4-0.2-3.6-0.5l0,0c-6.2-1.9-9.5-9-11.1-14.7c-0.2-0.7-0.4-1.4-0.6-2.1
		c-1.6-5.5-3-10.3-0.7-16.2c0.8-2.1,2-3.4,3.4-3.8l0.3-0.1c0.5,0,0.9-0.4,1-0.9c3.8-8.9,14.2-9.2,22.2-8c3,0.5,10.4,2.2,12.1,7.7
		c2.4,8,0.8,17.3-4.4,25.4C196,127.5,189.1,134,181.8,134z M186.3,88.1c-6.1,0-12.2,1.7-14.8,7.8c-0.1,0.4-0.4,0.8-0.7,1.1
		c-0.3,0.2-0.6,0.4-1,0.4l-0.3,0.1c-1.1,0.3-2,1.4-2.7,3.2c-2.2,5.7-0.8,10.3,0.7,15.6c0.2,0.7,0.4,1.4,0.6,2.1
		c1.5,5.4,4.6,12.3,10.4,14l0,0c8.1,2.4,16.2-4.8,21.1-12.4c5-7.8,6.6-16.8,4.2-24.5c-1.5-4.9-8.4-6.5-11.2-7
		C190.5,88.3,188.4,88.1,186.3,88.1L186.3,88.1z"/>
	<path class="st0" d="M205.5,115.9c0,0,6.4,8,5.4,9.9c-1,1.9-5,1-5,1"/>
	<path class="st1" d="M207.8,127.5c-0.7,0-1.4-0.1-2-0.2c-0.3-0.1-0.5-0.3-0.4-0.6c0.1-0.3,0.3-0.5,0.6-0.4c1,0.2,3.8,0.5,4.4-0.8
		c0.5-1-2.4-5.6-5.3-9.3c-0.2-0.2-0.1-0.5,0.1-0.7c0.2-0.2,0.5-0.1,0.7,0.1c1.6,1.9,6.5,8.4,5.5,10.5
		C210.7,127.2,209.1,127.5,207.8,127.5z"/>
	<path class="st0" d="M203.3,104.7c3.9,2.6,3.4,8.9,3.7,12.9c0.5,5.7,0.8,11.3,1,17c0.1,3.6-9.1,4.5-10.9,3.6l2.7,14.1l-20.2-5.7
		l-0.9-16.4c0,0,6.1-0.5,9.1-8.1c3-7.6,1.8-18.9,1.8-18.9S199.5,102.2,203.3,104.7z"/>
	<path class="st1" d="M199.8,152.8h-0.1l-20.2-5.7c-0.2-0.1-0.4-0.2-0.4-0.5l-0.9-16.4c0-0.3,0.2-0.5,0.5-0.5c0.2,0,5.9-0.6,8.7-7.8
		c2.9-7.5,1.8-18.5,1.8-18.6c0-0.1,0-0.3,0.1-0.4c0.1-0.1,0.2-0.2,0.3-0.2c0.4,0,10.1-0.9,13.9,1.7l0,0c3.4,2.3,3.6,7.2,3.8,11.2
		c0,0.8,0.1,1.5,0.1,2.2c0.5,5.7,0.8,11.4,1,17.1c0,1.2-0.7,2.2-1.7,2.7c-2.4,1.5-6.8,2-9,1.6l2.6,13.2c0,0.2,0,0.4-0.2,0.5
		C200.1,152.8,200,152.9,199.8,152.8z M180.1,146.2l19.1,5.4l-2.6-13.2c0-0.2,0-0.4,0.2-0.5c0.2-0.1,0.4-0.1,0.5,0
		c1.1,0.6,6.3,0.3,8.9-1.3c0.9-0.5,1.3-1.2,1.3-1.8c-0.2-5.6-0.5-11.4-1-17c-0.1-0.7-0.1-1.4-0.1-2.2c-0.2-3.7-0.4-8.3-3.4-10.3l0,0
		c-3-2.1-10.7-1.7-12.8-1.5c0.2,2.3,0.8,11.8-1.9,18.6c-2.7,6.8-7.5,8.1-9.1,8.4L180.1,146.2z"/>
	<path class="st0" d="M207.5,130.5c0,0-5.6,0-6.9-7.5"/>
	<path class="st1" d="M207.5,131c-0.1,0-6-0.1-7.4-7.9c0-0.3,0.1-0.5,0.4-0.6c0.3,0,0.5,0.1,0.6,0.4c1.2,7,6.2,7.1,6.4,7.1
		c0.3,0,0.5,0.2,0.5,0.5C208,130.8,207.8,131,207.5,131z"/>
	<path class="st0" d="M195,120.5c-0.3-1.4-1-2.7-1.9-3.7c-0.6-0.9-1.4-1.7-2.3-2.4c-0.9-0.7-2-0.9-3.1-0.7c-0.9,0.3-1.7,1-2,2
		c-0.4,0.9-0.5,1.9-0.5,2.9c0.2,4.4,2.7,8.3,6.6,10.3l-0.3-0.3"/>
	<path class="st1" d="M191.7,129.3c-0.1,0-0.2,0-0.2-0.1c-4-2.1-6.6-6.2-6.9-10.7c-0.1-1,0.1-2.1,0.5-3c0.4-1.1,1.3-1.9,2.4-2.2
		c1.2-0.3,2.6,0,3.6,0.7c0.9,0.7,1.7,1.5,2.4,2.5c1,1.1,1.7,2.5,2,4c0,0.3-0.2,0.5-0.4,0.6c-0.3,0-0.5-0.2-0.6-0.4
		c-0.3-1.3-0.9-2.5-1.8-3.5c-0.6-0.9-1.3-1.6-2.2-2.3c-0.8-0.6-1.8-0.8-2.7-0.6c-0.8,0.3-1.4,0.9-1.7,1.7c-0.3,0.8-0.5,1.7-0.4,2.6
		c0.2,3.9,2.3,7.5,5.7,9.5c0.2,0,0.3,0,0.4,0.1l0.3,0.3c0.2,0.2,0.2,0.5,0.1,0.7C192,129.3,191.8,129.4,191.7,129.3L191.7,129.3z"/>
	<path class="st1" d="M197.1,138.3c0,0-5-1-7.5-4.2c0,0,0.9,7.5,8.5,9.3L197.1,138.3z"/>
	<path class="st1" d="M198.1,144H198c-7.9-1.9-8.9-9.7-8.9-9.8c0-0.2,0.1-0.4,0.3-0.5c0.2-0.1,0.4,0,0.6,0.1c2.4,2.9,7.2,4,7.2,4
		c0.2,0,0.4,0.2,0.4,0.4l1,5.2c0.1,0.3-0.1,0.5-0.4,0.6C198.2,144,198.2,144,198.1,144L198.1,144z M190.5,135.7c1,3.4,3.6,6,7,7
		l-0.8-4.1C194.4,138.1,192.3,137.1,190.5,135.7L190.5,135.7z"/>
	
		<ellipse transform="matrix(7.706703e-02 -0.997 0.997 7.706703e-02 74.4246 304.9319)" class="st1" cx="201.9" cy="112.3" rx="2" ry="0.8"/>
	<path class="st0" d="M149.1,180.2l-10.4,18.3l-27.1-27.8c0,0,2.2-11.8-0.7-10.9c-1.8,0.7-3.5,1.9-4.6,3.4c0,0-2.4-16.2-8.7-10.9
		s-3.4,14.7,1.4,23.7c3.6,6.7,35.2,55.5,44,53.5c8.8-2,29.6-46.3,29.6-46.3L149.1,180.2z"/>
	<path class="st1" d="M142.4,230.1c-10,0-40.8-47.9-44-53.8c-4-7.5-8.5-18.3-1.3-24.4c1.3-1.1,2.6-1.5,3.9-1c3.3,1.3,5,8.3,5.5,11.2
		c1.1-1.3,2.6-2.2,4.2-2.7c0.4-0.2,0.9-0.1,1.3,0.2c1.7,1.5,0.5,8.9,0.1,11l26.5,27.1l10.1-17.7c0.1-0.2,0.3-0.3,0.5-0.3l23.3,3
		c0.2,0,0.3,0.1,0.4,0.3c0.1,0.1,0.1,0.3,0,0.5c-0.9,1.8-21.1,44.6-30,46.5C142.7,230.1,142.6,230.1,142.4,230.1z M99.9,151.8
		c-0.8,0.1-1.6,0.4-2.1,1c-5.1,4.3-4.6,11.7,1.5,23.1c3.9,7.3,35.3,55.1,43.4,53.3c7.9-1.8,26.4-40,29-45.4l-22.3-2.9l-10.3,18
		c-0.1,0.1-0.2,0.2-0.4,0.3c-0.2,0-0.3,0-0.4-0.2l-27.1-27.8c-0.1-0.1-0.2-0.3-0.1-0.4c0.7-3.7,1.2-9.4,0.2-10.3c0,0-0.1-0.1-0.3,0
		c-1.7,0.6-3.2,1.8-4.3,3.2c-0.1,0.2-0.3,0.3-0.5,0.2c-0.2,0-0.4-0.2-0.4-0.4c-0.4-2.8-2.1-10.3-5.1-11.4
		C100.4,151.8,100.2,151.8,99.9,151.8z"/>
	<path class="st0" d="M228.4,172.1c0,0,21-5.4,28.9-10.1c8.6-5.1,24.9-37.1,30.2-45.1c2.9-4.4,5-9.2,6.3-14.3
		c0.6-2.3,0.9-3.9-0.2-6.1c-0.2-0.5-4-4.5-4.1-4.1c1-2.9,2-5.6,3.1-8.4c0.3-0.8,0.5-1.8-0.1-2.3c-0.5-0.4-1.3-0.4-1.8,0
		c-0.5,0.4-1,0.9-1.3,1.5l-8.6,15c0.1-1.8-0.3-3.7-1.1-5.4c-0.1-0.3-0.3-0.6-0.6-0.8c-0.9-0.5-1.9,0.8-2.2,1.8
		c-1.5,5.4-0.4,11.9-3.7,16.7c-2.5,3.6-24.9,30.5-24.9,30.5l-19.7,5.1"/>
	<path class="st1" d="M228.4,172.6c-0.3,0-0.5-0.2-0.6-0.4c0-0.3,0.2-0.5,0.4-0.6c0.2-0.1,21-5.5,28.7-10
		c6.2-3.7,16.8-22.3,23.9-34.6c2.5-4.4,4.7-8.3,6.1-10.4c2.8-4.4,4.9-9.2,6.2-14.2c0.6-2.1,0.9-3.7-0.2-5.8
		c-1.1-1.4-2.3-2.6-3.6-3.8c-0.1,0-0.1,0-0.2,0c-0.3-0.1-0.4-0.4-0.3-0.6l0,0c0.6-1.8,1.3-3.6,2-5.4c0.4-1,0.8-2,1.1-3
		c0.4-1,0.3-1.5,0-1.8c-0.4-0.3-0.8-0.3-1.2,0c-0.5,0.4-0.8,0.8-1.1,1.4l-8.7,15c-0.1,0.2-0.4,0.3-0.6,0.2c-0.2-0.1-0.3-0.3-0.3-0.4
		c0.1-1.7-0.3-3.5-1-5.1c-0.1-0.2-0.2-0.4-0.4-0.6c-0.1-0.1-0.3-0.1-0.4,0c-0.5,0.4-0.9,0.9-1,1.5c-0.5,2.1-0.9,4.2-1,6.3
		c-0.3,3.7-0.7,7.4-2.8,10.5c-2.5,3.6-24,29.4-24.9,30.4c-0.1,0.1-0.2,0.1-0.3,0.2l-19.7,5.1c-0.3,0.1-0.5-0.1-0.6-0.4
		c-0.1-0.3,0.1-0.5,0.4-0.6c0,0,0,0,0,0l19.6-5.1c1.7-2,22.3-26.8,24.7-30.2c2-2.9,2.3-6.5,2.7-10.1c0.1-2.2,0.5-4.4,1-6.5
		c0.2-0.9,0.8-1.7,1.6-2.2c0.4-0.2,0.9-0.1,1.2,0.1c0.4,0.2,0.7,0.6,0.9,1c0.6,1.2,0.9,2.5,1.1,3.8l7.8-13.4
		c0.3-0.7,0.8-1.3,1.4-1.7c0.7-0.5,1.8-0.5,2.5,0.1c0.6,0.6,0.7,1.6,0.2,2.9c-0.4,1-0.8,2-1.1,3c-0.6,1.6-1.2,3.2-1.8,4.9
		c1.5,1.2,2.8,2.6,3.9,4.1c1.2,2.4,0.9,4.2,0.3,6.5c-1.3,5.1-3.5,10-6.4,14.5c-1.4,2.1-3.6,5.9-6.1,10.3
		c-7.5,13.1-17.8,31.1-24.2,34.9c-7.8,4.6-28.1,9.9-29,10.1L228.4,172.6z"/>
	<path class="st1" d="M233.4,259.6l-6.6-29.9l-65.5,17.6c0,0,0.1,4.9,0.3,12.3L233.4,259.6z"/>
	<path class="st2" d="M246.6,138.8c0,0-74.5-1.6-84,11.8c-7.4,11.1-13.5,23-18.4,35.4l13.4,12.5c-0.1,17.7,0.8,35.4,2.7,53
		c23.1,4.1,70.9-14.4,70.5-14.6l-6.1-61.9l28.5-8.8L246.6,138.8z"/>
	<path class="st1" d="M156.8,193.8L156.8,193.8c-0.3,0-0.5-0.2-0.5-0.5c0,0,0,0,0,0c0-1.1,0.9-27.5,4.5-36.8
		c0.1-0.3,0.4-0.4,0.6-0.3c0,0,0,0,0,0c0.3,0.1,0.4,0.4,0.3,0.6c0,0,0,0,0,0c-3.6,9.1-4.4,36.2-4.4,36.4
		C157.3,193.6,157.1,193.8,156.8,193.8z"/>
	<path class="st1" d="M214.6,178.2c-0.2,0-0.4-0.1-0.5-0.4c-0.1-0.3,0.1-0.6,0.4-0.6l21.1-6c0.3-0.1,0.6,0.1,0.6,0.4
		s-0.1,0.6-0.4,0.6l0,0l-21.1,6C214.7,178.2,214.6,178.2,214.6,178.2z"/>
	<path class="st0" d="M296.9,249.3h-36.8c-2.1,0-3.9-1.7-3.9-3.9c0,0,0,0,0,0v-40.7c0-2.1,1.7-3.9,3.9-3.9l0,0h32.5l8.2,8v36.5
		C300.8,247.5,299.1,249.2,296.9,249.3C296.9,249.3,296.9,249.3,296.9,249.3z"/>
	<path class="st1" d="M296.9,249.8h-36.8c-2.4,0-4.4-2-4.4-4.4l0,0v-40.7c0-2.4,2-4.4,4.4-4.4h32.5c0.1,0,0.3,0,0.4,0.1l8.2,8
		c0.1,0.1,0.1,0.2,0.2,0.4v36.5C301.3,247.8,299.4,249.7,296.9,249.8z M260.1,201.3c-1.9,0-3.4,1.5-3.4,3.4v40.7
		c0,1.9,1.5,3.4,3.4,3.4l0,0h36.8c1.9,0,3.4-1.5,3.4-3.4V209l-7.9-7.7H260.1z"/>
	<circle class="st2" cx="247.8" cy="51.8" r="1.7"/>
	<circle class="st3" cx="253.7" cy="51.8" r="1.7"/>
	<circle class="st3" cx="259.6" cy="51.8" r="1.7"/>
	<path class="st3" d="M292.3,78.6c-0.1,0-0.2,0-0.3-0.1c-0.2-0.2-0.2-0.5-0.1-0.7l4.4-5.2c0.1-0.1,0.2-0.2,0.4-0.2h11
		c0.3,0,0.5,0.2,0.5,0.5s-0.2,0.5-0.5,0.5h-10.8l-4.2,5.1C292.6,78.6,292.4,78.6,292.3,78.6z"/>
	<polygon class="st2" points="292.6,200.8 292.6,209 300.8,208.8 	"/>
	<path class="st1" d="M292.6,209.5c-0.1,0-0.3-0.1-0.3-0.1c-0.1-0.1-0.2-0.2-0.2-0.4v-8.2c0-0.2,0.1-0.4,0.3-0.5
		c0.2-0.1,0.4,0,0.5,0.1l8.2,8c0.2,0.2,0.2,0.5,0,0.7c-0.1,0.1-0.2,0.1-0.3,0.1L292.6,209.5L292.6,209.5z M293.1,202v6.5l6.5-0.2
		L293.1,202z"/>
	<path class="st2" d="M104.7,222.2h10.4c1.5,0,2.8,1.2,2.8,2.8v10.4c0,1.5-1.2,2.8-2.8,2.8h-10.4c-1.5,0-2.8-1.2-2.8-2.8V225
		C101.9,223.5,103.1,222.2,104.7,222.2z"/>
	<path class="st0" d="M101.6,217.1h10.8c1.4,0,2.6,1.2,2.6,2.6v10.8c0,1.4-1.2,2.6-2.6,2.6h-10.8c-1.4,0-2.6-1.2-2.6-2.6v-10.8
		C99,218.3,100.1,217.1,101.6,217.1z"/>
	<path class="st1" d="M112.4,233.6h-10.8c-1.7,0-3.1-1.4-3.1-3.1c0,0,0,0,0,0v-10.8c0-1.7,1.4-3.1,3.1-3.1h10.8
		c1.7,0,3.1,1.4,3.1,3.1v10.8C115.4,232.2,114.1,233.6,112.4,233.6z M101.6,217.6c-1.2,0-2.1,0.9-2.1,2.1c0,0,0,0,0,0v10.8
		c0,1.2,0.9,2.1,2.1,2.1h10.8c1.2,0,2.1-0.9,2.1-2.1v-10.8c0-1.2-0.9-2.1-2.1-2.1H101.6z"/>
	<path class="st2" d="M276.3,240.2v-2.4c-0.9-0.2-1.7-0.4-2.5-0.7c-1.6-0.5-3-1.5-3.9-2.9c-0.8-1.2-1.2-2.6-1.1-4.1h4.7
		c0.1,1.7,1.2,3.1,2.9,3.5v-6.4c-0.9-0.3-1.9-0.5-2.8-0.8c-1-0.3-2-0.8-2.7-1.6c-0.8-0.8-1.3-1.8-1.5-2.9c-0.3-1.4-0.2-2.8,0.3-4.1
		c0.7-1.9,2.2-3.4,4.1-4.1c0.8-0.2,1.6-0.4,2.4-0.6l0.3-0.1v-3.3h4.4v0.3c0,0.9,0,1.8,0,2.7c0,0.2,0.1,0.3,0.3,0.3
		c1.5,0.3,2.9,0.9,4.1,1.9c1.2,1,2.1,2.5,2.3,4.1c0.1,0.4,0.1,0.9,0.2,1.3h-4.8c0-1.3-0.8-2.5-2-3v5.9l0.5,0.1
		c1.3,0.2,2.5,0.6,3.7,1.2c1.8,0.8,3.1,2.5,3.2,4.5c0.3,1.8-0.2,3.7-1.2,5.2c-0.9,1.2-2.1,2.1-3.5,2.6c-0.9,0.3-1.8,0.5-2.7,0.8v2.3
		L276.3,240.2z M280.7,228.1v5.5c0.7-0.1,1.4-0.4,1.9-0.9c1-0.8,1.2-2.4,0.3-3.4c-0.1-0.2-0.3-0.3-0.5-0.4
		C282,228.6,281.3,228.3,280.7,228.1z M276.3,222.5v-5.3c-0.6,0.3-1.1,0.5-1.7,0.9c-1,0.7-1.3,2.2-0.5,3.2c0.2,0.3,0.4,0.5,0.7,0.6
		C275.3,222.1,275.8,222.2,276.3,222.5L276.3,222.5z"/>
	<rect x="84.6" y="68.1" class="st3" width="44.7" height="26.6"/>
</g>
</svg>
