<svg xmlns="http://www.w3.org/2000/svg" viewBox="0 0 400 300" width="406" height="306" class="illustration styles_illustrationTablet__1DWOa"><g id="_43_time" data-name="#43_time"><path d="M122.72,234.33l-12.66,14.83s-24.5-13.75-23.6-16.46,16.82,1.38,16.82,1.38l7.9-10.24" fill="#fff"></path><path d="M110.06,249.66a.45.45,0,0,1-.25-.07c-7.47-4.19-24.75-14.25-23.82-17.05s12.93-.08,17.1,1l7.7-10a.51.51,0,0,1,.7-.09.5.5,0,0,1,.09.7l-7.9,10.24a.5.5,0,0,1-.52.18c-7.47-1.92-15.77-3.06-16.23-1.7-.22,1.55,11.7,9.3,23,15.67L122.34,234a.5.5,0,0,1,.76.64l-12.67,14.83A.46.46,0,0,1,110.06,249.66Z" fill="#231f20"></path><path d="M163.46,93.56A9.67,9.67,0,0,0,158.64,91c-1.56-.23-2.42.43-3.72,1-.52.23-.58,1-1.13,1.23s-1.68-.34-2.31-.36a10.9,10.9,0,0,0-8.92,3.83,22.74,22.74,0,0,0-3.12,6.18c-3.74,9.44-9.47,18.92-18.78,23,8.41,6,18.69,9.81,29,9.21A34.65,34.65,0,0,0,164.05,131c3.49-1.89,9.83-5.8,10.46-10.14.59-4.07-1.34-10.31-2.62-14.15A29.84,29.84,0,0,0,163.46,93.56Z" fill="#fff"></path><path d="M147.54,135.63c-9.13,0-18.69-3.28-27.17-9.36a.51.51,0,0,1-.2-.46.49.49,0,0,1,.29-.4c7.74-3.38,13.8-10.82,18.52-22.72l.21-.54a21.72,21.72,0,0,1,3-5.78,11.35,11.35,0,0,1,9.32-4,4.38,4.38,0,0,1,1,.2,3.1,3.1,0,0,0,1.09.18c.11,0,.21-.22.32-.4a1.68,1.68,0,0,1,.76-.81c.25-.11.48-.23.7-.34a5.2,5.2,0,0,1,3.3-.73,10.36,10.36,0,0,1,5.08,2.71h0a30.48,30.48,0,0,1,8.57,13.37c1.42,4.24,3.23,10.33,2.64,14.39-.62,4.22-6.16,8-10.71,10.5a35.33,35.33,0,0,1-14.59,4.13Q148.62,135.63,147.54,135.63ZM121.66,126c8.79,6.09,18.69,9.15,28,8.61a34,34,0,0,0,14.17-4c6.15-3.33,9.77-6.79,10.2-9.77.56-3.84-1.21-9.79-2.59-13.92a29.48,29.48,0,0,0-8.29-12.94h0a9.35,9.35,0,0,0-4.56-2.47,4.17,4.17,0,0,0-2.72.64c-.23.11-.47.23-.73.34a1,1,0,0,0-.31.41,1.68,1.68,0,0,1-.86.84,3.08,3.08,0,0,1-1.67-.16,4.92,4.92,0,0,0-.81-.17A10.38,10.38,0,0,0,142.94,97a20.49,20.49,0,0,0-2.82,5.51l-.22.54C135.24,114.81,129.27,122.31,121.66,126Z" fill="#231f20"></path><path d="M146.09,125.43c1.66-1.75-4.35-.39-4.91,11.09-.43,8.76,2.4,23.07,2.4,23.07l-18.82,15.74,11.63,3.32s21.21-15.42,21.2-16.55S146.09,125.43,146.09,125.43Z" fill="#fff"></path><path d="M136.39,179.11a.3.3,0,0,1-.13,0l-11.63-3.32a.47.47,0,0,1-.32-.35.47.47,0,0,1,.16-.44l18.61-15.56c-.38-2-2.76-14.86-2.36-22.92.41-8.31,3.7-11.76,5.23-12.12a.69.69,0,0,1,.81.26.8.8,0,0,1-.16.89C148.69,132,158,161,158.05,162.1s-11.63,9.82-21.39,16.92A.46.46,0,0,1,136.39,179.11Zm-10.68-4,10.59,3c7.73-5.62,19.93-14.76,20.82-16.11-.31-1.69-7-22.6-11.47-36.47v0c-1.17.87-3.66,3.85-4,11-.42,8.61,2.37,22.82,2.4,23a.47.47,0,0,1-.16.44Zm31.85-12.94h0Z" fill="#231f20"></path><ellipse cx="195.15" cy="253.35" rx="108.69" ry="6.91" fill="#d1d3d4"></ellipse><path d="M179.22,115.92c-.69-.54-31.28,1.36-36.56,11.57s13.72,41,13.72,41l38.69-11.59S197.83,130.48,179.22,115.92Z" fill="#00e690"></path><path d="M301.41,205.93c5,23-11.6,39.73-11.6,39.73H172.92S156.34,229,161.31,205.93s40.2-35.64,50.91-45.1,6.89-25.54-9.95-37.84-39.64-20.1-39-46.67c.38-17,13.78-28.07,13.78-28.07H285.72s13.4,11,13.78,28.07c.6,26.57-22.2,34.37-39.05,46.67s-20.67,28.38-9.95,37.84S296.44,182.91,301.41,205.93Z" fill="#fff"></path><path d="M289.81,246.12H172.92a.47.47,0,0,1-.33-.14c-.16-.17-16.69-17.15-11.72-40.15,3.6-16.66,23.06-28.06,37.27-36.38,5.78-3.38,10.76-6.3,13.78-9a16.42,16.42,0,0,0,5.83-13.41c-.37-8-6.11-16.69-15.75-23.72-3.31-2.42-6.93-4.71-10.43-6.93-14.4-9.11-29.28-18.54-28.8-40.12.38-17,13.81-28.3,13.95-28.41a.44.44,0,0,1,.29-.11H285.72a.46.46,0,0,1,.29.11c.13.11,13.56,11.37,13.95,28.41.48,21.58-14.41,31-28.81,40.12-3.49,2.22-7.11,4.51-10.43,6.93-9.63,7-15.37,15.68-15.74,23.72a16.41,16.41,0,0,0,5.82,13.41c3,2.66,8,5.58,13.78,9,14.21,8.32,33.68,19.72,37.28,36.38,5,23-11.56,40-11.73,40.15A.43.43,0,0,1,289.81,246.12Zm0-.46h0Zm-116.7-.46h116.5c1.53-1.63,16-17.75,11.36-39.18-3.52-16.27-22.79-27.54-36.85-35.78-5.81-3.4-10.84-6.34-13.92-9.07A17.28,17.28,0,0,1,244.06,147c.39-8.32,6.26-17.22,16.12-24.42,3.35-2.44,7-4.74,10.49-7,14.18-9,28.84-18.27,28.37-39.33-.35-15.75-12.15-26.46-13.49-27.62H177.18c-1.34,1.16-13.14,11.87-13.5,27.62-.47,21.06,14.2,30.35,28.38,39.33,3.51,2.22,7.14,4.52,10.48,7,9.86,7.2,15.74,16.1,16.12,24.42a17.27,17.27,0,0,1-6.13,14.13c-3.09,2.73-8.11,5.67-13.92,9.07-14.07,8.24-33.33,19.51-36.85,35.78C157.13,227.45,171.58,243.57,173.11,245.2Z" fill="#231f20"></path><path d="M196.79,110.72c3.61,2.29,7.35,4.65,10.89,7.24a48.23,48.23,0,0,1,18,23.8C228.9,151,228,160.84,230,170.39a2.39,2.39,0,0,0,1.07,1.83,2.42,2.42,0,0,0,2.71-.61,4.51,4.51,0,0,0,.92-2.42c1.26-7.66,1.2-14.89,1.68-22.65C237,136.62,243.75,126.2,255,118c3.55-2.59,7.28-4.95,10.9-7.24,8.14-5.16,40-27.94,18.82-34.76-4.53-1.45-9.58-1.06-14.41-.64l-75.72,6.52c-4.39.38-8.87.78-12.88,2.3s-7.53,4.38-8.24,8C172.17,99,190.87,107,196.79,110.72Z" fill="#00e690"></path><path d="M289.9,204a23.62,23.62,0,0,0-15.51-4.87c-7.74.28-15.27,2.81-23,2.44-9.21-.44-17.91-5-27.07-4.06-10.75,1.06-18.55,9.21-29,11.63-5.55,1.28-11.59.87-17,2.54-6.38,2-9.17,7.37-8.43,12.67.23,1.65,4.74,14.61,7.27,14.61H285.53c5.57,0,9.77-23.8,9.21-27.1A13.07,13.07,0,0,0,289.9,204Z" fill="#00e690"></path><rect x="170.76" y="39.74" width="121.2" height="8.51" rx="4.26" fill="#231f20"></rect><path d="M287.71,48.69H175a4.7,4.7,0,0,1,0-9.4H287.71a4.7,4.7,0,0,1,0,9.4ZM175,40.18a3.82,3.82,0,1,0,0,7.63H287.71a3.82,3.82,0,0,0,0-7.63Z" fill="#231f20"></path><rect x="168.59" y="245.66" width="125.55" height="8.51" rx="4.26" fill="#231f20"></rect><path d="M289.88,254.62h-117a4.7,4.7,0,0,1,0-9.4h117a4.7,4.7,0,1,1,0,9.4Zm-117-8.52a3.82,3.82,0,0,0,0,7.64h117a3.82,3.82,0,0,0,0-7.64Z" fill="#231f20"></path><path d="M229.64,176c-3.24,0-3.25,10.72,0,10.72S232.89,176,229.64,176Z" fill="#00e690"></path><path d="M235.31,186.7c-1.31,0-1.31,3.79,0,3.79S236.63,186.7,235.31,186.7Z" fill="#00e690"></path><path d="M227.3,100.74a157.34,157.34,0,0,1-43.93-6.65.44.44,0,0,1-.29-.57.46.46,0,0,1,.58-.29c.62.21,62.72,20.36,96-10.78a.46.46,0,0,1,.63.67C265.61,96.85,245.44,100.74,227.3,100.74Z" fill="#231f20"></path><path d="M213.29,221.64a121.56,121.56,0,0,1-34.51-5,.46.46,0,1,1,.29-.87c.33.12,34.08,11.17,64.58,0l36.17-13.25a.46.46,0,1,1,.31.86L244,216.61A89.7,89.7,0,0,1,213.29,221.64Z" fill="#231f20"></path><path d="M258.44,204.81l-.11,0c-10.42-2.57-28.61-6.94-28.8-7a.46.46,0,0,1,.22-.89c.18.05,18.37,4.41,28.8,7a.45.45,0,0,1,.34.55A.46.46,0,0,1,258.44,204.81Z" fill="#231f20"></path><path d="M164.07,117.65l2.16,6.76s.11,3.37-4.75,3.76-6.54-2.49-6.54-2.49l-3.56-12.75s5.82-6.06,2.46-13a9.71,9.71,0,0,0,11,1.76,86,86,0,0,1,2.82,10.1C168.27,115.46,164.07,117.65,164.07,117.65Z" fill="#fff"></path><path d="M160.58,128.7c-4.4,0-6-2.65-6.07-2.77a.61.61,0,0,1,0-.12l-3.57-12.74a.52.52,0,0,1,.12-.48c.06-.06,5.54-5.91,2.38-12.43a.5.5,0,0,1,.81-.56,9.16,9.16,0,0,0,10.44,1.65.47.47,0,0,1,.4,0,.44.44,0,0,1,.28.3,82.51,82.51,0,0,1,2.84,10.18c.55,3.34-2.42,5.5-3.49,6.16l2,6.38a.59.59,0,0,1,0,.13s.06,3.85-5.21,4.27C161.19,128.69,160.88,128.7,160.58,128.7Zm-5.18-3.23c.24.36,1.87,2.53,6,2.2s4.28-2.75,4.29-3.18l-2.13-6.68a.5.5,0,0,1,.24-.6s3.87-2.07,3.33-5.33a79.11,79.11,0,0,0-2.62-9.5,10,10,0,0,1-9.59-.92c1.65,5.68-2.11,10.53-3,11.6Z" fill="#231f20"></path><path d="M153.39,111.87a3.19,3.19,0,0,0-1.52-1.24,5.4,5.4,0,0,0-1.84-.27,2.12,2.12,0,0,0-1,.14,1.71,1.71,0,0,0-.56.44,2.3,2.3,0,0,0-.71,1.49,2.77,2.77,0,0,0,.36,1.31,5.43,5.43,0,0,0,.8,1.25,3.75,3.75,0,0,0,5.33.31" fill="#fff"></path><path d="M151.73,116.77h-.24a4.26,4.26,0,0,1-3-1.44,6,6,0,0,1-.87-1.36,3.36,3.36,0,0,1-.41-1.54,2.84,2.84,0,0,1,.84-1.82,2.4,2.4,0,0,1,.72-.56,2.77,2.77,0,0,1,1.23-.18,5.79,5.79,0,0,1,2,.3,3.63,3.63,0,0,1,1.76,1.45.49.49,0,0,1-.16.69.51.51,0,0,1-.69-.16,2.58,2.58,0,0,0-1.26-1,5.18,5.18,0,0,0-1.68-.24,1.75,1.75,0,0,0-.78.09,1.5,1.5,0,0,0-.41.33,1.94,1.94,0,0,0-.57,1.17,2.3,2.3,0,0,0,.31,1.07,5,5,0,0,0,.72,1.14,3.33,3.33,0,0,0,2.26,1.1,3.25,3.25,0,0,0,2.36-.83.5.5,0,0,1,.71,0,.49.49,0,0,1,0,.7A4.26,4.26,0,0,1,151.73,116.77Z" fill="#231f20"></path><path d="M160.24,106.85s3.61,2.62,3.28,3.43-2,1-2,1" fill="#fff"></path><path d="M161.49,111.76a.5.5,0,0,1-.05-1c.59-.06,1.48-.33,1.62-.67a13.38,13.38,0,0,0-3.11-2.84.5.5,0,0,1-.11-.69.49.49,0,0,1,.7-.11c2.6,1.89,3.76,3.24,3.45,4-.43,1-2.11,1.25-2.44,1.28Z" fill="#231f20"></path><ellipse cx="157.59" cy="106.16" rx="0.61" ry="0.86" transform="translate(-32.36 101.21) rotate(-32.47)" fill="#231f20"></ellipse><ellipse cx="161.44" cy="104.76" rx="0.61" ry="0.86" transform="translate(-31.01 103.05) rotate(-32.47)" fill="#231f20"></ellipse><path d="M164.61,112s-4.84,5.13-7.37,0" fill="#fff"></path><path d="M160.27,114.8a2.92,2.92,0,0,1-.51,0,4,4,0,0,1-3-2.52.51.51,0,0,1,.23-.67.5.5,0,0,1,.67.23,3.12,3.12,0,0,0,2.22,2c2,.31,4.32-2.07,4.34-2.09a.5.5,0,0,1,.71,0,.51.51,0,0,1,0,.71C164.88,112.47,162.65,114.8,160.27,114.8Z" fill="#231f20"></path><path d="M164.07,117.65s-3.53,1-5.45.57c0,0,2.55,3.63,6.68,3.52Z" fill="#231f20"></path><path d="M165.12,122.24c-4.24,0-6.8-3.58-6.91-3.74a.5.5,0,0,1,.53-.77c1.77.44,5.16-.54,5.19-.55a.5.5,0,0,1,.62.33l1.23,4.08a.49.49,0,0,1-.07.44.51.51,0,0,1-.39.21Zm-5.3-3.4a8,8,0,0,0,4.81,2.38l-.89-3a16.92,16.92,0,0,1-3.91.58Z" fill="#231f20"></path><path d="M195.07,156.94s0,19.52-2.27,27.76c-6.46,23.36-53.63,60.68-53.63,60.68L128.72,235l28.73-41.38-34.73,40.67-11.54-10.49,45.2-55.31Z" fill="#231f20"></path><path d="M139.17,245.88a.52.52,0,0,1-.35-.14L128.37,235.4a.5.5,0,0,1-.06-.64l23.05-33.21-28.26,33.1a.48.48,0,0,1-.35.18.47.47,0,0,1-.36-.13l-11.54-10.49a.5.5,0,0,1,0-.69L156,168.21a.49.49,0,0,1,.24-.16l38.69-11.59a.53.53,0,0,1,.44.08.52.52,0,0,1,.2.4c0,.8,0,19.68-2.29,27.9-2.7,9.77-12.58,23-29.37,39.32-12.47,12.13-24.31,21.52-24.43,21.61A.51.51,0,0,1,139.17,245.88ZM129.37,235l9.83,9.73c4.3-3.46,47.07-38.26,53.12-60.15,2-7.23,2.22-23.46,2.25-27L156.67,169l-44.8,54.83,10.81,9.83,34.39-40.28a.49.49,0,0,1,.68-.07.48.48,0,0,1,.1.67Z" fill="#231f20"></path><path d="M128.72,235l-7.5,8.33s-12.29-4.13-11.75-1.8,16.54,15.33,17.35,15.6,12.35-11.79,12.35-11.79" fill="#fff"></path><path d="M126.81,257.67l-.14,0c-1-.33-17.09-13.43-17.68-16a.93.93,0,0,1,.27-.94c1.37-1.24,9,1.13,11.81,2l7.28-8.08a.5.5,0,0,1,.74.67l-7.5,8.32a.5.5,0,0,1-.53.14c-5.44-1.83-10.54-2.9-11.13-2.36.5,2,15.14,14,16.95,15.16,1.17-.66,6.92-6.37,11.93-11.6a.49.49,0,0,1,.7,0,.5.5,0,0,1,0,.71C129.05,256.69,127.32,257.67,126.81,257.67Z" fill="#231f20"></path><path d="M140.38,238.91a.43.43,0,0,1-.34-.16.43.43,0,0,1,.05-.62c.39-.33,38.86-33.17,46.51-51.7,7.58-18.35,3.59-25.67,3.55-25.74a.44.44,0,0,1,.77-.44c.17.3,4.28,7.69-3.5,26.52s-46.37,51.7-46.76,52A.43.43,0,0,1,140.38,238.91Z" fill="#fff"></path><path d="M160.24,177.89a.46.46,0,0,1-.3-.12.43.43,0,0,1,0-.62l9.68-10.56a.45.45,0,0,1,.49-.11.44.44,0,0,1,.28.41v7.86a.44.44,0,1,1-.88,0V168l-8.92,9.72A.47.47,0,0,1,160.24,177.89Z" fill="#fff"></path><polygon points="150.67 183.1 163.54 168.53 131.62 168.53 114.49 185.51 150.67 183.1" fill="#fff"></polygon><path d="M114.49,186a.46.46,0,0,1-.42-.27.46.46,0,0,1,.09-.51l17.14-17a.48.48,0,0,1,.32-.13h31.92a.45.45,0,0,1,.42.27.49.49,0,0,1-.07.49L151,183.41a.46.46,0,0,1-.31.15L114.52,186Zm17.32-17-16.13,16,34.77-2.31L162.53,169Zm18.86,14.12h0Z" fill="#231f20"></path><path d="M174.51,120.86s7.86,31.55,5.68,32.55-29.42,9.7-30.93,10.36-5.18,3.32-5.85,4.76-1.28,7.15,0,6.78a47.39,47.39,0,0,0,5.52-1.65c1-.52,2.45-3.53,2.45-3.53s-.18,2.91,1.19,2.29,3.81-3.89,3.81-3.89,34.35-1.17,37.69-8.06,1.51-21.77-4-33.14S175,113.9,174.51,120.86Z" fill="#fff"></path><path d="M143.3,175.79a.82.82,0,0,1-.63-.31c-.93-1.09-.24-5.93.33-7.15.73-1.57,4.47-4.26,6.08-5,.68-.3,6.17-2.1,12.54-4.19,8-2.63,17.18-5.62,18.38-6.18,1-1.19-2.25-17.22-5.94-32a.76.76,0,0,1,0-.15c.17-2.39,1.39-4,3.35-4.35,3.6-.69,9.23,2.74,13.07,10.65,5.59,11.52,7.39,26.57,4,33.54s-34.65,8.18-37.86,8.3c-.57.75-2.56,3.28-3.86,3.87a1.09,1.09,0,0,1-1.11-.05,1.76,1.76,0,0,1-.61-1.06,6.65,6.65,0,0,1-1.9,2.34,28.88,28.88,0,0,1-4.27,1.32c-.53.14-1,.26-1.33.36A1,1,0,0,1,143.3,175.79Zm31.67-55c.2.81,2.05,8.31,3.64,15.84,3.46,16.37,2.37,16.88,1.78,17.15-1.25.58-10.41,3.58-18.49,6.22-6.08,2-11.82,3.87-12.45,4.15-1.55.69-5,3.29-5.63,4.53s-1,5.71-.45,6.18a7.61,7.61,0,0,1,1.27-.39,30.73,30.73,0,0,0,4.08-1.25c.63-.33,1.71-2.22,2.24-3.33a.46.46,0,0,1,.87.22,3.12,3.12,0,0,0,.34,1.89c.05,0,.14,0,.22,0,1-.47,3-2.87,3.63-3.76a.44.44,0,0,1,.35-.18c.08,0,8.67-.3,17.55-1.44,14.68-1.88,18.84-4.5,19.74-6.36,3.27-6.75,1.47-21.44-4-32.75-3.6-7.4-8.91-10.75-12.07-10.14C176.05,117.67,175.13,118.89,175,120.83Z" fill="#231f20"></path><path d="M150.67,183.1c-1.22-1.75-17.12-28-17.12-28l-37.46,3.68,18.4,26.75Z" fill="#fff"></path><path d="M114.49,186a.47.47,0,0,1-.38-.2L95.72,159a.46.46,0,0,1,0-.45.47.47,0,0,1,.37-.27l37.45-3.67a.45.45,0,0,1,.44.21c.16.27,15.91,26.28,17.1,28a.45.45,0,0,1,0,.46.46.46,0,0,1-.38.26L114.52,186ZM96.91,159.14l17.8,25.9,35.15-2.34c-2.66-4.2-15-24.5-16.56-27.14Z" fill="#231f20"></path><path d="M127.51,171.77a8,8,0,0,0-2.51-3.06,4.59,4.59,0,0,0-2.33-1,2.47,2.47,0,0,0-2.23,1,3,3,0,0,0-.37,1.94,5.49,5.49,0,0,0,2.27,4C124.63,176.19,129.19,175.34,127.51,171.77Z" fill="#fff"></path><path d="M124.92,175.83a5.09,5.09,0,0,1-2.83-.82,5.85,5.85,0,0,1-2.47-4.3,3.35,3.35,0,0,1,.44-2.23,2.92,2.92,0,0,1,2.65-1.19,5,5,0,0,1,2.57,1.05,8.53,8.53,0,0,1,2.64,3.23h0c.9,1.92.12,3-.43,3.45A4,4,0,0,1,124.92,175.83Zm-2.45-7.64a2,2,0,0,0-1.65.79,2.55,2.55,0,0,0-.3,1.64,5,5,0,0,0,2.08,3.64,4,4,0,0,0,4.3.07c.62-.53.68-1.33.2-2.37a7.61,7.61,0,0,0-2.37-2.88,4,4,0,0,0-2.09-.88Z" fill="#231f20"></path><path d="M122.76,170.3a21.73,21.73,0,0,1,1.2,1.87l.8-1.87" fill="#fff"></path><path d="M124,172.63a.45.45,0,0,1-.39-.23c-.43-.72-1-1.57-1.1-1.75a.47.47,0,0,1-.16-.36.45.45,0,0,1,.45-.45c.26,0,.33,0,1.13,1.33l.45-1a.46.46,0,0,1,.6-.25.46.46,0,0,1,.24.6l-.8,1.88a.48.48,0,0,1-.39.28Z" fill="#231f20"></path></g></svg>